<?xml version="1.0" encoding="utf-8"?>
<!-- Generator: Adobe Illustrator 16.0.4, SVG Export Plug-In . SVG Version: 6.00 Build 0)  -->
<!DOCTYPE svg PUBLIC "-//W3C//DTD SVG 1.1//EN" "http://www.w3.org/Graphics/SVG/1.1/DTD/svg11.dtd">
<svg version="1.1" id="Calque_1" xmlns="http://www.w3.org/2000/svg" xmlns:xlink="http://www.w3.org/1999/xlink" x="0px" y="0px"
	 width="600px" height="600px" viewBox="0 0 600 600" enable-background="new 0 0 600 600" xml:space="preserve">
<g>
	<path fill="#FFFFFF" d="M125.547,255.778c0.211-0.04,0.438-0.069,0.679-0.089c0.241-0.02,0.496-0.03,0.766-0.03
		c0.25,0,0.5,0.01,0.751,0.03c0.25,0.02,0.491,0.05,0.722,0.089v18.733h8.147c0.039,0.219,0.062,0.447,0.072,0.685
		s0.015,0.457,0.015,0.655c0,0.477-0.029,0.923-0.087,1.34h-11.064V255.778z"/>
	<path fill="#FFFFFF" d="M139.848,255.778h11.411c0.058,0.397,0.087,0.834,0.087,1.311c0,0.219-0.005,0.447-0.015,0.685
		s-0.034,0.457-0.072,0.655h-8.464v6.135h6.76c0.038,0.199,0.067,0.412,0.086,0.64c0.019,0.229,0.029,0.452,0.029,0.67
		s-0.01,0.446-0.029,0.685c-0.02,0.238-0.048,0.457-0.086,0.655h-6.76v7.327h8.696c0.058,0.397,0.086,0.834,0.086,1.311
		c0,0.219-0.005,0.447-0.014,0.685c-0.01,0.238-0.034,0.457-0.072,0.655h-11.643V255.778z"/>
	<path fill="#FFFFFF" d="M175.439,274.065c0.423,0.854,0.693,1.678,0.809,2.472c-0.809,0.357-1.637,0.616-2.485,0.774
		s-1.762,0.238-2.744,0.238c-1.502,0-2.856-0.253-4.059-0.759c-1.204-0.506-2.22-1.231-3.048-2.174
		c-0.829-0.943-1.464-2.089-1.907-3.44c-0.443-1.35-0.665-2.869-0.665-4.557c0-1.707,0.221-3.251,0.665-4.631
		c0.443-1.38,1.078-2.557,1.907-3.529c0.828-0.973,1.839-1.723,3.033-2.249c1.194-0.526,2.532-0.789,4.016-0.789
		c1.098,0,2.042,0.08,2.831,0.238c0.79,0.159,1.493,0.348,2.109,0.566c-0.039,0.457-0.121,0.878-0.246,1.266
		c-0.125,0.387-0.274,0.8-0.448,1.236c-0.289-0.099-0.568-0.188-0.838-0.268c-0.27-0.079-0.559-0.149-0.867-0.208
		c-0.309-0.06-0.65-0.104-1.026-0.134c-0.375-0.03-0.804-0.044-1.285-0.044c-2.1,0-3.732,0.734-4.897,2.204
		c-1.166,1.47-1.748,3.584-1.748,6.344c0,1.41,0.164,2.631,0.491,3.664c0.327,1.033,0.79,1.887,1.387,2.562
		c0.597,0.675,1.314,1.181,2.152,1.519c0.838,0.338,1.777,0.506,2.817,0.506c0.809,0,1.541-0.069,2.195-0.208
		C174.245,274.522,174.862,274.323,175.439,274.065z"/>
	<path fill="#FFFFFF" d="M180.033,255.778c0.231-0.04,0.472-0.069,0.722-0.089c0.25-0.02,0.5-0.03,0.751-0.03
		c0.25,0,0.5,0.01,0.751,0.03c0.25,0.02,0.491,0.05,0.723,0.089v8.816h8.84v-8.816c0.212-0.04,0.443-0.069,0.693-0.089
		c0.25-0.02,0.501-0.03,0.751-0.03c0.25,0,0.505,0.01,0.766,0.03c0.26,0.02,0.505,0.05,0.736,0.089v21.414
		c-0.212,0.04-0.443,0.069-0.693,0.089c-0.25,0.02-0.51,0.03-0.78,0.03c-0.25,0-0.505-0.01-0.766-0.03
		c-0.26-0.02-0.496-0.05-0.708-0.089v-9.918h-8.84v9.918c-0.231,0.04-0.467,0.069-0.708,0.089c-0.241,0.02-0.496,0.03-0.766,0.03
		c-0.25,0-0.505-0.01-0.766-0.03c-0.26-0.02-0.496-0.05-0.708-0.089V255.778z"/>
	<path fill="#FFFFFF" d="M210.078,272.249h-7.887l-1.416,4.944c-0.25,0.04-0.501,0.069-0.751,0.089
		c-0.25,0.02-0.501,0.03-0.751,0.03c-0.27,0-0.534-0.01-0.794-0.03c-0.26-0.02-0.496-0.05-0.708-0.089l6.76-21.414
		c0.25-0.04,0.52-0.069,0.809-0.089c0.289-0.02,0.587-0.03,0.896-0.03c0.27,0,0.549,0.01,0.838,0.03
		c0.289,0.02,0.568,0.05,0.838,0.089l6.731,21.414c-0.231,0.04-0.491,0.069-0.78,0.089c-0.289,0.02-0.568,0.03-0.838,0.03
		c-0.25,0-0.505-0.01-0.765-0.03c-0.26-0.02-0.506-0.05-0.737-0.089L210.078,272.249z M202.971,269.598h6.327l-3.178-10.931
		L202.971,269.598z"/>
	<path fill="#FFFFFF" d="M217.676,255.778c0.211-0.04,0.438-0.069,0.679-0.089c0.241-0.02,0.467-0.03,0.679-0.03
		s0.438,0.01,0.679,0.03c0.241,0.02,0.467,0.05,0.679,0.089l9.042,16.083v-16.083c0.231-0.04,0.472-0.069,0.722-0.089
		c0.25-0.02,0.501-0.03,0.751-0.03c0.211,0,0.433,0.01,0.665,0.03c0.231,0.02,0.452,0.05,0.664,0.089v21.414
		c-0.212,0.04-0.438,0.069-0.679,0.089c-0.241,0.02-0.467,0.03-0.679,0.03c-0.212,0-0.438-0.01-0.679-0.03
		c-0.241-0.02-0.467-0.05-0.679-0.089l-9.071-15.994v15.994c-0.212,0.04-0.438,0.069-0.679,0.089c-0.241,0.02-0.477,0.03-0.708,0.03
		c-0.25,0-0.496-0.01-0.737-0.03c-0.241-0.02-0.458-0.05-0.65-0.089V255.778z"/>
	<path fill="#FFFFFF" d="M249.339,266.113c0.231-0.04,0.472-0.069,0.722-0.089c0.25-0.02,0.5-0.03,0.751-0.03
		c0.25,0,0.501,0.01,0.751,0.03c0.25,0.02,0.481,0.049,0.693,0.089v10.454c-0.405,0.179-0.848,0.333-1.329,0.462
		c-0.481,0.129-0.982,0.228-1.502,0.297s-1.04,0.124-1.56,0.164c-0.52,0.04-1.011,0.06-1.473,0.06c-1.541,0-2.928-0.249-4.16-0.745
		c-1.233-0.496-2.273-1.216-3.12-2.159c-0.848-0.943-1.498-2.089-1.95-3.44c-0.453-1.35-0.679-2.879-0.679-4.587
		c0-1.707,0.231-3.251,0.693-4.631c0.462-1.38,1.122-2.557,1.979-3.529c0.856-0.973,1.878-1.723,3.062-2.249
		c1.185-0.526,2.499-0.789,3.944-0.789c1.098,0,2.051,0.074,2.86,0.223s1.541,0.353,2.196,0.611
		c-0.039,0.457-0.121,0.878-0.246,1.266c-0.125,0.387-0.274,0.8-0.448,1.236c-0.54-0.178-1.123-0.337-1.748-0.476
		c-0.626-0.139-1.411-0.208-2.354-0.208c-1.021,0-1.95,0.189-2.788,0.565c-0.837,0.377-1.55,0.929-2.138,1.653
		c-0.587,0.725-1.045,1.619-1.372,2.68c-0.328,1.062-0.491,2.279-0.491,3.648c0,1.41,0.168,2.626,0.505,3.648
		c0.337,1.023,0.813,1.876,1.43,2.562c0.616,0.685,1.343,1.191,2.181,1.519s1.767,0.491,2.788,0.491
		c0.616,0,1.155-0.034,1.618-0.104c0.462-0.069,0.857-0.154,1.185-0.253V266.113z"/>
	<path fill="#FFFFFF" d="M256.995,255.778h11.411c0.058,0.397,0.087,0.834,0.087,1.311c0,0.219-0.005,0.447-0.015,0.685
		s-0.034,0.457-0.072,0.655h-8.464v6.135h6.76c0.038,0.199,0.067,0.412,0.086,0.64c0.019,0.229,0.029,0.452,0.029,0.67
		s-0.01,0.446-0.029,0.685c-0.02,0.238-0.048,0.457-0.086,0.655h-6.76v7.327h8.696c0.058,0.397,0.086,0.834,0.086,1.311
		c0,0.219-0.005,0.447-0.014,0.685c-0.01,0.238-0.034,0.457-0.072,0.655h-11.643V255.778z"/>
	<path fill="#FFFFFF" d="M273.057,255.778c0.231-0.04,0.496-0.069,0.794-0.089c0.298-0.02,0.583-0.03,0.852-0.03
		s0.563,0.01,0.881,0.03c0.318,0.02,0.583,0.05,0.794,0.089l5.374,13.402l5.402-13.402c0.192-0.04,0.434-0.069,0.722-0.089
		c0.289-0.02,0.568-0.03,0.838-0.03c0.25,0,0.53,0.01,0.838,0.03c0.308,0.02,0.568,0.05,0.78,0.089l0.982,21.414
		c-0.231,0.04-0.467,0.069-0.708,0.089c-0.241,0.02-0.486,0.03-0.736,0.03c-0.25,0-0.496-0.01-0.737-0.03
		c-0.241-0.02-0.467-0.05-0.679-0.089l-0.665-16.649l-5.084,12.211c-0.386,0.06-0.78,0.089-1.185,0.089
		c-0.366,0-0.732-0.03-1.098-0.089l-4.911-12.301l-0.665,16.738c-0.212,0.04-0.433,0.069-0.665,0.089
		c-0.231,0.02-0.453,0.03-0.664,0.03c-0.25,0-0.491-0.01-0.723-0.03c-0.231-0.02-0.453-0.05-0.664-0.089L273.057,255.778z"/>
	<path fill="#FFFFFF" d="M296.053,255.778h11.412c0.058,0.397,0.086,0.834,0.086,1.311c0,0.219-0.005,0.447-0.014,0.685
		c-0.011,0.238-0.034,0.457-0.072,0.655H299v6.135h6.76c0.039,0.199,0.067,0.412,0.087,0.64c0.019,0.229,0.029,0.452,0.029,0.67
		s-0.011,0.446-0.029,0.685c-0.02,0.238-0.048,0.457-0.087,0.655H299v7.327h8.695c0.058,0.397,0.087,0.834,0.087,1.311
		c0,0.219-0.005,0.447-0.015,0.685s-0.033,0.457-0.072,0.655h-11.642V255.778z"/>
	<path fill="#FFFFFF" d="M311.538,255.778c0.212-0.04,0.438-0.069,0.68-0.089c0.24-0.02,0.466-0.03,0.679-0.03
		c0.212,0,0.438,0.01,0.679,0.03c0.24,0.02,0.467,0.05,0.679,0.089l9.043,16.083v-16.083c0.23-0.04,0.472-0.069,0.722-0.089
		c0.25-0.02,0.501-0.03,0.751-0.03c0.212,0,0.434,0.01,0.665,0.03c0.23,0.02,0.452,0.05,0.664,0.089v21.414
		c-0.212,0.04-0.438,0.069-0.679,0.089c-0.241,0.02-0.467,0.03-0.679,0.03s-0.438-0.01-0.679-0.03
		c-0.241-0.02-0.468-0.05-0.68-0.089l-9.071-15.994v15.994c-0.212,0.04-0.438,0.069-0.679,0.089c-0.241,0.02-0.477,0.03-0.708,0.03
		c-0.25,0-0.496-0.01-0.736-0.03c-0.241-0.02-0.458-0.05-0.65-0.089V255.778z"/>
	<path fill="#FFFFFF" d="M334.766,258.429h-5.402c-0.039-0.198-0.068-0.417-0.087-0.655c-0.02-0.238-0.029-0.466-0.029-0.685
		c0-0.218,0.01-0.442,0.029-0.67c0.019-0.228,0.048-0.441,0.087-0.64h13.751c0.038,0.199,0.067,0.407,0.087,0.625
		c0.019,0.219,0.028,0.437,0.028,0.655c0,0.219-0.01,0.452-0.028,0.7c-0.02,0.249-0.049,0.472-0.087,0.67h-5.402v18.763
		c-0.443,0.06-0.925,0.089-1.444,0.089c-0.539,0-1.04-0.03-1.502-0.089V258.429z"/>
</g>
</svg>
