<?xml version="1.0" encoding="utf-8"?>
<!-- Generator: Adobe Illustrator 16.0.4, SVG Export Plug-In . SVG Version: 6.00 Build 0)  -->
<!DOCTYPE svg PUBLIC "-//W3C//DTD SVG 1.1//EN" "http://www.w3.org/Graphics/SVG/1.1/DTD/svg11.dtd">
<svg version="1.1" id="Calque_1" xmlns="http://www.w3.org/2000/svg" xmlns:xlink="http://www.w3.org/1999/xlink" x="0px" y="0px"
	 width="600px" height="600px" viewBox="0 0 600 600" enable-background="new 0 0 600 600" xml:space="preserve">
<g>
	<g>
		<path fill="#9B9B9B" d="M125.923,312.996c0.323,0.137,0.679,0.244,1.068,0.324c0.389,0.08,0.774,0.121,1.158,0.121
			c0.275,0,0.538-0.031,0.79-0.094c0.251-0.062,0.469-0.154,0.655-0.277c0.186-0.123,0.335-0.273,0.449-0.453
			c0.113-0.178,0.17-0.379,0.17-0.602c0-0.246-0.045-0.449-0.135-0.609c-0.089-0.16-0.209-0.297-0.359-0.408
			c-0.149-0.109-0.323-0.205-0.521-0.285c-0.197-0.08-0.41-0.158-0.637-0.232l-0.628-0.238c-0.766-0.299-1.322-0.631-1.668-0.999
			c-0.347-0.37-0.521-0.87-0.521-1.499c0-0.839,0.29-1.505,0.87-1.998c0.58-0.493,1.433-0.74,2.557-0.74
			c0.467,0,0.924,0.049,1.373,0.141c0.449,0.093,0.84,0.201,1.175,0.324c-0.024,0.245-0.069,0.491-0.135,0.738
			s-0.146,0.477-0.242,0.686c-0.263-0.1-0.577-0.193-0.942-0.287c-0.365-0.092-0.757-0.139-1.175-0.139
			c-0.443,0-0.834,0.079-1.176,0.239c-0.341,0.161-0.511,0.442-0.511,0.853c0,0.211,0.042,0.389,0.125,0.537
			c0.083,0.146,0.197,0.272,0.341,0.379c0.144,0.104,0.308,0.192,0.493,0.269s0.386,0.147,0.601,0.222l0.79,0.278
			c0.287,0.099,0.559,0.216,0.817,0.353c0.257,0.135,0.478,0.305,0.664,0.508s0.335,0.451,0.449,0.74
			c0.114,0.289,0.17,0.639,0.17,1.045c0,0.457-0.089,0.873-0.269,1.248c-0.179,0.377-0.434,0.697-0.763,0.963
			c-0.329,0.268-0.727,0.473-1.193,0.619c-0.466,0.148-0.981,0.223-1.543,0.223c-0.575,0-1.077-0.041-1.508-0.119
			c-0.431-0.08-0.832-0.188-1.202-0.322c0.024-0.248,0.075-0.498,0.152-0.75C125.741,313.494,125.827,313.244,125.923,312.996z"/>
		<path fill="#9B9B9B" d="M137.981,314.939c-0.718,0-1.346-0.127-1.884-0.379c-0.538-0.254-0.987-0.604-1.346-1.045
			c-0.359-0.445-0.625-0.971-0.798-1.574c-0.174-0.604-0.26-1.258-0.26-1.961s0.086-1.356,0.26-1.961
			c0.173-0.604,0.439-1.129,0.798-1.572c0.359-0.444,0.808-0.797,1.346-1.055c0.539-0.261,1.167-0.391,1.884-0.391
			c0.717,0,1.346,0.13,1.884,0.391c0.539,0.258,0.987,0.608,1.346,1.055c0.359,0.445,0.625,0.969,0.798,1.572
			c0.173,0.604,0.26,1.258,0.26,1.961s-0.087,1.355-0.26,1.961c-0.173,0.604-0.439,1.129-0.798,1.574
			c-0.359,0.441-0.808,0.791-1.346,1.045C139.328,314.812,138.699,314.939,137.981,314.939z M137.981,313.479
			c0.826,0,1.436-0.309,1.831-0.926s0.592-1.473,0.592-2.572c0-1.098-0.197-1.949-0.592-2.562c-0.395-0.61-1.005-0.916-1.831-0.916
			c-0.825,0-1.433,0.306-1.821,0.916c-0.389,0.61-0.583,1.464-0.583,2.562c0,1.102,0.194,1.955,0.583,2.572
			C136.549,313.17,137.156,313.479,137.981,313.479z"/>
		<path fill="#9B9B9B" d="M144.604,305.227c0.131-0.022,0.26-0.043,0.386-0.056c0.126-0.013,0.254-0.019,0.386-0.019
			s0.254,0.006,0.368,0.019c0.113,0.013,0.236,0.031,0.368,0.056c0.036,0.187,0.072,0.437,0.108,0.75
			c0.036,0.313,0.054,0.575,0.054,0.785c0.12-0.21,0.272-0.419,0.458-0.629s0.397-0.396,0.637-0.564
			c0.239-0.166,0.514-0.301,0.825-0.405s0.652-0.157,1.023-0.157c1.053,0,1.831,0.312,2.333,0.936s0.753,1.545,0.753,2.767v6.013
			c-0.131,0.025-0.281,0.043-0.448,0.057c-0.168,0.014-0.317,0.02-0.449,0.02c-0.132,0-0.278-0.006-0.44-0.02
			c-0.161-0.014-0.308-0.029-0.439-0.057v-5.513c0-0.876-0.132-1.521-0.395-1.935c-0.264-0.412-0.682-0.619-1.256-0.619
			c-0.335,0-0.652,0.062-0.951,0.186c-0.299,0.123-0.562,0.314-0.79,0.573c-0.228,0.259-0.41,0.596-0.547,1.009
			c-0.137,0.413-0.207,0.909-0.207,1.49v4.809c-0.131,0.025-0.278,0.043-0.439,0.057c-0.162,0.014-0.308,0.02-0.439,0.02
			c-0.132,0-0.281-0.006-0.449-0.02c-0.168-0.014-0.317-0.029-0.449-0.057L144.604,305.227L144.604,305.227z"/>
		<path fill="#9B9B9B" d="M160.574,310.426c0.024,1.035,0.284,1.795,0.781,2.275s1.229,0.721,2.198,0.721
			c0.85,0,1.657-0.154,2.423-0.463c0.095,0.186,0.173,0.41,0.233,0.676s0.096,0.527,0.108,0.787
			c-0.395,0.172-0.829,0.301-1.301,0.389c-0.473,0.086-0.996,0.129-1.57,0.129c-0.838,0-1.556-0.121-2.153-0.359
			c-0.599-0.24-1.092-0.58-1.48-1.02c-0.389-0.438-0.673-0.955-0.853-1.553c-0.18-0.6-0.269-1.256-0.269-1.971
			c0-0.704,0.086-1.36,0.26-1.971c0.173-0.611,0.44-1.143,0.799-1.592s0.81-0.81,1.355-1.072c0.544-0.268,1.187-0.398,1.929-0.398
			c0.634,0,1.19,0.111,1.669,0.333c0.479,0.224,0.879,0.526,1.203,0.916c0.323,0.39,0.568,0.853,0.735,1.388
			c0.167,0.536,0.251,1.119,0.251,1.748c0,0.174-0.006,0.355-0.018,0.547c-0.012,0.192-0.024,0.354-0.036,0.49H160.574
			L160.574,310.426z M165.132,309.057c0-0.346-0.045-0.676-0.134-0.99c-0.09-0.312-0.222-0.588-0.395-0.821
			s-0.395-0.425-0.664-0.563c-0.269-0.143-0.589-0.214-0.96-0.214c-0.73,0-1.289,0.229-1.678,0.687
			c-0.389,0.455-0.625,1.092-0.709,1.904h4.54V309.057z M163.194,303.729c-0.132,0.024-0.275,0.043-0.431,0.057
			c-0.156,0.013-0.329,0.02-0.521,0.02c-0.132,0-0.266-0.007-0.404-0.02c-0.138-0.014-0.278-0.03-0.421-0.057l2.063-2.351
			c0.18-0.024,0.365-0.043,0.556-0.055c0.191-0.013,0.389-0.019,0.592-0.019c0.215,0,0.413,0.006,0.592,0.019
			c0.18,0.012,0.353,0.03,0.521,0.055L163.194,303.729z"/>
		<path fill="#9B9B9B" d="M169.224,305.227c0.131-0.022,0.26-0.043,0.386-0.056s0.254-0.019,0.386-0.019
			c0.132,0,0.254,0.006,0.368,0.019c0.113,0.013,0.236,0.031,0.368,0.056c0.036,0.187,0.072,0.437,0.108,0.75
			c0.036,0.313,0.054,0.575,0.054,0.785c0.12-0.21,0.272-0.419,0.458-0.629s0.397-0.396,0.637-0.564
			c0.239-0.166,0.514-0.301,0.825-0.405s0.652-0.157,1.023-0.157c1.053,0,1.831,0.312,2.333,0.936s0.753,1.545,0.753,2.767v6.013
			c-0.131,0.025-0.281,0.043-0.448,0.057c-0.168,0.014-0.317,0.02-0.449,0.02c-0.132,0-0.278-0.006-0.44-0.02
			c-0.161-0.014-0.308-0.029-0.439-0.057v-5.513c0-0.876-0.132-1.521-0.395-1.935c-0.264-0.412-0.682-0.619-1.256-0.619
			c-0.335,0-0.652,0.062-0.951,0.186c-0.299,0.123-0.562,0.314-0.79,0.573s-0.41,0.596-0.547,1.009
			c-0.137,0.413-0.207,0.909-0.207,1.49v4.809c-0.131,0.025-0.278,0.043-0.439,0.057c-0.162,0.014-0.308,0.02-0.439,0.02
			c-0.132,0-0.281-0.006-0.449-0.02s-0.317-0.029-0.449-0.057L169.224,305.227L169.224,305.227z"/>
		<path fill="#9B9B9B" d="M180.924,310.426c0.024,1.035,0.284,1.795,0.78,2.275s1.229,0.721,2.198,0.721
			c0.85,0,1.657-0.154,2.423-0.463c0.096,0.186,0.173,0.41,0.233,0.676s0.095,0.527,0.107,0.787
			c-0.395,0.172-0.829,0.301-1.301,0.389c-0.473,0.086-0.996,0.129-1.57,0.129c-0.837,0-1.555-0.121-2.153-0.359
			c-0.599-0.24-1.092-0.58-1.48-1.02c-0.389-0.438-0.673-0.955-0.853-1.553c-0.179-0.6-0.269-1.256-0.269-1.971
			c0-0.704,0.086-1.36,0.26-1.971c0.173-0.611,0.439-1.143,0.798-1.592c0.359-0.449,0.811-0.81,1.355-1.072
			c0.544-0.268,1.187-0.398,1.929-0.398c0.634,0,1.19,0.111,1.669,0.333c0.478,0.224,0.879,0.526,1.202,0.916
			c0.323,0.39,0.568,0.853,0.736,1.388c0.167,0.536,0.251,1.119,0.251,1.748c0,0.174-0.006,0.355-0.018,0.547
			c-0.012,0.191-0.024,0.354-0.036,0.49H180.924L180.924,310.426z M185.482,309.057c0-0.346-0.045-0.676-0.135-0.99
			c-0.09-0.312-0.222-0.588-0.395-0.821c-0.173-0.233-0.395-0.425-0.664-0.563c-0.27-0.143-0.589-0.214-0.96-0.214
			c-0.729,0-1.289,0.229-1.678,0.687c-0.389,0.455-0.625,1.092-0.709,1.904h4.541V309.057z"/>
		<path fill="#9B9B9B" d="M189.573,305.227c0.131-0.022,0.257-0.043,0.377-0.056c0.12-0.013,0.245-0.019,0.377-0.019
			c0.131,0,0.263,0.006,0.395,0.019c0.132,0.013,0.251,0.031,0.359,0.056c0.036,0.187,0.072,0.431,0.108,0.73
			c0.036,0.303,0.054,0.559,0.054,0.768c0.251-0.418,0.583-0.783,0.996-1.092c0.413-0.308,0.942-0.462,1.588-0.462
			c0.096,0,0.194,0.003,0.296,0.009c0.101,0.008,0.188,0.016,0.26,0.028c0.024,0.11,0.042,0.229,0.054,0.353
			c0.012,0.125,0.018,0.252,0.018,0.39c0,0.146-0.009,0.302-0.027,0.462c-0.018,0.158-0.039,0.312-0.062,0.463
			c-0.096-0.023-0.195-0.037-0.296-0.037c-0.101,0-0.183,0-0.242,0c-0.323,0-0.631,0.046-0.924,0.141
			c-0.293,0.092-0.556,0.256-0.79,0.488c-0.233,0.234-0.418,0.557-0.556,0.963c-0.138,0.406-0.207,0.932-0.207,1.572v4.719
			c-0.131,0.023-0.278,0.043-0.439,0.057c-0.162,0.012-0.308,0.018-0.439,0.018c-0.132,0-0.278-0.006-0.44-0.018
			c-0.161-0.014-0.314-0.031-0.458-0.057v-9.492h-0.002V305.227z"/>
		<path fill="#9B9B9B" d="M201.112,313.496c1.064,0.025,1.836,0.26,2.315,0.703c0.478,0.443,0.718,1.055,0.718,1.832
			c0,0.506-0.126,0.959-0.377,1.359c-0.251,0.398-0.598,0.746-1.041,1.033c-0.442,0.291-0.966,0.514-1.57,0.666
			c-0.604,0.154-1.259,0.232-1.965,0.232c-1.232,0-2.171-0.197-2.817-0.594c-0.646-0.395-0.969-1.018-0.969-1.869
			c0-0.506,0.131-0.959,0.395-1.357c0.264-0.398,0.604-0.719,1.023-0.953c-0.239-0.158-0.439-0.359-0.601-0.602
			c-0.162-0.241-0.242-0.539-0.242-0.896c0-0.455,0.099-0.852,0.296-1.184c0.198-0.334,0.463-0.629,0.799-0.891
			c-0.395-0.283-0.712-0.648-0.951-1.102c-0.24-0.45-0.359-0.959-0.359-1.525c0-0.47,0.083-0.906,0.251-1.312
			c0.168-0.407,0.41-0.762,0.727-1.062c0.317-0.303,0.708-0.539,1.175-0.711c0.467-0.175,0.999-0.262,1.597-0.262
			c0.538,0,1.025,0.081,1.462,0.241s0.811,0.362,1.122,0.608c0.239-0.195,0.562-0.359,0.969-0.488
			c0.406-0.131,0.855-0.194,1.346-0.194c0.048,0.234,0.072,0.493,0.072,0.777c0,0.136-0.006,0.276-0.018,0.425
			c-0.012,0.146-0.03,0.296-0.054,0.443H202.8c0.132,0.209,0.233,0.438,0.305,0.686s0.108,0.53,0.108,0.852
			c0,0.506-0.09,0.963-0.27,1.371c-0.179,0.404-0.434,0.756-0.763,1.045c-0.329,0.289-0.721,0.512-1.175,0.666
			c-0.454,0.152-0.951,0.229-1.489,0.229c-0.491,0-0.933-0.057-1.328-0.166c-0.167,0.102-0.332,0.25-0.493,0.453
			c-0.162,0.201-0.243,0.424-0.243,0.654c0,0.225,0.078,0.418,0.233,0.584c0.155,0.166,0.502,0.258,1.041,0.27L201.112,313.496z
			 M198.689,314.957c-0.538-0.012-0.942,0.137-1.211,0.445c-0.27,0.307-0.404,0.678-0.404,1.109c0,0.271,0.054,0.492,0.161,0.664
			c0.108,0.174,0.26,0.312,0.458,0.416c0.197,0.105,0.431,0.182,0.7,0.225s0.565,0.062,0.888,0.062c0.957,0,1.705-0.164,2.243-0.488
			c0.538-0.326,0.808-0.736,0.808-1.23c0-0.369-0.114-0.654-0.341-0.852c-0.228-0.197-0.646-0.303-1.256-0.314L198.689,314.957z
			 M199.515,310.332c0.646,0,1.125-0.184,1.436-0.555c0.311-0.37,0.467-0.846,0.467-1.426c0-0.593-0.156-1.074-0.467-1.451
			s-0.79-0.564-1.436-0.564s-1.122,0.188-1.427,0.564c-0.305,0.377-0.458,0.858-0.458,1.451c0,0.58,0.152,1.056,0.458,1.426
			C198.393,310.148,198.869,310.332,199.515,310.332z"/>
		<path fill="#9B9B9B" d="M206.639,306.669h-1.167c-0.024-0.099-0.042-0.212-0.054-0.342c-0.012-0.13-0.018-0.257-0.018-0.379
			c0-0.124,0.006-0.25,0.018-0.38c0.012-0.129,0.029-0.243,0.054-0.342h2.907v9.488c-0.132,0.025-0.278,0.043-0.44,0.059
			c-0.162,0.012-0.308,0.018-0.439,0.018c-0.12,0-0.26-0.006-0.422-0.018c-0.162-0.016-0.308-0.031-0.439-0.059V306.669z
			 M206.244,303.136c-0.024-0.147-0.039-0.308-0.045-0.479c-0.006-0.173-0.009-0.327-0.009-0.464s0.003-0.291,0.009-0.463
			c0.006-0.172,0.021-0.326,0.045-0.463c0.155-0.022,0.323-0.043,0.502-0.056c0.18-0.013,0.335-0.019,0.467-0.019
			c0.131,0,0.287,0.006,0.466,0.019c0.18,0.013,0.341,0.031,0.485,0.056c0.023,0.137,0.039,0.291,0.044,0.463
			c0.006,0.172,0.009,0.326,0.009,0.463s-0.003,0.289-0.009,0.464c-0.006,0.173-0.021,0.331-0.044,0.479
			c-0.144,0.025-0.303,0.044-0.476,0.056c-0.174,0.015-0.326,0.021-0.458,0.021c-0.144,0-0.305-0.006-0.484-0.021
			C206.567,303.18,206.399,303.161,206.244,303.136z"/>
		<path fill="#9B9B9B" d="M212.596,310.426c0.024,1.035,0.284,1.795,0.78,2.275s1.229,0.721,2.198,0.721
			c0.85,0,1.657-0.154,2.423-0.463c0.096,0.186,0.173,0.41,0.233,0.676s0.095,0.527,0.107,0.787
			c-0.395,0.172-0.829,0.301-1.301,0.389c-0.473,0.086-0.996,0.129-1.57,0.129c-0.837,0-1.555-0.121-2.153-0.359
			c-0.599-0.24-1.092-0.58-1.48-1.02c-0.389-0.438-0.673-0.955-0.853-1.553c-0.179-0.6-0.269-1.256-0.269-1.971
			c0-0.704,0.086-1.36,0.26-1.971c0.173-0.611,0.439-1.143,0.798-1.592s0.811-0.81,1.355-1.072c0.544-0.268,1.187-0.398,1.929-0.398
			c0.634,0,1.19,0.111,1.669,0.333c0.478,0.224,0.879,0.526,1.202,0.916c0.323,0.39,0.568,0.853,0.736,1.388
			c0.167,0.536,0.251,1.119,0.251,1.748c0,0.174-0.006,0.355-0.018,0.547c-0.012,0.191-0.024,0.354-0.036,0.49H212.596
			L212.596,310.426z M217.154,309.057c0-0.346-0.045-0.676-0.135-0.99c-0.09-0.312-0.222-0.588-0.395-0.821
			s-0.395-0.425-0.664-0.563c-0.27-0.143-0.589-0.214-0.96-0.214c-0.729,0-1.289,0.229-1.678,0.687
			c-0.389,0.455-0.625,1.092-0.709,1.904h4.541V309.057z"/>
	</g>
	<g>
		<path fill="#FFFFFF" d="M230.345,308.464c0-0.728-0.18-1.233-0.539-1.517c-0.359-0.284-0.879-0.426-1.561-0.426
			c-0.419,0-0.811,0.033-1.175,0.102c-0.365,0.068-0.721,0.156-1.068,0.27c-0.228-0.408-0.341-0.896-0.341-1.463
			c0.406-0.136,0.855-0.24,1.346-0.312c0.49-0.074,0.963-0.111,1.417-0.111c1.196,0,2.105,0.281,2.728,0.844
			c0.622,0.562,0.933,1.459,0.933,2.69v5.938c-0.419,0.101-0.927,0.2-1.525,0.306c-0.599,0.104-1.208,0.157-1.831,0.157
			c-0.586,0-1.116-0.058-1.588-0.166c-0.473-0.11-0.874-0.291-1.203-0.537c-0.329-0.245-0.583-0.562-0.763-0.942
			c-0.179-0.383-0.269-0.846-0.269-1.387c0-0.531,0.104-0.996,0.314-1.397c0.209-0.4,0.494-0.731,0.853-0.998
			c0.359-0.267,0.771-0.464,1.238-0.594c0.466-0.13,0.957-0.193,1.471-0.193c0.383,0,0.697,0.01,0.942,0.027
			c0.245,0.02,0.451,0.04,0.619,0.064v-0.354L230.345,308.464L230.345,308.464z M225.715,301.378
			c0.179-0.024,0.359-0.043,0.538-0.055c0.18-0.013,0.377-0.019,0.592-0.019c0.191,0,0.386,0.006,0.583,0.019
			c0.197,0.012,0.386,0.03,0.565,0.055l2.064,2.351c-0.275,0.049-0.557,0.073-0.844,0.073c-0.179,0-0.35-0.006-0.511-0.019
			c-0.162-0.012-0.308-0.03-0.439-0.057L225.715,301.378z M230.345,310.258c-0.18-0.023-0.407-0.049-0.682-0.072
			s-0.508-0.037-0.7-0.037c-0.742,0-1.307,0.143-1.696,0.428c-0.389,0.281-0.583,0.715-0.583,1.295c0,0.369,0.066,0.656,0.198,0.869
			c0.131,0.209,0.296,0.367,0.493,0.479c0.198,0.111,0.416,0.18,0.655,0.203c0.239,0.025,0.466,0.037,0.682,0.037
			c0.275,0,0.559-0.016,0.853-0.047c0.293-0.029,0.553-0.076,0.781-0.139L230.345,310.258L230.345,310.258z"/>
		<path fill="#FFFFFF" d="M237.881,305.227c0.167-0.022,0.341-0.043,0.521-0.056c0.179-0.013,0.341-0.019,0.484-0.019
			c0.155,0,0.326,0.006,0.511,0.019s0.344,0.031,0.476,0.056l2.513,7.826l2.529-7.826c0.133-0.022,0.281-0.043,0.449-0.056
			c0.168-0.013,0.329-0.019,0.484-0.019c0.132,0,0.281,0.006,0.449,0.019c0.167,0.013,0.334,0.031,0.502,0.056l-3.589,9.49
			c-0.155,0.025-0.312,0.043-0.467,0.057c-0.155,0.014-0.299,0.02-0.431,0.02s-0.272-0.006-0.421-0.02
			c-0.15-0.014-0.296-0.029-0.44-0.057L237.881,305.227z"/>
		<path fill="#FFFFFF" d="M251.933,314.939c-0.719,0-1.346-0.127-1.885-0.379c-0.538-0.254-0.986-0.604-1.346-1.045
			c-0.359-0.445-0.625-0.971-0.799-1.574c-0.174-0.604-0.26-1.258-0.26-1.961s0.086-1.356,0.26-1.961
			c0.174-0.604,0.439-1.129,0.799-1.572c0.36-0.444,0.808-0.797,1.346-1.055c0.539-0.261,1.166-0.391,1.885-0.391
			c0.717,0,1.346,0.13,1.884,0.391c0.538,0.258,0.987,0.608,1.347,1.055c0.358,0.443,0.625,0.969,0.798,1.572
			c0.173,0.603,0.261,1.258,0.261,1.961s-0.088,1.355-0.261,1.961c-0.173,0.604-0.439,1.129-0.798,1.574
			c-0.359,0.441-0.809,0.791-1.347,1.045C253.278,314.812,252.649,314.939,251.933,314.939z M251.933,313.479
			c0.825,0,1.436-0.309,1.83-0.926s0.592-1.473,0.592-2.572c0-1.098-0.197-1.949-0.592-2.562c-0.395-0.61-1.005-0.916-1.83-0.916
			c-0.826,0-1.434,0.306-1.822,0.916c-0.389,0.61-0.582,1.464-0.582,2.562c0,1.102,0.193,1.955,0.582,2.572
			C250.5,313.17,251.106,313.479,251.933,313.479z"/>
		<path fill="#FFFFFF" d="M258.895,306.688h-1.399l-0.072-0.258l3.087-3.553h0.144v2.35h2.333c0.048,0.211,0.071,0.443,0.071,0.703
			c0,0.137-0.006,0.266-0.018,0.389c-0.012,0.123-0.029,0.246-0.054,0.369h-2.333v4.33c0,0.52,0.021,0.934,0.062,1.238
			c0.042,0.309,0.113,0.547,0.216,0.713c0.102,0.166,0.239,0.277,0.413,0.334c0.173,0.055,0.391,0.082,0.654,0.082
			c0.203,0,0.395-0.016,0.574-0.045c0.18-0.031,0.342-0.066,0.484-0.104c0.084,0.248,0.135,0.5,0.152,0.76
			c0.019,0.258,0.027,0.486,0.027,0.684c-0.239,0.062-0.49,0.109-0.754,0.139c-0.264,0.031-0.545,0.049-0.844,0.049
			c-0.861,0-1.533-0.217-2.018-0.646c-0.485-0.432-0.728-1.147-0.728-2.146v-5.388H258.895L258.895,306.688z"/>
		<path fill="#FFFFFF" d="M264.978,305.227c0.132-0.022,0.258-0.043,0.377-0.056c0.12-0.013,0.246-0.019,0.377-0.019
			c0.132,0,0.264,0.006,0.395,0.019c0.133,0.013,0.252,0.031,0.359,0.056c0.036,0.187,0.072,0.431,0.107,0.73
			c0.036,0.303,0.055,0.559,0.055,0.768c0.251-0.418,0.582-0.783,0.996-1.092c0.412-0.308,0.941-0.462,1.588-0.462
			c0.096,0,0.193,0.003,0.296,0.009c0.101,0.008,0.188,0.016,0.26,0.028c0.024,0.11,0.042,0.229,0.054,0.353
			c0.012,0.123,0.018,0.252,0.018,0.39c0,0.146-0.008,0.302-0.026,0.462c-0.018,0.158-0.038,0.312-0.062,0.463
			c-0.097-0.023-0.194-0.037-0.296-0.037s-0.184,0-0.242,0c-0.323,0-0.631,0.046-0.925,0.141c-0.293,0.092-0.556,0.256-0.79,0.488
			c-0.232,0.234-0.418,0.557-0.556,0.963c-0.138,0.406-0.206,0.932-0.206,1.572v4.719c-0.132,0.023-0.278,0.043-0.439,0.057
			c-0.162,0.012-0.309,0.018-0.439,0.018c-0.133,0-0.279-0.006-0.44-0.018c-0.161-0.014-0.313-0.031-0.458-0.057v-9.492h-0.003
			V305.227z"/>
		<path fill="#FFFFFF" d="M272.729,310.426c0.024,1.035,0.284,1.795,0.781,2.275c0.496,0.48,1.229,0.721,2.197,0.721
			c0.85,0,1.658-0.154,2.424-0.463c0.096,0.186,0.173,0.41,0.232,0.676c0.061,0.266,0.096,0.527,0.107,0.787
			c-0.395,0.172-0.828,0.301-1.301,0.389c-0.473,0.086-0.996,0.129-1.57,0.129c-0.837,0-1.555-0.121-2.152-0.359
			c-0.6-0.24-1.092-0.58-1.48-1.02c-0.39-0.438-0.674-0.955-0.854-1.553c-0.179-0.6-0.269-1.256-0.269-1.971
			c0-0.704,0.087-1.36,0.261-1.971c0.173-0.611,0.439-1.143,0.798-1.592c0.358-0.449,0.811-0.81,1.354-1.072
			c0.545-0.268,1.188-0.398,1.93-0.398c0.634,0,1.189,0.111,1.669,0.333c0.478,0.224,0.879,0.526,1.202,0.916
			c0.322,0.39,0.568,0.853,0.736,1.388c0.166,0.536,0.25,1.119,0.25,1.748c0,0.174-0.006,0.355-0.018,0.547
			c-0.012,0.192-0.023,0.354-0.035,0.49H272.729L272.729,310.426z M277.288,309.057c0-0.346-0.045-0.676-0.135-0.99
			c-0.09-0.312-0.222-0.588-0.395-0.821c-0.174-0.233-0.395-0.425-0.664-0.563c-0.269-0.142-0.59-0.214-0.961-0.214
			c-0.729,0-1.289,0.229-1.678,0.687c-0.389,0.455-0.625,1.092-0.709,1.904h4.542V309.057z"/>
		<path fill="#FFFFFF" d="M285.471,312.996c0.323,0.137,0.679,0.244,1.067,0.324c0.388,0.08,0.775,0.121,1.158,0.121
			c0.275,0,0.538-0.031,0.789-0.094c0.252-0.062,0.47-0.154,0.655-0.277s0.335-0.273,0.448-0.453
			c0.113-0.178,0.171-0.379,0.171-0.602c0-0.246-0.045-0.449-0.135-0.609c-0.089-0.16-0.21-0.297-0.358-0.408
			c-0.15-0.109-0.323-0.205-0.521-0.285c-0.197-0.08-0.409-0.158-0.637-0.232l-0.628-0.238c-0.766-0.299-1.321-0.631-1.669-0.999
			c-0.347-0.37-0.52-0.87-0.52-1.499c0-0.839,0.289-1.505,0.869-1.998c0.58-0.493,1.434-0.74,2.558-0.74
			c0.467,0,0.925,0.049,1.373,0.141c0.448,0.093,0.841,0.201,1.175,0.324c-0.023,0.245-0.068,0.491-0.135,0.738
			c-0.065,0.247-0.146,0.477-0.242,0.686c-0.263-0.1-0.576-0.193-0.941-0.287c-0.365-0.092-0.757-0.139-1.176-0.139
			c-0.442,0-0.834,0.079-1.176,0.239c-0.34,0.161-0.511,0.442-0.511,0.853c0,0.211,0.042,0.389,0.126,0.537
			c0.083,0.146,0.197,0.272,0.341,0.379c0.144,0.104,0.308,0.192,0.493,0.269s0.386,0.147,0.602,0.222l0.789,0.278
			c0.287,0.099,0.559,0.216,0.816,0.353c0.258,0.135,0.479,0.305,0.664,0.508s0.335,0.451,0.449,0.74
			c0.113,0.289,0.17,0.639,0.17,1.045c0,0.457-0.09,0.873-0.27,1.248c-0.179,0.377-0.434,0.697-0.762,0.963
			c-0.33,0.268-0.727,0.473-1.193,0.619c-0.466,0.148-0.981,0.223-1.543,0.223c-0.575,0-1.078-0.041-1.508-0.119
			c-0.432-0.08-0.832-0.188-1.203-0.322c0.024-0.248,0.075-0.498,0.152-0.75C285.288,313.494,285.375,313.244,285.471,312.996z"/>
		<path fill="#FFFFFF" d="M295.126,310.426c0.023,1.035,0.283,1.795,0.779,2.275c0.497,0.48,1.23,0.721,2.199,0.721
			c0.852,0,1.656-0.154,2.424-0.463c0.096,0.186,0.174,0.41,0.232,0.676c0.06,0.266,0.098,0.527,0.107,0.787
			c-0.396,0.172-0.828,0.301-1.301,0.389c-0.475,0.086-0.996,0.129-1.57,0.129c-0.838,0-1.556-0.121-2.154-0.359
			c-0.598-0.24-1.092-0.58-1.48-1.02c-0.388-0.438-0.672-0.955-0.852-1.553c-0.18-0.6-0.27-1.256-0.27-1.971
			c0-0.704,0.086-1.36,0.26-1.971c0.174-0.611,0.439-1.143,0.799-1.592c0.359-0.449,0.811-0.81,1.355-1.072
			c0.543-0.268,1.187-0.398,1.928-0.398c0.635,0,1.191,0.111,1.67,0.333c0.479,0.224,0.879,0.526,1.201,0.916
			c0.324,0.39,0.568,0.853,0.736,1.388c0.168,0.536,0.252,1.119,0.252,1.748c0,0.174-0.006,0.355-0.02,0.547
			s-0.023,0.354-0.037,0.49H295.126L295.126,310.426z M299.683,309.057c0-0.346-0.045-0.676-0.135-0.99
			c-0.088-0.312-0.221-0.588-0.395-0.821s-0.396-0.425-0.664-0.563c-0.27-0.143-0.588-0.214-0.959-0.214
			c-0.73,0-1.289,0.229-1.678,0.687c-0.389,0.455-0.625,1.092-0.709,1.904h4.54V309.057z"/>
		<path fill="#FFFFFF" d="M303.774,305.227c0.132-0.022,0.257-0.043,0.377-0.056c0.117-0.013,0.245-0.019,0.377-0.019
			c0.131,0,0.263,0.006,0.395,0.019s0.251,0.031,0.359,0.056c0.035,0.187,0.071,0.431,0.105,0.73
			c0.036,0.303,0.056,0.559,0.056,0.768c0.251-0.418,0.583-0.783,0.996-1.092c0.41-0.308,0.94-0.462,1.588-0.462
			c0.096,0,0.192,0.003,0.296,0.009c0.102,0.008,0.188,0.016,0.261,0.028c0.023,0.11,0.042,0.229,0.054,0.353
			c0.014,0.123,0.02,0.252,0.02,0.39c0,0.146-0.011,0.302-0.026,0.462c-0.019,0.158-0.039,0.312-0.062,0.463
			c-0.098-0.023-0.194-0.037-0.296-0.037c-0.104,0-0.185,0-0.242,0c-0.323,0-0.631,0.046-0.924,0.141
			c-0.296,0.092-0.559,0.256-0.79,0.488c-0.233,0.234-0.421,0.557-0.558,0.963c-0.138,0.406-0.207,0.932-0.207,1.572v4.719
			c-0.132,0.023-0.276,0.043-0.438,0.057c-0.161,0.012-0.311,0.018-0.439,0.018c-0.132,0-0.277-0.006-0.438-0.018
			c-0.162-0.014-0.314-0.031-0.458-0.057v-9.492h-0.006V305.227z"/>
		<path fill="#FFFFFF" d="M309.319,305.227c0.168-0.022,0.342-0.043,0.521-0.056c0.18-0.013,0.341-0.019,0.484-0.019
			c0.153,0,0.326,0.006,0.512,0.019c0.188,0.013,0.344,0.031,0.477,0.056l2.514,7.826l2.53-7.826
			c0.131-0.022,0.278-0.043,0.446-0.056c0.167-0.013,0.329-0.019,0.484-0.019c0.132,0,0.281,0.006,0.449,0.019
			c0.167,0.013,0.334,0.031,0.502,0.056l-3.589,9.49c-0.155,0.025-0.312,0.043-0.469,0.057c-0.153,0.014-0.299,0.02-0.431,0.02
			s-0.271-0.006-0.422-0.02c-0.149-0.014-0.296-0.029-0.439-0.057L309.319,305.227z"/>
		<path fill="#FFFFFF" d="M320.517,306.669h-1.166c-0.022-0.099-0.042-0.212-0.054-0.342c-0.013-0.13-0.019-0.257-0.019-0.379
			c0-0.124,0.006-0.25,0.019-0.38c0.012-0.129,0.029-0.243,0.054-0.342h2.907v9.488c-0.132,0.025-0.276,0.043-0.438,0.059
			c-0.162,0.012-0.311,0.018-0.44,0.018c-0.119,0-0.26-0.006-0.421-0.018c-0.162-0.016-0.309-0.031-0.439-0.059L320.517,306.669
			L320.517,306.669z M320.122,303.136c-0.024-0.147-0.039-0.308-0.045-0.479s-0.009-0.327-0.009-0.464s0.003-0.291,0.009-0.463
			s0.021-0.326,0.045-0.463c0.155-0.022,0.323-0.043,0.503-0.056c0.179-0.013,0.334-0.019,0.466-0.019s0.287,0.006,0.467,0.019
			c0.182,0.013,0.343,0.031,0.484,0.056c0.024,0.137,0.039,0.291,0.045,0.463s0.009,0.326,0.009,0.463s-0.003,0.289-0.009,0.464
			c-0.006,0.173-0.021,0.331-0.045,0.479c-0.144,0.025-0.302,0.044-0.476,0.056c-0.175,0.015-0.326,0.021-0.457,0.021
			c-0.146,0-0.308-0.006-0.484-0.021C320.445,303.18,320.277,303.161,320.122,303.136z"/>
		<path fill="#FFFFFF" d="M331.284,313.07c0.095,0.174,0.179,0.389,0.251,0.646c0.071,0.26,0.113,0.523,0.125,0.797
			c-0.706,0.281-1.513,0.426-2.422,0.426c-1.532,0-2.688-0.447-3.464-1.342c-0.777-0.896-1.166-2.102-1.166-3.617
			c0-0.703,0.096-1.356,0.286-1.961s0.477-1.129,0.854-1.572c0.377-0.444,0.846-0.797,1.408-1.055
			c0.562-0.261,1.214-0.391,1.956-0.391c0.503,0,0.943,0.031,1.328,0.093c0.383,0.062,0.747,0.16,1.095,0.298
			c0,0.209-0.027,0.452-0.081,0.729c-0.054,0.276-0.129,0.521-0.226,0.729c-0.587-0.211-1.257-0.313-2.011-0.313
			c-0.921,0-1.606,0.313-2.062,0.942s-0.684,1.461-0.684,2.496c0,1.188,0.259,2.051,0.771,2.602
			c0.514,0.549,1.221,0.822,2.117,0.822c0.357,0,0.689-0.023,0.996-0.072C330.665,313.281,330.973,313.193,331.284,313.07z"/>
		<path fill="#FFFFFF" d="M334.801,310.426c0.023,1.035,0.284,1.795,0.78,2.275s1.229,0.721,2.198,0.721
			c0.85,0,1.655-0.154,2.423-0.463c0.096,0.186,0.173,0.41,0.231,0.676c0.062,0.266,0.098,0.527,0.107,0.787
			c-0.395,0.172-0.828,0.301-1.301,0.389c-0.475,0.086-0.996,0.129-1.57,0.129c-0.838,0-1.556-0.121-2.153-0.359
			c-0.599-0.24-1.092-0.58-1.479-1.02c-0.388-0.438-0.673-0.955-0.854-1.553c-0.18-0.6-0.27-1.256-0.27-1.971
			c0-0.704,0.087-1.36,0.261-1.971c0.173-0.611,0.439-1.143,0.799-1.592c0.358-0.449,0.812-0.81,1.354-1.072
			c0.544-0.268,1.188-0.398,1.929-0.398c0.635,0,1.19,0.111,1.669,0.333c0.479,0.224,0.88,0.526,1.202,0.916
			c0.323,0.39,0.568,0.853,0.736,1.388c0.167,0.536,0.251,1.119,0.251,1.748c0,0.174-0.006,0.355-0.02,0.547
			c-0.013,0.192-0.022,0.354-0.036,0.49H334.801L334.801,310.426z M339.358,309.057c0-0.346-0.046-0.676-0.137-0.99
			c-0.089-0.312-0.221-0.588-0.395-0.821s-0.396-0.425-0.664-0.563c-0.271-0.143-0.589-0.214-0.96-0.214
			c-0.729,0-1.289,0.229-1.678,0.687c-0.391,0.455-0.625,1.092-0.709,1.904h4.542V309.057z"/>
		<path fill="#FFFFFF" d="M347.864,314.717c-0.023-0.172-0.042-0.342-0.056-0.508c-0.012-0.166-0.018-0.336-0.018-0.51
			c0-0.172,0.006-0.348,0.018-0.527c0.014-0.178,0.03-0.354,0.056-0.527c0.168-0.021,0.332-0.043,0.494-0.055
			c0.159-0.012,0.323-0.02,0.491-0.02s0.34,0.008,0.514,0.02c0.173,0.012,0.344,0.031,0.512,0.055
			c0.023,0.174,0.041,0.348,0.054,0.521c0.014,0.172,0.02,0.344,0.02,0.52c0,0.172-0.006,0.346-0.02,0.518
			c-0.013,0.174-0.028,0.346-0.054,0.518c-0.168,0.025-0.336,0.043-0.503,0.057c-0.168,0.014-0.335,0.02-0.503,0.02
			c-0.167,0-0.335-0.006-0.502-0.02C348.199,314.76,348.032,314.742,347.864,314.717z M347.938,301.415
			c0.154-0.024,0.309-0.043,0.457-0.056c0.149-0.012,0.304-0.021,0.457-0.021c0.168,0,0.336,0.009,0.505,0.021
			c0.167,0.013,0.334,0.031,0.502,0.056l-0.107,9.306c-0.275,0.051-0.557,0.074-0.844,0.074c-0.323,0-0.604-0.023-0.843-0.074
			L347.938,301.415z"/>
	</g>
</g>
</svg>
