<?xml version="1.0" encoding="utf-8"?>
<!-- Generator: Adobe Illustrator 16.0.4, SVG Export Plug-In . SVG Version: 6.00 Build 0)  -->
<!DOCTYPE svg PUBLIC "-//W3C//DTD SVG 1.1//EN" "http://www.w3.org/Graphics/SVG/1.1/DTD/svg11.dtd">
<svg version="1.1" id="Calque_1" xmlns="http://www.w3.org/2000/svg" xmlns:xlink="http://www.w3.org/1999/xlink" x="0px" y="0px"
	 width="600px" height="600px" viewBox="0 0 600 600" enable-background="new 0 0 600 600" xml:space="preserve">
<g>
	<g opacity="0.7">
		<path d="M244.229,239.828c0.364,0.136,0.744,0.256,1.141,0.357c0.396,0.102,0.881,0.153,1.455,0.153
			c0.903,0,1.578-0.19,2.024-0.57c0.447-0.381,0.669-0.895,0.669-1.542c0-0.318-0.047-0.59-0.14-0.818
			c-0.094-0.227-0.234-0.423-0.421-0.588c-0.188-0.165-0.422-0.314-0.703-0.451c-0.281-0.136-0.608-0.284-0.983-0.443l-0.942-0.392
			c-0.32-0.136-0.612-0.287-0.876-0.452c-0.265-0.165-0.494-0.367-0.686-0.605c-0.193-0.238-0.345-0.514-0.454-0.826
			c-0.111-0.312-0.166-0.685-0.166-1.116c0-1.033,0.342-1.843,1.025-2.428c0.683-0.585,1.642-0.877,2.876-0.877
			c0.529,0,1.03,0.045,1.504,0.136s0.893,0.204,1.256,0.34c-0.055,0.477-0.177,0.949-0.364,1.414
			c-0.297-0.113-0.642-0.216-1.033-0.306c-0.392-0.091-0.835-0.137-1.331-0.137c-0.694,0-1.229,0.146-1.603,0.435
			c-0.375,0.29-0.562,0.724-0.562,1.303c0,0.239,0.047,0.452,0.141,0.64c0.093,0.187,0.218,0.352,0.372,0.494
			s0.336,0.27,0.545,0.383c0.21,0.113,0.43,0.216,0.661,0.307l0.926,0.375c0.44,0.182,0.832,0.373,1.173,0.571
			c0.342,0.198,0.633,0.432,0.876,0.698c0.242,0.267,0.426,0.583,0.553,0.946c0.126,0.363,0.19,0.79,0.19,1.278
			c0,1.17-0.391,2.093-1.173,2.769c-0.783,0.676-1.879,1.014-3.29,1.014c-0.341,0-0.65-0.011-0.925-0.034
			c-0.276-0.022-0.532-0.057-0.769-0.102c-0.237-0.045-0.465-0.102-0.686-0.17c-0.221-0.068-0.447-0.142-0.678-0.222
			c0.022-0.25,0.072-0.505,0.149-0.767C244.059,240.333,244.141,240.078,244.229,239.828z"/>
	</g>
	<g opacity="0.7">
		<path d="M253.717,234.291h-1.289l-0.066-0.239l2.843-3.272h0.132v2.165h2.149c0.044,0.193,0.065,0.409,0.065,0.647
			c0,0.125-0.005,0.244-0.016,0.358c-0.011,0.113-0.027,0.227-0.049,0.341h-2.149v3.987c0,0.477,0.02,0.858,0.058,1.142
			c0.039,0.284,0.105,0.503,0.199,0.656c0.093,0.153,0.22,0.256,0.379,0.307c0.16,0.051,0.361,0.077,0.604,0.077
			c0.188,0,0.364-0.014,0.529-0.042s0.314-0.06,0.446-0.094c0.077,0.227,0.125,0.459,0.141,0.699
			c0.016,0.238,0.025,0.448,0.025,0.63c-0.221,0.057-0.452,0.099-0.694,0.128c-0.243,0.028-0.502,0.042-0.777,0.042
			c-0.793,0-1.413-0.199-1.859-0.596c-0.447-0.398-0.669-1.057-0.669-1.977V234.291z"/>
		<path d="M263.798,235.926c0-0.67-0.165-1.135-0.496-1.397c-0.33-0.261-0.809-0.392-1.438-0.392c-0.386,0-0.747,0.032-1.083,0.094
			c-0.337,0.062-0.664,0.145-0.983,0.247c-0.21-0.375-0.314-0.823-0.314-1.346c0.375-0.125,0.788-0.221,1.24-0.29
			c0.452-0.068,0.886-0.102,1.306-0.102c1.102,0,1.939,0.258,2.512,0.775c0.572,0.518,0.859,1.344,0.859,2.479v5.47
			c-0.386,0.091-0.854,0.185-1.405,0.281s-1.113,0.145-1.686,0.145c-0.54,0-1.028-0.051-1.463-0.153
			c-0.435-0.103-0.804-0.267-1.108-0.494c-0.303-0.227-0.537-0.517-0.702-0.869c-0.166-0.352-0.249-0.778-0.249-1.278
			c0-0.489,0.097-0.917,0.29-1.287c0.192-0.369,0.454-0.675,0.785-0.92c0.33-0.244,0.71-0.426,1.14-0.545
			c0.43-0.12,0.881-0.179,1.355-0.179c0.353,0,0.642,0.008,0.868,0.026c0.226,0.017,0.416,0.037,0.57,0.06V235.926z
			 M263.798,237.579c-0.165-0.023-0.375-0.046-0.628-0.068c-0.254-0.023-0.469-0.034-0.645-0.034c-0.683,0-1.204,0.131-1.562,0.392
			c-0.358,0.262-0.537,0.659-0.537,1.192c0,0.341,0.061,0.608,0.182,0.801c0.121,0.193,0.272,0.341,0.454,0.443
			c0.182,0.102,0.383,0.165,0.604,0.187c0.22,0.023,0.429,0.035,0.628,0.035c0.253,0,0.515-0.015,0.785-0.042
			c0.27-0.028,0.509-0.071,0.719-0.128V237.579z"/>
		<path d="M267.865,232.944c0.121-0.022,0.239-0.04,0.355-0.051s0.234-0.017,0.355-0.017c0.121,0,0.234,0.006,0.338,0.017
			c0.105,0.011,0.218,0.029,0.339,0.051c0.033,0.17,0.066,0.4,0.099,0.69c0.033,0.29,0.049,0.531,0.049,0.724
			c0.11-0.192,0.25-0.386,0.422-0.579c0.17-0.193,0.366-0.366,0.587-0.519c0.22-0.154,0.474-0.278,0.76-0.375
			c0.287-0.096,0.601-0.145,0.942-0.145c0.97,0,1.686,0.287,2.148,0.86c0.463,0.574,0.694,1.423,0.694,2.548v5.537
			c-0.121,0.023-0.259,0.04-0.413,0.051c-0.155,0.012-0.292,0.017-0.414,0.017c-0.122,0-0.256-0.005-0.405-0.017
			s-0.284-0.028-0.405-0.051v-5.078c0-0.806-0.122-1.4-0.364-1.78c-0.242-0.381-0.628-0.571-1.156-0.571
			c-0.309,0-0.601,0.057-0.876,0.17c-0.276,0.114-0.519,0.29-0.728,0.529c-0.209,0.238-0.377,0.548-0.504,0.928
			c-0.126,0.381-0.19,0.838-0.19,1.372v4.43c-0.122,0.023-0.256,0.04-0.405,0.051s-0.284,0.017-0.405,0.017
			c-0.121,0-0.259-0.005-0.414-0.017c-0.154-0.012-0.292-0.028-0.413-0.051V232.944z"/>
		<path d="M277.913,234.273h-1.074c-0.022-0.091-0.039-0.196-0.049-0.315c-0.011-0.119-0.017-0.235-0.017-0.349
			c0-0.113,0.006-0.23,0.017-0.349c0.011-0.12,0.027-0.225,0.049-0.315h2.677v8.741c-0.121,0.023-0.256,0.04-0.405,0.051
			c-0.148,0.012-0.284,0.017-0.404,0.017c-0.111,0-0.24-0.005-0.389-0.017c-0.149-0.012-0.284-0.028-0.405-0.051V234.273z
			 M277.549,231.019c-0.021-0.137-0.036-0.284-0.041-0.443c-0.006-0.16-0.008-0.301-0.008-0.426s0.002-0.267,0.008-0.426
			c0.005-0.159,0.02-0.301,0.041-0.426c0.144-0.022,0.298-0.04,0.463-0.051c0.165-0.011,0.308-0.017,0.43-0.017
			c0.121,0,0.265,0.005,0.43,0.017s0.314,0.029,0.446,0.051c0.022,0.125,0.036,0.267,0.042,0.426
			c0.005,0.159,0.008,0.301,0.008,0.426s-0.002,0.267-0.008,0.426c-0.006,0.159-0.02,0.306-0.042,0.443
			c-0.132,0.022-0.278,0.04-0.438,0.05c-0.16,0.012-0.3,0.018-0.421,0.018c-0.132,0-0.281-0.005-0.446-0.018
			C277.847,231.059,277.693,231.042,277.549,231.019z"/>
		<path d="M282.028,240.101c0.297,0.125,0.625,0.225,0.983,0.298c0.358,0.074,0.713,0.111,1.066,0.111
			c0.253,0,0.496-0.029,0.728-0.085s0.433-0.142,0.603-0.255c0.171-0.114,0.309-0.253,0.414-0.418
			c0.104-0.165,0.157-0.349,0.157-0.554c0-0.227-0.042-0.414-0.125-0.562c-0.083-0.147-0.193-0.272-0.33-0.375
			c-0.138-0.102-0.298-0.19-0.479-0.264c-0.182-0.074-0.378-0.145-0.587-0.213l-0.579-0.222c-0.705-0.272-1.217-0.579-1.537-0.92
			c-0.32-0.34-0.479-0.801-0.479-1.38c0-0.772,0.267-1.385,0.801-1.84c0.534-0.454,1.319-0.681,2.355-0.681
			c0.43,0,0.851,0.042,1.264,0.127c0.414,0.085,0.774,0.185,1.083,0.299c-0.022,0.227-0.064,0.454-0.124,0.681
			c-0.061,0.228-0.135,0.438-0.223,0.63c-0.243-0.091-0.532-0.179-0.868-0.264c-0.336-0.085-0.697-0.127-1.083-0.127
			c-0.407,0-0.768,0.074-1.082,0.222c-0.314,0.147-0.471,0.408-0.471,0.784c0,0.193,0.038,0.358,0.116,0.494
			c0.077,0.136,0.182,0.253,0.314,0.349c0.132,0.097,0.284,0.179,0.454,0.247c0.171,0.068,0.355,0.136,0.554,0.205l0.728,0.255
			c0.265,0.091,0.515,0.199,0.752,0.324c0.237,0.125,0.44,0.281,0.612,0.469c0.171,0.188,0.309,0.415,0.413,0.682
			c0.104,0.267,0.157,0.587,0.157,0.963c0,0.42-0.083,0.803-0.248,1.15c-0.165,0.346-0.4,0.642-0.703,0.886
			c-0.303,0.244-0.669,0.434-1.099,0.57c-0.43,0.137-0.903,0.205-1.421,0.205c-0.529,0-0.991-0.037-1.389-0.11
			c-0.396-0.075-0.766-0.173-1.107-0.299c0.021-0.227,0.068-0.457,0.141-0.69C281.86,240.558,281.94,240.328,282.028,240.101z"/>
		<path d="M289.665,229.195c0.121-0.022,0.256-0.04,0.405-0.051s0.284-0.018,0.405-0.018c0.122,0,0.256,0.006,0.405,0.018
			s0.284,0.028,0.405,0.051v9.849c0,0.319,0.028,0.568,0.083,0.75c0.055,0.182,0.13,0.321,0.224,0.417
			c0.093,0.096,0.204,0.159,0.33,0.188c0.127,0.028,0.262,0.042,0.405,0.042c0.099,0,0.212-0.005,0.338-0.017
			c0.127-0.011,0.234-0.028,0.323-0.051c0.099,0.397,0.148,0.829,0.148,1.295c-0.154,0.056-0.341,0.094-0.562,0.111
			c-0.221,0.017-0.424,0.025-0.612,0.025c-0.32,0-0.617-0.04-0.892-0.12c-0.276-0.079-0.518-0.21-0.728-0.392
			s-0.375-0.426-0.496-0.733c-0.122-0.307-0.182-0.687-0.182-1.142V229.195z"/>
		<path d="M299.102,235.926c0-0.67-0.166-1.135-0.496-1.397c-0.331-0.261-0.81-0.392-1.438-0.392c-0.386,0-0.747,0.032-1.083,0.094
			c-0.336,0.062-0.664,0.145-0.983,0.247c-0.209-0.375-0.314-0.823-0.314-1.346c0.375-0.125,0.788-0.221,1.24-0.29
			c0.452-0.068,0.887-0.102,1.306-0.102c1.102,0,1.939,0.258,2.512,0.775c0.573,0.518,0.858,1.344,0.858,2.479v5.47
			c-0.385,0.091-0.854,0.185-1.404,0.281c-0.551,0.096-1.113,0.145-1.686,0.145c-0.54,0-1.028-0.051-1.462-0.153
			c-0.436-0.103-0.805-0.267-1.108-0.494c-0.303-0.227-0.537-0.517-0.702-0.869s-0.248-0.778-0.248-1.278
			c0-0.489,0.096-0.917,0.29-1.287c0.193-0.369,0.454-0.675,0.785-0.92c0.33-0.244,0.71-0.426,1.14-0.545
			c0.43-0.12,0.882-0.179,1.355-0.179c0.353,0,0.642,0.008,0.868,0.026c0.226,0.017,0.416,0.037,0.571,0.06V235.926z
			 M299.102,237.579c-0.166-0.023-0.375-0.046-0.628-0.068c-0.254-0.023-0.468-0.034-0.645-0.034c-0.683,0-1.204,0.131-1.562,0.392
			c-0.358,0.262-0.538,0.659-0.538,1.192c0,0.341,0.061,0.608,0.182,0.801c0.121,0.193,0.273,0.341,0.454,0.443
			c0.182,0.102,0.383,0.165,0.604,0.187c0.22,0.023,0.429,0.035,0.628,0.035c0.253,0,0.515-0.015,0.785-0.042
			c0.27-0.028,0.509-0.071,0.719-0.128V237.579z"/>
		<path d="M303.019,240.101c0.298,0.125,0.625,0.225,0.983,0.298c0.358,0.074,0.713,0.111,1.066,0.111
			c0.254,0,0.496-0.029,0.727-0.085s0.433-0.142,0.604-0.255c0.17-0.114,0.308-0.253,0.413-0.418
			c0.104-0.165,0.156-0.349,0.156-0.554c0-0.227-0.041-0.414-0.124-0.562c-0.083-0.147-0.192-0.272-0.33-0.375
			c-0.138-0.102-0.298-0.19-0.479-0.264c-0.182-0.074-0.378-0.145-0.587-0.213l-0.578-0.222c-0.706-0.272-1.219-0.579-1.538-0.92
			c-0.32-0.34-0.479-0.801-0.479-1.38c0-0.772,0.267-1.385,0.802-1.84c0.534-0.454,1.319-0.681,2.354-0.681
			c0.431,0,0.851,0.042,1.265,0.127c0.413,0.085,0.773,0.185,1.082,0.299c-0.022,0.227-0.063,0.454-0.124,0.681
			c-0.062,0.228-0.135,0.438-0.223,0.63c-0.243-0.091-0.532-0.179-0.869-0.264c-0.336-0.085-0.697-0.127-1.082-0.127
			c-0.408,0-0.77,0.074-1.083,0.222c-0.314,0.147-0.47,0.408-0.47,0.784c0,0.193,0.039,0.358,0.115,0.494
			c0.078,0.136,0.183,0.253,0.314,0.349c0.133,0.097,0.284,0.179,0.456,0.247c0.17,0.068,0.355,0.136,0.553,0.205l0.728,0.255
			c0.264,0.091,0.514,0.199,0.752,0.324c0.236,0.125,0.44,0.281,0.61,0.469c0.171,0.188,0.309,0.415,0.414,0.682
			c0.104,0.267,0.157,0.587,0.157,0.963c0,0.42-0.083,0.803-0.248,1.15c-0.165,0.346-0.399,0.642-0.702,0.886
			c-0.304,0.244-0.669,0.434-1.1,0.57c-0.429,0.137-0.903,0.205-1.421,0.205c-0.529,0-0.992-0.037-1.389-0.11
			c-0.397-0.075-0.766-0.173-1.107-0.299c0.022-0.227,0.069-0.457,0.14-0.69C302.851,240.558,302.93,240.328,303.019,240.101z"/>
	</g>
	<g opacity="0.7">
		<path d="M314.747,229.435c0.275-0.057,0.661-0.103,1.156-0.137c0.497-0.034,0.998-0.051,1.505-0.051c0.628,0,1.2,0.057,1.719,0.17
			c0.517,0.114,0.961,0.298,1.33,0.554c0.369,0.255,0.656,0.585,0.859,0.988c0.204,0.403,0.306,0.895,0.306,1.474
			c0,0.353-0.053,0.679-0.157,0.98c-0.105,0.301-0.245,0.568-0.421,0.8c-0.176,0.233-0.38,0.426-0.612,0.58s-0.468,0.264-0.71,0.332
			c0.309,0.034,0.62,0.12,0.935,0.256c0.314,0.136,0.597,0.33,0.851,0.579c0.252,0.25,0.46,0.565,0.619,0.946
			c0.16,0.38,0.24,0.843,0.24,1.389c0,0.659-0.127,1.218-0.38,1.678c-0.254,0.46-0.598,0.832-1.033,1.116
			c-0.436,0.284-0.947,0.489-1.537,0.613c-0.59,0.125-1.221,0.188-1.893,0.188c-0.419,0-0.876-0.02-1.372-0.059
			c-0.497-0.04-0.964-0.088-1.405-0.146V229.435z M317.622,234.546c0.75,0,1.322-0.168,1.719-0.502
			c0.396-0.335,0.595-0.837,0.595-1.508c0-0.647-0.212-1.13-0.637-1.448s-1-0.477-1.727-0.477c-0.221,0-0.433,0.005-0.637,0.017
			c-0.204,0.012-0.378,0.029-0.521,0.051v3.868H317.622z M316.416,240.339c0.154,0.023,0.35,0.04,0.587,0.051
			c0.236,0.011,0.47,0.017,0.702,0.017c0.398,0,0.77-0.034,1.116-0.102c0.348-0.068,0.653-0.185,0.917-0.35
			c0.265-0.165,0.474-0.386,0.628-0.665c0.155-0.278,0.231-0.633,0.231-1.064c0-0.42-0.071-0.776-0.214-1.065
			c-0.144-0.29-0.339-0.522-0.587-0.699c-0.249-0.176-0.543-0.3-0.884-0.375c-0.342-0.074-0.711-0.111-1.107-0.111h-1.389V240.339z"
			/>
	</g>
	<g opacity="0.7">
		<path d="M328.925,235.926c0-0.67-0.165-1.135-0.495-1.397c-0.332-0.261-0.811-0.392-1.439-0.392c-0.385,0-0.746,0.032-1.082,0.094
			c-0.337,0.062-0.665,0.145-0.983,0.247c-0.209-0.375-0.314-0.823-0.314-1.346c0.375-0.125,0.789-0.221,1.24-0.29
			s0.887-0.102,1.305-0.102c1.103,0,1.939,0.258,2.512,0.775c0.573,0.518,0.86,1.344,0.86,2.479v5.47
			c-0.386,0.091-0.854,0.185-1.405,0.281c-0.55,0.096-1.112,0.145-1.685,0.145c-0.541,0-1.027-0.051-1.463-0.153
			c-0.435-0.103-0.804-0.267-1.107-0.494c-0.304-0.227-0.538-0.517-0.703-0.869s-0.248-0.778-0.248-1.278
			c0-0.489,0.097-0.917,0.289-1.287c0.193-0.369,0.456-0.675,0.786-0.92c0.331-0.244,0.711-0.426,1.14-0.545
			c0.43-0.12,0.882-0.179,1.356-0.179c0.352,0,0.642,0.008,0.867,0.026c0.227,0.017,0.416,0.037,0.57,0.06V235.926z
			 M328.925,237.579c-0.165-0.023-0.375-0.046-0.628-0.068c-0.254-0.023-0.469-0.034-0.645-0.034c-0.683,0-1.205,0.131-1.562,0.392
			c-0.358,0.262-0.537,0.659-0.537,1.192c0,0.341,0.06,0.608,0.181,0.801c0.122,0.193,0.273,0.341,0.456,0.443
			c0.182,0.102,0.382,0.165,0.603,0.187c0.22,0.023,0.429,0.035,0.628,0.035c0.253,0,0.514-0.015,0.785-0.042
			c0.27-0.028,0.51-0.071,0.719-0.128V237.579z"/>
		<path d="M332.859,232.944c0.12-0.022,0.258-0.04,0.413-0.051c0.154-0.011,0.286-0.017,0.396-0.017
			c0.122,0,0.259,0.006,0.413,0.017c0.154,0.011,0.292,0.029,0.413,0.051v4.788c0,0.545,0.05,0.997,0.149,1.354
			c0.1,0.357,0.248,0.639,0.447,0.843c0.199,0.204,0.44,0.347,0.727,0.426c0.287,0.08,0.617,0.12,0.992,0.12
			c0.562,0,1.041-0.062,1.438-0.188v-7.343c0.122-0.022,0.257-0.04,0.406-0.051c0.148-0.011,0.284-0.017,0.405-0.017
			c0.12,0,0.255,0.006,0.404,0.017s0.284,0.029,0.405,0.051v8.468c-0.385,0.114-0.846,0.221-1.38,0.324
			c-0.534,0.102-1.088,0.153-1.661,0.153c-0.54,0-1.05-0.049-1.529-0.145c-0.479-0.096-0.9-0.292-1.263-0.587
			c-0.364-0.295-0.651-0.71-0.86-1.244c-0.21-0.534-0.314-1.238-0.314-2.112V232.944z"/>
		<path d="M346.958,240.561c0.98,0.023,1.691,0.239,2.132,0.647c0.44,0.409,0.66,0.972,0.66,1.687c0,0.465-0.115,0.883-0.347,1.252
			s-0.552,0.687-0.958,0.954c-0.408,0.267-0.891,0.472-1.446,0.614c-0.557,0.142-1.16,0.212-1.811,0.212
			c-1.135,0-1.999-0.181-2.595-0.545c-0.594-0.364-0.892-0.937-0.892-1.721c0-0.466,0.121-0.883,0.362-1.252
			c0.243-0.37,0.557-0.662,0.942-0.877c-0.221-0.148-0.404-0.333-0.553-0.554c-0.149-0.222-0.223-0.498-0.223-0.827
			c0-0.42,0.09-0.784,0.272-1.091c0.182-0.307,0.427-0.579,0.734-0.817c-0.363-0.262-0.655-0.6-0.876-1.014
			c-0.22-0.415-0.33-0.883-0.33-1.406c0-0.432,0.077-0.835,0.231-1.21c0.154-0.375,0.378-0.701,0.669-0.979
			c0.292-0.278,0.653-0.497,1.083-0.656c0.43-0.159,0.92-0.238,1.471-0.238c0.496,0,0.944,0.074,1.348,0.222
			c0.401,0.147,0.746,0.335,1.032,0.562c0.22-0.181,0.518-0.332,0.894-0.452c0.374-0.119,0.786-0.179,1.239-0.179
			c0.044,0.216,0.065,0.454,0.065,0.716c0,0.125-0.005,0.256-0.017,0.392c-0.011,0.136-0.027,0.272-0.049,0.409h-1.487
			c0.12,0.193,0.214,0.404,0.28,0.631s0.099,0.488,0.099,0.784c0,0.466-0.082,0.886-0.248,1.261
			c-0.165,0.375-0.398,0.695-0.701,0.963c-0.305,0.266-0.665,0.471-1.082,0.613c-0.42,0.142-0.877,0.213-1.373,0.213
			c-0.451,0-0.859-0.051-1.224-0.153c-0.153,0.091-0.305,0.229-0.454,0.417c-0.148,0.187-0.223,0.389-0.223,0.605
			c0,0.204,0.071,0.383,0.215,0.537c0.143,0.153,0.462,0.236,0.959,0.247L346.958,240.561z M344.726,241.907
			c-0.495-0.011-0.867,0.125-1.114,0.409c-0.249,0.284-0.373,0.624-0.373,1.022c0,0.25,0.05,0.454,0.148,0.614
			c0.101,0.159,0.24,0.287,0.422,0.383s0.396,0.165,0.645,0.204c0.249,0.04,0.521,0.06,0.818,0.06c0.882,0,1.57-0.151,2.066-0.452
			s0.743-0.679,0.743-1.133c0-0.341-0.104-0.603-0.313-0.784c-0.209-0.182-0.595-0.279-1.157-0.29L344.726,241.907z
			 M345.486,237.646c0.596,0,1.036-0.17,1.322-0.511c0.287-0.34,0.43-0.778,0.43-1.312c0-0.545-0.143-0.991-0.43-1.337
			c-0.286-0.347-0.727-0.52-1.322-0.52s-1.033,0.173-1.313,0.52c-0.281,0.347-0.422,0.792-0.422,1.337
			c0,0.534,0.141,0.972,0.422,1.312C344.453,237.477,344.891,237.646,345.486,237.646z"/>
		<path d="M352.759,237.732c0.021,0.954,0.262,1.653,0.719,2.096c0.458,0.443,1.132,0.664,2.025,0.664
			c0.782,0,1.525-0.142,2.23-0.426c0.088,0.171,0.16,0.378,0.216,0.623c0.055,0.244,0.087,0.485,0.099,0.724
			c-0.364,0.16-0.764,0.278-1.198,0.358c-0.436,0.079-0.918,0.119-1.446,0.119c-0.771,0-1.433-0.11-1.983-0.332
			c-0.551-0.221-1.006-0.534-1.364-0.937c-0.357-0.403-0.619-0.88-0.784-1.431c-0.165-0.551-0.248-1.156-0.248-1.815
			c0-0.647,0.079-1.252,0.239-1.815c0.16-0.562,0.405-1.051,0.736-1.465c0.33-0.414,0.746-0.744,1.247-0.989
			c0.502-0.244,1.094-0.366,1.777-0.366c0.583,0,1.097,0.102,1.537,0.307s0.809,0.485,1.106,0.843s0.523,0.784,0.679,1.278
			c0.153,0.494,0.231,1.031,0.231,1.61c0,0.16-0.007,0.327-0.017,0.503c-0.011,0.176-0.022,0.327-0.033,0.452H352.759z
			 M356.957,236.471c0-0.318-0.042-0.622-0.124-0.912c-0.083-0.29-0.204-0.542-0.364-0.758c-0.159-0.216-0.362-0.389-0.61-0.52
			c-0.249-0.131-0.543-0.196-0.885-0.196c-0.672,0-1.188,0.21-1.545,0.63c-0.359,0.421-0.577,1.006-0.653,1.755H356.957z
			 M355.172,231.563c-0.122,0.023-0.253,0.04-0.397,0.052c-0.143,0.011-0.303,0.017-0.479,0.017c-0.122,0-0.245-0.005-0.372-0.017
			c-0.126-0.012-0.256-0.028-0.388-0.052l1.9-2.164c0.165-0.022,0.335-0.04,0.512-0.051c0.177-0.011,0.358-0.017,0.546-0.017
			c0.198,0,0.38,0.006,0.545,0.017c0.165,0.012,0.325,0.029,0.479,0.051L355.172,231.563z"/>
		<path d="M360.677,239.811c0.131-0.022,0.266-0.042,0.403-0.06c0.138-0.017,0.269-0.025,0.39-0.025
			c0.253,0,0.534,0.028,0.842,0.085l-1.041,3.8c-0.131,0.022-0.267,0.037-0.404,0.042c-0.139,0.005-0.268,0.009-0.389,0.009
			c-0.133,0-0.264-0.003-0.396-0.009c-0.133-0.006-0.259-0.02-0.381-0.042L360.677,239.811z"/>
	</g>
	<g opacity="0.7">
		<path d="M268.839,248.884c0.165-0.022,0.361-0.045,0.586-0.068c0.226-0.022,0.463-0.042,0.711-0.059
			c0.248-0.017,0.496-0.032,0.744-0.043s0.488-0.017,0.719-0.017c0.606,0,1.182,0.062,1.727,0.187
			c0.545,0.125,1.025,0.341,1.438,0.647c0.414,0.307,0.742,0.713,0.983,1.218c0.242,0.506,0.364,1.139,0.364,1.9
			c0,0.795-0.129,1.457-0.388,1.985c-0.259,0.529-0.601,0.952-1.025,1.27c-0.424,0.318-0.907,0.542-1.446,0.672
			c-0.541,0.131-1.091,0.197-1.653,0.197c-0.209,0-0.394-0.003-0.554-0.009c-0.16-0.006-0.333-0.02-0.521-0.042v4.43
			c-0.265,0.034-0.545,0.051-0.843,0.051c-0.132,0-0.272-0.003-0.421-0.009c-0.149-0.006-0.29-0.02-0.421-0.042V248.884z
			 M270.524,255.206c0.176,0.022,0.331,0.04,0.463,0.051s0.325,0.017,0.579,0.017c0.341,0,0.68-0.037,1.016-0.111
			c0.336-0.074,0.637-0.207,0.901-0.4c0.265-0.193,0.477-0.458,0.637-0.792c0.16-0.335,0.24-0.77,0.24-1.304
			c0-0.465-0.069-0.857-0.207-1.175c-0.138-0.318-0.329-0.574-0.571-0.767c-0.243-0.193-0.535-0.329-0.875-0.409
			c-0.342-0.079-0.711-0.119-1.108-0.119c-0.407,0-0.766,0.017-1.074,0.05V255.206z"/>
	</g>
	<g opacity="0.7">
		<path d="M278.045,252.412c0.121-0.022,0.236-0.04,0.347-0.051c0.109-0.011,0.225-0.017,0.347-0.017
			c0.121,0,0.243,0.005,0.364,0.017s0.232,0.029,0.331,0.051c0.033,0.17,0.066,0.395,0.1,0.673c0.032,0.278,0.049,0.514,0.049,0.707
			c0.231-0.386,0.537-0.721,0.917-1.005c0.38-0.284,0.868-0.426,1.463-0.426c0.087,0,0.179,0.003,0.272,0.009
			c0.094,0.006,0.174,0.015,0.24,0.025c0.022,0.103,0.038,0.211,0.049,0.324c0.011,0.114,0.016,0.233,0.016,0.358
			c0,0.136-0.008,0.278-0.024,0.426c-0.017,0.148-0.036,0.29-0.058,0.426c-0.088-0.022-0.179-0.035-0.272-0.035s-0.168,0-0.223,0
			c-0.298,0-0.582,0.043-0.852,0.128c-0.27,0.085-0.512,0.236-0.728,0.452c-0.214,0.216-0.385,0.511-0.512,0.886
			c-0.126,0.375-0.19,0.857-0.19,1.448v4.345c-0.121,0.022-0.256,0.039-0.405,0.051c-0.149,0.011-0.284,0.017-0.405,0.017
			s-0.256-0.005-0.405-0.017c-0.148-0.012-0.289-0.029-0.421-0.051V252.412z"/>
	</g>
	<g opacity="0.7">
		<path d="M285.189,257.2c0.022,0.954,0.262,1.653,0.719,2.096c0.457,0.443,1.132,0.665,2.024,0.665
			c0.783,0,1.526-0.142,2.231-0.426c0.088,0.171,0.16,0.378,0.215,0.623c0.054,0.244,0.087,0.485,0.099,0.724
			c-0.363,0.16-0.763,0.278-1.198,0.358c-0.436,0.08-0.918,0.12-1.446,0.12c-0.771,0-1.433-0.111-1.984-0.333
			c-0.551-0.221-1.005-0.534-1.364-0.937c-0.358-0.403-0.619-0.88-0.785-1.431s-0.248-1.156-0.248-1.815
			c0-0.647,0.08-1.252,0.24-1.814c0.16-0.562,0.405-1.051,0.735-1.466c0.331-0.414,0.747-0.744,1.248-0.988
			c0.501-0.244,1.094-0.366,1.777-0.366c0.583,0,1.096,0.102,1.537,0.307c0.44,0.205,0.81,0.485,1.107,0.843
			c0.298,0.358,0.524,0.784,0.678,1.278c0.154,0.494,0.231,1.031,0.231,1.61c0,0.16-0.006,0.327-0.017,0.503
			c-0.011,0.176-0.021,0.327-0.033,0.452H285.189z M289.388,255.938c0-0.317-0.042-0.622-0.124-0.911
			c-0.083-0.29-0.204-0.542-0.363-0.758c-0.16-0.216-0.364-0.389-0.612-0.52c-0.248-0.13-0.542-0.196-0.884-0.196
			c-0.673,0-1.188,0.21-1.546,0.63c-0.358,0.421-0.576,1.006-0.652,1.755H289.388z M287.603,251.031
			c-0.122,0.023-0.254,0.04-0.397,0.051s-0.303,0.017-0.479,0.017c-0.122,0-0.245-0.005-0.372-0.017
			c-0.127-0.011-0.256-0.028-0.389-0.051l1.901-2.164c0.165-0.022,0.336-0.039,0.512-0.051c0.176-0.011,0.358-0.017,0.545-0.017
			c0.199,0,0.38,0.006,0.545,0.017c0.166,0.012,0.325,0.029,0.48,0.051L287.603,251.031z"/>
		<path d="M293.007,259.568c0.297,0.125,0.625,0.224,0.983,0.298c0.358,0.074,0.713,0.11,1.066,0.11
			c0.253,0,0.496-0.029,0.728-0.085c0.231-0.056,0.432-0.142,0.603-0.255c0.17-0.114,0.308-0.252,0.413-0.418
			c0.104-0.165,0.157-0.349,0.157-0.553c0-0.228-0.042-0.415-0.125-0.562c-0.083-0.147-0.193-0.272-0.33-0.375
			c-0.138-0.102-0.298-0.19-0.479-0.264c-0.182-0.074-0.378-0.146-0.587-0.213l-0.579-0.222c-0.705-0.272-1.217-0.579-1.537-0.92
			c-0.32-0.34-0.479-0.801-0.479-1.38c0-0.773,0.267-1.386,0.801-1.841c0.535-0.454,1.319-0.681,2.355-0.681
			c0.43,0,0.852,0.042,1.264,0.128c0.414,0.085,0.774,0.185,1.083,0.298c-0.022,0.227-0.064,0.454-0.124,0.681
			c-0.061,0.228-0.135,0.438-0.223,0.63c-0.243-0.09-0.532-0.179-0.868-0.264c-0.336-0.085-0.697-0.128-1.083-0.128
			c-0.407,0-0.768,0.074-1.082,0.222c-0.314,0.147-0.471,0.408-0.471,0.784c0,0.193,0.038,0.358,0.116,0.494
			c0.077,0.137,0.182,0.253,0.314,0.349c0.132,0.097,0.284,0.179,0.454,0.247c0.171,0.068,0.355,0.136,0.554,0.205l0.728,0.255
			c0.265,0.091,0.515,0.199,0.752,0.324c0.237,0.125,0.44,0.281,0.612,0.469c0.171,0.188,0.309,0.415,0.413,0.682
			c0.104,0.267,0.157,0.587,0.157,0.963c0,0.42-0.083,0.803-0.248,1.15s-0.4,0.642-0.703,0.886
			c-0.303,0.244-0.669,0.434-1.099,0.571c-0.43,0.136-0.903,0.205-1.421,0.205c-0.529,0-0.991-0.037-1.389-0.111
			c-0.396-0.075-0.766-0.173-1.107-0.298c0.021-0.227,0.068-0.458,0.141-0.69C292.839,260.025,292.919,259.795,293.007,259.568z"/>
		<path d="M301.172,253.74h-1.075c-0.021-0.09-0.038-0.196-0.049-0.315s-0.016-0.235-0.016-0.349c0-0.113,0.005-0.23,0.016-0.349
			c0.011-0.12,0.027-0.225,0.049-0.315h2.679v8.741c-0.122,0.022-0.256,0.039-0.405,0.051c-0.149,0.011-0.284,0.017-0.406,0.017
			c-0.11,0-0.239-0.005-0.388-0.017c-0.149-0.012-0.284-0.029-0.405-0.051V253.74z M300.809,250.486
			c-0.022-0.136-0.036-0.284-0.042-0.443c-0.006-0.16-0.009-0.301-0.009-0.426c0-0.125,0.003-0.267,0.009-0.426
			c0.005-0.159,0.019-0.301,0.042-0.426c0.143-0.022,0.296-0.04,0.461-0.051c0.167-0.011,0.309-0.017,0.431-0.017
			c0.121,0,0.264,0.005,0.429,0.017c0.165,0.011,0.314,0.029,0.447,0.051c0.022,0.125,0.036,0.267,0.041,0.426
			c0.005,0.159,0.009,0.301,0.009,0.426c0,0.125-0.004,0.267-0.009,0.426c-0.005,0.159-0.019,0.307-0.041,0.443
			c-0.133,0.022-0.278,0.04-0.438,0.051c-0.16,0.012-0.3,0.018-0.422,0.018c-0.132,0-0.28-0.006-0.447-0.018
			C301.105,250.526,300.952,250.509,300.809,250.486z"/>
		<path d="M310.873,248.663c0.122-0.022,0.259-0.039,0.413-0.05c0.155-0.012,0.286-0.018,0.396-0.018
			c0.121,0,0.256,0.006,0.405,0.018c0.149,0.011,0.284,0.028,0.405,0.05v12.252c-0.419,0.125-0.887,0.229-1.405,0.315
			c-0.518,0.085-1.097,0.128-1.735,0.128c-0.596,0-1.16-0.077-1.694-0.23c-0.536-0.153-1.001-0.406-1.398-0.758
			c-0.396-0.352-0.71-0.806-0.942-1.363s-0.347-1.244-0.347-2.062c0-0.704,0.102-1.346,0.305-1.925
			c0.204-0.58,0.493-1.076,0.869-1.491c0.374-0.415,0.823-0.736,1.347-0.963c0.523-0.227,1.104-0.341,1.743-0.341
			c0.286,0,0.575,0.023,0.868,0.068c0.292,0.046,0.548,0.102,0.768,0.17V248.663z M310.873,253.894
			c-0.22-0.091-0.457-0.159-0.71-0.204c-0.254-0.046-0.529-0.068-0.826-0.068c-0.453,0-0.843,0.085-1.174,0.255
			c-0.332,0.17-0.604,0.403-0.818,0.699c-0.215,0.295-0.375,0.645-0.479,1.048c-0.105,0.403-0.158,0.843-0.158,1.32
			c0.011,1.079,0.259,1.852,0.745,2.318c0.484,0.465,1.145,0.698,1.983,0.698c0.287,0,0.55-0.014,0.793-0.043
			c0.243-0.028,0.457-0.07,0.645-0.127V253.894z"/>
		<path d="M316.344,257.2c0.022,0.954,0.263,1.653,0.719,2.096c0.457,0.443,1.132,0.665,2.024,0.665
			c0.783,0,1.526-0.142,2.232-0.426c0.087,0.171,0.159,0.378,0.215,0.623c0.055,0.244,0.087,0.485,0.099,0.724
			c-0.364,0.16-0.763,0.278-1.198,0.358c-0.436,0.08-0.917,0.12-1.446,0.12c-0.771,0-1.433-0.111-1.983-0.333
			c-0.552-0.221-1.006-0.534-1.363-0.937c-0.358-0.403-0.62-0.88-0.786-1.431c-0.165-0.551-0.248-1.156-0.248-1.815
			c0-0.647,0.08-1.252,0.24-1.814c0.159-0.562,0.405-1.051,0.736-1.466c0.33-0.414,0.746-0.744,1.247-0.988
			c0.502-0.244,1.094-0.366,1.777-0.366c0.584,0,1.097,0.102,1.538,0.307s0.81,0.485,1.107,0.843
			c0.298,0.358,0.523,0.784,0.678,1.278c0.154,0.494,0.231,1.031,0.231,1.61c0,0.16-0.006,0.327-0.018,0.503
			c-0.011,0.176-0.021,0.327-0.032,0.452H316.344z M320.543,255.938c0-0.317-0.042-0.622-0.124-0.911
			c-0.083-0.29-0.204-0.542-0.364-0.758s-0.363-0.389-0.612-0.52c-0.248-0.13-0.542-0.196-0.883-0.196
			c-0.673,0-1.188,0.21-1.546,0.63c-0.358,0.421-0.576,1.006-0.652,1.755H320.543z"/>
		<path d="M324.312,252.412c0.121-0.022,0.239-0.04,0.355-0.051c0.115-0.011,0.234-0.017,0.355-0.017s0.234,0.005,0.339,0.017
			c0.104,0.011,0.218,0.029,0.339,0.051c0.032,0.17,0.065,0.4,0.099,0.69c0.033,0.29,0.049,0.531,0.049,0.724
			c0.11-0.193,0.251-0.386,0.422-0.58c0.171-0.192,0.366-0.366,0.586-0.519c0.22-0.154,0.474-0.278,0.761-0.375
			c0.287-0.096,0.601-0.145,0.942-0.145c0.969,0,1.685,0.287,2.148,0.86c0.463,0.574,0.694,1.423,0.694,2.548v5.538
			c-0.121,0.022-0.259,0.039-0.413,0.051c-0.154,0.011-0.292,0.017-0.413,0.017c-0.122,0-0.256-0.005-0.405-0.017
			c-0.149-0.012-0.284-0.029-0.405-0.051v-5.078c0-0.807-0.122-1.4-0.363-1.781c-0.243-0.381-0.628-0.571-1.158-0.571
			c-0.309,0-0.6,0.057-0.875,0.17c-0.275,0.114-0.518,0.29-0.727,0.529c-0.21,0.238-0.378,0.548-0.504,0.928
			c-0.127,0.381-0.19,0.838-0.19,1.372v4.43c-0.122,0.022-0.256,0.039-0.405,0.051c-0.149,0.011-0.284,0.017-0.405,0.017
			c-0.122,0-0.259-0.005-0.413-0.017c-0.154-0.012-0.292-0.029-0.413-0.051V252.412z"/>
		<path d="M334.179,253.758h-1.29l-0.065-0.239l2.843-3.272h0.131v2.165h2.149c0.044,0.193,0.066,0.409,0.066,0.647
			c0,0.125-0.006,0.244-0.017,0.358c-0.011,0.113-0.028,0.227-0.05,0.341h-2.149v3.987c0,0.477,0.02,0.858,0.059,1.142
			c0.038,0.284,0.104,0.503,0.198,0.656s0.22,0.256,0.38,0.307c0.16,0.051,0.36,0.077,0.603,0.077c0.188,0,0.364-0.014,0.529-0.042
			c0.165-0.028,0.314-0.06,0.447-0.094c0.076,0.227,0.124,0.46,0.14,0.699c0.016,0.238,0.025,0.449,0.025,0.631
			c-0.22,0.056-0.452,0.099-0.694,0.127c-0.243,0.028-0.502,0.042-0.777,0.042c-0.793,0-1.413-0.199-1.859-0.596
			c-0.447-0.398-0.669-1.057-0.669-1.977V253.758z"/>
	</g>
</g>
<g>
	<path fill-rule="evenodd" clip-rule="evenodd" d="M472.543,405.559c-1.062-0.377-1.992-0.416-2.23-0.842
		c-1.141-2.04-2.383-4.098-3.057-6.312c-1.393-4.582-2.775-9.214-3.535-13.926c-0.604-3.739-0.197-7.633-0.377-11.451
		c-0.32-6.804-0.67-13.606-1.154-20.4c-0.254-3.581-0.848-7.138-1.238-10.71c-0.268-2.451-3.449-5.971-5.611-7.013
		c-5.936-2.862-12.273-1.938-18.471-2.339c-2.598-0.168-5.207-0.184-7.811-0.22c-3.098-0.044-6.055,0.158-9.137,1.193
		c-2.658,0.893-5.855,0.332-8.801,0.183c-3.568-0.182-7.117-0.798-10.686-0.888c-10.422-0.264-20.854-0.224-31.273-0.565
		c-8.029-0.265-16.041-1.006-24.066-1.387c-7.157-0.34-14.322-0.599-21.485-0.682c-24.136-0.277-48.273-0.434-72.408-0.707
		c-4.208-0.048-8.411-0.482-12.62-0.648c-2.159-0.085-4.34-0.097-6.477,0.151c-0.477,0.055-1.193,1.374-1.137,2.058
		c0.165,2.02,0.661,4.013,1.03,6.029c-1.737,0.499-2.845-0.512-3.286-3.117c-0.101-0.594-0.089-1.209-0.211-1.798
		c-0.575-2.769-1.914-3.693-4.647-3.446c-3.558,0.321-7.19,1.106-10.674,0.696c-8.329-0.98-16.589,0.763-24.882,0.116
		c-4.051-0.316-8.115-0.494-12.177-0.645c-2.974-0.11-6.057,0.414-8.91-0.196c-7.803-1.666-15.693-0.586-23.511-1.253
		c-0.512-0.044-1.036,0.054-1.546,0.003c-1.898-0.189-3.782,1.11-5.746-1.088c-0.876-0.98-4.176-0.387-6.097,0.288
		c-3.437,1.207-6.088-0.914-9.192-0.792c0-0.341-0.001-0.682-0.001-1.022c0.669-0.143,1.335-0.387,2.008-0.41
		c9.073-0.319,18.145-0.637,27.219-0.893c7.971-0.224,15.944-0.407,23.917-0.525c2.598-0.039,5.204,0.334,7.798,0.26
		c5.783-0.165,11.56-0.591,17.343-0.705c2.292-0.045,4.62,0.801,6.886,0.631c4.139-0.311,8.222-0.107,12.326,0.288
		c0.524,0.051,1.083-0.258,2.199-0.55c-0.896-0.892-1.373-1.576-2.024-1.979c-3.514-2.172-7.04-4.327-10.621-6.384
		c-3.692-2.122-7.407-4.214-11.194-6.159c-5.644-2.899-11.366-5.645-17.041-8.483c-2.534-1.268-5.007-2.658-7.557-3.892
		c-2.496-1.208-5.071-2.25-7.579-3.434c-2.849-1.343-5.722-2.653-8.475-4.177c-3.583-1.981-7.057-4.158-10.58-6.25
		c-0.073-0.043-0.188-0.035-0.24-0.092c-1.22-1.327-3.583-2.254-2.772-4.385c0.289-0.761,2.643-0.854,4.082-1.025
		c1.387-0.164,2.81-0.035,4.217-0.035c0.009,0.374,0.019,0.747,0.028,1.121c-2.123,0.121-4.245,0.243-6.368,0.365
		c-0.154,0.207-0.307,0.414-0.461,0.621c1.27,1.167,2.375,2.633,3.841,3.446c4.974,2.759,10.078,5.282,15.128,7.903
		c2.663,1.383,5.29,2.838,7.982,4.159c2.541,1.247,5.144,2.367,7.724,3.532c3.001,1.356,6.061,2.596,9,4.074
		c4.823,2.426,9.6,4.948,14.339,7.534c3.938,2.148,7.842,4.369,11.676,6.697c3.755,2.281,7.391,4.759,11.118,7.087
		c0.413,0.258,1.087,0.097,2.007-0.439c-3.162-3.414-6.325-6.828-9.987-10.782c1.809-0.213,2.793-0.438,3.774-0.427
		c12.861,0.158,25.725,0.24,38.582,0.58c6.395,0.168,12.777,0.822,19.166,1.261c6.182,0.424,12.364,0.854,18.546,1.278
		c5.349,0.366,10.696,0.745,16.046,1.075c0.956,0.06,1.925-0.092,2.887-0.146c0.003-0.257,0.005-0.513,0.008-0.77
		c-2.839-0.244-5.694-0.373-8.513-0.762c-3.608-0.498-7.186-1.212-10.779-1.819c-0.769-0.131-1.549-0.202-2.323-0.305
		c-5.844-0.775-11.684-1.589-17.535-2.311c-2.829-0.349-5.678-0.554-8.521-0.774c-4.882-0.378-9.779-0.595-14.645-1.112
		c-3.835-0.407-7.618-1.303-11.452-1.729c-3.965-0.44-7.965-0.573-11.948-0.849c-0.685-0.047-1.366-0.136-2.049-0.205
		c-0.117-0.231-0.234-0.463-0.352-0.694c0.601-0.357,1.243-1.078,1.796-1.016c4.658,0.525,9.286,1.326,13.949,1.78
		c4.397,0.428,8.841,0.391,13.237,0.824c4.774,0.472,9.512,1.309,14.277,1.88c4.759,0.572,9.546,0.927,14.3,1.533
		c5.802,0.74,11.578,1.681,17.374,2.465c3.91,0.528,7.939,0.532,11.731,1.493c5.775,1.465,11.952,0.568,17.513,3.284
		c1.3,0.635,3.095,0.176,4.624,0.438c8.742,1.506,17.484,2.758,26.384,3.123c5.969,0.244,11.889,1.557,17.842,2.299
		c3.91,0.487,7.871,0.639,11.756,1.265c2.887,0.465,5.684,1.473,8.531,2.195c1.863,0.472,3.75,0.866,5.625,1.296
		c-0.043,0.228-0.084,0.455-0.127,0.683c-3.451-0.643-6.895-1.352-10.361-1.904c-2.523-0.402-5.078-0.608-7.621-0.884
		c-5.021-0.543-10.049-1.021-15.062-1.63c-2.654-0.321-5.285-0.858-7.926-1.299c-0.072,0.314-0.145,0.629-0.217,0.943
		c2.24,1.014,4.48,2.028,6.721,3.042c-0.082,0.337-0.164,0.674-0.246,1.01c-3.99,0-7.979,0-11.969,0
		c0.006,0.135,0.01,0.27,0.016,0.404c2.264-0.43,4.529-0.857,6.793-1.286c0.014-0.289,0.027-0.577,0.041-0.866
		c-2.281-0.646-4.541-1.396-6.852-1.918c-4.639-1.048-9.293-2.031-13.965-2.918c-2.627-0.499-5.291-0.891-7.955-1.09
		c-6.445-0.484-12.902-0.798-19.351-1.234c-6.885-0.467-13.76-1.082-20.648-1.477c-8.369-0.479-16.747-0.788-25.121-1.186
		c-10.419-0.494-20.838-0.982-31.255-1.514c-5.779-0.296-11.554-0.688-17.332-0.999c-0.936-0.051-1.881,0.086-3.501,0.173
		c1.365,1.258,2.404,2.025,3.201,2.991c1.381,1.676,2.871,3.344,3.828,5.259c0.846,1.694,1.887,2.203,3.63,2.182
		c5.06-0.064,10.125-0.132,15.182,0.01c5.083,0.142,10.156,0.695,15.237,0.779c11,0.184,22.003,0.143,33.004,0.269
		c13.285,0.15,26.57,0.314,39.852,0.604c5.861,0.128,11.712,0.572,17.568,0.894c0.459,0.025,0.908,0.211,1.361,0.322
		c0.01,0.225,0.021,0.45,0.031,0.675c-0.83,0.139-1.662,0.407-2.49,0.397c-13.111-0.147-26.222-0.323-39.333-0.522
		c-0.846-0.013-1.687-0.388-2.531-0.395c-1.827-0.015-3.656,0.086-5.484,0.171c-0.683,0.031-1.365,0.252-2.039,0.218
		c-5.76-0.29-11.515-0.691-17.277-0.913c-3.908-0.15-7.827,0.02-11.736-0.105c-6.207-0.198-12.407-0.618-18.613-0.771
		c-7.553-0.185-15.111-0.193-22.667-0.257c-0.589-0.005-1.179,0.158-1.769,0.243c-0.1,0.252-0.201,0.504-0.301,0.757
		c0.896,0.404,1.791,1.154,2.689,1.159c12.256,0.075,24.513-0.035,36.769,0.062c18.251,0.144,36.502,0.349,54.75,0.656
		c10.908,0.184,21.813,0.589,32.717,0.936c15.855,0.504,31.707,1.067,47.562,1.556c3.545,0.11,7.096,0.017,10.693-0.604
		c-1.139-0.095-2.275-0.189-3.414-0.283c-0.062-0.313-0.123-0.627-0.186-0.94c1.051-0.206,2.416-0.939,3.104-0.532
		c4.252,2.523,8.869,2.354,13.514,2.308c3.041-0.03,6.1-0.151,9.123,0.094c7.205,0.584,14.395,1.349,21.584,2.088
		c0.422,0.043,1.174,0.569,1.143,0.771c-0.514,3.215,3.117,4.523,3.34,7.373c0.023,0.301,0.359,0.577,0.383,0.878
		c0.547,6.953,1.16,13.903,1.562,20.864c0.219,3.814-0.217,7.679,0.156,11.471c0.664,6.75,1.412,13.522,2.736,20.165
		c0.666,3.336,2.68,6.401,4.07,9.596C472.096,404.021,472.205,404.503,472.543,405.559z M161.211,324.741
		c0,0.396,0.001,0.794,0.001,1.19c21.077,0.405,42.154,0.811,63.23,1.217c0.107-0.327,0.214-0.655,0.321-0.982
		c-0.753-0.407-1.484-1.106-2.264-1.166c-2.148-0.165-4.317-0.048-6.478-0.066c-9.462-0.086-18.924-0.193-28.385-0.264
		c-2.935-0.022-5.87,0.062-8.804,0.067C172.958,324.75,167.085,324.741,161.211,324.741z"/>
	<path fill-rule="evenodd" clip-rule="evenodd" d="M297.678,290.996c-5.282,0-10.563-0.011-15.845,0.004
		c-3.739,0.01-7.491-0.137-11.214,0.119c-8.465,0.583-16.913,1.401-25.373,2.06c-3.443,0.268-6.906,0.278-10.348,0.562
		c-5.065,0.418-10.146,0.796-15.169,1.537c-3.348,0.494-6.607,1.591-9.906,2.419c-0.042,0.285-0.085,0.57-0.128,0.855
		c2.435,1.239,20.174,4.366,22.609,5.606c-0.159,0.37-1.407,1.194-1.565,1.565c-2.829-1.115-19.915-4.484-22.663-5.771
		c-0.485-0.227-0.856-1.72-0.583-2.307c0.415-0.894,1.334-1.963,2.217-2.157c3.423-0.755,6.909-1.247,10.385-1.738
		c6.133-0.865,12.271-1.697,18.417-2.456c1.63-0.202,3.303-0.022,4.949-0.13c8.046-0.523,16.089-1.082,24.132-1.649
		c0.204-0.014,0.391-0.26,0.866-0.597c-0.59-0.196-0.938-0.393-1.297-0.421c-7.233-0.556-14.548-0.597-21.679-1.765
		c-7.792-1.276-15.639-1.697-23.426-2.71c-8.109-1.054-16.166-2.149-24.36-2.525c-9.217-0.422-18.398-1.638-27.595-2.497
		c-3.773-0.354-7.558-0.609-11.319-1.06c-1.226-0.146-2.395-0.769-3.568-0.839c6.738,0,13.502-0.378,20.208,0.089
		c9.965,0.694,19.814,2.733,29.875,2.569c2.496-0.04,4.993,0.795,7.507,1.043c5.845,0.578,11.705,1.002,17.55,1.584
		c1.582,0.157,3.115,0.793,4.697,0.978c4.962,0.581,9.944,0.986,14.904,1.583c4.421,0.532,8.808,1.372,13.237,1.811
		c4.316,0.428,8.677,0.402,13,0.785c6.892,0.611,13.771,1.386,20.65,2.137c0.378,0.042,0.711,0.508,1.064,0.776
		C297.831,290.637,297.754,290.816,297.678,290.996z"/>
</g>
</svg>
