<?xml version="1.0" encoding="utf-8"?>
<!-- Generator: Adobe Illustrator 16.0.4, SVG Export Plug-In . SVG Version: 6.00 Build 0)  -->
<!DOCTYPE svg PUBLIC "-//W3C//DTD SVG 1.1//EN" "http://www.w3.org/Graphics/SVG/1.1/DTD/svg11.dtd">
<svg version="1.1" id="Calque_1" xmlns="http://www.w3.org/2000/svg" xmlns:xlink="http://www.w3.org/1999/xlink" x="0px" y="0px"
	 width="600px" height="600px" viewBox="0 0 600 600" enable-background="new 0 0 600 600" xml:space="preserve">
<g>
	<path fill="#9B9B9B" d="M125.58,279.673c0.132-0.024,0.278-0.043,0.44-0.056c0.162-0.012,0.308-0.02,0.439-0.02
		s0.281,0.008,0.449,0.02c0.167,0.013,0.317,0.031,0.449,0.056v5.218c0.215-0.371,0.55-0.69,1.005-0.963
		c0.455-0.271,1.005-0.406,1.651-0.406c0.55,0,1.059,0.092,1.525,0.277c0.466,0.186,0.867,0.473,1.202,0.859
		c0.335,0.389,0.595,0.883,0.781,1.48c0.185,0.598,0.278,1.305,0.278,2.116c0,1.629-0.446,2.902-1.336,3.82
		c-0.892,0.92-2.175,1.379-3.85,1.379c-0.526,0-1.067-0.054-1.624-0.158c-0.556-0.104-1.026-0.225-1.409-0.358V279.673
		L125.58,279.673z M127.357,291.697c0.215,0.074,0.445,0.127,0.691,0.158c0.245,0.028,0.499,0.045,0.763,0.045
		c0.442,0,0.852-0.07,1.229-0.213c0.377-0.142,0.703-0.357,0.978-0.646s0.494-0.66,0.655-1.111c0.162-0.449,0.243-0.981,0.243-1.6
		c0-1.021-0.174-1.818-0.521-2.387c-0.347-0.566-0.921-0.851-1.723-0.851c-0.275,0-0.547,0.046-0.817,0.14
		c-0.269,0.092-0.518,0.24-0.745,0.442c-0.227,0.204-0.41,0.476-0.547,0.813c-0.137,0.339-0.206,0.75-0.206,1.23V291.697z"/>
	<path fill="#9B9B9B" d="M136.724,285.186h-1.167c-0.024-0.099-0.042-0.211-0.054-0.342c-0.012-0.13-0.018-0.256-0.018-0.379
		c0-0.124,0.006-0.25,0.018-0.38c0.012-0.129,0.029-0.243,0.054-0.342h2.907v9.489c-0.132,0.024-0.278,0.043-0.44,0.057
		c-0.162,0.012-0.308,0.018-0.439,0.018c-0.12,0-0.26-0.006-0.422-0.018c-0.162-0.014-0.308-0.031-0.439-0.057V285.186z
		 M136.329,281.652c-0.024-0.147-0.039-0.309-0.045-0.48c-0.006-0.172-0.009-0.326-0.009-0.463s0.003-0.29,0.009-0.463
		c0.006-0.172,0.021-0.326,0.045-0.462c0.155-0.024,0.323-0.043,0.502-0.056c0.18-0.014,0.335-0.02,0.467-0.02
		c0.131,0,0.287,0.006,0.466,0.02c0.18,0.013,0.341,0.03,0.485,0.056c0.023,0.136,0.039,0.29,0.044,0.462
		c0.006,0.173,0.009,0.326,0.009,0.463s-0.003,0.29-0.009,0.463c-0.006,0.174-0.021,0.333-0.044,0.48
		c-0.144,0.024-0.303,0.043-0.476,0.056c-0.174,0.013-0.326,0.019-0.458,0.019c-0.144,0-0.305-0.006-0.484-0.019
		C136.652,281.695,136.484,281.678,136.329,281.652z"/>
	<path fill="#9B9B9B" d="M142.682,288.941c0.024,1.035,0.284,1.795,0.78,2.274s1.229,0.722,2.198,0.722
		c0.85,0,1.657-0.154,2.423-0.463c0.096,0.186,0.173,0.409,0.233,0.676c0.06,0.266,0.095,0.526,0.107,0.787
		c-0.395,0.172-0.829,0.301-1.301,0.389c-0.473,0.086-0.996,0.129-1.57,0.129c-0.837,0-1.555-0.121-2.153-0.361
		c-0.599-0.24-1.092-0.58-1.48-1.018c-0.389-0.438-0.673-0.955-0.853-1.553c-0.179-0.601-0.269-1.256-0.269-1.972
		c0-0.702,0.086-1.358,0.26-1.97c0.173-0.611,0.439-1.141,0.798-1.592c0.359-0.449,0.811-0.809,1.355-1.072
		c0.544-0.266,1.187-0.398,1.929-0.398c0.634,0,1.19,0.111,1.669,0.334c0.478,0.223,0.879,0.526,1.202,0.916
		c0.323,0.389,0.568,0.852,0.736,1.387c0.167,0.537,0.251,1.119,0.251,1.748c0,0.174-0.006,0.354-0.018,0.547
		c-0.012,0.191-0.024,0.354-0.036,0.49H142.682L142.682,288.941z M147.24,287.572c0-0.346-0.045-0.676-0.135-0.989
		s-0.222-0.589-0.395-0.823s-0.395-0.423-0.664-0.564c-0.27-0.141-0.589-0.213-0.96-0.213c-0.729,0-1.289,0.229-1.678,0.686
		c-0.389,0.456-0.625,1.092-0.709,1.904H147.24L147.24,287.572z"/>
	<path fill="#9B9B9B" d="M151.331,283.743c0.131-0.024,0.26-0.043,0.386-0.056c0.126-0.014,0.254-0.02,0.386-0.02
		s0.254,0.006,0.368,0.02c0.113,0.013,0.236,0.03,0.368,0.056c0.036,0.185,0.072,0.435,0.108,0.749
		c0.036,0.314,0.054,0.576,0.054,0.785c0.12-0.209,0.272-0.418,0.458-0.629c0.186-0.209,0.397-0.396,0.637-0.563
		c0.239-0.166,0.514-0.302,0.825-0.407c0.311-0.104,0.652-0.156,1.023-0.156c1.053,0,1.831,0.312,2.333,0.935
		s0.753,1.545,0.753,2.767v6.012c-0.131,0.024-0.281,0.043-0.448,0.057c-0.168,0.012-0.317,0.018-0.449,0.018
		c-0.132,0-0.278-0.006-0.44-0.018c-0.161-0.014-0.308-0.031-0.439-0.057v-5.512c0-0.877-0.132-1.521-0.395-1.935
		c-0.264-0.413-0.682-0.62-1.256-0.62c-0.335,0-0.652,0.062-0.951,0.186c-0.299,0.123-0.562,0.314-0.79,0.573
		s-0.41,0.597-0.547,1.009c-0.137,0.414-0.207,0.91-0.207,1.489v4.81c-0.131,0.024-0.278,0.043-0.439,0.057
		c-0.162,0.012-0.308,0.018-0.439,0.018c-0.132,0-0.281-0.006-0.449-0.018c-0.168-0.014-0.317-0.031-0.449-0.057L151.331,283.743
		L151.331,283.743z"/>
	<path fill="#9B9B9B" d="M171.86,279.673c0.132-0.024,0.281-0.043,0.449-0.056c0.167-0.012,0.311-0.02,0.431-0.02
		c0.131,0,0.278,0.008,0.44,0.02c0.161,0.013,0.308,0.031,0.439,0.056v13.302c-0.455,0.135-0.963,0.25-1.525,0.342
		c-0.562,0.093-1.19,0.14-1.884,0.14c-0.646,0-1.259-0.084-1.839-0.25c-0.581-0.166-1.085-0.44-1.516-0.822
		c-0.431-0.383-0.772-0.877-1.023-1.479c-0.251-0.605-0.377-1.352-0.377-2.238c0-0.766,0.11-1.462,0.332-2.091
		c0.221-0.63,0.535-1.168,0.942-1.618s0.895-0.799,1.463-1.046c0.568-0.246,1.199-0.37,1.893-0.37c0.311,0,0.625,0.025,0.942,0.074
		c0.317,0.05,0.595,0.111,0.834,0.186L171.86,279.673L171.86,279.673z M171.86,285.354c-0.239-0.1-0.497-0.174-0.771-0.223
		c-0.275-0.05-0.574-0.074-0.897-0.074c-0.49,0-0.915,0.092-1.274,0.277s-0.655,0.438-0.888,0.759
		c-0.233,0.32-0.407,0.7-0.521,1.138c-0.114,0.438-0.17,0.914-0.17,1.435c0.012,1.172,0.281,2.01,0.808,2.517
		c0.526,0.506,1.244,0.758,2.153,0.758c0.311,0,0.598-0.017,0.861-0.045c0.263-0.031,0.496-0.078,0.7-0.142L171.86,285.354
		L171.86,285.354z"/>
	<path fill="#9B9B9B" d="M177.817,288.941c0.024,1.035,0.284,1.795,0.781,2.274s1.229,0.722,2.198,0.722
		c0.85,0,1.657-0.154,2.423-0.463c0.095,0.186,0.173,0.409,0.233,0.676c0.06,0.266,0.096,0.526,0.108,0.787
		c-0.395,0.172-0.829,0.301-1.301,0.389c-0.473,0.086-0.996,0.129-1.57,0.129c-0.838,0-1.556-0.121-2.153-0.361
		c-0.599-0.24-1.092-0.58-1.48-1.018c-0.389-0.438-0.673-0.955-0.853-1.553c-0.18-0.601-0.269-1.256-0.269-1.972
		c0-0.702,0.086-1.358,0.26-1.97c0.173-0.611,0.44-1.141,0.799-1.592c0.359-0.449,0.81-0.809,1.355-1.072
		c0.544-0.266,1.187-0.398,1.929-0.398c0.634,0,1.19,0.111,1.669,0.334s0.879,0.526,1.203,0.916
		c0.323,0.389,0.568,0.852,0.735,1.387c0.167,0.537,0.251,1.119,0.251,1.748c0,0.174-0.006,0.354-0.018,0.547
		c-0.012,0.191-0.024,0.354-0.036,0.49H177.817L177.817,288.941z M182.375,287.572c0-0.346-0.045-0.676-0.134-0.989
		c-0.09-0.313-0.222-0.589-0.395-0.823c-0.173-0.234-0.395-0.423-0.664-0.564c-0.269-0.141-0.589-0.213-0.96-0.213
		c-0.73,0-1.289,0.229-1.678,0.686s-0.625,1.092-0.709,1.904H182.375L182.375,287.572z M180.438,282.244
		c-0.132,0.025-0.275,0.044-0.431,0.056c-0.156,0.013-0.329,0.019-0.521,0.019c-0.132,0-0.266-0.006-0.404-0.019
		c-0.138-0.012-0.278-0.03-0.421-0.056l2.063-2.35c0.18-0.024,0.365-0.043,0.556-0.056c0.191-0.013,0.389-0.019,0.592-0.019
		c0.215,0,0.413,0.006,0.592,0.019c0.18,0.013,0.353,0.03,0.521,0.056L180.438,282.244z"/>
	<path fill="#9B9B9B" d="M192.604,291.586c0.096,0.174,0.18,0.389,0.251,0.648c0.072,0.258,0.113,0.522,0.125,0.795
		c-0.706,0.283-1.514,0.426-2.423,0.426c-1.531,0-2.686-0.447-3.463-1.342c-0.777-0.896-1.166-2.1-1.166-3.617
		c0-0.702,0.095-1.355,0.287-1.96c0.191-0.604,0.476-1.128,0.852-1.572c0.377-0.444,0.846-0.796,1.409-1.055s1.214-0.39,1.956-0.39
		c0.502,0,0.945,0.031,1.328,0.094c0.383,0.062,0.748,0.16,1.095,0.296c0,0.21-0.027,0.452-0.081,0.731
		c-0.054,0.276-0.128,0.521-0.224,0.729c-0.586-0.21-1.256-0.313-2.01-0.313c-0.921,0-1.609,0.313-2.064,0.942
		s-0.682,1.461-0.682,2.496c0,1.187,0.257,2.051,0.771,2.601c0.514,0.549,1.22,0.823,2.118,0.823c0.359,0,0.691-0.024,0.996-0.073
		C191.985,291.797,192.293,291.709,192.604,291.586z"/>
	<path fill="#9B9B9B" d="M195.583,285.186h-1.167c-0.024-0.099-0.042-0.211-0.054-0.342c-0.012-0.13-0.018-0.256-0.018-0.379
		c0-0.124,0.006-0.25,0.018-0.38c0.012-0.129,0.029-0.243,0.054-0.342h2.907v9.489c-0.132,0.024-0.278,0.043-0.44,0.057
		c-0.162,0.012-0.308,0.018-0.439,0.018c-0.12,0-0.26-0.006-0.422-0.018c-0.162-0.014-0.308-0.031-0.439-0.057V285.186z
		 M195.188,281.652c-0.024-0.147-0.039-0.309-0.045-0.48s-0.009-0.326-0.009-0.463s0.003-0.29,0.009-0.463
		c0.006-0.172,0.021-0.326,0.045-0.462c0.155-0.024,0.323-0.043,0.502-0.056c0.18-0.014,0.335-0.02,0.467-0.02
		c0.131,0,0.287,0.006,0.466,0.02c0.18,0.013,0.341,0.03,0.485,0.056c0.023,0.136,0.039,0.29,0.044,0.462
		c0.006,0.173,0.009,0.326,0.009,0.463s-0.003,0.29-0.009,0.463c-0.006,0.174-0.021,0.333-0.044,0.48
		c-0.144,0.024-0.303,0.043-0.476,0.056c-0.174,0.013-0.326,0.019-0.458,0.019c-0.144,0-0.305-0.006-0.484-0.019
		C195.511,281.695,195.343,281.678,195.188,281.652z"/>
	<path fill="#9B9B9B" d="M206.117,279.673c0.132-0.024,0.281-0.043,0.449-0.056c0.167-0.012,0.311-0.02,0.431-0.02
		c0.131,0,0.278,0.008,0.44,0.02c0.161,0.013,0.308,0.031,0.439,0.056v13.302c-0.455,0.135-0.963,0.25-1.525,0.342
		c-0.562,0.093-1.19,0.14-1.884,0.14c-0.646,0-1.259-0.084-1.839-0.25c-0.581-0.166-1.085-0.44-1.516-0.822
		c-0.431-0.383-0.772-0.877-1.023-1.479c-0.251-0.605-0.377-1.352-0.377-2.238c0-0.766,0.11-1.462,0.332-2.091
		c0.221-0.63,0.535-1.168,0.942-1.618c0.407-0.45,0.895-0.799,1.463-1.046c0.568-0.246,1.199-0.37,1.893-0.37
		c0.311,0,0.625,0.025,0.942,0.074c0.317,0.05,0.595,0.111,0.834,0.186L206.117,279.673L206.117,279.673z M206.117,285.354
		c-0.239-0.1-0.497-0.174-0.771-0.223c-0.275-0.05-0.574-0.074-0.897-0.074c-0.49,0-0.915,0.092-1.274,0.277
		c-0.359,0.186-0.655,0.438-0.888,0.759c-0.233,0.32-0.407,0.7-0.521,1.138c-0.114,0.438-0.17,0.914-0.17,1.435
		c0.012,1.172,0.281,2.01,0.808,2.517c0.526,0.506,1.244,0.758,2.153,0.758c0.311,0,0.598-0.017,0.861-0.045
		c0.263-0.031,0.496-0.078,0.7-0.142L206.117,285.354L206.117,285.354z"/>
	<path fill="#9B9B9B" d="M212.074,288.941c0.024,1.035,0.284,1.795,0.781,2.274s1.229,0.722,2.198,0.722
		c0.85,0,1.657-0.154,2.423-0.463c0.095,0.186,0.173,0.409,0.233,0.676c0.06,0.266,0.096,0.526,0.108,0.787
		c-0.395,0.172-0.829,0.301-1.301,0.389c-0.473,0.086-0.996,0.129-1.57,0.129c-0.838,0-1.556-0.121-2.153-0.361
		c-0.599-0.24-1.092-0.58-1.48-1.018c-0.389-0.438-0.673-0.955-0.853-1.553c-0.18-0.601-0.269-1.256-0.269-1.972
		c0-0.702,0.086-1.358,0.26-1.97c0.173-0.611,0.44-1.141,0.799-1.592c0.359-0.449,0.81-0.809,1.355-1.072
		c0.544-0.266,1.187-0.398,1.929-0.398c0.634,0,1.19,0.111,1.669,0.334s0.879,0.526,1.203,0.916
		c0.323,0.389,0.568,0.852,0.735,1.387c0.167,0.537,0.251,1.119,0.251,1.748c0,0.174-0.006,0.354-0.018,0.547
		c-0.012,0.191-0.024,0.354-0.036,0.49H212.074L212.074,288.941z M216.632,287.572c0-0.346-0.045-0.676-0.134-0.989
		c-0.09-0.313-0.222-0.589-0.395-0.823s-0.395-0.423-0.664-0.564c-0.269-0.141-0.589-0.213-0.96-0.213
		c-0.73,0-1.289,0.229-1.678,0.686c-0.389,0.456-0.625,1.092-0.709,1.904H216.632L216.632,287.572z M214.694,282.244
		c-0.132,0.025-0.275,0.044-0.431,0.056c-0.156,0.013-0.329,0.019-0.521,0.019c-0.132,0-0.266-0.006-0.404-0.019
		c-0.138-0.012-0.278-0.03-0.421-0.056l2.063-2.35c0.18-0.024,0.365-0.043,0.556-0.056s0.389-0.019,0.592-0.019
		c0.215,0,0.413,0.006,0.592,0.019c0.18,0.013,0.353,0.03,0.521,0.056L214.694,282.244z"/>
	<path fill="#9B9B9B" d="M222.052,288.941c0.024,1.035,0.284,1.795,0.78,2.274s1.229,0.722,2.198,0.722
		c0.85,0,1.657-0.154,2.423-0.463c0.096,0.186,0.173,0.409,0.233,0.676c0.06,0.266,0.095,0.526,0.107,0.787
		c-0.395,0.172-0.829,0.301-1.301,0.389c-0.473,0.086-0.996,0.129-1.57,0.129c-0.837,0-1.555-0.121-2.153-0.361
		c-0.599-0.24-1.092-0.58-1.48-1.018c-0.389-0.438-0.673-0.955-0.853-1.553c-0.179-0.601-0.269-1.256-0.269-1.972
		c0-0.702,0.086-1.358,0.26-1.97c0.173-0.611,0.439-1.141,0.798-1.592c0.359-0.449,0.811-0.809,1.355-1.072
		c0.544-0.266,1.187-0.398,1.929-0.398c0.634,0,1.19,0.111,1.669,0.334c0.478,0.223,0.879,0.526,1.202,0.916
		c0.323,0.389,0.568,0.852,0.736,1.387c0.167,0.537,0.251,1.119,0.251,1.748c0,0.174-0.006,0.354-0.018,0.547
		c-0.012,0.191-0.024,0.354-0.036,0.49H222.052L222.052,288.941z M226.61,287.572c0-0.346-0.045-0.676-0.135-0.989
		c-0.09-0.313-0.222-0.589-0.395-0.823s-0.395-0.423-0.664-0.564c-0.27-0.141-0.589-0.213-0.96-0.213
		c-0.729,0-1.289,0.229-1.678,0.686c-0.389,0.456-0.625,1.092-0.709,1.904H226.61L226.61,287.572z"/>
	<path fill="#9B9B9B" d="M239.817,286.98c0-0.729-0.18-1.233-0.539-1.518c-0.359-0.283-0.879-0.426-1.561-0.426
		c-0.419,0-0.811,0.033-1.175,0.102c-0.365,0.068-0.721,0.157-1.068,0.27c-0.228-0.407-0.341-0.895-0.341-1.463
		c0.406-0.135,0.855-0.239,1.346-0.313c0.49-0.073,0.963-0.11,1.417-0.11c1.196,0,2.105,0.281,2.728,0.842
		c0.622,0.562,0.933,1.459,0.933,2.691v5.938c-0.419,0.1-0.927,0.2-1.525,0.305c-0.599,0.104-1.208,0.158-1.831,0.158
		c-0.586,0-1.116-0.058-1.588-0.166c-0.473-0.11-0.874-0.291-1.203-0.537s-0.583-0.562-0.763-0.942
		c-0.179-0.383-0.269-0.847-0.269-1.388c0-0.53,0.104-0.995,0.314-1.397c0.209-0.4,0.494-0.732,0.853-0.998s0.771-0.463,1.238-0.592
		c0.466-0.131,0.957-0.194,1.471-0.194c0.383,0,0.697,0.01,0.942,0.028c0.245,0.019,0.451,0.039,0.619,0.063v-0.353H239.817z
		 M235.188,279.895c0.179-0.023,0.359-0.043,0.538-0.055c0.18-0.013,0.377-0.02,0.592-0.02c0.191,0,0.386,0.007,0.583,0.02
		c0.197,0.012,0.386,0.03,0.565,0.055l2.064,2.351c-0.275,0.05-0.557,0.073-0.844,0.073c-0.179,0-0.35-0.006-0.511-0.019
		c-0.162-0.012-0.308-0.03-0.439-0.056L235.188,279.895z M239.817,288.773c-0.18-0.023-0.407-0.049-0.682-0.072
		c-0.275-0.025-0.508-0.037-0.7-0.037c-0.742,0-1.307,0.141-1.696,0.426c-0.389,0.283-0.583,0.715-0.583,1.295
		c0,0.369,0.066,0.658,0.198,0.869c0.131,0.209,0.296,0.369,0.493,0.48c0.198,0.111,0.416,0.18,0.655,0.203
		c0.239,0.024,0.466,0.037,0.682,0.037c0.275,0,0.559-0.017,0.853-0.047c0.293-0.029,0.553-0.076,0.781-0.14L239.817,288.773
		L239.817,288.773z"/>
	<path fill="#9B9B9B" d="M248.484,283.743c0.132-0.024,0.261-0.043,0.386-0.056c0.126-0.014,0.254-0.02,0.386-0.02
		c0.132,0,0.255,0.006,0.368,0.02c0.113,0.013,0.236,0.03,0.367,0.056c0.037,0.185,0.072,0.429,0.108,0.729
		c0.036,0.303,0.054,0.56,0.054,0.769c0.107-0.222,0.242-0.435,0.404-0.638c0.161-0.205,0.352-0.387,0.574-0.547
		c0.221-0.16,0.475-0.289,0.762-0.389s0.604-0.148,0.951-0.148c0.719,0,1.271,0.151,1.66,0.455c0.389,0.301,0.685,0.725,0.889,1.267
		c0.119-0.209,0.266-0.419,0.439-0.63c0.173-0.209,0.367-0.395,0.583-0.555s0.46-0.289,0.735-0.389s0.586-0.148,0.934-0.148
		c1.064,0,1.84,0.31,2.324,0.926c0.484,0.617,0.727,1.529,0.727,2.738v6.049c-0.132,0.024-0.281,0.043-0.449,0.057
		c-0.167,0.012-0.316,0.018-0.448,0.018c-0.132,0-0.278-0.006-0.439-0.018c-0.161-0.014-0.308-0.031-0.44-0.057v-5.512
		c0-0.853-0.125-1.49-0.376-1.916s-0.664-0.639-1.238-0.639c-0.61,0-1.104,0.229-1.48,0.686c-0.377,0.457-0.565,1.129-0.565,2.017
		v5.364c-0.132,0.024-0.277,0.043-0.439,0.057c-0.162,0.012-0.309,0.018-0.439,0.018c-0.133,0-0.278-0.006-0.439-0.018
		c-0.162-0.014-0.309-0.031-0.439-0.057v-5.643c0-0.826-0.121-1.445-0.359-1.859c-0.24-0.412-0.623-0.619-1.148-0.619
		c-0.299,0-0.58,0.068-0.844,0.203c-0.264,0.137-0.494,0.34-0.691,0.61c-0.197,0.271-0.353,0.614-0.466,1.027
		c-0.114,0.413-0.171,0.891-0.171,1.435v4.846c-0.131,0.024-0.277,0.043-0.439,0.057c-0.162,0.012-0.309,0.018-0.439,0.018
		c-0.132,0-0.281-0.006-0.449-0.018c-0.168-0.014-0.316-0.031-0.448-0.057v-9.489H248.484z"/>
	<path fill="#9B9B9B" d="M265.138,288.941c0.023,1.035,0.283,1.795,0.779,2.274c0.497,0.479,1.23,0.722,2.199,0.722
		c0.85,0,1.656-0.154,2.422-0.463c0.096,0.186,0.174,0.409,0.234,0.676c0.059,0.266,0.095,0.526,0.107,0.787
		c-0.395,0.172-0.829,0.301-1.301,0.389c-0.473,0.086-0.996,0.129-1.57,0.129c-0.838,0-1.556-0.121-2.154-0.361
		s-1.092-0.58-1.48-1.018s-0.672-0.955-0.852-1.553c-0.18-0.601-0.27-1.256-0.27-1.972c0-0.702,0.086-1.358,0.26-1.97
		c0.174-0.611,0.439-1.141,0.799-1.592c0.359-0.449,0.811-0.809,1.355-1.072c0.543-0.266,1.187-0.398,1.929-0.398
		c0.634,0,1.19,0.111,1.669,0.334s0.879,0.526,1.202,0.916c0.323,0.389,0.567,0.852,0.735,1.387
		c0.168,0.537,0.252,1.119,0.252,1.748c0,0.174-0.006,0.354-0.019,0.547c-0.012,0.191-0.024,0.354-0.036,0.49H265.138
		L265.138,288.941z M269.695,287.572c0-0.346-0.045-0.676-0.135-0.989s-0.222-0.589-0.396-0.823
		c-0.173-0.234-0.395-0.423-0.663-0.564c-0.27-0.141-0.589-0.213-0.96-0.213c-0.73,0-1.289,0.229-1.678,0.686
		c-0.389,0.456-0.625,1.092-0.709,1.904H269.695L269.695,287.572z"/>
	<path fill="#9B9B9B" d="M274.128,285.204h-1.4l-0.071-0.259l3.087-3.553h0.143v2.351h2.334c0.047,0.21,0.071,0.442,0.071,0.702
		c0,0.137-0.007,0.266-0.019,0.389c-0.012,0.124-0.029,0.247-0.053,0.37h-2.334v4.329c0,0.518,0.021,0.932,0.063,1.238
		c0.042,0.309,0.113,0.547,0.216,0.713c0.102,0.166,0.238,0.277,0.412,0.334c0.174,0.055,0.392,0.082,0.654,0.082
		c0.204,0,0.396-0.016,0.574-0.045c0.18-0.031,0.342-0.066,0.485-0.104c0.083,0.248,0.134,0.5,0.152,0.761
		c0.019,0.258,0.026,0.485,0.026,0.684c-0.238,0.062-0.49,0.109-0.753,0.139c-0.264,0.031-0.545,0.047-0.844,0.047
		c-0.861,0-1.534-0.215-2.019-0.646c-0.485-0.43-0.727-1.147-0.727-2.146v-5.385H274.128z"/>
	<path fill="#9B9B9B" d="M280.552,285.204h-1.399l-0.071-0.259l3.086-3.553h0.144v2.351h2.333c0.047,0.21,0.072,0.442,0.072,0.702
		c0,0.137-0.007,0.266-0.019,0.389c-0.013,0.124-0.03,0.247-0.054,0.37h-2.333v4.329c0,0.518,0.021,0.932,0.063,1.238
		c0.041,0.309,0.113,0.547,0.215,0.713s0.238,0.277,0.412,0.334c0.174,0.055,0.393,0.082,0.655,0.082
		c0.204,0,0.396-0.016,0.574-0.045c0.18-0.031,0.341-0.066,0.485-0.104c0.083,0.248,0.134,0.5,0.152,0.761
		c0.018,0.258,0.026,0.485,0.026,0.684c-0.239,0.062-0.491,0.109-0.753,0.139c-0.264,0.031-0.545,0.047-0.844,0.047
		c-0.861,0-1.535-0.215-2.02-0.646c-0.485-0.43-0.727-1.147-0.727-2.146v-5.385H280.552z"/>
	<path fill="#9B9B9B" d="M286.635,283.743c0.132-0.024,0.257-0.043,0.377-0.056c0.12-0.014,0.245-0.02,0.377-0.02
		c0.132,0,0.263,0.006,0.395,0.02c0.132,0.013,0.251,0.03,0.358,0.056c0.037,0.185,0.072,0.429,0.108,0.729
		c0.036,0.303,0.054,0.56,0.054,0.769c0.252-0.419,0.583-0.783,0.996-1.093c0.412-0.308,0.941-0.461,1.588-0.461
		c0.096,0,0.194,0.002,0.297,0.008c0.101,0.008,0.188,0.017,0.26,0.029c0.023,0.109,0.041,0.229,0.054,0.352
		c0.012,0.123,0.018,0.253,0.018,0.389c0,0.146-0.009,0.303-0.026,0.463c-0.017,0.159-0.039,0.313-0.062,0.463
		c-0.097-0.024-0.195-0.037-0.297-0.037c-0.102,0-0.183,0-0.242,0c-0.322,0-0.631,0.045-0.924,0.139
		c-0.293,0.093-0.557,0.256-0.79,0.49c-0.233,0.233-0.419,0.555-0.556,0.961c-0.139,0.408-0.207,0.933-0.207,1.572v4.717
		c-0.131,0.025-0.277,0.043-0.439,0.058c-0.162,0.013-0.309,0.019-0.439,0.019c-0.132,0-0.278-0.006-0.439-0.019
		c-0.162-0.015-0.314-0.03-0.458-0.058v-9.489H286.635z"/>
	<path fill="#9B9B9B" d="M294.369,288.941c0.024,1.035,0.284,1.795,0.78,2.274s1.229,0.722,2.198,0.722
		c0.85,0,1.657-0.154,2.422-0.463c0.097,0.186,0.174,0.409,0.233,0.676c0.06,0.266,0.096,0.526,0.107,0.787
		c-0.396,0.172-0.828,0.301-1.302,0.389c-0.473,0.086-0.996,0.129-1.57,0.129c-0.837,0-1.556-0.121-2.153-0.361
		c-0.599-0.24-1.092-0.58-1.48-1.018s-0.673-0.955-0.853-1.553c-0.179-0.601-0.269-1.256-0.269-1.972c0-0.702,0.086-1.358,0.26-1.97
		c0.174-0.611,0.439-1.141,0.799-1.592c0.358-0.449,0.811-0.809,1.354-1.072c0.544-0.266,1.187-0.398,1.929-0.398
		c0.635,0,1.189,0.111,1.669,0.334c0.479,0.223,0.88,0.526,1.202,0.916c0.322,0.389,0.567,0.852,0.735,1.387
		c0.167,0.537,0.251,1.119,0.251,1.748c0,0.174-0.006,0.354-0.018,0.547c-0.013,0.191-0.024,0.354-0.036,0.49H294.369
		L294.369,288.941z M298.927,287.572c0-0.346-0.045-0.676-0.135-0.989c-0.089-0.313-0.221-0.589-0.395-0.823
		c-0.175-0.234-0.396-0.423-0.664-0.564c-0.27-0.141-0.589-0.213-0.96-0.213c-0.729,0-1.289,0.229-1.678,0.686
		c-0.389,0.456-0.625,1.092-0.709,1.904H298.927L298.927,287.572z"/>
	<path fill="#9B9B9B" d="M307.612,285.204h-1.399l-0.072-0.259l3.088-3.553h0.144v2.351h2.333c0.048,0.21,0.071,0.442,0.071,0.702
		c0,0.137-0.006,0.266-0.019,0.389c-0.012,0.124-0.029,0.247-0.054,0.37h-2.333v4.329c0,0.518,0.021,0.932,0.062,1.238
		c0.042,0.309,0.114,0.547,0.217,0.713c0.102,0.166,0.238,0.277,0.412,0.334c0.174,0.055,0.393,0.082,0.654,0.082
		c0.203,0,0.396-0.016,0.574-0.045c0.18-0.031,0.341-0.066,0.484-0.104c0.084,0.248,0.135,0.5,0.152,0.761
		c0.019,0.258,0.026,0.485,0.026,0.684c-0.239,0.062-0.49,0.109-0.754,0.139c-0.263,0.031-0.544,0.047-0.843,0.047
		c-0.861,0-1.534-0.215-2.021-0.646c-0.483-0.432-0.727-1.147-0.727-2.146v-5.385H307.612z"/>
	<path fill="#9B9B9B" d="M317.428,293.455c-0.718,0-1.346-0.127-1.884-0.379c-0.539-0.254-0.987-0.602-1.346-1.045
		c-0.359-0.445-0.626-0.969-0.799-1.574c-0.175-0.604-0.262-1.258-0.262-1.961c0-0.702,0.087-1.355,0.262-1.96
		c0.173-0.604,0.438-1.128,0.799-1.572c0.357-0.444,0.807-0.796,1.346-1.055c0.538-0.259,1.166-0.39,1.884-0.39
		c0.719,0,1.347,0.131,1.886,0.39c0.537,0.259,0.985,0.61,1.346,1.055c0.357,0.444,0.625,0.97,0.799,1.572
		c0.173,0.604,0.26,1.258,0.26,1.96c0,0.703-0.087,1.357-0.26,1.961c-0.174,0.605-0.44,1.129-0.799,1.574
		c-0.359,0.443-0.809,0.791-1.346,1.045C318.773,293.328,318.146,293.455,317.428,293.455z M317.428,291.994
		c0.825,0,1.437-0.309,1.831-0.926c0.396-0.617,0.592-1.473,0.592-2.572c0-1.098-0.196-1.95-0.592-2.561
		c-0.396-0.611-1.006-0.916-1.831-0.916c-0.824,0-1.433,0.305-1.82,0.916c-0.39,0.609-0.583,1.463-0.583,2.561
		c0,1.1,0.193,1.955,0.583,2.572C315.996,291.686,316.603,291.994,317.428,291.994z"/>
	<path fill="#9B9B9B" d="M323.942,283.743c0.131-0.024,0.279-0.043,0.447-0.056c0.168-0.014,0.312-0.02,0.432-0.02
		c0.132,0,0.28,0.006,0.448,0.02c0.167,0.013,0.316,0.03,0.448,0.056v5.198c0,0.592,0.054,1.082,0.161,1.471
		c0.108,0.389,0.271,0.693,0.485,0.916c0.215,0.221,0.478,0.375,0.789,0.461c0.311,0.088,0.67,0.131,1.077,0.131
		c0.608,0,1.13-0.068,1.561-0.203v-7.974c0.132-0.024,0.278-0.043,0.439-0.056c0.161-0.014,0.309-0.02,0.439-0.02
		s0.278,0.006,0.439,0.02c0.16,0.013,0.308,0.03,0.438,0.056v9.194c-0.419,0.123-0.918,0.239-1.498,0.352
		c-0.581,0.109-1.182,0.166-1.804,0.166c-0.586,0-1.14-0.053-1.66-0.158c-0.521-0.104-0.978-0.316-1.373-0.637
		c-0.395-0.322-0.705-0.771-0.933-1.352c-0.229-0.582-0.341-1.345-0.341-2.293v-5.272H323.942z"/>
	<path fill="#9B9B9B" d="M334.69,285.204h-1.399l-0.072-0.259l3.087-3.553h0.145v2.351h2.333c0.048,0.21,0.071,0.442,0.071,0.702
		c0,0.137-0.007,0.266-0.019,0.389c-0.012,0.124-0.03,0.247-0.054,0.37h-2.333v4.329c0,0.518,0.021,0.932,0.062,1.238
		c0.042,0.309,0.114,0.547,0.217,0.713c0.102,0.166,0.238,0.277,0.411,0.334c0.175,0.055,0.394,0.082,0.655,0.082
		c0.203,0,0.396-0.016,0.574-0.045c0.18-0.031,0.341-0.066,0.484-0.104c0.084,0.248,0.135,0.5,0.152,0.761
		c0.019,0.258,0.026,0.485,0.026,0.684c-0.239,0.062-0.49,0.109-0.754,0.139c-0.264,0.031-0.544,0.047-0.843,0.047
		c-0.861,0-1.534-0.215-2.021-0.646c-0.484-0.432-0.727-1.147-0.727-2.146v-5.385H334.69z"/>
	<path fill="#9B9B9B" d="M342.103,288.941c0.023,1.035,0.284,1.795,0.78,2.274s1.229,0.722,2.198,0.722
		c0.85,0,1.657-0.154,2.423-0.463c0.096,0.186,0.173,0.409,0.233,0.676c0.06,0.266,0.096,0.526,0.106,0.787
		c-0.395,0.172-0.828,0.301-1.301,0.389c-0.473,0.086-0.996,0.129-1.57,0.129c-0.838,0-1.556-0.121-2.152-0.361
		c-0.6-0.24-1.093-0.58-1.48-1.018s-0.673-0.955-0.853-1.553c-0.181-0.601-0.271-1.256-0.271-1.972c0-0.702,0.087-1.358,0.261-1.97
		s0.439-1.141,0.8-1.592c0.357-0.449,0.81-0.809,1.354-1.072c0.544-0.266,1.188-0.398,1.929-0.398c0.636,0,1.19,0.111,1.669,0.334
		c0.479,0.223,0.881,0.526,1.202,0.916c0.323,0.389,0.568,0.852,0.736,1.387c0.167,0.537,0.251,1.119,0.251,1.748
		c0,0.174-0.006,0.354-0.018,0.547c-0.014,0.191-0.024,0.354-0.036,0.49H342.103L342.103,288.941z M346.66,287.572
		c0-0.346-0.045-0.676-0.135-0.989s-0.222-0.589-0.396-0.823s-0.395-0.423-0.664-0.564c-0.269-0.141-0.589-0.213-0.96-0.213
		c-0.729,0-1.289,0.229-1.678,0.686s-0.625,1.092-0.709,1.904H346.66L346.66,287.572z"/>
</g>
</svg>
