<?xml version="1.0" encoding="utf-8"?>
<!-- Generator: Adobe Illustrator 16.0.4, SVG Export Plug-In . SVG Version: 6.00 Build 0)  -->
<!DOCTYPE svg PUBLIC "-//W3C//DTD SVG 1.1//EN" "http://www.w3.org/Graphics/SVG/1.1/DTD/svg11.dtd">
<svg version="1.1" id="Calque_1" xmlns="http://www.w3.org/2000/svg" xmlns:xlink="http://www.w3.org/1999/xlink" x="0px" y="0px"
	 width="600px" height="600px" viewBox="0 0 600 600" enable-background="new 0 0 600 600" xml:space="preserve">
<g>
	<g>
		<path fill="#60276F" d="M217.245,361.498c0.42-0.086,1.009-0.155,1.765-0.208c0.757-0.052,1.521-0.078,2.295-0.078
			c0.958,0,1.832,0.088,2.623,0.261c0.79,0.173,1.467,0.455,2.03,0.845c0.563,0.39,1,0.893,1.312,1.508
			c0.311,0.615,0.467,1.365,0.467,2.249c0,0.538-0.08,1.036-0.24,1.495c-0.16,0.46-0.375,0.867-0.643,1.222
			c-0.269,0.355-0.58,0.65-0.933,0.885c-0.353,0.233-0.715,0.402-1.084,0.507c0.47,0.052,0.946,0.182,1.425,0.39
			s0.912,0.503,1.299,0.884c0.387,0.382,0.702,0.863,0.946,1.443c0.244,0.581,0.366,1.287,0.366,2.119
			c0,1.005-0.193,1.858-0.58,2.561c-0.387,0.702-0.912,1.271-1.576,1.703c-0.665,0.434-1.446,0.746-2.346,0.937
			s-1.862,0.285-2.888,0.285c-0.639,0-1.336-0.03-2.093-0.091c-0.756-0.061-1.471-0.134-2.144-0.221V361.498z M221.633,369.299
			c1.143,0,2.018-0.256,2.623-0.768c0.605-0.511,0.908-1.278,0.908-2.301c0-0.988-0.324-1.725-0.971-2.21
			c-0.647-0.485-1.526-0.729-2.636-0.729c-0.336,0-0.66,0.01-0.971,0.026c-0.312,0.018-0.576,0.044-0.794,0.078v5.902H221.633z
			 M219.792,378.139c0.235,0.034,0.533,0.061,0.895,0.078c0.361,0.017,0.719,0.025,1.072,0.025c0.605,0,1.173-0.052,1.703-0.156
			c0.529-0.104,0.996-0.281,1.399-0.532c0.404-0.251,0.723-0.59,0.958-1.015c0.235-0.424,0.353-0.966,0.353-1.625
			c0-0.641-0.109-1.183-0.328-1.625c-0.219-0.441-0.517-0.797-0.896-1.065s-0.828-0.459-1.349-0.572
			c-0.521-0.112-1.084-0.169-1.69-0.169h-2.118V378.139z"/>
		<path fill="#60276F" d="M239.21,380.504c-1.311,0-2.446-0.238-3.404-0.715c-0.958-0.477-1.753-1.144-2.383-2.002
			c-0.631-0.857-1.102-1.876-1.413-3.055s-0.466-2.47-0.466-3.874s0.155-2.695,0.466-3.874s0.782-2.197,1.413-3.055
			c0.63-0.858,1.425-1.53,2.383-2.016c0.958-0.484,2.093-0.728,3.404-0.728c1.312,0,2.447,0.243,3.405,0.728
			c0.958,0.485,1.753,1.157,2.383,2.016c0.631,0.857,1.097,1.876,1.4,3.055s0.454,2.47,0.454,3.874s-0.151,2.695-0.454,3.874
			s-0.769,2.197-1.4,3.055c-0.63,0.858-1.425,1.525-2.383,2.002C241.657,380.266,240.522,380.504,239.21,380.504z M239.21,378.217
			c0.841,0,1.568-0.169,2.182-0.508c0.614-0.338,1.123-0.827,1.526-1.469c0.403-0.641,0.706-1.412,0.908-2.313
			c0.202-0.901,0.302-1.925,0.302-3.068c0-1.127-0.101-2.145-0.302-3.055c-0.202-0.91-0.505-1.682-0.908-2.314
			s-0.912-1.118-1.526-1.456s-1.341-0.507-2.182-0.507s-1.568,0.169-2.181,0.507c-0.614,0.338-1.123,0.823-1.526,1.456
			c-0.404,0.633-0.706,1.404-0.908,2.314c-0.202,0.91-0.302,1.928-0.302,3.055c0,1.144,0.101,2.167,0.302,3.068
			c0.202,0.901,0.504,1.673,0.908,2.313c0.403,0.642,0.912,1.131,1.526,1.469C237.643,378.048,238.37,378.217,239.21,378.217z"/>
		<path fill="#60276F" d="M250.61,361.498c0.185-0.034,0.382-0.061,0.593-0.078c0.21-0.017,0.408-0.025,0.593-0.025
			c0.185,0,0.382,0.009,0.593,0.025c0.21,0.018,0.407,0.044,0.592,0.078l7.894,14.04v-14.04c0.202-0.034,0.412-0.061,0.63-0.078
			c0.218-0.017,0.437-0.025,0.656-0.025c0.185,0,0.378,0.009,0.58,0.025c0.202,0.018,0.395,0.044,0.58,0.078v18.694
			c-0.185,0.034-0.382,0.061-0.593,0.078c-0.21,0.017-0.408,0.025-0.592,0.025c-0.186,0-0.383-0.009-0.593-0.025
			c-0.21-0.018-0.408-0.044-0.593-0.078l-7.919-13.962v13.962c-0.186,0.034-0.383,0.061-0.593,0.078
			c-0.21,0.017-0.416,0.025-0.618,0.025c-0.218,0-0.433-0.009-0.643-0.025c-0.21-0.018-0.399-0.044-0.567-0.078V361.498z"/>
		<path fill="#60276F" d="M267.759,361.498c0.185-0.034,0.382-0.061,0.593-0.078c0.21-0.017,0.408-0.025,0.593-0.025
			c0.185,0,0.382,0.009,0.593,0.025c0.21,0.018,0.407,0.044,0.592,0.078l7.894,14.04v-14.04c0.202-0.034,0.412-0.061,0.63-0.078
			c0.218-0.017,0.437-0.025,0.656-0.025c0.185,0,0.378,0.009,0.58,0.025c0.202,0.018,0.395,0.044,0.58,0.078v18.694
			c-0.185,0.034-0.382,0.061-0.593,0.078c-0.21,0.017-0.408,0.025-0.592,0.025c-0.186,0-0.383-0.009-0.593-0.025
			c-0.21-0.018-0.408-0.044-0.593-0.078l-7.919-13.962v13.962c-0.186,0.034-0.383,0.061-0.593,0.078
			c-0.21,0.017-0.416,0.025-0.618,0.025c-0.218,0-0.433-0.009-0.643-0.025c-0.21-0.018-0.399-0.044-0.567-0.078V361.498z"/>
		<path fill="#60276F" d="M284.909,361.498h9.962c0.051,0.348,0.076,0.729,0.076,1.145c0,0.19-0.004,0.39-0.013,0.598
			s-0.029,0.399-0.063,0.572h-7.389v5.355h5.901c0.033,0.174,0.059,0.36,0.076,0.56c0.017,0.199,0.025,0.395,0.025,0.585
			s-0.008,0.39-0.025,0.598c-0.017,0.208-0.042,0.399-0.076,0.572h-5.901v6.396h7.591c0.051,0.348,0.076,0.729,0.076,1.145
			c0,0.19-0.004,0.39-0.012,0.598c-0.009,0.208-0.03,0.399-0.063,0.572h-10.164V361.498z"/>
		<path fill="#60276F" d="M313.332,375.876h-6.886l-1.235,4.316c-0.219,0.034-0.438,0.061-0.655,0.078
			c-0.219,0.017-0.438,0.025-0.656,0.025c-0.235,0-0.467-0.009-0.693-0.025c-0.228-0.018-0.434-0.044-0.618-0.078l5.901-18.694
			c0.219-0.034,0.454-0.061,0.706-0.078c0.253-0.017,0.513-0.025,0.782-0.025c0.235,0,0.479,0.009,0.731,0.025
			c0.252,0.018,0.496,0.044,0.731,0.078l5.876,18.694c-0.201,0.034-0.429,0.061-0.681,0.078c-0.252,0.017-0.496,0.025-0.731,0.025
			c-0.219,0-0.441-0.009-0.668-0.025c-0.228-0.018-0.441-0.044-0.644-0.078L313.332,375.876z M307.128,373.562h5.522l-2.773-9.542
			L307.128,373.562z"/>
		<path fill="#60276F" d="M319.965,361.498c0.185-0.034,0.382-0.061,0.593-0.078c0.21-0.017,0.407-0.025,0.592-0.025
			c0.186,0,0.383,0.009,0.593,0.025c0.21,0.018,0.408,0.044,0.593,0.078l7.895,14.04v-14.04c0.201-0.034,0.411-0.061,0.63-0.078
			c0.219-0.017,0.438-0.025,0.656-0.025c0.185,0,0.378,0.009,0.58,0.025c0.201,0.018,0.395,0.044,0.58,0.078v18.694
			c-0.186,0.034-0.383,0.061-0.593,0.078c-0.211,0.017-0.408,0.025-0.593,0.025c-0.186,0-0.383-0.009-0.593-0.025
			c-0.211-0.018-0.408-0.044-0.593-0.078l-7.919-13.962v13.962c-0.186,0.034-0.383,0.061-0.593,0.078
			c-0.211,0.017-0.416,0.025-0.618,0.025c-0.219,0-0.433-0.009-0.643-0.025c-0.211-0.018-0.399-0.044-0.567-0.078V361.498z"/>
		<path fill="#60276F" d="M337.114,361.498c0.185-0.034,0.382-0.061,0.593-0.078c0.21-0.017,0.407-0.025,0.592-0.025
			c0.186,0,0.383,0.009,0.593,0.025c0.21,0.018,0.408,0.044,0.593,0.078l7.895,14.04v-14.04c0.201-0.034,0.411-0.061,0.63-0.078
			c0.219-0.017,0.438-0.025,0.656-0.025c0.185,0,0.378,0.009,0.58,0.025c0.201,0.018,0.395,0.044,0.58,0.078v18.694
			c-0.186,0.034-0.383,0.061-0.593,0.078c-0.211,0.017-0.408,0.025-0.593,0.025c-0.186,0-0.383-0.009-0.593-0.025
			c-0.211-0.018-0.408-0.044-0.593-0.078l-7.919-13.962v13.962c-0.186,0.034-0.383,0.061-0.593,0.078
			c-0.211,0.017-0.416,0.025-0.618,0.025c-0.219,0-0.433-0.009-0.643-0.025c-0.211-0.018-0.399-0.044-0.567-0.078V361.498z"/>
		<path fill="#60276F" d="M354.264,361.498h9.962c0.05,0.348,0.075,0.729,0.075,1.145c0,0.19-0.004,0.39-0.013,0.598
			s-0.029,0.399-0.062,0.572h-7.39v5.355h5.901c0.033,0.174,0.059,0.36,0.075,0.56s0.025,0.395,0.025,0.585s-0.009,0.39-0.025,0.598
			s-0.042,0.399-0.075,0.572h-5.901v6.396h7.591c0.051,0.348,0.076,0.729,0.076,1.145c0,0.19-0.005,0.39-0.013,0.598
			c-0.009,0.208-0.029,0.399-0.063,0.572h-10.163V361.498z M359.61,359.938c-0.219,0.035-0.446,0.061-0.682,0.078
			s-0.471,0.025-0.706,0.025s-0.454-0.008-0.655-0.025c-0.202-0.018-0.421-0.043-0.656-0.078l2.674-2.808
			c0.269-0.035,0.555-0.065,0.857-0.092c0.303-0.025,0.605-0.039,0.908-0.039c0.318,0,0.621,0.014,0.907,0.039
			c0.286,0.026,0.547,0.057,0.782,0.092L359.61,359.938z"/>
		<path fill="#60276F" d="M367.781,361.498h9.962c0.05,0.348,0.075,0.729,0.075,1.145c0,0.19-0.004,0.39-0.013,0.598
			s-0.029,0.399-0.062,0.572h-7.39v5.355h5.901c0.033,0.174,0.059,0.36,0.075,0.56s0.025,0.395,0.025,0.585s-0.009,0.39-0.025,0.598
			s-0.042,0.399-0.075,0.572h-5.901v6.396h7.591c0.051,0.348,0.076,0.729,0.076,1.145c0,0.19-0.005,0.39-0.013,0.598
			c-0.009,0.208-0.029,0.399-0.063,0.572h-10.163V361.498z"/>
	</g>
	<g>
		<polygon fill="#9B9B9B" points="236.393,450.705 227.299,458.912 260.44,458.912 260.44,450.705 236.393,450.705 		"/>
	</g>
	<g>
		<polygon fill="#60276F" points="223.214,448.814 223.214,459.23 250.092,433.522 238.506,433.522 223.214,448.814 		"/>
	</g>
	<g>
		<path fill="#9B9B9B" d="M242.403,405.838c5.499,0,10.012,3.529,10.012,9.274c0,4.76-3.2,8.78-6.401,11.899l-3.287,3.264
			l10.829-0.002c3.987-4.261,7.23-9.05,7.23-15.243c0-10.67-8.288-16.085-18.301-16.085c-10.012,0-17.644,4.841-19.204,15.1
			l8.535,0.739C232.801,409.285,236.741,405.838,242.403,405.838L242.403,405.838z"/>
	</g>
	<g>
		<path fill="#9B9B9B" d="M276.419,422.102h-7.273c0-8.038,5.838-23.54,24.019-23.54c18.182,0,22.68,18.756,22.68,22.966h-7.369
			c0-4.019-3.344-15.712-15.598-15.885C279.29,405.452,276.419,418.083,276.419,422.102L276.419,422.102z"/>
	</g>
	<g>
		<path fill="#60276F" d="M309.05,423.251h7.272c0,8.038-5.837,23.54-24.019,23.54c-18.182,0-22.679-18.756-22.679-22.966h7.368
			c0,4.019,3.345,15.712,15.598,15.885C306.18,439.9,309.05,427.27,309.05,423.251L309.05,423.251z"/>
	</g>
	<g>
		<polygon fill="#9B9B9B" points="320.218,407.121 320.302,415.351 330.752,415.351 337.874,407.121 320.218,407.121 		"/>
	</g>
	<g>
		<polygon fill="#9B9B9B" points="328.304,413.011 328.304,443.804 337.06,443.804 337.06,407.504 328.304,413.011 		"/>
	</g>
</g>
</svg>
