<?xml version="1.0" encoding="utf-8"?>
<!-- Generator: Adobe Illustrator 16.0.4, SVG Export Plug-In . SVG Version: 6.00 Build 0)  -->
<!DOCTYPE svg PUBLIC "-//W3C//DTD SVG 1.1//EN" "http://www.w3.org/Graphics/SVG/1.1/DTD/svg11.dtd">
<svg version="1.1" id="Calque_1" xmlns="http://www.w3.org/2000/svg" xmlns:xlink="http://www.w3.org/1999/xlink" x="0px" y="0px"
	 width="600px" height="600px" viewBox="0 0 600 600" enable-background="new 0 0 600 600" xml:space="preserve">
<g>
	<path fill="#FFFFFF" d="M125.576,290.528c0.654-0.079,1.444-0.154,2.369-0.224c0.925-0.069,1.83-0.104,2.716-0.104
		c3.64,0,6.36,0.953,8.162,2.859c1.8,1.906,2.701,4.646,2.701,8.22c0,3.732-0.92,6.503-2.759,8.31s-4.579,2.71-8.219,2.71
		c-0.905,0-1.801-0.035-2.687-0.104c-0.886-0.069-1.647-0.153-2.282-0.253V290.528z M128.523,309.44
		c0.27,0.04,0.602,0.074,0.997,0.104c0.395,0.029,0.813,0.045,1.257,0.045c1.136,0,2.171-0.135,3.105-0.402
		c0.934-0.269,1.738-0.72,2.413-1.355c0.674-0.635,1.194-1.493,1.56-2.576c0.366-1.082,0.549-2.437,0.549-4.065
		c0-1.489-0.184-2.759-0.549-3.812c-0.366-1.052-0.881-1.911-1.545-2.576c-0.665-0.665-1.459-1.147-2.383-1.445
		c-0.924-0.297-1.946-0.446-3.062-0.446c-0.366,0-0.766,0.005-1.199,0.015c-0.434,0.01-0.814,0.045-1.141,0.104V309.44z"/>
</g>
<g>
	<path fill="#FFFFFF" d="M155.243,306.998h-7.887l-1.416,4.944c-0.25,0.04-0.501,0.069-0.751,0.089
		c-0.25,0.021-0.501,0.03-0.751,0.03c-0.27,0-0.534-0.01-0.794-0.03c-0.26-0.02-0.496-0.049-0.708-0.089l6.76-21.414
		c0.25-0.04,0.52-0.069,0.809-0.089c0.289-0.02,0.587-0.03,0.896-0.03c0.27,0,0.549,0.01,0.838,0.03
		c0.289,0.02,0.568,0.05,0.838,0.089l6.731,21.414c-0.231,0.04-0.491,0.069-0.78,0.089c-0.289,0.021-0.568,0.03-0.838,0.03
		c-0.25,0-0.505-0.01-0.765-0.03c-0.26-0.02-0.506-0.049-0.737-0.089L155.243,306.998z M148.136,304.348h6.327l-3.178-10.931
		L148.136,304.348z"/>
	<path fill="#FFFFFF" d="M162.841,290.528c0.211-0.04,0.438-0.069,0.679-0.089c0.241-0.02,0.467-0.03,0.679-0.03
		s0.438,0.01,0.679,0.03c0.241,0.02,0.467,0.05,0.679,0.089l9.042,16.083v-16.083c0.231-0.04,0.472-0.069,0.722-0.089
		c0.25-0.02,0.501-0.03,0.751-0.03c0.211,0,0.433,0.01,0.665,0.03c0.231,0.02,0.452,0.05,0.664,0.089v21.414
		c-0.212,0.04-0.438,0.069-0.679,0.089c-0.241,0.021-0.467,0.03-0.679,0.03c-0.212,0-0.438-0.01-0.679-0.03
		c-0.241-0.02-0.467-0.049-0.679-0.089l-9.071-15.994v15.994c-0.212,0.04-0.438,0.069-0.679,0.089
		c-0.241,0.021-0.477,0.03-0.708,0.03c-0.25,0-0.496-0.01-0.737-0.03c-0.241-0.02-0.458-0.049-0.65-0.089V290.528z"/>
	<path fill="#FFFFFF" d="M181.966,308.696c0.635,0.238,1.3,0.446,1.993,0.625s1.541,0.269,2.542,0.269
		c1.579,0,2.759-0.333,3.539-0.998c0.78-0.665,1.17-1.563,1.17-2.695c0-0.556-0.082-1.032-0.246-1.43
		c-0.164-0.396-0.41-0.739-0.737-1.027c-0.328-0.288-0.737-0.551-1.228-0.789c-0.491-0.238-1.064-0.496-1.719-0.774l-1.646-0.686
		c-0.559-0.238-1.069-0.501-1.531-0.789s-0.862-0.64-1.199-1.057c-0.337-0.417-0.603-0.898-0.795-1.445
		c-0.192-0.546-0.289-1.196-0.289-1.951c0-1.807,0.597-3.221,1.791-4.244c1.194-1.022,2.87-1.534,5.027-1.534
		c0.924,0,1.801,0.08,2.629,0.238c0.828,0.159,1.56,0.357,2.196,0.596c-0.097,0.834-0.309,1.658-0.636,2.472
		c-0.52-0.198-1.122-0.376-1.806-0.536c-0.684-0.159-1.459-0.238-2.326-0.238c-1.213,0-2.147,0.253-2.802,0.759
		s-0.982,1.266-0.982,2.278c0,0.417,0.082,0.79,0.246,1.117c0.163,0.327,0.38,0.615,0.65,0.863c0.27,0.249,0.587,0.472,0.953,0.67
		c0.366,0.199,0.751,0.377,1.156,0.536l1.618,0.655c0.77,0.318,1.454,0.65,2.051,0.998c0.597,0.348,1.107,0.755,1.531,1.221
		c0.423,0.467,0.746,1.019,0.968,1.653c0.221,0.636,0.332,1.38,0.332,2.233c0,2.046-0.684,3.659-2.051,4.84
		c-1.368,1.182-3.284,1.772-5.75,1.772c-0.597,0-1.136-0.021-1.618-0.06c-0.481-0.04-0.929-0.1-1.343-0.179
		c-0.415-0.079-0.814-0.179-1.199-0.298s-0.78-0.248-1.184-0.387c0.038-0.437,0.125-0.884,0.26-1.341
		C181.667,309.58,181.811,309.133,181.966,308.696z"/>
	<path fill="#FFFFFF" d="M205.078,290.528c0.211-0.04,0.438-0.069,0.679-0.089c0.241-0.02,0.496-0.03,0.766-0.03
		c0.25,0,0.5,0.01,0.751,0.03c0.25,0.02,0.491,0.05,0.722,0.089v18.733h8.147c0.039,0.219,0.062,0.447,0.072,0.686
		s0.015,0.457,0.015,0.655c0,0.477-0.029,0.923-0.087,1.34h-11.064V290.528z"/>
	<path fill="#FFFFFF" d="M229.605,306.998h-7.887l-1.416,4.944c-0.25,0.04-0.501,0.069-0.751,0.089
		c-0.25,0.021-0.501,0.03-0.751,0.03c-0.27,0-0.534-0.01-0.794-0.03c-0.26-0.02-0.496-0.049-0.708-0.089l6.76-21.414
		c0.25-0.04,0.52-0.069,0.809-0.089c0.289-0.02,0.587-0.03,0.896-0.03c0.27,0,0.549,0.01,0.838,0.03
		c0.289,0.02,0.568,0.05,0.838,0.089l6.731,21.414c-0.231,0.04-0.491,0.069-0.78,0.089c-0.289,0.021-0.568,0.03-0.838,0.03
		c-0.25,0-0.505-0.01-0.765-0.03c-0.26-0.02-0.506-0.049-0.737-0.089L229.605,306.998z M222.498,304.348h6.327l-3.178-10.931
		L222.498,304.348z"/>
	<path fill="#FFFFFF" d="M257.31,308.815c0.423,0.854,0.693,1.678,0.809,2.472c-0.809,0.357-1.637,0.615-2.485,0.774
		c-0.848,0.158-1.762,0.238-2.744,0.238c-1.502,0-2.856-0.253-4.059-0.76c-1.204-0.506-2.22-1.23-3.048-2.174
		c-0.829-0.943-1.464-2.09-1.907-3.44c-0.443-1.35-0.665-2.868-0.665-4.557c0-1.707,0.221-3.251,0.665-4.631
		c0.443-1.38,1.078-2.557,1.907-3.529c0.828-0.973,1.839-1.723,3.033-2.249c1.194-0.526,2.532-0.789,4.016-0.789
		c1.098,0,2.042,0.08,2.831,0.238c0.79,0.159,1.493,0.348,2.109,0.566c-0.039,0.457-0.121,0.878-0.246,1.266
		c-0.125,0.387-0.274,0.8-0.448,1.236c-0.289-0.099-0.568-0.188-0.838-0.268c-0.27-0.079-0.559-0.149-0.867-0.208
		c-0.309-0.06-0.65-0.104-1.026-0.134c-0.375-0.03-0.804-0.044-1.285-0.044c-2.1,0-3.732,0.734-4.897,2.204
		c-1.166,1.47-1.748,3.584-1.748,6.344c0,1.41,0.164,2.632,0.491,3.663c0.327,1.033,0.79,1.887,1.387,2.562
		c0.597,0.676,1.314,1.182,2.152,1.52s1.777,0.506,2.817,0.506c0.809,0,1.541-0.069,2.195-0.208S256.732,309.073,257.31,308.815z"/>
</g>
<g>
	<path fill="#FFFFFF" d="M269.206,312.3c-1.502,0-2.802-0.273-3.9-0.819c-1.098-0.546-2.008-1.311-2.73-2.293
		s-1.262-2.149-1.618-3.5c-0.357-1.35-0.535-2.829-0.535-4.438c0-1.608,0.178-3.087,0.535-4.438c0.356-1.35,0.896-2.517,1.618-3.5
		s1.632-1.752,2.73-2.308c1.098-0.556,2.398-0.834,3.9-0.834c1.502,0,2.802,0.278,3.9,0.834c1.098,0.556,2.008,1.325,2.73,2.308
		c0.723,0.983,1.257,2.149,1.604,3.5c0.347,1.351,0.52,2.83,0.52,4.438c0,1.608-0.173,3.088-0.52,4.438
		c-0.347,1.351-0.881,2.518-1.604,3.5c-0.722,0.982-1.632,1.747-2.73,2.293S270.708,312.3,269.206,312.3z M269.206,309.679
		c0.963,0,1.795-0.193,2.499-0.581c0.703-0.387,1.285-0.947,1.748-1.683c0.462-0.734,0.809-1.618,1.04-2.65s0.347-2.204,0.347-3.515
		c0-1.29-0.116-2.457-0.347-3.5c-0.231-1.042-0.578-1.925-1.04-2.65c-0.462-0.725-1.045-1.281-1.748-1.668
		c-0.704-0.387-1.536-0.581-2.499-0.581c-0.963,0-1.796,0.193-2.499,0.581c-0.704,0.387-1.286,0.943-1.748,1.668
		c-0.462,0.725-0.809,1.608-1.04,2.65c-0.231,1.042-0.347,2.209-0.347,3.5c0,1.311,0.116,2.482,0.347,3.515
		c0.231,1.032,0.578,1.916,1.04,2.65c0.462,0.735,1.044,1.296,1.748,1.683C267.41,309.485,268.243,309.679,269.206,309.679z"/>
	<path fill="#FFFFFF" d="M282.264,290.528c0.211-0.04,0.438-0.069,0.679-0.089c0.241-0.02,0.467-0.03,0.679-0.03
		s0.438,0.01,0.679,0.03c0.241,0.02,0.467,0.05,0.679,0.089l9.042,16.083v-16.083c0.231-0.04,0.472-0.069,0.722-0.089
		c0.25-0.02,0.501-0.03,0.751-0.03c0.211,0,0.433,0.01,0.665,0.03c0.231,0.02,0.452,0.05,0.664,0.089v21.414
		c-0.212,0.04-0.438,0.069-0.679,0.089c-0.241,0.021-0.467,0.03-0.679,0.03c-0.212,0-0.438-0.01-0.679-0.03
		c-0.241-0.02-0.467-0.049-0.679-0.089l-9.071-15.994v15.994c-0.212,0.04-0.438,0.069-0.679,0.089
		c-0.241,0.021-0.477,0.03-0.708,0.03c-0.25,0-0.496-0.01-0.737-0.03c-0.241-0.02-0.458-0.049-0.65-0.089V290.528z"/>
	<path fill="#FFFFFF" d="M305.491,293.179h-5.402c-0.039-0.198-0.068-0.417-0.087-0.655c-0.02-0.238-0.029-0.466-0.029-0.685
		c0-0.218,0.01-0.442,0.029-0.67c0.019-0.228,0.048-0.441,0.087-0.64h13.751c0.038,0.199,0.067,0.407,0.087,0.625
		c0.019,0.219,0.028,0.437,0.028,0.655c0,0.219-0.01,0.452-0.028,0.7c-0.02,0.249-0.049,0.472-0.087,0.67h-5.402v18.763
		c-0.443,0.06-0.925,0.089-1.444,0.089c-0.539,0-1.04-0.029-1.502-0.089V293.179z"/>
	<path fill="#FFFFFF" d="M317.104,290.528c0.231-0.04,0.472-0.069,0.723-0.089c0.25-0.02,0.501-0.03,0.751-0.03
		s0.501,0.01,0.751,0.03c0.25,0.02,0.491,0.05,0.723,0.089v21.414c-0.231,0.04-0.468,0.069-0.708,0.089
		c-0.241,0.021-0.496,0.03-0.766,0.03c-0.25,0-0.506-0.01-0.766-0.03c-0.26-0.02-0.496-0.049-0.708-0.089V290.528z"/>
	<path fill="#FFFFFF" d="M325.136,290.528c0.212-0.04,0.438-0.069,0.68-0.089c0.24-0.02,0.466-0.03,0.679-0.03
		c0.212,0,0.438,0.01,0.679,0.03c0.24,0.02,0.467,0.05,0.679,0.089l9.043,16.083v-16.083c0.23-0.04,0.472-0.069,0.722-0.089
		c0.25-0.02,0.501-0.03,0.751-0.03c0.212,0,0.434,0.01,0.665,0.03c0.23,0.02,0.452,0.05,0.664,0.089v21.414
		c-0.212,0.04-0.438,0.069-0.679,0.089c-0.241,0.021-0.467,0.03-0.679,0.03s-0.438-0.01-0.679-0.03
		c-0.241-0.02-0.468-0.049-0.68-0.089l-9.071-15.994v15.994c-0.212,0.04-0.438,0.069-0.679,0.089
		c-0.241,0.021-0.477,0.03-0.708,0.03c-0.25,0-0.496-0.01-0.736-0.03c-0.241-0.02-0.458-0.049-0.65-0.089V290.528z"/>
	<path fill="#FFFFFF" d="M344.578,290.528c0.463-0.06,0.963-0.089,1.503-0.089c0.52,0,1.001,0.03,1.444,0.089v12.151
		c0,1.231,0.076,2.283,0.23,3.157s0.405,1.584,0.752,2.13s0.804,0.948,1.372,1.206c0.567,0.258,1.266,0.387,2.095,0.387
		c0.827,0,1.521-0.129,2.08-0.387c0.558-0.258,1.011-0.66,1.357-1.206s0.597-1.256,0.751-2.13s0.231-1.926,0.231-3.157v-12.151
		c0.48-0.06,0.972-0.089,1.473-0.089c0.539,0,1.04,0.03,1.503,0.089v12.688c0,1.43-0.13,2.71-0.391,3.842
		c-0.26,1.132-0.684,2.085-1.271,2.859c-0.588,0.774-1.354,1.365-2.297,1.772c-0.944,0.406-2.09,0.61-3.438,0.61
		c-1.349,0-2.495-0.204-3.438-0.61c-0.943-0.407-1.709-0.998-2.297-1.772s-1.011-1.728-1.271-2.859
		c-0.261-1.132-0.391-2.412-0.391-3.842V290.528z"/>
	<path fill="#FFFFFF" d="M364.252,290.528c0.231-0.04,0.472-0.069,0.723-0.089c0.25-0.02,0.501-0.03,0.751-0.03
		s0.501,0.01,0.751,0.03c0.25,0.02,0.491,0.05,0.723,0.089v21.414c-0.231,0.04-0.468,0.069-0.708,0.089
		c-0.241,0.021-0.496,0.03-0.766,0.03c-0.25,0-0.506-0.01-0.766-0.03c-0.26-0.02-0.496-0.049-0.708-0.089V290.528z"/>
	<path fill="#FFFFFF" d="M375.866,293.179h-5.402c-0.039-0.198-0.068-0.417-0.087-0.655c-0.02-0.238-0.029-0.466-0.029-0.685
		c0-0.218,0.01-0.442,0.029-0.67c0.019-0.228,0.048-0.441,0.087-0.64h13.751c0.038,0.199,0.067,0.407,0.087,0.625
		c0.019,0.219,0.028,0.437,0.028,0.655c0,0.219-0.01,0.452-0.028,0.7c-0.02,0.249-0.049,0.472-0.087,0.67h-5.402v18.763
		c-0.443,0.06-0.925,0.089-1.444,0.089c-0.539,0-1.04-0.029-1.502-0.089V293.179z"/>
	<path fill="#FFFFFF" d="M387.479,290.528h11.412c0.058,0.397,0.086,0.834,0.086,1.311c0,0.219-0.005,0.447-0.014,0.685
		c-0.011,0.238-0.034,0.457-0.072,0.655h-8.465v6.135h6.76c0.039,0.199,0.067,0.412,0.087,0.64c0.019,0.229,0.029,0.452,0.029,0.67
		c0,0.218-0.011,0.446-0.029,0.685c-0.02,0.238-0.048,0.457-0.087,0.655h-6.76v7.327h8.695c0.058,0.397,0.087,0.834,0.087,1.311
		c0,0.219-0.005,0.446-0.015,0.685s-0.033,0.457-0.072,0.655h-11.643V290.528z M393.604,288.741c-0.251,0.04-0.511,0.07-0.78,0.089
		c-0.27,0.02-0.539,0.03-0.809,0.03c-0.271,0-0.521-0.01-0.751-0.03c-0.231-0.02-0.481-0.049-0.751-0.089l3.062-3.216
		c0.309-0.04,0.636-0.075,0.982-0.104s0.693-0.044,1.04-0.044c0.366,0,0.713,0.015,1.04,0.044s0.626,0.065,0.896,0.104
		L393.604,288.741z"/>
	<path fill="#FFFFFF" d="M402.3,311.942c-0.039-0.277-0.072-0.551-0.102-0.819c-0.028-0.268-0.043-0.54-0.043-0.818
		s0.015-0.562,0.043-0.85c0.029-0.287,0.062-0.57,0.102-0.849c0.27-0.039,0.534-0.069,0.794-0.089c0.261-0.02,0.525-0.03,0.795-0.03
		s0.539,0.011,0.809,0.03s0.539,0.05,0.81,0.089c0.038,0.278,0.072,0.557,0.101,0.834c0.029,0.278,0.044,0.557,0.044,0.834
		c0,0.278-0.015,0.557-0.044,0.834c-0.028,0.278-0.062,0.557-0.101,0.834c-0.271,0.04-0.535,0.069-0.795,0.089
		c-0.26,0.021-0.524,0.03-0.794,0.03c-0.271,0-0.54-0.01-0.81-0.03C402.839,312.012,402.569,311.982,402.3,311.942z"/>
	<path fill="#FFFFFF" d="M409.262,311.942c-0.039-0.277-0.072-0.551-0.102-0.819c-0.028-0.268-0.043-0.54-0.043-0.818
		s0.015-0.562,0.043-0.85c0.029-0.287,0.062-0.57,0.102-0.849c0.27-0.039,0.534-0.069,0.794-0.089c0.261-0.02,0.525-0.03,0.795-0.03
		s0.539,0.011,0.809,0.03s0.539,0.05,0.81,0.089c0.038,0.278,0.072,0.557,0.101,0.834c0.029,0.278,0.044,0.557,0.044,0.834
		c0,0.278-0.015,0.557-0.044,0.834c-0.028,0.278-0.062,0.557-0.101,0.834c-0.271,0.04-0.535,0.069-0.795,0.089
		c-0.26,0.021-0.524,0.03-0.794,0.03c-0.271,0-0.54-0.01-0.81-0.03C409.801,312.012,409.531,311.982,409.262,311.942z"/>
	<path fill="#FFFFFF" d="M416.225,311.942c-0.039-0.277-0.072-0.551-0.102-0.819c-0.028-0.268-0.043-0.54-0.043-0.818
		s0.015-0.562,0.043-0.85c0.029-0.287,0.062-0.57,0.102-0.849c0.27-0.039,0.534-0.069,0.794-0.089c0.261-0.02,0.525-0.03,0.795-0.03
		s0.539,0.011,0.809,0.03s0.539,0.05,0.81,0.089c0.038,0.278,0.072,0.557,0.101,0.834c0.029,0.278,0.044,0.557,0.044,0.834
		c0,0.278-0.015,0.557-0.044,0.834c-0.028,0.278-0.062,0.557-0.101,0.834c-0.271,0.04-0.535,0.069-0.795,0.089
		c-0.26,0.021-0.524,0.03-0.794,0.03c-0.271,0-0.54-0.01-0.81-0.03C416.764,312.012,416.494,311.982,416.225,311.942z"/>
</g>
</svg>
