<?xml version="1.0" encoding="utf-8"?>
<!-- Generator: Adobe Illustrator 16.0.4, SVG Export Plug-In . SVG Version: 6.00 Build 0)  -->
<!DOCTYPE svg PUBLIC "-//W3C//DTD SVG 1.1//EN" "http://www.w3.org/Graphics/SVG/1.1/DTD/svg11.dtd">
<svg version="1.1" id="Calque_1" xmlns="http://www.w3.org/2000/svg" xmlns:xlink="http://www.w3.org/1999/xlink" x="0px" y="0px"
	 width="600px" height="600px" viewBox="0 0 600 600" enable-background="new 0 0 600 600" xml:space="preserve">
<g>
	<path fill="#9B9B9B" d="M124.599,262.757c0.135-0.028,0.274-0.048,0.416-0.062c0.142-0.014,0.287-0.021,0.436-0.021
		c0.135,0,0.277,0.007,0.426,0.021c0.149,0.014,0.291,0.035,0.426,0.062c0.014,0.028,0.031,0.115,0.051,0.261
		c0.021,0.146,0.041,0.303,0.061,0.471c0.02,0.167,0.041,0.328,0.061,0.48c0.021,0.154,0.031,0.251,0.031,0.293
		c0.135-0.223,0.297-0.439,0.486-0.648c0.189-0.209,0.416-0.397,0.68-0.564c0.264-0.167,0.561-0.3,0.892-0.397
		c0.331-0.097,0.7-0.146,1.105-0.146c0.608,0,1.173,0.104,1.693,0.314c0.521,0.209,0.966,0.533,1.338,0.972
		c0.372,0.439,0.662,0.997,0.872,1.673c0.209,0.676,0.314,1.474,0.314,2.394c0,1.84-0.484,3.279-1.45,4.317
		c-0.967,1.039-2.335,1.558-4.106,1.558c-0.297,0-0.602-0.021-0.912-0.063c-0.312-0.042-0.582-0.098-0.812-0.167v4.913
		c-0.162,0.028-0.334,0.049-0.517,0.063c-0.182,0.014-0.348,0.021-0.497,0.021c-0.149,0-0.314-0.007-0.497-0.021
		c-0.182-0.014-0.348-0.035-0.497-0.063V262.757z M126.606,271.726c0.257,0.098,0.521,0.167,0.791,0.209
		c0.271,0.042,0.622,0.062,1.055,0.062c0.486,0,0.933-0.08,1.338-0.24c0.405-0.16,0.753-0.408,1.044-0.742s0.521-0.756,0.689-1.265
		s0.253-1.111,0.253-1.809c0-1.115-0.199-2-0.598-2.655s-1.051-0.983-1.957-0.983c-0.338,0-0.663,0.063-0.974,0.188
		s-0.588,0.313-0.831,0.564c-0.244,0.251-0.44,0.568-0.588,0.951c-0.149,0.383-0.223,0.84-0.223,1.369V271.726z"/>
	<path fill="#9B9B9B" d="M140.801,273.732c-0.812,0-1.521-0.143-2.129-0.429s-1.115-0.679-1.521-1.181
		c-0.405-0.501-0.707-1.094-0.902-1.777c-0.196-0.683-0.294-1.422-0.294-2.216c0-0.794,0.098-1.533,0.294-2.216
		c0.196-0.683,0.497-1.275,0.902-1.777c0.406-0.502,0.913-0.899,1.521-1.191c0.608-0.293,1.318-0.439,2.129-0.439
		c0.811,0,1.521,0.146,2.129,0.439c0.608,0.292,1.115,0.689,1.521,1.191c0.406,0.501,0.706,1.094,0.902,1.777
		c0.196,0.683,0.294,1.422,0.294,2.216c0,0.794-0.098,1.534-0.294,2.216c-0.196,0.683-0.497,1.275-0.902,1.777
		c-0.406,0.502-0.913,0.896-1.521,1.181S141.612,273.732,140.801,273.732z M140.801,272.081c0.933,0,1.622-0.348,2.068-1.045
		c0.446-0.697,0.669-1.666,0.669-2.906c0-1.24-0.223-2.205-0.669-2.895c-0.446-0.69-1.136-1.035-2.068-1.035
		c-0.933,0-1.619,0.345-2.059,1.035s-0.659,1.655-0.659,2.895c0,1.241,0.219,2.209,0.659,2.906S139.868,272.081,140.801,272.081z"/>
	<path fill="#9B9B9B" d="M148.162,262.757c0.149-0.028,0.317-0.048,0.507-0.062c0.189-0.014,0.352-0.021,0.487-0.021
		c0.149,0,0.317,0.007,0.507,0.021c0.189,0.014,0.358,0.035,0.507,0.062v5.875c0,0.669,0.061,1.223,0.182,1.662
		c0.122,0.439,0.304,0.784,0.548,1.035c0.243,0.251,0.541,0.425,0.892,0.522c0.352,0.098,0.757,0.146,1.217,0.146
		c0.689,0,1.277-0.076,1.764-0.23v-9.01c0.148-0.028,0.314-0.048,0.497-0.062c0.183-0.014,0.348-0.021,0.497-0.021
		c0.148,0,0.314,0.007,0.497,0.021c0.183,0.014,0.348,0.035,0.497,0.062v10.39c-0.474,0.14-1.038,0.272-1.693,0.397
		c-0.656,0.125-1.335,0.188-2.038,0.188c-0.662,0-1.288-0.06-1.875-0.178s-1.105-0.359-1.551-0.721s-0.798-0.871-1.055-1.526
		c-0.257-0.655-0.385-1.519-0.385-2.592V262.757z"/>
	<path fill="#9B9B9B" d="M159.923,262.757c0.149-0.028,0.291-0.048,0.426-0.062c0.135-0.014,0.277-0.021,0.426-0.021
		c0.148,0,0.297,0.007,0.446,0.021c0.149,0.014,0.284,0.035,0.406,0.062c0.041,0.209,0.081,0.484,0.122,0.826
		c0.041,0.342,0.061,0.631,0.061,0.868c0.284-0.474,0.659-0.885,1.125-1.233c0.466-0.348,1.064-0.522,1.794-0.522
		c0.108,0,0.22,0.003,0.334,0.01c0.115,0.007,0.213,0.018,0.294,0.031c0.027,0.125,0.047,0.258,0.061,0.397
		c0.013,0.139,0.021,0.286,0.021,0.439c0,0.167-0.01,0.342-0.031,0.522c-0.02,0.182-0.044,0.355-0.071,0.523
		c-0.108-0.028-0.22-0.042-0.334-0.042c-0.115,0-0.207,0-0.274,0c-0.365,0-0.713,0.052-1.044,0.157
		c-0.332,0.104-0.628,0.29-0.892,0.554s-0.474,0.627-0.629,1.087s-0.233,1.053-0.233,1.777v5.331
		c-0.149,0.028-0.314,0.049-0.497,0.062c-0.182,0.014-0.348,0.021-0.497,0.021c-0.149,0-0.314-0.007-0.497-0.021
		c-0.182-0.014-0.354-0.035-0.517-0.062V262.757z"/>
	<path fill="#9B9B9B" d="M172.151,262.757c0.149-0.028,0.317-0.048,0.507-0.062c0.189-0.014,0.352-0.021,0.487-0.021
		c0.149,0,0.317,0.007,0.507,0.021c0.189,0.014,0.358,0.035,0.507,0.062v5.875c0,0.669,0.061,1.223,0.182,1.662
		c0.122,0.439,0.304,0.784,0.548,1.035c0.243,0.251,0.541,0.425,0.892,0.522c0.352,0.098,0.757,0.146,1.217,0.146
		c0.689,0,1.277-0.076,1.764-0.23v-9.01c0.148-0.028,0.314-0.048,0.497-0.062c0.183-0.014,0.348-0.021,0.497-0.021
		c0.148,0,0.314,0.007,0.497,0.021c0.183,0.014,0.348,0.035,0.497,0.062v10.39c-0.474,0.14-1.038,0.272-1.693,0.397
		c-0.656,0.125-1.335,0.188-2.038,0.188c-0.662,0-1.288-0.06-1.875-0.178s-1.105-0.359-1.551-0.721s-0.798-0.871-1.055-1.526
		c-0.257-0.655-0.385-1.519-0.385-2.592V262.757z"/>
	<path fill="#9B9B9B" d="M183.912,262.757c0.149-0.028,0.294-0.048,0.436-0.062c0.142-0.014,0.287-0.021,0.436-0.021
		s0.287,0.007,0.416,0.021c0.128,0.014,0.267,0.035,0.416,0.062c0.041,0.209,0.081,0.491,0.122,0.847s0.061,0.652,0.061,0.889
		c0.135-0.237,0.307-0.474,0.517-0.711c0.209-0.237,0.449-0.449,0.72-0.638c0.271-0.188,0.581-0.341,0.933-0.46
		c0.352-0.118,0.737-0.178,1.156-0.178c1.189,0,2.068,0.353,2.636,1.056c0.568,0.704,0.852,1.746,0.852,3.125v6.794
		c-0.149,0.028-0.318,0.049-0.507,0.062c-0.189,0.014-0.358,0.021-0.507,0.021s-0.314-0.007-0.497-0.021
		c-0.183-0.014-0.348-0.035-0.497-0.062v-6.23c0-0.989-0.149-1.717-0.446-2.185c-0.298-0.467-0.771-0.7-1.419-0.7
		c-0.379,0-0.737,0.07-1.075,0.209c-0.338,0.14-0.635,0.355-0.892,0.648c-0.257,0.293-0.463,0.673-0.619,1.14
		s-0.233,1.028-0.233,1.683v5.436c-0.149,0.028-0.314,0.049-0.497,0.062c-0.182,0.014-0.348,0.021-0.497,0.021
		c-0.149,0-0.318-0.007-0.507-0.021c-0.189-0.014-0.358-0.035-0.507-0.062V262.757z"/>
	<path fill="#9B9B9B" d="M197.134,268.631c0.027,1.171,0.321,2.028,0.882,2.571s1.389,0.815,2.484,0.815
		c0.959,0,1.872-0.174,2.737-0.522c0.108,0.209,0.196,0.463,0.264,0.763c0.067,0.3,0.108,0.596,0.122,0.889
		c-0.446,0.195-0.936,0.341-1.47,0.439c-0.534,0.097-1.125,0.146-1.774,0.146c-0.946,0-1.757-0.136-2.433-0.408
		c-0.676-0.272-1.234-0.655-1.673-1.15c-0.439-0.495-0.761-1.08-0.963-1.756s-0.304-1.418-0.304-2.227
		c0-0.794,0.098-1.537,0.294-2.227c0.196-0.69,0.497-1.289,0.902-1.798c0.406-0.508,0.916-0.913,1.531-1.212
		c0.615-0.3,1.341-0.45,2.18-0.45c0.716,0,1.345,0.125,1.886,0.376c0.541,0.251,0.993,0.596,1.358,1.035s0.642,0.962,0.832,1.568
		c0.189,0.606,0.284,1.265,0.284,1.976c0,0.195-0.007,0.401-0.02,0.617c-0.014,0.216-0.027,0.401-0.041,0.554H197.134z
		 M202.284,267.084c0-0.39-0.051-0.763-0.152-1.119c-0.102-0.355-0.25-0.666-0.446-0.93c-0.196-0.265-0.446-0.477-0.75-0.638
		c-0.304-0.16-0.666-0.24-1.084-0.24c-0.825,0-1.457,0.258-1.896,0.773c-0.439,0.516-0.707,1.233-0.801,2.153H202.284z"/>
	<path fill="#9B9B9B" d="M218.649,271.621c0.108,0.195,0.203,0.439,0.284,0.731s0.128,0.593,0.142,0.899
		c-0.798,0.32-1.71,0.481-2.738,0.481c-1.73,0-3.035-0.505-3.914-1.516c-0.879-1.01-1.318-2.373-1.318-4.087
		c0-0.794,0.108-1.533,0.325-2.216c0.216-0.683,0.538-1.275,0.963-1.777c0.426-0.502,0.956-0.899,1.592-1.191
		c0.635-0.293,1.372-0.439,2.21-0.439c0.567,0,1.067,0.035,1.5,0.104c0.432,0.07,0.845,0.182,1.237,0.335
		c0,0.237-0.03,0.512-0.091,0.826c-0.061,0.313-0.146,0.589-0.253,0.826c-0.663-0.237-1.419-0.355-2.271-0.355
		c-1.042,0-1.818,0.355-2.332,1.066c-0.514,0.71-0.771,1.651-0.771,2.822c0,1.338,0.291,2.317,0.872,2.938s1.379,0.93,2.393,0.93
		c0.406,0,0.781-0.028,1.125-0.083S218.297,271.76,218.649,271.621z"/>
</g>
<g>
	<path fill="#9B9B9B" d="M225.322,273.732c-0.812,0-1.521-0.143-2.129-0.429s-1.115-0.679-1.521-1.181
		c-0.405-0.501-0.707-1.094-0.902-1.777c-0.196-0.683-0.294-1.422-0.294-2.216c0-0.794,0.098-1.533,0.294-2.216
		c0.196-0.683,0.497-1.275,0.902-1.777c0.406-0.502,0.913-0.899,1.521-1.191c0.608-0.293,1.318-0.439,2.129-0.439
		c0.811,0,1.521,0.146,2.129,0.439c0.608,0.292,1.115,0.689,1.521,1.191c0.406,0.501,0.706,1.094,0.902,1.777
		c0.196,0.683,0.294,1.422,0.294,2.216c0,0.794-0.098,1.534-0.294,2.216c-0.196,0.683-0.497,1.275-0.902,1.777
		c-0.406,0.502-0.913,0.896-1.521,1.181S226.133,273.732,225.322,273.732z M225.322,272.081c0.933,0,1.622-0.348,2.068-1.045
		c0.446-0.697,0.669-1.666,0.669-2.906c0-1.24-0.223-2.205-0.669-2.895c-0.446-0.69-1.136-1.035-2.068-1.035
		c-0.933,0-1.619,0.345-2.059,1.035s-0.659,1.655-0.659,2.895c0,1.241,0.219,2.209,0.659,2.906S224.389,272.081,225.322,272.081z"/>
	<path fill="#9B9B9B" d="M232.764,258.158c0.149-0.028,0.314-0.049,0.497-0.062c0.183-0.014,0.348-0.021,0.497-0.021
		s0.314,0.007,0.497,0.021c0.183,0.014,0.348,0.035,0.497,0.062v12.083c0,0.39,0.034,0.697,0.102,0.92
		c0.067,0.223,0.159,0.394,0.274,0.512c0.114,0.118,0.25,0.195,0.405,0.23s0.321,0.052,0.497,0.052c0.122,0,0.26-0.007,0.416-0.021
		c0.155-0.014,0.287-0.035,0.396-0.063c0.122,0.488,0.183,1.018,0.183,1.589c-0.189,0.07-0.419,0.115-0.689,0.136
		c-0.271,0.021-0.521,0.032-0.75,0.032c-0.392,0-0.757-0.049-1.095-0.146s-0.635-0.258-0.892-0.481
		c-0.257-0.223-0.459-0.522-0.608-0.899c-0.149-0.376-0.223-0.843-0.223-1.4V258.158z"/>
	<path fill="#9B9B9B" d="M238.806,258.158c0.149-0.028,0.314-0.049,0.497-0.062c0.183-0.014,0.348-0.021,0.497-0.021
		s0.314,0.007,0.497,0.021c0.183,0.014,0.348,0.035,0.497,0.062v12.083c0,0.39,0.034,0.697,0.102,0.92
		c0.067,0.223,0.159,0.394,0.274,0.512c0.114,0.118,0.25,0.195,0.405,0.23s0.321,0.052,0.497,0.052c0.122,0,0.26-0.007,0.416-0.021
		c0.155-0.014,0.287-0.035,0.396-0.063c0.122,0.488,0.183,1.018,0.183,1.589c-0.189,0.07-0.419,0.115-0.689,0.136
		c-0.271,0.021-0.521,0.032-0.75,0.032c-0.392,0-0.757-0.049-1.095-0.146s-0.635-0.258-0.892-0.481
		c-0.257-0.223-0.459-0.522-0.608-0.899c-0.149-0.376-0.223-0.843-0.223-1.4V258.158z"/>
	<path fill="#9B9B9B" d="M250.385,266.416c0-0.822-0.203-1.394-0.608-1.714c-0.405-0.32-0.994-0.481-1.764-0.481
		c-0.473,0-0.916,0.039-1.328,0.115c-0.413,0.077-0.815,0.178-1.207,0.303c-0.257-0.459-0.385-1.01-0.385-1.651
		c0.459-0.153,0.966-0.271,1.521-0.355c0.554-0.083,1.088-0.125,1.602-0.125c1.352,0,2.379,0.317,3.083,0.951
		c0.703,0.635,1.054,1.648,1.054,3.042v6.71c-0.473,0.112-1.048,0.227-1.724,0.345s-1.365,0.178-2.068,0.178
		c-0.663,0-1.261-0.063-1.794-0.188c-0.534-0.125-0.987-0.327-1.359-0.606c-0.372-0.279-0.659-0.634-0.862-1.066
		c-0.203-0.432-0.304-0.954-0.304-1.568c0-0.599,0.118-1.125,0.355-1.578c0.236-0.453,0.558-0.829,0.963-1.129
		c0.405-0.3,0.872-0.523,1.399-0.669c0.527-0.146,1.082-0.22,1.663-0.22c0.433,0,0.787,0.011,1.064,0.031
		c0.277,0.021,0.51,0.045,0.7,0.073V266.416z M250.385,268.443c-0.203-0.028-0.46-0.056-0.771-0.084
		c-0.311-0.027-0.575-0.042-0.791-0.042c-0.838,0-1.477,0.16-1.916,0.481c-0.439,0.32-0.659,0.808-0.659,1.463
		c0,0.418,0.074,0.746,0.223,0.982c0.148,0.237,0.334,0.418,0.558,0.543s0.469,0.202,0.74,0.23c0.27,0.028,0.527,0.042,0.771,0.042
		c0.311,0,0.632-0.018,0.963-0.052c0.332-0.035,0.625-0.087,0.882-0.157V268.443z"/>
	<path fill="#9B9B9B" d="M255.353,258.158c0.148-0.028,0.314-0.049,0.497-0.062c0.183-0.014,0.348-0.021,0.497-0.021
		c0.148,0,0.317,0.007,0.507,0.021c0.189,0.014,0.358,0.035,0.507,0.062v5.896c0.244-0.418,0.622-0.781,1.136-1.087
		c0.514-0.306,1.136-0.46,1.866-0.46c0.622,0,1.196,0.104,1.724,0.314c0.527,0.209,0.98,0.533,1.358,0.972
		c0.378,0.439,0.672,0.997,0.882,1.673c0.209,0.676,0.314,1.474,0.314,2.394c0,1.84-0.504,3.279-1.511,4.317
		c-1.007,1.039-2.458,1.558-4.35,1.558c-0.595,0-1.207-0.06-1.835-0.178s-1.159-0.254-1.592-0.408V258.158z M257.36,271.746
		c0.244,0.084,0.503,0.143,0.781,0.178c0.277,0.035,0.564,0.052,0.862,0.052c0.5,0,0.963-0.08,1.389-0.24s0.794-0.404,1.105-0.732
		c0.311-0.327,0.558-0.745,0.74-1.254c0.183-0.509,0.274-1.111,0.274-1.809c0-1.157-0.196-2.056-0.588-2.697
		c-0.393-0.641-1.042-0.961-1.947-0.961c-0.312,0-0.619,0.052-0.923,0.157s-0.585,0.271-0.841,0.501
		c-0.257,0.23-0.463,0.537-0.619,0.92c-0.156,0.384-0.233,0.847-0.233,1.39V271.746z"/>
	<path fill="#9B9B9B" d="M271.556,273.732c-0.812,0-1.521-0.143-2.129-0.429s-1.115-0.679-1.521-1.181
		c-0.405-0.501-0.707-1.094-0.902-1.777c-0.196-0.683-0.294-1.422-0.294-2.216c0-0.794,0.098-1.533,0.294-2.216
		c0.196-0.683,0.497-1.275,0.902-1.777c0.406-0.502,0.913-0.899,1.521-1.191c0.608-0.293,1.318-0.439,2.129-0.439
		c0.811,0,1.521,0.146,2.129,0.439c0.608,0.292,1.115,0.689,1.521,1.191c0.406,0.501,0.706,1.094,0.902,1.777
		c0.196,0.683,0.294,1.422,0.294,2.216c0,0.794-0.098,1.534-0.294,2.216c-0.196,0.683-0.497,1.275-0.902,1.777
		c-0.406,0.502-0.913,0.896-1.521,1.181S272.367,273.732,271.556,273.732z M271.556,272.081c0.933,0,1.622-0.348,2.068-1.045
		c0.446-0.697,0.669-1.666,0.669-2.906c0-1.24-0.223-2.205-0.669-2.895c-0.446-0.69-1.136-1.035-2.068-1.035
		c-0.933,0-1.619,0.345-2.059,1.035s-0.659,1.655-0.659,2.895c0,1.241,0.219,2.209,0.659,2.906S270.623,272.081,271.556,272.081z"/>
	<path fill="#9B9B9B" d="M279.038,262.757c0.149-0.028,0.291-0.048,0.426-0.062c0.135-0.014,0.277-0.021,0.426-0.021
		c0.148,0,0.297,0.007,0.446,0.021c0.149,0.014,0.284,0.035,0.406,0.062c0.041,0.209,0.081,0.484,0.122,0.826
		c0.041,0.342,0.061,0.631,0.061,0.868c0.284-0.474,0.659-0.885,1.125-1.233c0.466-0.348,1.064-0.522,1.794-0.522
		c0.108,0,0.22,0.003,0.334,0.01c0.115,0.007,0.213,0.018,0.294,0.031c0.027,0.125,0.047,0.258,0.061,0.397
		c0.013,0.139,0.021,0.286,0.021,0.439c0,0.167-0.01,0.342-0.031,0.522c-0.02,0.182-0.044,0.355-0.071,0.523
		c-0.108-0.028-0.22-0.042-0.334-0.042c-0.115,0-0.207,0-0.274,0c-0.365,0-0.713,0.052-1.044,0.157
		c-0.332,0.104-0.628,0.29-0.892,0.554s-0.474,0.627-0.629,1.087s-0.233,1.053-0.233,1.777v5.331
		c-0.149,0.028-0.314,0.049-0.497,0.062c-0.182,0.014-0.348,0.021-0.497,0.021c-0.149,0-0.314-0.007-0.497-0.021
		c-0.182-0.014-0.354-0.035-0.517-0.062V262.757z"/>
	<path fill="#9B9B9B" d="M292.077,266.416c0-0.822-0.203-1.394-0.608-1.714c-0.405-0.32-0.994-0.481-1.764-0.481
		c-0.473,0-0.916,0.039-1.328,0.115c-0.413,0.077-0.815,0.178-1.207,0.303c-0.257-0.459-0.385-1.01-0.385-1.651
		c0.459-0.153,0.966-0.271,1.521-0.355c0.554-0.083,1.088-0.125,1.602-0.125c1.352,0,2.379,0.317,3.083,0.951
		c0.703,0.635,1.054,1.648,1.054,3.042v6.71c-0.473,0.112-1.048,0.227-1.724,0.345s-1.365,0.178-2.068,0.178
		c-0.663,0-1.261-0.063-1.794-0.188c-0.534-0.125-0.987-0.327-1.359-0.606c-0.372-0.279-0.659-0.634-0.862-1.066
		c-0.203-0.432-0.304-0.954-0.304-1.568c0-0.599,0.118-1.125,0.355-1.578c0.236-0.453,0.558-0.829,0.963-1.129
		c0.405-0.3,0.872-0.523,1.399-0.669c0.527-0.146,1.082-0.22,1.663-0.22c0.433,0,0.787,0.011,1.064,0.031
		c0.277,0.021,0.51,0.045,0.7,0.073V266.416z M292.077,268.443c-0.203-0.028-0.46-0.056-0.771-0.084
		c-0.311-0.027-0.575-0.042-0.791-0.042c-0.838,0-1.477,0.16-1.916,0.481c-0.439,0.32-0.659,0.808-0.659,1.463
		c0,0.418,0.074,0.746,0.223,0.982c0.148,0.237,0.334,0.418,0.558,0.543s0.469,0.202,0.74,0.23c0.27,0.028,0.527,0.042,0.771,0.042
		c0.311,0,0.632-0.018,0.963-0.052c0.332-0.035,0.625-0.087,0.882-0.157V268.443z"/>
	<path fill="#9B9B9B" d="M297.45,264.409h-1.582l-0.081-0.293l3.488-4.014h0.162v2.655h2.636c0.055,0.237,0.082,0.502,0.082,0.794
		c0,0.154-0.008,0.3-0.021,0.439c-0.014,0.14-0.033,0.279-0.061,0.418h-2.636v4.892c0,0.585,0.023,1.053,0.071,1.401
		c0.047,0.348,0.129,0.617,0.243,0.805s0.271,0.313,0.466,0.376c0.196,0.062,0.443,0.094,0.74,0.094c0.23,0,0.447-0.017,0.65-0.052
		c0.201-0.035,0.385-0.073,0.547-0.115c0.094,0.279,0.152,0.564,0.172,0.857c0.02,0.293,0.031,0.551,0.031,0.773
		c-0.271,0.07-0.555,0.122-0.852,0.157c-0.299,0.035-0.615,0.053-0.953,0.053c-0.974,0-1.734-0.244-2.282-0.732
		c-0.547-0.488-0.821-1.296-0.821-2.425V264.409z"/>
	<path fill="#9B9B9B" d="M304.933,264.388h-1.318c-0.026-0.111-0.047-0.241-0.061-0.387c-0.014-0.146-0.021-0.289-0.021-0.429
		c0-0.139,0.007-0.282,0.021-0.429c0.014-0.146,0.034-0.275,0.061-0.387h3.285v10.725c-0.148,0.028-0.314,0.049-0.496,0.062
		c-0.183,0.014-0.349,0.021-0.497,0.021c-0.136,0-0.294-0.007-0.477-0.021c-0.183-0.014-0.349-0.035-0.497-0.062V264.388z
		 M304.486,260.395c-0.027-0.167-0.044-0.348-0.051-0.543c-0.007-0.195-0.01-0.369-0.01-0.522s0.003-0.328,0.01-0.523
		c0.007-0.195,0.023-0.369,0.051-0.522c0.176-0.028,0.365-0.049,0.568-0.063c0.202-0.014,0.378-0.021,0.527-0.021
		c0.148,0,0.324,0.007,0.527,0.021c0.202,0.014,0.385,0.035,0.547,0.063c0.027,0.153,0.044,0.328,0.051,0.522
		c0.007,0.195,0.01,0.37,0.01,0.523s-0.003,0.328-0.01,0.522c-0.007,0.195-0.023,0.376-0.051,0.543
		c-0.162,0.028-0.342,0.049-0.537,0.063c-0.196,0.014-0.368,0.021-0.518,0.021c-0.162,0-0.345-0.007-0.547-0.021
		C304.852,260.443,304.662,260.423,304.486,260.395z"/>
	<path fill="#9B9B9B" d="M314.382,273.732c-0.811,0-1.521-0.143-2.129-0.429s-1.115-0.679-1.521-1.181
		c-0.406-0.501-0.707-1.094-0.902-1.777c-0.196-0.683-0.295-1.422-0.295-2.216c0-0.794,0.099-1.533,0.295-2.216
		c0.195-0.683,0.496-1.275,0.902-1.777c0.405-0.502,0.912-0.899,1.521-1.191c0.608-0.293,1.318-0.439,2.129-0.439
		c0.812,0,1.521,0.146,2.13,0.439c0.608,0.292,1.115,0.689,1.521,1.191c0.405,0.501,0.706,1.094,0.902,1.777
		c0.196,0.683,0.294,1.422,0.294,2.216c0,0.794-0.098,1.534-0.294,2.216c-0.196,0.683-0.497,1.275-0.902,1.777
		c-0.405,0.502-0.912,0.896-1.521,1.181S315.193,273.732,314.382,273.732z M314.382,272.081c0.934,0,1.623-0.348,2.068-1.045
		c0.446-0.697,0.67-1.666,0.67-2.906c0-1.24-0.224-2.205-0.67-2.895c-0.445-0.69-1.135-1.035-2.068-1.035
		c-0.933,0-1.619,0.345-2.058,1.035c-0.439,0.69-0.659,1.655-0.659,2.895c0,1.241,0.22,2.209,0.659,2.906
		C312.763,271.732,313.449,272.081,314.382,272.081z"/>
	<path fill="#9B9B9B" d="M321.865,262.757c0.148-0.028,0.294-0.048,0.437-0.062c0.142-0.014,0.287-0.021,0.436-0.021
		s0.287,0.007,0.416,0.021c0.128,0.014,0.267,0.035,0.415,0.062c0.041,0.209,0.082,0.491,0.122,0.847
		c0.041,0.355,0.061,0.652,0.061,0.889c0.136-0.237,0.308-0.474,0.518-0.711c0.209-0.237,0.449-0.449,0.72-0.638
		c0.271-0.188,0.581-0.341,0.933-0.46c0.352-0.118,0.737-0.178,1.156-0.178c1.189,0,2.068,0.353,2.636,1.056
		c0.568,0.704,0.852,1.746,0.852,3.125v6.794c-0.148,0.028-0.317,0.049-0.507,0.062c-0.189,0.014-0.358,0.021-0.507,0.021
		s-0.314-0.007-0.497-0.021c-0.183-0.014-0.348-0.035-0.496-0.062v-6.23c0-0.989-0.149-1.717-0.446-2.185
		c-0.298-0.467-0.771-0.7-1.42-0.7c-0.378,0-0.736,0.07-1.074,0.209c-0.338,0.14-0.636,0.355-0.893,0.648
		c-0.257,0.293-0.463,0.673-0.618,1.14c-0.156,0.467-0.233,1.028-0.233,1.683v5.436c-0.149,0.028-0.314,0.049-0.497,0.062
		c-0.183,0.014-0.348,0.021-0.497,0.021c-0.148,0-0.317-0.007-0.507-0.021c-0.189-0.014-0.358-0.035-0.507-0.062V262.757z"/>
</g>
</svg>
