<?xml version="1.0" encoding="utf-8"?>
<!-- Generator: Adobe Illustrator 16.0.4, SVG Export Plug-In . SVG Version: 6.00 Build 0)  -->
<!DOCTYPE svg PUBLIC "-//W3C//DTD SVG 1.1//EN" "http://www.w3.org/Graphics/SVG/1.1/DTD/svg11.dtd">
<svg version="1.1" id="Calque_1" xmlns="http://www.w3.org/2000/svg" xmlns:xlink="http://www.w3.org/1999/xlink" x="0px" y="0px"
	 width="600px" height="600px" viewBox="0 0 600 600" enable-background="new 0 0 600 600" xml:space="preserve">
<g>
	<g>
		<path fill="#FFFFFF" d="M125.004,289.276h-1.582l-0.081-0.293l3.488-4.014h0.162v2.655h2.636c0.054,0.237,0.081,0.502,0.081,0.794
			c0,0.154-0.007,0.3-0.02,0.439c-0.014,0.14-0.034,0.279-0.061,0.418h-2.636v4.892c0,0.585,0.023,1.053,0.071,1.401
			c0.047,0.348,0.128,0.617,0.243,0.805s0.271,0.313,0.466,0.376c0.196,0.062,0.443,0.094,0.74,0.094
			c0.23,0,0.446-0.017,0.649-0.052c0.203-0.035,0.385-0.073,0.547-0.115c0.095,0.279,0.152,0.564,0.172,0.857
			c0.021,0.293,0.031,0.551,0.031,0.773c-0.271,0.07-0.555,0.122-0.852,0.157s-0.615,0.053-0.953,0.053
			c-0.974,0-1.734-0.244-2.282-0.732c-0.547-0.488-0.821-1.296-0.821-2.425V289.276z"/>
		<path fill="#FFFFFF" d="M136.097,298.6c-0.812,0-1.521-0.143-2.129-0.429s-1.115-0.679-1.521-1.181
			c-0.405-0.501-0.707-1.094-0.902-1.777c-0.196-0.683-0.294-1.422-0.294-2.216c0-0.794,0.098-1.533,0.294-2.216
			c0.196-0.683,0.497-1.275,0.902-1.777c0.406-0.502,0.913-0.899,1.521-1.191c0.608-0.293,1.318-0.439,2.129-0.439
			c0.811,0,1.521,0.146,2.129,0.439c0.608,0.292,1.115,0.689,1.521,1.191c0.406,0.501,0.706,1.094,0.902,1.777
			c0.196,0.683,0.294,1.422,0.294,2.216c0,0.794-0.098,1.534-0.294,2.216c-0.196,0.683-0.497,1.275-0.902,1.777
			c-0.406,0.502-0.913,0.896-1.521,1.181S136.908,298.6,136.097,298.6z M136.097,296.948c0.933,0,1.622-0.348,2.068-1.045
			c0.446-0.697,0.669-1.666,0.669-2.906c0-1.24-0.223-2.205-0.669-2.895c-0.446-0.69-1.136-1.035-2.068-1.035
			c-0.933,0-1.619,0.345-2.059,1.035s-0.659,1.655-0.659,2.895c0,1.241,0.219,2.209,0.659,2.906S135.164,296.948,136.097,296.948z"
			/>
		<path fill="#FFFFFF" d="M143.458,287.624c0.149-0.028,0.317-0.048,0.507-0.062c0.189-0.014,0.352-0.021,0.487-0.021
			c0.149,0,0.317,0.007,0.507,0.021c0.189,0.014,0.358,0.035,0.507,0.062v5.875c0,0.669,0.061,1.223,0.182,1.662
			c0.122,0.439,0.304,0.784,0.548,1.035c0.243,0.251,0.541,0.425,0.892,0.522c0.352,0.098,0.757,0.146,1.217,0.146
			c0.689,0,1.277-0.076,1.764-0.23v-9.01c0.148-0.028,0.314-0.048,0.497-0.062c0.183-0.014,0.348-0.021,0.497-0.021
			c0.148,0,0.314,0.007,0.497,0.021c0.183,0.014,0.348,0.035,0.497,0.062v10.39c-0.474,0.14-1.038,0.272-1.693,0.397
			c-0.656,0.125-1.335,0.188-2.038,0.188c-0.662,0-1.288-0.06-1.875-0.178s-1.105-0.359-1.551-0.721s-0.798-0.871-1.055-1.526
			c-0.257-0.655-0.385-1.519-0.385-2.592V287.624z"/>
		<path fill="#FFFFFF" d="M155.888,289.255h-1.318c-0.027-0.111-0.047-0.241-0.061-0.387c-0.014-0.146-0.021-0.289-0.021-0.429
			c0-0.139,0.007-0.282,0.021-0.429c0.013-0.146,0.034-0.275,0.061-0.387h3.285v11.331c0,0.627-0.081,1.149-0.243,1.568
			c-0.162,0.417-0.389,0.755-0.679,1.014c-0.291,0.258-0.632,0.441-1.024,0.554c-0.392,0.111-0.818,0.167-1.277,0.167
			c-0.73,0-1.345-0.091-1.845-0.271c0.014-0.265,0.047-0.537,0.101-0.815c0.054-0.279,0.129-0.529,0.223-0.753
			c0.325,0.111,0.703,0.168,1.136,0.168c0.175,0,0.358-0.015,0.547-0.042c0.189-0.028,0.365-0.102,0.527-0.22
			c0.162-0.119,0.297-0.297,0.406-0.533c0.108-0.237,0.162-0.564,0.162-0.982V289.255z M155.401,285.241
			c-0.027-0.195-0.047-0.379-0.061-0.554c-0.014-0.174-0.021-0.338-0.021-0.491s0.007-0.317,0.021-0.492
			c0.013-0.174,0.033-0.352,0.061-0.533c0.176-0.028,0.365-0.052,0.568-0.073s0.378-0.031,0.527-0.031
			c0.148,0,0.321,0.01,0.517,0.031c0.196,0.021,0.375,0.045,0.537,0.073c0.027,0.181,0.047,0.359,0.061,0.533
			c0.013,0.175,0.02,0.338,0.02,0.492s-0.007,0.317-0.02,0.491c-0.014,0.174-0.034,0.359-0.061,0.554
			c-0.162,0.028-0.341,0.052-0.537,0.073c-0.196,0.021-0.369,0.031-0.517,0.031c-0.149,0-0.325-0.01-0.527-0.031
			S155.577,285.269,155.401,285.241z"/>
		<path fill="#FFFFFF" d="M165.317,298.6c-0.812,0-1.521-0.143-2.129-0.429s-1.115-0.679-1.521-1.181
			c-0.405-0.501-0.707-1.094-0.902-1.777c-0.196-0.683-0.294-1.422-0.294-2.216c0-0.794,0.098-1.533,0.294-2.216
			c0.196-0.683,0.497-1.275,0.902-1.777c0.406-0.502,0.913-0.899,1.521-1.191c0.608-0.293,1.318-0.439,2.129-0.439
			c0.811,0,1.521,0.146,2.129,0.439c0.608,0.292,1.115,0.689,1.521,1.191c0.406,0.501,0.706,1.094,0.902,1.777
			c0.196,0.683,0.294,1.422,0.294,2.216c0,0.794-0.098,1.534-0.294,2.216c-0.196,0.683-0.497,1.275-0.902,1.777
			c-0.406,0.502-0.913,0.896-1.521,1.181S166.128,298.6,165.317,298.6z M165.317,296.948c0.933,0,1.622-0.348,2.068-1.045
			c0.446-0.697,0.669-1.666,0.669-2.906c0-1.24-0.223-2.205-0.669-2.895c-0.446-0.69-1.136-1.035-2.068-1.035
			c-0.933,0-1.619,0.345-2.059,1.035s-0.659,1.655-0.659,2.895c0,1.241,0.219,2.209,0.659,2.906S164.384,296.948,165.317,296.948z"
			/>
		<path fill="#FFFFFF" d="M172.678,287.624c0.149-0.028,0.317-0.048,0.507-0.062c0.189-0.014,0.352-0.021,0.487-0.021
			c0.149,0,0.317,0.007,0.507,0.021c0.189,0.014,0.358,0.035,0.507,0.062v5.875c0,0.669,0.061,1.223,0.182,1.662
			c0.122,0.439,0.304,0.784,0.548,1.035c0.243,0.251,0.541,0.425,0.892,0.522c0.352,0.098,0.757,0.146,1.217,0.146
			c0.689,0,1.277-0.076,1.764-0.23v-9.01c0.148-0.028,0.314-0.048,0.497-0.062c0.183-0.014,0.348-0.021,0.497-0.021
			c0.148,0,0.314,0.007,0.497,0.021c0.183,0.014,0.348,0.035,0.497,0.062v10.39c-0.474,0.14-1.038,0.272-1.693,0.397
			c-0.656,0.125-1.335,0.188-2.038,0.188c-0.662,0-1.288-0.06-1.875-0.178s-1.105-0.359-1.551-0.721s-0.798-0.871-1.055-1.526
			c-0.257-0.655-0.385-1.519-0.385-2.592V287.624z"/>
		<path fill="#FFFFFF" d="M184.439,287.624c0.149-0.028,0.291-0.048,0.426-0.062c0.135-0.014,0.277-0.021,0.426-0.021
			c0.148,0,0.297,0.007,0.446,0.021c0.149,0.014,0.284,0.035,0.406,0.062c0.041,0.209,0.081,0.484,0.122,0.826
			c0.041,0.342,0.061,0.631,0.061,0.868c0.284-0.474,0.659-0.885,1.125-1.233c0.466-0.348,1.064-0.522,1.794-0.522
			c0.108,0,0.22,0.003,0.334,0.01c0.115,0.007,0.213,0.018,0.294,0.031c0.027,0.125,0.047,0.258,0.061,0.397
			c0.013,0.139,0.021,0.286,0.021,0.439c0,0.167-0.01,0.342-0.031,0.522c-0.02,0.182-0.044,0.355-0.071,0.523
			c-0.108-0.028-0.22-0.042-0.334-0.042c-0.115,0-0.207,0-0.274,0c-0.365,0-0.713,0.052-1.044,0.157
			c-0.332,0.104-0.628,0.29-0.892,0.554s-0.474,0.627-0.629,1.087s-0.233,1.053-0.233,1.777v5.331
			c-0.149,0.028-0.314,0.049-0.497,0.062c-0.182,0.014-0.348,0.021-0.497,0.021c-0.149,0-0.314-0.007-0.497-0.021
			c-0.182-0.014-0.354-0.035-0.517-0.062V287.624z"/>
	</g>
	<g>
		<path fill="#FFFFFF" d="M191.578,296.404c0.365,0.154,0.767,0.275,1.207,0.366c0.439,0.09,0.875,0.136,1.308,0.136
			c0.311,0,0.608-0.035,0.893-0.104c0.284-0.07,0.53-0.174,0.74-0.313c0.209-0.139,0.378-0.31,0.507-0.512
			c0.128-0.202,0.192-0.429,0.192-0.68c0-0.279-0.051-0.509-0.152-0.69c-0.102-0.181-0.237-0.334-0.406-0.46
			s-0.365-0.233-0.588-0.324s-0.463-0.178-0.72-0.262l-0.71-0.271c-0.865-0.334-1.494-0.711-1.886-1.129
			c-0.393-0.418-0.588-0.982-0.588-1.693c0-0.948,0.328-1.7,0.984-2.258c0.655-0.557,1.619-0.836,2.89-0.836
			c0.527,0,1.044,0.052,1.551,0.157c0.507,0.104,0.949,0.227,1.328,0.366c-0.027,0.279-0.078,0.558-0.152,0.836
			c-0.074,0.279-0.166,0.537-0.273,0.773c-0.298-0.111-0.652-0.219-1.065-0.324s-0.855-0.157-1.328-0.157
			c-0.5,0-0.943,0.091-1.328,0.271c-0.385,0.182-0.578,0.502-0.578,0.962c0,0.237,0.047,0.439,0.142,0.606
			c0.094,0.167,0.223,0.311,0.385,0.429c0.162,0.119,0.348,0.22,0.558,0.303s0.436,0.167,0.679,0.251l0.893,0.313
			c0.324,0.112,0.632,0.244,0.922,0.397c0.291,0.154,0.541,0.345,0.75,0.575c0.209,0.23,0.378,0.509,0.507,0.836
			c0.128,0.328,0.193,0.721,0.193,1.181c0,0.516-0.102,0.986-0.304,1.411c-0.203,0.425-0.49,0.788-0.862,1.087
			c-0.372,0.3-0.821,0.533-1.349,0.7s-1.108,0.251-1.744,0.251c-0.648,0-1.216-0.045-1.703-0.136
			c-0.487-0.09-0.94-0.212-1.359-0.366c0.027-0.278,0.084-0.561,0.172-0.847C191.371,296.966,191.469,296.684,191.578,296.404z"/>
		<path fill="#FFFFFF" d="M205.772,287.624c0.135-0.028,0.274-0.048,0.416-0.062c0.142-0.014,0.287-0.021,0.436-0.021
			c0.135,0,0.277,0.007,0.426,0.021c0.149,0.014,0.291,0.035,0.426,0.062c0.014,0.028,0.031,0.115,0.051,0.261
			c0.021,0.146,0.041,0.303,0.061,0.471c0.02,0.167,0.041,0.328,0.061,0.48c0.021,0.154,0.031,0.251,0.031,0.293
			c0.135-0.223,0.297-0.439,0.486-0.648c0.189-0.209,0.416-0.397,0.68-0.564c0.264-0.167,0.561-0.3,0.892-0.397
			c0.331-0.097,0.7-0.146,1.105-0.146c0.608,0,1.173,0.104,1.693,0.314c0.521,0.209,0.966,0.533,1.338,0.972
			c0.372,0.439,0.662,0.997,0.872,1.673c0.209,0.676,0.314,1.474,0.314,2.394c0,1.84-0.484,3.279-1.45,4.317
			c-0.967,1.039-2.335,1.558-4.106,1.558c-0.297,0-0.602-0.021-0.912-0.063c-0.312-0.042-0.582-0.098-0.812-0.167v4.913
			c-0.162,0.028-0.334,0.049-0.517,0.062c-0.182,0.014-0.348,0.021-0.497,0.021c-0.149,0-0.314-0.008-0.497-0.021
			c-0.182-0.014-0.348-0.034-0.497-0.062V287.624z M207.779,296.593c0.257,0.098,0.521,0.167,0.791,0.209
			c0.271,0.042,0.622,0.062,1.055,0.062c0.486,0,0.933-0.08,1.338-0.24c0.405-0.16,0.753-0.408,1.044-0.742s0.521-0.756,0.689-1.265
			s0.253-1.111,0.253-1.809c0-1.115-0.199-2-0.598-2.655s-1.051-0.983-1.957-0.983c-0.338,0-0.663,0.063-0.974,0.188
			s-0.588,0.313-0.831,0.564c-0.244,0.251-0.44,0.568-0.588,0.951c-0.149,0.383-0.223,0.84-0.223,1.369V296.593z"/>
		<path fill="#FFFFFF" d="M217.716,283.025c0.149-0.028,0.314-0.049,0.497-0.062c0.183-0.014,0.348-0.021,0.497-0.021
			s0.314,0.007,0.497,0.021c0.183,0.014,0.348,0.035,0.497,0.062v12.083c0,0.39,0.034,0.697,0.102,0.92
			c0.067,0.223,0.159,0.394,0.274,0.512c0.114,0.118,0.25,0.195,0.405,0.23s0.321,0.052,0.497,0.052c0.122,0,0.26-0.007,0.416-0.021
			c0.155-0.014,0.287-0.035,0.396-0.063c0.122,0.488,0.183,1.018,0.183,1.589c-0.189,0.07-0.419,0.115-0.689,0.136
			c-0.271,0.021-0.521,0.032-0.75,0.032c-0.392,0-0.757-0.049-1.095-0.146s-0.635-0.258-0.892-0.481
			c-0.257-0.223-0.459-0.522-0.608-0.899c-0.149-0.376-0.223-0.843-0.223-1.4V283.025z"/>
		<path fill="#FFFFFF" d="M223.677,287.624c0.149-0.028,0.317-0.048,0.507-0.062c0.189-0.014,0.352-0.021,0.487-0.021
			c0.149,0,0.317,0.007,0.507,0.021c0.189,0.014,0.358,0.035,0.507,0.062v5.875c0,0.669,0.061,1.223,0.182,1.662
			c0.122,0.439,0.304,0.784,0.548,1.035c0.243,0.251,0.541,0.425,0.892,0.522c0.352,0.098,0.757,0.146,1.217,0.146
			c0.689,0,1.277-0.076,1.764-0.23v-9.01c0.148-0.028,0.314-0.048,0.497-0.062c0.183-0.014,0.348-0.021,0.497-0.021
			c0.148,0,0.314,0.007,0.497,0.021c0.183,0.014,0.348,0.035,0.497,0.062v10.39c-0.474,0.14-1.038,0.272-1.693,0.397
			c-0.656,0.125-1.335,0.188-2.038,0.188c-0.662,0-1.288-0.06-1.875-0.178s-1.105-0.359-1.551-0.721s-0.798-0.871-1.055-1.526
			c-0.257-0.655-0.385-1.519-0.385-2.592V287.624z"/>
		<path fill="#FFFFFF" d="M235.256,296.404c0.365,0.154,0.767,0.275,1.207,0.366c0.439,0.09,0.875,0.136,1.308,0.136
			c0.311,0,0.608-0.035,0.893-0.104c0.284-0.07,0.53-0.174,0.74-0.313c0.209-0.139,0.378-0.31,0.507-0.512
			c0.128-0.202,0.192-0.429,0.192-0.68c0-0.279-0.051-0.509-0.152-0.69c-0.102-0.181-0.237-0.334-0.406-0.46
			s-0.365-0.233-0.588-0.324s-0.463-0.178-0.72-0.262l-0.71-0.271c-0.865-0.334-1.494-0.711-1.886-1.129
			c-0.393-0.418-0.588-0.982-0.588-1.693c0-0.948,0.328-1.7,0.984-2.258c0.655-0.557,1.619-0.836,2.89-0.836
			c0.527,0,1.044,0.052,1.551,0.157c0.507,0.104,0.949,0.227,1.328,0.366c-0.027,0.279-0.078,0.558-0.152,0.836
			c-0.074,0.279-0.166,0.537-0.273,0.773c-0.298-0.111-0.652-0.219-1.065-0.324s-0.855-0.157-1.328-0.157
			c-0.5,0-0.943,0.091-1.328,0.271c-0.385,0.182-0.578,0.502-0.578,0.962c0,0.237,0.047,0.439,0.142,0.606
			c0.094,0.167,0.223,0.311,0.385,0.429c0.162,0.119,0.348,0.22,0.558,0.303s0.436,0.167,0.679,0.251l0.893,0.313
			c0.324,0.112,0.632,0.244,0.922,0.397c0.291,0.154,0.541,0.345,0.75,0.575c0.209,0.23,0.378,0.509,0.507,0.836
			c0.128,0.328,0.193,0.721,0.193,1.181c0,0.516-0.102,0.986-0.304,1.411c-0.203,0.425-0.49,0.788-0.862,1.087
			c-0.372,0.3-0.821,0.533-1.349,0.7s-1.108,0.251-1.744,0.251c-0.648,0-1.216-0.045-1.703-0.136
			c-0.487-0.09-0.94-0.212-1.359-0.366c0.027-0.278,0.084-0.561,0.172-0.847C235.05,296.966,235.148,296.684,235.256,296.404z"/>
		<path fill="#FFFFFF" d="M250.181,289.255h-1.704c-0.054-0.223-0.081-0.495-0.081-0.815c0-0.307,0.027-0.578,0.081-0.815h1.704
			v-0.752c0-1.324,0.321-2.331,0.963-3.021c0.642-0.69,1.578-1.035,2.809-1.035c0.337,0,0.635,0.018,0.892,0.052
			c0.256,0.035,0.5,0.087,0.73,0.157c-0.027,0.349-0.064,0.648-0.112,0.899s-0.111,0.509-0.192,0.773
			c-0.135-0.028-0.294-0.059-0.477-0.094c-0.183-0.034-0.402-0.052-0.659-0.052c-0.297,0-0.564,0.032-0.801,0.094
			c-0.237,0.063-0.439,0.181-0.608,0.355c-0.169,0.174-0.301,0.418-0.396,0.731c-0.095,0.314-0.142,0.715-0.142,1.202v0.69h2.657
			c0.041,0.279,0.061,0.564,0.061,0.857c0,0.265-0.02,0.522-0.061,0.773h-2.657v9.094c-0.149,0.028-0.314,0.049-0.497,0.062
			c-0.183,0.014-0.348,0.021-0.497,0.021s-0.317-0.007-0.507-0.021c-0.189-0.014-0.358-0.035-0.507-0.062V289.255z"/>
		<path fill="#FFFFFF" d="M256.974,287.624c0.149-0.028,0.291-0.048,0.426-0.062c0.135-0.014,0.277-0.021,0.426-0.021
			c0.148,0,0.297,0.007,0.446,0.021c0.149,0.014,0.284,0.035,0.406,0.062c0.041,0.209,0.081,0.484,0.122,0.826
			c0.041,0.342,0.061,0.631,0.061,0.868c0.284-0.474,0.659-0.885,1.125-1.233c0.466-0.348,1.064-0.522,1.794-0.522
			c0.108,0,0.22,0.003,0.334,0.01c0.115,0.007,0.213,0.018,0.294,0.031c0.027,0.125,0.047,0.258,0.061,0.397
			c0.013,0.139,0.021,0.286,0.021,0.439c0,0.167-0.01,0.342-0.031,0.522c-0.02,0.182-0.044,0.355-0.071,0.523
			c-0.108-0.028-0.22-0.042-0.334-0.042c-0.115,0-0.207,0-0.274,0c-0.365,0-0.713,0.052-1.044,0.157
			c-0.332,0.104-0.628,0.29-0.892,0.554s-0.474,0.627-0.629,1.087s-0.233,1.053-0.233,1.777v5.331
			c-0.149,0.028-0.314,0.049-0.497,0.062c-0.182,0.014-0.348,0.021-0.497,0.021c-0.149,0-0.314-0.007-0.497-0.021
			c-0.182-0.014-0.354-0.035-0.517-0.062V287.624z"/>
		<path fill="#FFFFFF" d="M264.396,287.624c0.149-0.028,0.317-0.048,0.507-0.062c0.189-0.014,0.352-0.021,0.487-0.021
			c0.149,0,0.317,0.007,0.507,0.021c0.189,0.014,0.358,0.035,0.507,0.062v5.875c0,0.669,0.061,1.223,0.182,1.662
			c0.122,0.439,0.304,0.784,0.548,1.035c0.243,0.251,0.541,0.425,0.892,0.522c0.352,0.098,0.757,0.146,1.217,0.146
			c0.689,0,1.277-0.076,1.764-0.23v-9.01c0.148-0.028,0.314-0.048,0.497-0.062c0.183-0.014,0.348-0.021,0.497-0.021
			c0.148,0,0.314,0.007,0.497,0.021c0.183,0.014,0.348,0.035,0.497,0.062v10.39c-0.474,0.14-1.038,0.272-1.693,0.397
			c-0.656,0.125-1.335,0.188-2.038,0.188c-0.662,0-1.288-0.06-1.875-0.178s-1.105-0.359-1.551-0.721s-0.798-0.871-1.055-1.526
			c-0.257-0.655-0.385-1.519-0.385-2.592V287.624z"/>
		<path fill="#FFFFFF" d="M283.092,296.488c0.108,0.195,0.203,0.439,0.284,0.731s0.128,0.593,0.142,0.899
			c-0.798,0.32-1.71,0.481-2.738,0.481c-1.73,0-3.035-0.505-3.914-1.516c-0.879-1.01-1.318-2.373-1.318-4.087
			c0-0.794,0.108-1.533,0.325-2.216c0.216-0.683,0.538-1.275,0.963-1.777c0.426-0.502,0.956-0.899,1.592-1.191
			c0.635-0.293,1.372-0.439,2.21-0.439c0.567,0,1.067,0.035,1.5,0.104c0.432,0.07,0.845,0.182,1.237,0.335
			c0,0.237-0.03,0.512-0.091,0.826c-0.061,0.313-0.146,0.589-0.253,0.826c-0.663-0.237-1.419-0.355-2.271-0.355
			c-1.042,0-1.818,0.355-2.332,1.066c-0.514,0.71-0.771,1.651-0.771,2.822c0,1.338,0.291,2.317,0.872,2.938s1.379,0.93,2.393,0.93
			c0.406,0,0.781-0.028,1.125-0.083S282.74,296.627,283.092,296.488z"/>
		<path fill="#FFFFFF" d="M286.235,289.276h-1.582l-0.081-0.293l3.488-4.014h0.162v2.655h2.636c0.054,0.237,0.081,0.502,0.081,0.794
			c0,0.154-0.007,0.3-0.02,0.439c-0.014,0.14-0.034,0.279-0.061,0.418h-2.636v4.892c0,0.585,0.023,1.053,0.071,1.401
			c0.047,0.348,0.128,0.617,0.243,0.805s0.271,0.313,0.466,0.376c0.196,0.062,0.443,0.094,0.74,0.094
			c0.23,0,0.446-0.017,0.649-0.052c0.203-0.035,0.385-0.073,0.547-0.115c0.095,0.279,0.152,0.564,0.172,0.857
			c0.021,0.293,0.031,0.551,0.031,0.773c-0.271,0.07-0.555,0.122-0.852,0.157s-0.615,0.053-0.953,0.053
			c-0.974,0-1.734-0.244-2.282-0.732c-0.547-0.488-0.821-1.296-0.821-2.425V289.276z"/>
		<path fill="#FFFFFF" d="M292.987,287.624c0.149-0.028,0.317-0.048,0.507-0.062c0.189-0.014,0.352-0.021,0.487-0.021
			c0.149,0,0.317,0.007,0.507,0.021c0.189,0.014,0.358,0.035,0.507,0.062v5.875c0,0.669,0.061,1.223,0.182,1.662
			c0.122,0.439,0.304,0.784,0.548,1.035c0.243,0.251,0.541,0.425,0.892,0.522c0.352,0.098,0.757,0.146,1.217,0.146
			c0.689,0,1.277-0.076,1.764-0.23v-9.01c0.149-0.028,0.315-0.048,0.497-0.062c0.183-0.014,0.348-0.021,0.496-0.021
			c0.15,0,0.314,0.007,0.498,0.021c0.182,0.014,0.348,0.035,0.496,0.062v10.39c-0.473,0.14-1.037,0.272-1.693,0.397
			c-0.655,0.125-1.334,0.188-2.038,0.188c-0.662,0-1.288-0.06-1.875-0.178s-1.105-0.359-1.551-0.721s-0.798-0.871-1.055-1.526
			c-0.257-0.655-0.385-1.519-0.385-2.592V287.624z"/>
		<path fill="#FFFFFF" d="M306.249,293.499c0.026,1.171,0.32,2.028,0.882,2.571c0.561,0.543,1.389,0.815,2.484,0.815
			c0.96,0,1.872-0.174,2.737-0.522c0.108,0.209,0.196,0.463,0.264,0.763c0.067,0.3,0.108,0.596,0.122,0.889
			c-0.446,0.195-0.937,0.341-1.471,0.439c-0.534,0.097-1.125,0.146-1.774,0.146c-0.946,0-1.758-0.136-2.434-0.408
			c-0.676-0.272-1.233-0.655-1.673-1.15c-0.439-0.495-0.76-1.08-0.963-1.756s-0.305-1.418-0.305-2.227
			c0-0.794,0.099-1.537,0.295-2.227c0.195-0.69,0.496-1.289,0.902-1.798c0.405-0.508,0.915-0.913,1.53-1.212s1.342-0.45,2.181-0.45
			c0.716,0,1.345,0.125,1.886,0.376c0.54,0.251,0.993,0.596,1.358,1.035s0.642,0.962,0.831,1.568
			c0.189,0.606,0.284,1.265,0.284,1.976c0,0.195-0.007,0.401-0.021,0.617c-0.014,0.216-0.027,0.401-0.04,0.554H306.249z
			 M311.399,291.952c0-0.39-0.051-0.763-0.152-1.119c-0.101-0.355-0.25-0.666-0.445-0.93c-0.196-0.265-0.446-0.477-0.751-0.638
			c-0.304-0.16-0.666-0.24-1.085-0.24c-0.824,0-1.457,0.258-1.896,0.773c-0.439,0.516-0.707,1.233-0.801,2.153H311.399z"/>
		<path fill="#FFFFFF" d="M315.902,287.624c0.148-0.028,0.317-0.048,0.507-0.062c0.188-0.014,0.352-0.021,0.486-0.021
			c0.148,0,0.317,0.007,0.507,0.021c0.189,0.014,0.358,0.035,0.507,0.062v5.875c0,0.669,0.062,1.223,0.183,1.662
			c0.122,0.439,0.305,0.784,0.548,1.035s0.54,0.425,0.893,0.522c0.351,0.098,0.757,0.146,1.216,0.146
			c0.689,0,1.278-0.076,1.765-0.23v-9.01c0.148-0.028,0.314-0.048,0.497-0.062c0.183-0.014,0.348-0.021,0.496-0.021
			c0.149,0,0.314,0.007,0.497,0.021c0.183,0.014,0.348,0.035,0.497,0.062v10.39c-0.474,0.14-1.038,0.272-1.693,0.397
			c-0.656,0.125-1.335,0.188-2.038,0.188c-0.662,0-1.287-0.06-1.876-0.178c-0.588-0.118-1.104-0.359-1.551-0.721
			s-0.798-0.871-1.055-1.526c-0.257-0.655-0.385-1.519-0.385-2.592V287.624z"/>
		<path fill="#FFFFFF" d="M327.48,296.404c0.365,0.154,0.768,0.275,1.207,0.366c0.439,0.09,0.875,0.136,1.308,0.136
			c0.311,0,0.608-0.035,0.893-0.104s0.53-0.174,0.74-0.313c0.209-0.139,0.378-0.31,0.507-0.512c0.128-0.202,0.192-0.429,0.192-0.68
			c0-0.279-0.051-0.509-0.152-0.69c-0.101-0.181-0.236-0.334-0.405-0.46s-0.365-0.233-0.588-0.324s-0.463-0.178-0.72-0.262
			l-0.71-0.271c-0.865-0.334-1.494-0.711-1.886-1.129c-0.393-0.418-0.588-0.982-0.588-1.693c0-0.948,0.327-1.7,0.983-2.258
			c0.655-0.557,1.618-0.836,2.89-0.836c0.527,0,1.044,0.052,1.551,0.157c0.507,0.104,0.95,0.227,1.328,0.366
			c-0.027,0.279-0.077,0.558-0.151,0.836c-0.075,0.279-0.166,0.537-0.274,0.773c-0.297-0.111-0.652-0.219-1.064-0.324
			s-0.855-0.157-1.328-0.157c-0.5,0-0.943,0.091-1.328,0.271c-0.386,0.182-0.578,0.502-0.578,0.962c0,0.237,0.048,0.439,0.143,0.606
			c0.094,0.167,0.223,0.311,0.385,0.429c0.162,0.119,0.348,0.22,0.558,0.303s0.437,0.167,0.68,0.251l0.892,0.313
			c0.325,0.112,0.632,0.244,0.923,0.397c0.291,0.154,0.541,0.345,0.75,0.575c0.21,0.23,0.379,0.509,0.508,0.836
			c0.128,0.328,0.192,0.721,0.192,1.181c0,0.516-0.102,0.986-0.305,1.411c-0.202,0.425-0.49,0.788-0.861,1.087
			c-0.372,0.3-0.821,0.533-1.349,0.7s-1.108,0.251-1.744,0.251c-0.648,0-1.217-0.045-1.703-0.136
			c-0.486-0.09-0.939-0.212-1.358-0.366c0.026-0.278,0.084-0.561,0.172-0.847C327.274,296.966,327.372,296.684,327.48,296.404z"/>
		<path fill="#FFFFFF" d="M338.39,293.499c0.026,1.171,0.32,2.028,0.882,2.571c0.561,0.543,1.389,0.815,2.484,0.815
			c0.96,0,1.872-0.174,2.737-0.522c0.108,0.209,0.196,0.463,0.264,0.763c0.067,0.3,0.108,0.596,0.122,0.889
			c-0.446,0.195-0.937,0.341-1.471,0.439c-0.534,0.097-1.125,0.146-1.774,0.146c-0.946,0-1.758-0.136-2.434-0.408
			c-0.676-0.272-1.233-0.655-1.673-1.15c-0.439-0.495-0.76-1.08-0.963-1.756s-0.305-1.418-0.305-2.227
			c0-0.794,0.099-1.537,0.295-2.227c0.195-0.69,0.496-1.289,0.902-1.798c0.405-0.508,0.915-0.913,1.53-1.212s1.342-0.45,2.181-0.45
			c0.716,0,1.345,0.125,1.886,0.376c0.54,0.251,0.993,0.596,1.358,1.035s0.642,0.962,0.831,1.568
			c0.189,0.606,0.284,1.265,0.284,1.976c0,0.195-0.007,0.401-0.021,0.617c-0.014,0.216-0.027,0.401-0.04,0.554H338.39z
			 M343.54,291.952c0-0.39-0.051-0.763-0.152-1.119c-0.101-0.355-0.25-0.666-0.445-0.93c-0.196-0.265-0.446-0.477-0.751-0.638
			c-0.304-0.16-0.666-0.24-1.085-0.24c-0.824,0-1.457,0.258-1.896,0.773c-0.439,0.516-0.707,1.233-0.801,2.153H343.54z"/>
	</g>
	<g>
		<path fill="#FFFFFF" d="M350.88,298.349c-0.027-0.195-0.048-0.387-0.061-0.575c-0.014-0.188-0.021-0.38-0.021-0.575
			c0-0.195,0.007-0.394,0.021-0.596c0.013-0.202,0.033-0.4,0.061-0.596c0.189-0.028,0.375-0.049,0.558-0.063
			c0.183-0.014,0.368-0.021,0.558-0.021s0.382,0.007,0.578,0.021c0.195,0.014,0.389,0.035,0.578,0.063
			c0.026,0.195,0.047,0.39,0.061,0.585s0.021,0.39,0.021,0.585c0,0.195-0.007,0.391-0.021,0.585
			c-0.014,0.195-0.034,0.391-0.061,0.585c-0.189,0.028-0.379,0.049-0.568,0.062c-0.189,0.014-0.378,0.021-0.567,0.021
			s-0.379-0.007-0.567-0.021C351.258,298.397,351.069,298.376,350.88,298.349z M350.961,283.317
			c0.176-0.027,0.348-0.048,0.518-0.062c0.169-0.014,0.341-0.021,0.517-0.021c0.189,0,0.379,0.007,0.568,0.021
			c0.188,0.014,0.378,0.035,0.567,0.062l-0.122,10.516c-0.311,0.056-0.628,0.083-0.953,0.083c-0.364,0-0.683-0.028-0.953-0.083
			L350.961,283.317z"/>
	</g>
</g>
</svg>
