<?xml version="1.0" encoding="utf-8"?>
<!-- Generator: Adobe Illustrator 16.0.4, SVG Export Plug-In . SVG Version: 6.00 Build 0)  -->
<!DOCTYPE svg PUBLIC "-//W3C//DTD SVG 1.1//EN" "http://www.w3.org/Graphics/SVG/1.1/DTD/svg11.dtd">
<svg version="1.1" id="Calque_1" xmlns="http://www.w3.org/2000/svg" xmlns:xlink="http://www.w3.org/1999/xlink" x="0px" y="0px"
	 width="600px" height="600px" viewBox="0 0 600 600" enable-background="new 0 0 600 600" xml:space="preserve">
<polyline fill="#F7F7F7" points="343.985,288.33 307.528,253.246 350.741,211.655 350.741,281.825 343.985,288.33 "/>
<polyline fill="#F7F7F7" points="253.677,375.237 253.677,305.054 260.438,298.555 296.887,333.641 253.677,375.237 "/>
<polyline fill="#F7F5F9" points="406.657,348.388 358.111,301.932 358.111,205.208 406.64,233.148 406.657,338.552 406.657,348.388 
	"/>
<polyline fill="#F7F5F9" points="246.304,381.762 197.784,353.746 197.784,238.213 246.304,284.967 246.304,381.762 "/>
<polyline fill="#F7F5F9" points="357.784,381.953 201.121,231.224 246.705,204.908 403.378,355.64 357.784,381.953 "/>
<path d="M245.709,285.832c-2.951,0.994-6.546,1.526-10.273,1.526c-11.914,0-21.004-9.318-21.004-21.54
	c0-11.839,8.02-21.54,20.393-21.54c5.424,0,10.541,1.452,14.971,5.729l5.193-5.576c-4.201-4.354-10.236-7.027-20.164-7.027
	c-16.497,0-28.183,12.374-28.183,28.414c0,15.352,10.616,28.414,28.947,28.414c4.919,0,10.99-0.985,15.943-2.825L245.709,285.832z"
	/>
<text transform="matrix(1 0 0 1 263.6064 293.833)" font-family="'Atype1'" font-size="53.4649">uerton</text>
<polygon fill="#9D9D9D" points="245.472,276.311 245.472,259.001 232.269,259.138 238.522,267.265 "/>
<polygon fill="#60276F" points="247.292,259.757 247.292,283.618 259.267,295.079 259.261,266.651 "/>
<text transform="matrix(1 0 0 1 356.3408 355.3174)" fill="#8E8E8E" font-family="'Avenir-Roman'" font-size="3.776">groupe</text>
<text transform="matrix(1 0 0 1 337.2002 350.5596)" font-family="'Avenir-Medium'" font-size="17.426">nawi</text>
<polygon fill="#9D9D9D" points="395.866,345.1 395.866,337.187 390.992,341.877 395.104,345.834 "/>
<polygon fill="#9D9D9D" points="384.919,347.72 384.919,355.635 389.792,350.944 385.682,346.987 "/>
<polygon fill="#60276F" points="396.697,336.459 396.697,347.368 402.172,352.607 402.17,339.61 "/>
<polygon fill="#60276F" points="384.088,345.454 378.615,340.181 378.615,353.211 384.088,356.371 "/>
<polygon fill="#60276F" points="384.133,336.425 378.992,339.394 396.66,356.394 401.802,353.425 "/>
</svg>
