<?xml version="1.0" encoding="utf-8"?>
<!-- Generator: Adobe Illustrator 16.0.4, SVG Export Plug-In . SVG Version: 6.00 Build 0)  -->
<!DOCTYPE svg PUBLIC "-//W3C//DTD SVG 1.1//EN" "http://www.w3.org/Graphics/SVG/1.1/DTD/svg11.dtd">
<svg version="1.1" id="Calque_1" xmlns="http://www.w3.org/2000/svg" xmlns:xlink="http://www.w3.org/1999/xlink" x="0px" y="0px"
	 width="600px" height="600px" viewBox="0 0 600 600" enable-background="new 0 0 600 600" xml:space="preserve">
<g>
	<g>
		<path d="M169.205,349.432c-7.87,0-13.873-6.155-13.873-14.229c0-7.818,5.296-14.226,13.468-14.226
			c3.582,0,6.962,0.957,9.888,3.782l3.43-3.683c-2.775-2.876-6.76-4.642-13.318-4.642c-10.896,0-18.614,8.173-18.614,18.766
			c0,10.141,7.012,18.767,19.119,18.767c3.248,0,7.257-0.649,10.529-1.865l-3.846-3.681
			C174.039,349.079,171.665,349.432,169.205,349.432z"/>
	</g>
	<g>
		<g>
			<g>
				<path fill="#1E1E1C" d="M200.825,353.704v-2.431c-0.23,0.3-0.486,0.566-0.767,0.811c-0.282,0.242-0.589,0.471-0.923,0.689
					c-1.023,0.618-2.132,0.931-3.327,0.931c-1.219,0-2.334-0.332-3.345-0.999c-0.506-0.334-0.948-0.729-1.328-1.189
					c-0.379-0.459-0.684-0.966-0.914-1.519c-0.126-0.332-0.248-0.729-0.363-1.188c-0.114-0.459-0.212-0.981-0.292-1.568
					c-0.069-0.598-0.118-1.21-0.146-1.835c-0.029-0.627-0.043-1.272-0.043-1.939V333h1.621v10.466c0,0.586,0.014,1.165,0.043,1.74
					c0.028,0.576,0.072,1.139,0.129,1.691c0.058,0.504,0.132,0.976,0.224,1.411c0.091,0.438,0.195,0.787,0.311,1.054
					c0.379,0.885,0.911,1.56,1.595,2.024c0.684,0.465,1.52,0.697,2.509,0.697c1,0,1.859-0.236,2.577-0.715
					c0.718-0.479,1.279-1.146,1.681-2.01c0.115-0.24,0.215-0.562,0.302-0.966c0.086-0.401,0.158-0.875,0.215-1.413
					c0.081-0.574,0.138-1.149,0.172-1.726c0.035-0.574,0.058-1.173,0.069-1.793v-10.466h1.621v20.706L200.825,353.704
					L200.825,353.704z"/>
				<path fill="#1E1E1C" d="M212.015,353.704c-1.218,0-2.339-0.332-3.362-0.999c-0.494-0.334-0.931-0.729-1.31-1.189
					c-0.379-0.459-0.684-0.966-0.914-1.519c-0.149-0.367-0.281-0.796-0.396-1.283c-0.115-0.487-0.207-1.032-0.276-1.629
					c-0.058-0.621-0.104-1.249-0.138-1.881c-0.034-0.631-0.052-1.281-0.052-1.948c0.012-0.666,0.035-1.312,0.069-1.938
					c0.035-0.625,0.086-1.232,0.155-1.818c0.149-1.219,0.356-2.148,0.621-2.793c0.459-1.08,1.207-1.979,2.241-2.689
					c1.011-0.678,2.138-1.017,3.379-1.017c1.655,0,3.08,0.597,4.276,1.792c1.207,1.23,1.81,2.816,1.81,4.759
					c0,1.955-0.604,3.534-1.81,4.742c-1.173,1.186-2.598,1.776-4.276,1.776h-4.759c0.058,0.793,0.135,1.448,0.233,1.974
					c0.098,0.522,0.227,0.962,0.388,1.319c0.758,1.815,2.132,2.724,4.121,2.724c1.207,0,2.328-0.517,3.362-1.552l1.139,1.138
					C215.182,353.027,213.681,353.704,212.015,353.704z M212.032,344.445c1.23,0,2.276-0.438,3.138-1.312
					c0.885-0.885,1.327-2.079,1.327-3.586c0-1.539-0.448-2.741-1.344-3.604c-0.885-0.886-1.931-1.326-3.138-1.326
					c-1.954,0-3.327,0.906-4.121,2.725c-0.127,0.299-0.239,0.713-0.337,1.241c-0.097,0.528-0.18,1.144-0.25,1.845
					c-0.046,0.494-0.075,0.999-0.086,1.519c-0.012,0.518-0.017,1.021-0.017,1.519c0,0.218-0.003,0.384-0.009,0.491
					c-0.006,0.109-0.003,0.273,0.009,0.49L212.032,344.445L212.032,344.445z"/>
				<path fill="#1E1E1C" d="M222.774,332.998v2.22c0.407-0.734,1.286-1.301,2.206-1.669c0.92-0.367,2.092-0.551,3.518-0.551v1.62
					c-2.654,0-4.258,0.661-4.81,1.98c-0.61,1.414-0.914,3.186-0.914,5.312v11.793h-1.62v-20.706H222.774z"/>
				<path fill="#1E1E1C" d="M233.394,324.395h1.639v8.604h5.724v1.62h-5.724v10.155c0,1.066,0.071,2.052,0.216,2.948
					c0.144,0.896,0.403,1.693,0.704,2.396c0.298,0.621,0.814,1.104,1.631,1.448c0.817,0.346,1.874,0.518,3.173,0.518v1.62
					c-3.229,0-5.235-0.873-6.098-2.62c-0.403-0.839-0.747-1.784-0.954-2.836c-0.206-1.053-0.311-2.21-0.311-3.475v-10.155h-1.913
					v-1.62h1.913V324.395z"/>
				<path fill="#1E1E1C" d="M250.255,353.704c-1.217,0-2.338-0.332-3.361-0.999c-0.494-0.334-0.932-0.729-1.311-1.189
					c-0.379-0.459-0.684-0.966-0.914-1.519c-0.148-0.367-0.281-0.796-0.395-1.283c-0.117-0.487-0.209-1.032-0.277-1.629
					c-0.059-0.621-0.104-1.249-0.137-1.881c-0.035-0.631-0.053-1.281-0.053-1.948c0.012-0.666,0.035-1.312,0.068-1.938
					c0.037-0.625,0.088-1.232,0.156-1.818c0.148-1.219,0.355-2.148,0.621-2.793c0.459-1.08,1.207-1.979,2.24-2.689
					c1.012-0.678,2.131-1.017,3.361-1.017s2.346,0.339,3.348,1.017c1.01,0.701,1.752,1.6,2.223,2.689
					c0.275,0.654,0.482,1.586,0.621,2.793v-0.018c0.08,0.586,0.139,1.191,0.172,1.817c0.035,0.627,0.051,1.279,0.051,1.957
					c0.014,0.667,0,1.317-0.033,1.948c-0.035,0.632-0.086,1.26-0.156,1.881c-0.068,0.619-0.154,1.169-0.258,1.646
					c-0.104,0.479-0.236,0.898-0.396,1.268c-0.461,1.093-1.201,1.995-2.223,2.708C252.589,353.372,251.474,353.704,250.255,353.704z
					 M254.324,349.359c0.221-0.493,0.393-1.287,0.52-2.379c0.057-0.562,0.104-1.134,0.137-1.707
					c0.035-0.574,0.053-1.173,0.053-1.793c0.012-0.621,0.004-1.227-0.025-1.812c-0.029-0.586-0.072-1.172-0.129-1.759
					c-0.115-1.126-0.301-1.982-0.555-2.568c-0.734-1.815-2.092-2.725-4.068-2.725c-1.965,0-3.332,0.906-4.104,2.725
					c-0.115,0.24-0.215,0.568-0.299,0.98c-0.088,0.416-0.166,0.894-0.234,1.433c-0.059,0.554-0.1,1.118-0.129,1.698
					c-0.029,0.581-0.049,1.181-0.061,1.802c0,0.622,0.016,1.225,0.043,1.804c0.027,0.58,0.072,1.162,0.131,1.75
					c0.102,1.113,0.285,1.966,0.549,2.552c0.75,1.815,2.117,2.725,4.104,2.725C252.222,352.084,253.58,351.177,254.324,349.359z"/>
				<path fill="#1E1E1C" d="M261.429,332.998v2.793c0.295-0.656,1-1.414,1.654-1.828c0.518-0.312,1.062-0.549,1.631-0.716
					c0.568-0.166,1.146-0.249,1.732-0.249c1.23,0,2.34,0.339,3.326,1.018c1.035,0.7,1.789,1.599,2.26,2.688
					c0.127,0.333,0.244,0.729,0.354,1.188c0.109,0.461,0.197,0.994,0.268,1.604v-0.018c0.08,0.587,0.135,1.191,0.164,1.817
					c0.027,0.627,0.047,1.272,0.061,1.938v10.467h-1.621v-10.467c0-0.586-0.018-1.164-0.053-1.74
					c-0.035-0.574-0.082-1.14-0.137-1.689c-0.059-0.517-0.135-0.989-0.225-1.423c-0.092-0.431-0.197-0.778-0.311-1.042
					c-0.379-0.896-0.912-1.574-1.594-2.035c-0.686-0.459-1.516-0.688-2.492-0.688c-2.045,0-3.471,0.907-4.277,2.725
					c-0.23,0.482-0.406,1.287-0.533,2.413c-0.139,1.104-0.207,2.266-0.207,3.482v10.466h-1.621v-20.706L261.429,332.998
					L261.429,332.998z"/>
			</g>
		</g>
	</g>
	<polygon fill="#999A9A" points="175.833,342.134 175.833,330.701 167.026,330.701 171.242,336.159 	"/>
	<polygon fill="#60276F" points="177.034,330.979 177.034,346.961 184.943,354.529 184.939,335.753 	"/>
	<g>
		<g>
			<path fill="#999A9A" d="M216.071,362.855h1.16v0.53h0.016c0.162-0.306,0.556-0.629,1.144-0.629c1.224,0,1.449,0.808,1.449,1.854
				v2.157h-1.208v-1.915c0-0.451-0.007-1.03-0.628-1.03c-0.628,0-0.724,0.489-0.724,0.997v1.949h-1.208v-3.914H216.071
				L216.071,362.855z"/>
			<path fill="#999A9A" d="M224.764,366.279h-0.017c-0.266,0.418-0.749,0.588-1.24,0.588c-0.732,0-1.394-0.418-1.394-1.207
				c0-1.354,1.644-1.378,2.65-1.378c0-0.427-0.354-0.701-0.772-0.701c-0.396,0-0.726,0.178-0.982,0.467l-0.645-0.659
				c0.441-0.418,1.086-0.63,1.723-0.63c1.409,0,1.789,0.718,1.789,2.022v1.988h-1.112V366.279z M224.466,365.055
				c-0.37,0-1.192,0.032-1.192,0.563c0,0.29,0.308,0.428,0.571,0.428c0.477,0,0.919-0.25,0.919-0.73v-0.261H224.466z"/>
			<path fill="#999A9A" d="M227.779,362.855h1.289l0.798,2.457h0.015l0.67-2.457h1.32l0.725,2.457h0.018l0.732-2.457h1.225
				l-1.395,3.913h-1.191l-0.814-2.602h-0.016l-0.725,2.602h-1.217L227.779,362.855z"/>
			<path fill="#999A9A" d="M237.189,360.923c0.388,0,0.701,0.313,0.701,0.701c0,0.386-0.313,0.701-0.701,0.701
				c-0.386,0-0.699-0.315-0.699-0.701C236.49,361.236,236.803,360.923,237.189,360.923z M236.585,362.855h1.209v3.913h-1.209
				V362.855z"/>
			<path fill="#CDCECE" d="M244.224,366.738c0,1.151-0.84,1.965-2.088,1.965c-0.725,0-1.329-0.185-1.867-0.687l0.49-0.609
				c0.377,0.4,0.805,0.62,1.361,0.62c1.078,0,1.377-0.679,1.377-1.322v-0.562h-0.023c-0.275,0.459-0.797,0.677-1.32,0.677
				c-1.121,0-1.949-0.847-1.941-1.957c0-1.127,0.756-2.006,1.941-2.006c0.516,0,1.045,0.233,1.328,0.646h0.016v-0.547h0.727
				L244.224,366.738L244.224,366.738z M240.984,364.859c0,0.773,0.484,1.28,1.258,1.28c0.774,0,1.256-0.507,1.256-1.28
				c0-0.771-0.482-1.327-1.256-1.327C241.468,363.532,240.984,364.089,240.984,364.859z"/>
			<path fill="#CDCECE" d="M246.931,362.953h0.727v0.589h0.014c0.186-0.403,0.67-0.687,1.145-0.687c0.111,0,0.225,0.017,0.322,0.049
				l-0.033,0.78c-0.121-0.032-0.24-0.058-0.354-0.058c-0.709,0-1.094,0.388-1.094,1.226v1.916h-0.727V362.953L246.931,362.953z"/>
			<path fill="#CDCECE" d="M253.224,362.855c1.137,0,2.029,0.895,2.029,2.004c0,1.112-0.893,2.008-2.029,2.008
				c-1.135,0-2.029-0.896-2.029-2.008C251.195,363.75,252.089,362.855,253.224,362.855z M253.224,366.189
				c0.773,0,1.258-0.557,1.258-1.33c0-0.771-0.484-1.327-1.258-1.327s-1.256,0.557-1.256,1.327
				C251.968,365.635,252.451,366.189,253.224,366.189z"/>
			<path fill="#CDCECE" d="M261.16,366.771h-0.723v-0.591h-0.018c-0.186,0.402-0.668,0.688-1.256,0.688
				c-0.742,0-1.387-0.443-1.387-1.457v-2.457h0.727v2.254c0,0.718,0.41,0.983,0.869,0.983c0.604,0,1.064-0.388,1.064-1.272v-1.965
				h0.723L261.16,366.771L261.16,366.771z"/>
			<path fill="#CDCECE" d="M263.871,362.953h0.723v0.547h0.018c0.281-0.41,0.812-0.645,1.328-0.645c1.186,0,1.943,0.879,1.943,2.004
				c0,1.146-0.766,2.008-1.943,2.008c-0.547,0-1.07-0.249-1.328-0.646h-0.018v2.817h-0.723V362.953z M264.593,364.859
				c0,0.773,0.484,1.33,1.258,1.33s1.256-0.557,1.256-1.33c0-0.771-0.482-1.327-1.256-1.327S264.593,364.089,264.593,364.859z"/>
			<path fill="#CDCECE" d="M270.953,365.128c0,0.668,0.619,1.11,1.289,1.11c0.443,0,0.764-0.228,1.045-0.572l0.549,0.42
				c-0.402,0.523-0.959,0.781-1.691,0.781c-1.209,0-1.965-0.87-1.965-2.008c0-1.145,0.83-2.004,1.973-2.004
				c1.346,0,1.861,1.03,1.861,2.014v0.259H270.953L270.953,365.128z M273.24,364.548c-0.018-0.637-0.371-1.112-1.104-1.112
				c-0.717,0-1.184,0.604-1.184,1.112H273.24z"/>
		</g>
	</g>
</g>
<g>
	<g>
		<path fill="#1E1E1C" d="M313.727,323.537c3.069,0,5.59,1.971,5.59,5.177c0,2.659-1.785,4.903-3.572,6.645l-1.835,1.821h6.046
			c2.227-2.38,4.036-5.053,4.036-8.511c0-5.955-4.628-8.979-10.218-8.979s-9.852,2.702-10.722,8.431l4.765,0.412
			C308.365,325.462,310.564,323.537,313.727,323.537z"/>
		<polygon fill="#999A9A" points="323.794,346.698 323.794,353.167 305.295,353.167 312.461,346.698 		"/>
		<g>
			<g>
				<path fill="#999A9A" d="M383.26,361.555h0.997v0.456h0.017c0.138-0.262,0.477-0.54,0.98-0.54c1.053,0,1.246,0.692,1.246,1.595
					v1.855h-1.038v-1.646c0-0.39-0.007-0.889-0.541-0.889c-0.539,0-0.623,0.423-0.623,0.858v1.677h-1.038V361.555L383.26,361.555z"
					/>
				<path fill="#999A9A" d="M390.734,364.498h-0.017c-0.229,0.359-0.645,0.505-1.065,0.505c-0.631,0-1.198-0.358-1.198-1.039
					c0-1.163,1.413-1.182,2.28-1.182c0-0.369-0.31-0.605-0.666-0.605c-0.34,0-0.625,0.153-0.846,0.404l-0.556-0.57
					c0.382-0.357,0.935-0.54,1.481-0.54c1.211,0,1.537,0.617,1.537,1.738v1.712h-0.953L390.734,364.498L390.734,364.498z
					 M390.477,363.445c-0.315,0-1.021,0.026-1.021,0.483c0,0.248,0.262,0.366,0.49,0.366c0.408,0,0.791-0.216,0.791-0.631v-0.222
					h-0.26V363.445L390.477,363.445z"/>
				<path fill="#999A9A" d="M393.324,361.555h1.109l0.686,2.111h0.014l0.574-2.111h1.137l0.622,2.111h0.017l0.627-2.111h1.056
					l-1.198,3.366h-1.021l-0.701-2.235h-0.016l-0.621,2.235h-1.047L393.324,361.555z"/>
				<path fill="#999A9A" d="M401.416,359.891c0.333,0,0.604,0.271,0.604,0.604c0,0.331-0.271,0.603-0.604,0.603
					c-0.331,0-0.602-0.271-0.602-0.603C400.814,360.161,401.085,359.891,401.416,359.891z M400.896,361.555h1.037v3.366h-1.037
					V361.555z"/>
				<path fill="#CDCECE" d="M407.463,364.893c0,0.991-0.72,1.689-1.794,1.689c-0.623,0-1.142-0.159-1.604-0.588l0.422-0.527
					c0.326,0.349,0.693,0.533,1.173,0.533c0.927,0,1.184-0.581,1.184-1.135v-0.484h-0.021c-0.235,0.394-0.688,0.582-1.137,0.582
					c-0.963,0-1.676-0.729-1.67-1.684c0-0.97,0.65-1.727,1.67-1.727c0.441,0,0.899,0.202,1.145,0.555h0.014v-0.473h0.622v3.257
					L407.463,364.893L407.463,364.893z M404.68,363.279c0,0.664,0.416,1.102,1.081,1.102c0.663,0,1.08-0.438,1.08-1.102
					c0-0.666-0.417-1.146-1.08-1.146C405.096,362.136,404.68,362.614,404.68,363.279z"/>
				<path fill="#CDCECE" d="M409.792,361.637h0.624v0.508h0.016c0.156-0.347,0.572-0.59,0.981-0.59c0.097,0,0.194,0.015,0.276,0.041
					l-0.027,0.674c-0.104-0.025-0.207-0.051-0.305-0.051c-0.609,0-0.941,0.332-0.941,1.056v1.646h-0.624V361.637z"/>
				<path fill="#CDCECE" d="M415.202,361.555c0.978,0,1.747,0.771,1.747,1.726s-0.771,1.725-1.747,1.725s-1.743-0.77-1.743-1.725
					C413.459,362.323,414.229,361.555,415.202,361.555z M415.202,364.422c0.667,0,1.081-0.479,1.081-1.143
					c0-0.666-0.414-1.146-1.081-1.146c-0.663,0-1.079,0.479-1.079,1.146C414.123,363.943,414.539,364.422,415.202,364.422z"/>
				<path fill="#CDCECE" d="M422.027,364.921h-0.623v-0.506h-0.016c-0.161,0.346-0.574,0.588-1.08,0.588
					c-0.639,0-1.189-0.382-1.189-1.254v-2.112h0.622v1.941c0,0.615,0.353,0.844,0.748,0.844c0.52,0,0.915-0.333,0.915-1.095v-1.69
					h0.623V364.921z"/>
				<path fill="#CDCECE" d="M424.355,361.637h0.621v0.474h0.017c0.241-0.354,0.699-0.556,1.144-0.556
					c1.018,0,1.668,0.756,1.668,1.726c0,0.983-0.656,1.725-1.668,1.725c-0.473,0-0.922-0.215-1.144-0.554h-0.017v2.425h-0.621
					V361.637z M424.979,363.279c0,0.664,0.415,1.143,1.08,1.143c0.666,0,1.081-0.479,1.081-1.143c0-0.666-0.415-1.146-1.081-1.146
					C425.394,362.136,424.979,362.614,424.979,363.279z"/>
				<path fill="#CDCECE" d="M430.444,363.509c0,0.572,0.531,0.955,1.107,0.955c0.381,0,0.656-0.191,0.898-0.491l0.472,0.358
					c-0.347,0.45-0.824,0.672-1.455,0.672c-1.038,0-1.688-0.746-1.688-1.724c0-0.982,0.712-1.726,1.694-1.726
					c1.157,0,1.602,0.888,1.602,1.73v0.223L430.444,363.509L430.444,363.509z M432.411,363.009
					c-0.014-0.548-0.317-0.954-0.947-0.954c-0.617,0-1.02,0.521-1.02,0.954H432.411z"/>
			</g>
		</g>
	</g>
	<g>
		<polygon fill="#60276F" points="308.938,338.994 303.014,344.695 303.014,353.346 318.02,338.994 		"/>
	</g>
	<g>
		<path fill="#1E1E1C" d="M337.688,352.986c-5.853,0-10.612-4.763-10.612-10.614s4.762-10.613,10.612-10.613
			c2.035,0,4.011,0.577,5.715,1.671c0.507,0.323,0.654,0.997,0.332,1.502c-0.326,0.509-1,0.657-1.506,0.332
			c-1.354-0.867-2.927-1.326-4.541-1.326c-4.649,0-8.436,3.785-8.436,8.437c0,4.652,3.784,8.438,8.436,8.438
			c1.614,0,3.187-0.459,4.541-1.325c0.506-0.322,1.181-0.179,1.506,0.33c0.322,0.508,0.175,1.183-0.332,1.506
			C341.695,352.41,339.721,352.986,337.688,352.986z"/>
	</g>
	<g>
		<path fill="#1E1E1C" d="M365.467,352.986c-5.853,0-10.613-4.763-10.613-10.614s4.763-10.613,10.613-10.613
			c2.032,0,4.01,0.577,5.715,1.671c0.508,0.323,0.653,0.997,0.33,1.502c-0.326,0.509-0.998,0.657-1.505,0.332
			c-1.354-0.867-2.924-1.326-4.54-1.326c-4.65,0-8.438,3.785-8.438,8.437c0,4.652,3.785,8.438,8.438,8.438
			c1.615,0,3.188-0.459,4.54-1.325c0.507-0.322,1.179-0.179,1.505,0.33c0.323,0.508,0.178,1.183-0.33,1.506
			C369.475,352.41,367.498,352.986,365.467,352.986z"/>
	</g>
	<g>
		<path fill="#1E1E1C" d="M382.117,353.008c-4.178,0-7.577-3.397-7.577-7.576c0-4.178,3.399-7.575,7.577-7.575
			c4.177,0,7.576,3.397,7.576,7.575c0,0.157-0.01,0.316-0.019,0.47c-0.036,0.575-0.512,1.022-1.088,1.022h-11.66
			c0.65,2.252,2.729,3.905,5.188,3.905c0.986,0,1.953-0.271,2.793-0.777c0.513-0.312,1.184-0.146,1.494,0.366
			c0.312,0.518,0.146,1.186-0.366,1.495C384.857,352.63,383.504,353.008,382.117,353.008z M376.762,344.745h10.711
			c-0.339-2.653-2.609-4.711-5.354-4.711S377.102,342.092,376.762,344.745z"/>
	</g>
	<g>
		<g>
			<path fill="#1E1E1C" d="M419.88,353.008c-4.179,0-7.577-3.397-7.577-7.576c0-4.178,3.398-7.575,7.577-7.575
				c4.177,0,7.575,3.397,7.575,7.575c0,0.157-0.006,0.316-0.017,0.47c-0.035,0.575-0.513,1.022-1.088,1.022h-11.71
				c0.647,2.252,2.78,3.905,5.239,3.905c0.987,0,1.953-0.271,2.792-0.777c0.514-0.312,1.185-0.146,1.495,0.366
				c0.312,0.518,0.147,1.186-0.367,1.495C422.621,352.63,421.266,353.008,419.88,353.008z M414.473,344.745h10.829
				c-0.337-2.653-2.679-4.711-5.422-4.711C417.136,340.034,414.811,342.092,414.473,344.745z"/>
		</g>
	</g>
	<g>
		<path fill="#1E1E1C" d="M395.548,352.986h-2.157c-0.601,0-1.089-0.487-1.089-1.09v-19.028c0-0.602,0.488-1.089,1.089-1.089
			c0.604,0,1.092,0.487,1.092,1.089v17.939h1.065c0.604,0,1.091,0.484,1.091,1.089C396.639,352.499,396.15,352.986,395.548,352.986z
			"/>
	</g>
	<g>
		<path fill="#1E1E1C" d="M402.54,352.986h-2.156c-0.601,0-1.09-0.487-1.09-1.09v-19.028c0-0.602,0.489-1.089,1.09-1.089
			c0.603,0,1.089,0.487,1.089,1.089v17.939h1.067c0.603,0,1.089,0.484,1.089,1.089C403.629,352.499,403.143,352.986,402.54,352.986z
			"/>
	</g>
	<g>
		<path fill="#1E1E1C" d="M407.963,353.008c-0.604,0-1.09-0.488-1.09-1.09v-13.093c0-0.604,0.486-1.091,1.09-1.091
			c0.602,0,1.088,0.487,1.088,1.091v13.093C409.051,352.52,408.562,353.008,407.963,353.008z"/>
	</g>
	<g>
		<g>
			<path fill="#1E1E1C" d="M431.602,353.008c-0.602,0-1.088-0.488-1.088-1.09v-13.093c0-0.604,0.486-1.091,1.088-1.091
				c0.604,0,1.093,0.487,1.093,1.091v13.093C432.692,352.52,432.203,353.008,431.602,353.008z"/>
		</g>
	</g>
	<g>
		<circle fill="#1E1E1C" cx="407.962" cy="335.04" r="1.089"/>
	</g>
	<g>
		<g>
			<path fill="#1E1E1C" d="M431.602,346.669c-0.602,0-1.088,0.399-1.088-0.202c0-4.447,2.789-8.688,7.555-8.688
				c0.93,0,1.836,0.218,2.694,0.547c0.562,0.216,0.846,0.879,0.63,1.44c-0.216,0.562-0.844,0.808-1.405,0.595
				c-0.61-0.233-1.259-0.403-1.919-0.403c-3.491,0-5.374,2.896-5.374,5.625C432.692,346.182,432.203,346.669,431.602,346.669z"/>
		</g>
	</g>
</g>
<g>
	<path fill="#999A9A" d="M245.556,292.521c0.026,1.111,0.314,1.925,0.863,2.441c0.549,0.516,1.359,0.773,2.431,0.773
		c0.939,0,1.832-0.165,2.679-0.496c0.106,0.199,0.191,0.44,0.258,0.725s0.106,0.565,0.119,0.843
		c-0.437,0.186-0.916,0.324-1.438,0.417c-0.523,0.092-1.101,0.139-1.736,0.139c-0.926,0-1.72-0.129-2.381-0.387
		c-0.662-0.258-1.208-0.622-1.637-1.091c-0.43-0.469-0.744-1.025-0.942-1.667c-0.199-0.642-0.298-1.346-0.298-2.113
		c0-0.754,0.096-1.458,0.288-2.113s0.486-1.224,0.883-1.707s0.896-0.866,1.498-1.151c0.602-0.284,1.312-0.427,2.133-0.427
		c0.701,0,1.316,0.119,1.845,0.357c0.529,0.238,0.972,0.565,1.33,0.982c0.357,0.417,0.628,0.913,0.813,1.488
		c0.185,0.576,0.278,1.201,0.278,1.875c0,0.186-0.007,0.381-0.02,0.585c-0.013,0.206-0.027,0.38-0.04,0.526H245.556z
		 M250.596,291.052c0-0.37-0.05-0.724-0.149-1.062s-0.245-0.632-0.437-0.883c-0.192-0.251-0.437-0.453-0.734-0.605
		c-0.298-0.152-0.652-0.228-1.062-0.228c-0.807,0-1.426,0.245-1.855,0.734c-0.43,0.49-0.691,1.171-0.784,2.044H250.596z"/>
	<path fill="#999A9A" d="M255.497,288.512h-1.548l-0.079-0.278l3.413-3.81h0.159v2.52h2.579c0.053,0.225,0.08,0.476,0.08,0.754
		c0,0.146-0.007,0.285-0.02,0.417s-0.033,0.265-0.06,0.396h-2.579v4.644c0,0.555,0.023,0.999,0.069,1.329
		c0.046,0.331,0.125,0.585,0.238,0.764c0.112,0.178,0.265,0.297,0.457,0.357s0.433,0.089,0.724,0.089
		c0.225,0,0.437-0.017,0.635-0.049c0.198-0.033,0.377-0.07,0.536-0.109c0.092,0.265,0.149,0.536,0.168,0.813
		c0.02,0.278,0.03,0.523,0.03,0.734c-0.265,0.066-0.542,0.116-0.833,0.149c-0.292,0.033-0.602,0.049-0.933,0.049
		c-0.953,0-1.697-0.231-2.232-0.694s-0.804-1.23-0.804-2.302V288.512z"/>
	<path fill="#999A9A" d="M266.747,295.279c0.357,0.146,0.751,0.261,1.181,0.347s0.856,0.129,1.28,0.129
		c0.304,0,0.595-0.033,0.873-0.099c0.278-0.066,0.519-0.166,0.725-0.298c0.205-0.132,0.37-0.294,0.496-0.486
		c0.125-0.192,0.188-0.407,0.188-0.645c0-0.265-0.05-0.483-0.149-0.655s-0.231-0.317-0.397-0.437s-0.357-0.221-0.575-0.308
		c-0.218-0.086-0.454-0.168-0.705-0.248l-0.694-0.258c-0.847-0.317-1.462-0.675-1.846-1.072c-0.384-0.396-0.575-0.933-0.575-1.607
		c0-0.899,0.32-1.614,0.962-2.143c0.642-0.529,1.584-0.794,2.828-0.794c0.516,0,1.021,0.05,1.518,0.149s0.929,0.215,1.3,0.347
		c-0.026,0.265-0.076,0.529-0.149,0.794s-0.162,0.509-0.268,0.734c-0.291-0.105-0.639-0.208-1.042-0.308
		c-0.403-0.099-0.836-0.148-1.299-0.148c-0.49,0-0.923,0.086-1.3,0.258s-0.565,0.476-0.565,0.913c0,0.225,0.046,0.417,0.139,0.576
		c0.092,0.159,0.218,0.294,0.377,0.407s0.34,0.208,0.546,0.288c0.205,0.08,0.426,0.159,0.665,0.238l0.873,0.297
		c0.317,0.106,0.618,0.232,0.903,0.377c0.284,0.146,0.529,0.328,0.734,0.546c0.205,0.218,0.37,0.483,0.496,0.793
		c0.125,0.311,0.188,0.685,0.188,1.121c0,0.49-0.099,0.936-0.298,1.339c-0.198,0.404-0.479,0.748-0.843,1.032
		s-0.804,0.506-1.319,0.665c-0.516,0.159-1.085,0.238-1.707,0.238c-0.635,0-1.19-0.043-1.667-0.129
		c-0.476-0.086-0.919-0.202-1.329-0.348c0.026-0.264,0.082-0.532,0.168-0.803C266.545,295.812,266.641,295.543,266.747,295.279z"/>
	<path fill="#999A9A" d="M277.422,292.521c0.026,1.111,0.314,1.925,0.863,2.441c0.549,0.516,1.359,0.773,2.431,0.773
		c0.939,0,1.832-0.165,2.679-0.496c0.106,0.199,0.191,0.44,0.258,0.725s0.106,0.565,0.119,0.843
		c-0.437,0.186-0.916,0.324-1.438,0.417c-0.523,0.092-1.101,0.139-1.736,0.139c-0.926,0-1.72-0.129-2.381-0.387
		c-0.662-0.258-1.208-0.622-1.637-1.091c-0.43-0.469-0.744-1.025-0.942-1.667c-0.199-0.642-0.298-1.346-0.298-2.113
		c0-0.754,0.096-1.458,0.288-2.113s0.486-1.224,0.883-1.707s0.896-0.866,1.498-1.151c0.602-0.284,1.312-0.427,2.133-0.427
		c0.701,0,1.316,0.119,1.845,0.357c0.529,0.238,0.972,0.565,1.33,0.982c0.357,0.417,0.628,0.913,0.813,1.488
		c0.185,0.576,0.278,1.201,0.278,1.875c0,0.186-0.007,0.381-0.02,0.585c-0.013,0.206-0.027,0.38-0.04,0.526H277.422z
		 M282.462,291.052c0-0.37-0.05-0.724-0.149-1.062s-0.245-0.632-0.437-0.883c-0.192-0.251-0.437-0.453-0.734-0.605
		c-0.298-0.152-0.652-0.228-1.062-0.228c-0.807,0-1.426,0.245-1.855,0.734c-0.43,0.49-0.691,1.171-0.784,2.044H282.462z"/>
	<path fill="#999A9A" d="M286.807,295.279c0.357,0.146,0.751,0.261,1.181,0.347s0.856,0.129,1.28,0.129
		c0.304,0,0.595-0.033,0.873-0.099c0.278-0.066,0.519-0.166,0.725-0.298c0.205-0.132,0.37-0.294,0.496-0.486
		c0.125-0.192,0.188-0.407,0.188-0.645c0-0.265-0.05-0.483-0.149-0.655s-0.231-0.317-0.397-0.437s-0.357-0.221-0.575-0.308
		c-0.218-0.086-0.454-0.168-0.705-0.248l-0.694-0.258c-0.847-0.317-1.462-0.675-1.846-1.072c-0.384-0.396-0.575-0.933-0.575-1.607
		c0-0.899,0.32-1.614,0.962-2.143c0.642-0.529,1.584-0.794,2.828-0.794c0.516,0,1.021,0.05,1.518,0.149s0.929,0.215,1.3,0.347
		c-0.026,0.265-0.076,0.529-0.149,0.794s-0.162,0.509-0.268,0.734c-0.291-0.105-0.639-0.208-1.042-0.308
		c-0.403-0.099-0.836-0.148-1.299-0.148c-0.49,0-0.923,0.086-1.3,0.258s-0.565,0.476-0.565,0.913c0,0.225,0.046,0.417,0.139,0.576
		c0.092,0.159,0.218,0.294,0.377,0.407s0.34,0.208,0.546,0.288c0.205,0.08,0.426,0.159,0.665,0.238l0.873,0.297
		c0.317,0.106,0.618,0.232,0.903,0.377c0.284,0.146,0.529,0.328,0.734,0.546c0.205,0.218,0.37,0.483,0.496,0.793
		c0.125,0.311,0.188,0.685,0.188,1.121c0,0.49-0.099,0.936-0.298,1.339c-0.198,0.404-0.479,0.748-0.843,1.032
		s-0.804,0.506-1.319,0.665c-0.516,0.159-1.085,0.238-1.707,0.238c-0.635,0-1.19-0.043-1.667-0.129
		c-0.476-0.086-0.919-0.202-1.329-0.348c0.026-0.264,0.082-0.532,0.168-0.803C286.605,295.812,286.701,295.543,286.807,295.279z"/>
	<path fill="#999A9A" d="M301.411,288.493h-1.667c-0.053-0.211-0.08-0.47-0.08-0.774c0-0.291,0.026-0.549,0.08-0.774h1.667v-0.714
		c0-1.256,0.374-2.212,1.121-2.867s1.776-0.982,3.085-0.982c0.529,0,1.01,0.033,1.439,0.1c0.43,0.066,0.916,0.192,1.459,0.377
		c0,0.304-0.047,0.592-0.139,0.863c-0.094,0.271-0.207,0.52-0.338,0.744c-0.397-0.159-0.758-0.271-1.082-0.337
		c-0.324-0.066-0.717-0.099-1.18-0.099c-0.345,0-0.662,0.03-0.953,0.089s-0.543,0.172-0.754,0.337
		c-0.212,0.166-0.381,0.397-0.506,0.694c-0.126,0.298-0.189,0.678-0.189,1.141v0.655h6.133v10.179
		c-0.146,0.026-0.309,0.046-0.486,0.06c-0.18,0.013-0.342,0.02-0.486,0.02c-0.146,0-0.309-0.007-0.486-0.02
		c-0.179-0.013-0.341-0.033-0.486-0.06v-8.631h-4.188v8.631c-0.145,0.026-0.307,0.046-0.485,0.06s-0.341,0.02-0.486,0.02
		s-0.312-0.007-0.496-0.02s-0.351-0.033-0.496-0.06V288.493z"/>
	<path fill="#999A9A" d="M312.643,282.58c0.146-0.026,0.308-0.046,0.486-0.06s0.34-0.02,0.485-0.02s0.308,0.007,0.486,0.02
		s0.341,0.033,0.486,0.06v11.469c0,0.371,0.033,0.662,0.1,0.873c0.065,0.212,0.155,0.374,0.268,0.486s0.244,0.186,0.396,0.218
		c0.152,0.033,0.314,0.049,0.486,0.049c0.119,0,0.255-0.006,0.407-0.02c0.151-0.013,0.28-0.033,0.387-0.06
		c0.119,0.463,0.179,0.966,0.179,1.508c-0.186,0.066-0.41,0.109-0.675,0.129c-0.265,0.02-0.51,0.029-0.734,0.029
		c-0.384,0-0.741-0.046-1.071-0.139c-0.331-0.092-0.622-0.245-0.873-0.457c-0.252-0.211-0.45-0.496-0.596-0.853
		c-0.146-0.357-0.218-0.8-0.218-1.33V282.58z"/>
	<path fill="#999A9A" d="M319.19,288.493h-1.29c-0.026-0.106-0.046-0.229-0.06-0.367c-0.013-0.139-0.02-0.274-0.02-0.407
		s0.007-0.268,0.02-0.407c0.014-0.139,0.033-0.261,0.06-0.367h3.215v10.179c-0.146,0.026-0.308,0.046-0.486,0.06
		s-0.341,0.02-0.486,0.02c-0.132,0-0.287-0.007-0.466-0.02s-0.341-0.033-0.486-0.06V288.493z M318.754,284.703
		c-0.026-0.159-0.043-0.331-0.05-0.516c-0.007-0.185-0.01-0.35-0.01-0.496c0-0.145,0.003-0.311,0.01-0.496
		c0.007-0.185,0.023-0.35,0.05-0.496c0.172-0.026,0.357-0.046,0.556-0.06s0.37-0.02,0.516-0.02s0.317,0.007,0.517,0.02
		c0.198,0.013,0.377,0.033,0.535,0.06c0.026,0.146,0.043,0.311,0.05,0.496c0.007,0.186,0.01,0.351,0.01,0.496
		c0,0.146-0.003,0.311-0.01,0.496c-0.007,0.186-0.023,0.357-0.05,0.516c-0.158,0.027-0.334,0.046-0.525,0.06
		c-0.192,0.013-0.361,0.02-0.506,0.02c-0.159,0-0.338-0.006-0.536-0.02S318.926,284.729,318.754,284.703z"/>
	<path fill="#999A9A" d="M329.688,290.417c0-0.781-0.198-1.323-0.596-1.627c-0.396-0.304-0.972-0.456-1.726-0.456
		c-0.464,0-0.896,0.037-1.3,0.109c-0.404,0.073-0.798,0.169-1.181,0.288c-0.252-0.437-0.377-0.959-0.377-1.567
		c0.449-0.146,0.945-0.258,1.488-0.337c0.542-0.079,1.064-0.119,1.567-0.119c1.322,0,2.328,0.301,3.016,0.903
		c0.688,0.602,1.032,1.564,1.032,2.887v6.37c-0.464,0.106-1.025,0.215-1.687,0.327c-0.662,0.112-1.337,0.169-2.024,0.169
		c-0.648,0-1.233-0.06-1.756-0.179s-0.966-0.311-1.329-0.576c-0.364-0.264-0.646-0.602-0.844-1.012s-0.298-0.906-0.298-1.488
		c0-0.568,0.116-1.068,0.348-1.498c0.231-0.43,0.546-0.787,0.942-1.071c0.396-0.285,0.854-0.496,1.369-0.635
		c0.516-0.139,1.059-0.208,1.627-0.208c0.424,0,0.771,0.01,1.042,0.03c0.271,0.02,0.499,0.043,0.685,0.07V290.417z M329.688,292.342
		c-0.198-0.026-0.45-0.053-0.754-0.079c-0.305-0.026-0.562-0.04-0.774-0.04c-0.82,0-1.445,0.152-1.875,0.456
		c-0.43,0.305-0.645,0.768-0.645,1.389c0,0.397,0.072,0.708,0.218,0.933s0.328,0.397,0.546,0.516
		c0.219,0.119,0.46,0.192,0.725,0.218c0.265,0.027,0.516,0.04,0.754,0.04c0.304,0,0.618-0.017,0.942-0.05
		c0.324-0.033,0.611-0.083,0.863-0.149V292.342z"/>
	<path fill="#999A9A" d="M334.529,282.58c0.146-0.026,0.308-0.046,0.486-0.06s0.34-0.02,0.485-0.02s0.308,0.007,0.486,0.02
		s0.341,0.033,0.486,0.06v11.469c0,0.371,0.033,0.662,0.1,0.873c0.065,0.212,0.155,0.374,0.268,0.486s0.244,0.186,0.396,0.218
		c0.152,0.033,0.314,0.049,0.486,0.049c0.119,0,0.255-0.006,0.407-0.02c0.151-0.013,0.28-0.033,0.387-0.06
		c0.119,0.463,0.179,0.966,0.179,1.508c-0.186,0.066-0.41,0.109-0.675,0.129c-0.265,0.02-0.51,0.029-0.734,0.029
		c-0.384,0-0.741-0.046-1.071-0.139c-0.331-0.092-0.622-0.245-0.873-0.457c-0.252-0.211-0.45-0.496-0.596-0.853
		c-0.146-0.357-0.218-0.8-0.218-1.33V282.58z"/>
	<path fill="#999A9A" d="M341.95,292.521c0.026,1.111,0.314,1.925,0.863,2.441c0.549,0.516,1.359,0.773,2.431,0.773
		c0.939,0,1.832-0.165,2.679-0.496c0.105,0.199,0.191,0.44,0.258,0.725s0.105,0.565,0.119,0.843
		c-0.437,0.186-0.916,0.324-1.438,0.417c-0.522,0.092-1.102,0.139-1.736,0.139c-0.926,0-1.72-0.129-2.381-0.387
		c-0.662-0.258-1.207-0.622-1.637-1.091c-0.431-0.469-0.744-1.025-0.943-1.667c-0.198-0.642-0.297-1.346-0.297-2.113
		c0-0.754,0.096-1.458,0.287-2.113s0.486-1.224,0.883-1.707c0.397-0.483,0.896-0.866,1.498-1.151
		c0.603-0.284,1.313-0.427,2.134-0.427c0.701,0,1.315,0.119,1.845,0.357c0.529,0.238,0.973,0.565,1.33,0.982
		c0.356,0.417,0.628,0.913,0.813,1.488c0.185,0.576,0.277,1.201,0.277,1.875c0,0.186-0.007,0.381-0.02,0.585
		c-0.014,0.206-0.026,0.38-0.04,0.526H341.95z M346.99,291.052c0-0.37-0.05-0.724-0.148-1.062c-0.1-0.337-0.245-0.632-0.437-0.883
		c-0.192-0.251-0.437-0.453-0.734-0.605c-0.298-0.152-0.651-0.228-1.062-0.228c-0.808,0-1.426,0.245-1.855,0.734
		c-0.43,0.49-0.691,1.171-0.784,2.044H346.99z"/>
	<path fill="#999A9A" d="M351.336,295.279c0.356,0.146,0.75,0.261,1.181,0.347c0.43,0.086,0.855,0.129,1.279,0.129
		c0.305,0,0.596-0.033,0.873-0.099c0.278-0.066,0.52-0.166,0.725-0.298c0.205-0.132,0.37-0.294,0.496-0.486
		c0.125-0.192,0.188-0.407,0.188-0.645c0-0.265-0.05-0.483-0.149-0.655c-0.099-0.172-0.231-0.317-0.396-0.437
		s-0.357-0.221-0.575-0.308c-0.219-0.086-0.453-0.168-0.705-0.248l-0.694-0.258c-0.847-0.317-1.462-0.675-1.845-1.072
		c-0.384-0.396-0.576-0.933-0.576-1.607c0-0.899,0.321-1.614,0.963-2.143c0.642-0.529,1.584-0.794,2.827-0.794
		c0.517,0,1.022,0.05,1.519,0.149s0.929,0.215,1.3,0.347c-0.027,0.265-0.077,0.529-0.149,0.794s-0.162,0.509-0.268,0.734
		c-0.291-0.105-0.639-0.208-1.042-0.308c-0.403-0.099-0.837-0.148-1.3-0.148c-0.489,0-0.923,0.086-1.3,0.258
		s-0.565,0.476-0.565,0.913c0,0.225,0.047,0.417,0.14,0.576c0.092,0.159,0.218,0.294,0.377,0.407
		c0.158,0.112,0.34,0.208,0.545,0.288c0.205,0.08,0.427,0.159,0.665,0.238l0.873,0.297c0.317,0.106,0.618,0.232,0.903,0.377
		c0.284,0.146,0.528,0.328,0.733,0.546s0.37,0.483,0.496,0.793c0.126,0.311,0.188,0.685,0.188,1.121c0,0.49-0.099,0.936-0.297,1.339
		c-0.199,0.404-0.48,0.748-0.844,1.032c-0.364,0.285-0.804,0.506-1.319,0.665s-1.085,0.238-1.707,0.238
		c-0.635,0-1.19-0.043-1.666-0.129c-0.477-0.086-0.92-0.202-1.33-0.348c0.026-0.264,0.083-0.532,0.169-0.803
		S351.229,295.543,351.336,295.279z"/>
</g>
</svg>
