<?xml version="1.0" encoding="utf-8"?>
<!-- Generator: Adobe Illustrator 16.0.4, SVG Export Plug-In . SVG Version: 6.00 Build 0)  -->
<!DOCTYPE svg PUBLIC "-//W3C//DTD SVG 1.1//EN" "http://www.w3.org/Graphics/SVG/1.1/DTD/svg11.dtd">
<svg version="1.1" id="Calque_1" xmlns="http://www.w3.org/2000/svg" xmlns:xlink="http://www.w3.org/1999/xlink" x="0px" y="0px"
	 width="600px" height="600px" viewBox="0 0 600 600" enable-background="new 0 0 600 600" xml:space="preserve">
<g>
	<path fill="#FFFFFF" d="M125.893,277.193l-0.323-0.7l10.556-12.333c0.934-1.112,1.804-2.163,2.612-3.151
		c0.808-0.987,1.508-1.947,2.101-2.881c0.592-0.933,1.059-1.849,1.4-2.747c0.341-0.897,0.511-1.831,0.511-2.801
		c0-1.903-0.611-3.357-1.831-4.362c-1.221-1.005-2.962-1.508-5.224-1.508c-1.724,0-3.178,0.198-4.363,0.593
		c-1.185,0.396-2.334,0.844-3.447,1.346c-0.288-0.718-0.565-1.454-0.835-2.208c-0.269-0.754-0.44-1.526-0.511-2.316
		c1.256-0.539,2.647-1.041,4.174-1.508c1.526-0.466,3.312-0.7,5.359-0.7c1.831,0,3.501,0.207,5.009,0.62
		c1.508,0.413,2.809,1.033,3.905,1.858c1.095,0.827,1.939,1.877,2.531,3.151c0.592,1.275,0.889,2.773,0.889,4.497
		c0,2.406-0.665,4.74-1.993,7.001c-1.329,2.262-3.214,4.776-5.655,7.541l-5.17,5.87h14.272c0.072,0.396,0.125,0.791,0.162,1.185
		c0.036,0.396,0.054,0.808,0.054,1.239c0,0.396-0.018,0.79-0.054,1.185c-0.036,0.396-0.09,0.772-0.162,1.131H125.893z"/>
	<path fill="#FFFFFF" d="M171.08,241.916c2.262,0,4.246,0.45,5.951,1.347c1.705,0.898,3.124,2.146,4.255,3.743
		c1.131,1.598,1.975,3.492,2.531,5.682c0.557,2.19,0.835,4.596,0.835,7.217c0,2.585-0.288,4.982-0.862,7.19
		c-0.575,2.208-1.427,4.103-2.558,5.682c-1.131,1.581-2.558,2.819-4.282,3.716s-3.716,1.347-5.978,1.347
		c-2.262,0-4.237-0.45-5.925-1.347c-1.688-0.897-3.097-2.136-4.228-3.716c-1.131-1.58-1.975-3.474-2.532-5.682
		c-0.557-2.208-0.834-4.604-0.834-7.19c0-2.621,0.287-5.026,0.862-7.217c0.574-2.19,1.427-4.084,2.558-5.682
		c1.131-1.597,2.549-2.845,4.255-3.743C166.833,242.366,168.817,241.916,171.08,241.916z M171.026,246.656
		c-2.478,0-4.417,1.096-5.817,3.285c-1.4,2.191-2.101,5.512-2.101,9.964c0,4.453,0.7,7.765,2.101,9.937
		c1.4,2.173,3.339,3.258,5.817,3.258s4.398-1.085,5.763-3.258c1.364-2.172,2.047-5.484,2.047-9.937c0-4.452-0.683-7.773-2.047-9.964
		C175.424,247.751,173.503,246.656,171.026,246.656z"/>
	<path fill="#FFFFFF" d="M194.507,253.011c-0.503-0.61-0.898-1.221-1.185-1.832c-0.288-0.61-0.575-1.328-0.862-2.154l14.326-6.84
		h0.808v30.43h7.702c0.107,0.827,0.162,1.581,0.162,2.262c0,0.754-0.054,1.526-0.162,2.316h-21.059
		c-0.144-0.718-0.215-1.49-0.215-2.316c0-0.79,0.071-1.543,0.215-2.262h8.079v-23.159L194.507,253.011z"/>
	<path fill="#FFFFFF" d="M221.651,272.992l-0.431-0.592l15.78-30.915c0.754,0.072,1.535,0.261,2.343,0.565
		c0.808,0.306,1.589,0.709,2.343,1.212l-12.549,24.99h10.879V258.02c0.431-0.072,0.862-0.125,1.293-0.162
		c0.431-0.036,0.843-0.054,1.238-0.054c0.466,0,0.924,0.019,1.374,0.054c0.449,0.036,0.889,0.09,1.32,0.162v10.233h4.955
		c0.072,0.396,0.125,0.79,0.162,1.185c0.036,0.396,0.054,0.79,0.054,1.185c0,0.396-0.018,0.799-0.054,1.212
		c-0.036,0.413-0.09,0.799-0.162,1.158h-4.955v7.379c-0.467,0.071-0.907,0.116-1.32,0.135c-0.413,0.018-0.835,0.027-1.266,0.027
		s-0.871-0.009-1.319-0.027c-0.45-0.019-0.889-0.063-1.32-0.135v-7.379H221.651z"/>
</g>
</svg>
