<?xml version="1.0" encoding="utf-8"?>
<!-- Generator: Adobe Illustrator 16.0.4, SVG Export Plug-In . SVG Version: 6.00 Build 0)  -->
<!DOCTYPE svg PUBLIC "-//W3C//DTD SVG 1.1//EN" "http://www.w3.org/Graphics/SVG/1.1/DTD/svg11.dtd">
<svg version="1.1" id="Calque_1" xmlns="http://www.w3.org/2000/svg" xmlns:xlink="http://www.w3.org/1999/xlink" x="0px" y="0px"
	 width="600px" height="600px" viewBox="0 0 600 600" enable-background="new 0 0 600 600" xml:space="preserve">
<g>
	<path fill="#1E1E1C" d="M199.302,417.626v-0.106c3.886-1.295,6.583-4.047,6.583-8.413c0-3.845-1.759-6.479-4.57-7.996l-3.634,3.729
		c1.837,0.98,2.701,2.821,2.701,4.86c0,4.152-3.183,5.718-7.12,5.718h-2.672v4.531h3.265c5.018,0,8.2,2.266,8.2,6.797
		c0,5.395-5.125,6.473-8.253,6.473h-5.63l-4.734,4.531h10.688c7.443,0,13.431-3.776,13.431-10.627
		C207.556,421.996,203.888,417.95,199.302,417.626z"/>
	<g>
		<g>
			<g>
				<path fill="#1E1E1C" d="M215.198,429.853l0.092-2.776l9.579,0.002c-0.41-1.441-0.906-2.364-2.571-3.293
					c-2.807-1.563-6.012-0.603-7.696,2.423c-1.685,3.021-0.817,6.255,1.99,7.818c3.208,1.786,5.477,0.544,7.544-1.86l2.557,1.869
					c-2.492,3.745-7.287,4.954-11.544,2.582c-4.103-2.286-5.927-7.425-3.384-11.99c2.543-4.562,7.874-5.719,11.977-3.433
					c3.455,1.925,4.754,5.031,4.543,8.675L215.198,429.853z"/>
				<path fill="#1E1E1C" d="M230.212,434.421h8.686c1.448,0,2.014-0.563,2.014-1.623c0-3.107-10.7-1.907-10.7-7.771
					c0-3,2.083-4.59,5.792-4.59h7.31v2.967h-7.839c-1.518,0-1.942,0.424-2.013,1.481c0,2.933,10.699,1.694,10.699,7.77
					c0,3.214-2.26,4.73-5.262,4.73h-8.686L230.212,434.421L230.212,434.421z"/>
				<path fill="#1E1E1C" d="M245.891,434.421h8.685c1.448,0,2.014-0.563,2.014-1.623c0-3.107-10.699-1.907-10.699-7.771
					c0-3,2.083-4.59,5.791-4.59h7.309v2.967h-7.839c-1.519,0-1.94,0.424-2.013,1.481c0,2.933,10.699,1.694,10.699,7.77
					c0,3.214-2.26,4.73-5.262,4.73h-8.685V434.421L245.891,434.421z"/>
				<path fill="#1E1E1C" d="M270.394,420.085c4.697,0,8.793,3.601,8.793,8.827c0,5.226-4.096,8.828-8.793,8.828
					c-4.695,0-8.791-3.604-8.791-8.828C261.603,423.686,265.699,420.085,270.394,420.085z M270.394,434.773
					c3.215,0,5.545-2.401,5.545-5.861c0-3.459-2.33-5.861-5.545-5.861c-3.213,0-5.543,2.402-5.543,5.861
					C264.851,432.372,267.181,434.773,270.394,434.773z"/>
				<path fill="#1E1E1C" d="M281.8,437.388V427.5c0-4.449,3.108-7.415,7.239-7.415c4.13,0,7.238,2.966,7.238,7.415v9.888h-3.108
					V427.5c0-2.612-1.906-4.449-4.13-4.449s-4.131,1.837-4.131,4.449v9.888H281.8z"/>
			</g>
		</g>
	</g>
	<polygon fill="#60276F" points="188.253,409.816 188.253,430.074 180.344,437.644 180.347,401.534 	"/>
	<polygon fill="#999A9A" points="190.693,407.906 190.102,407.906 182.532,399.996 198.977,400 	"/>
	<g>
		<g>
			<path fill="#999A9A" d="M238.462,446.735h1.16v0.53h0.016c0.162-0.307,0.556-0.628,1.143-0.628c1.225,0,1.45,0.808,1.45,1.854
				v2.16h-1.208v-1.918c0-0.451-0.008-1.031-0.628-1.031c-0.628,0-0.724,0.492-0.724,1v1.949h-1.208L238.462,446.735
				L238.462,446.735z"/>
			<path fill="#999A9A" d="M247.155,450.158h-0.015c-0.267,0.42-0.75,0.589-1.241,0.589c-0.733,0-1.393-0.419-1.393-1.208
				c0-1.354,1.643-1.378,2.649-1.378c0-0.427-0.355-0.701-0.772-0.701c-0.395,0-0.726,0.178-0.983,0.467l-0.645-0.659
				c0.443-0.419,1.087-0.628,1.724-0.628c1.409,0,1.788,0.718,1.788,2.021v1.99h-1.112V450.158L247.155,450.158z M246.856,448.935
				c-0.37,0-1.191,0.031-1.191,0.564c0,0.29,0.306,0.426,0.572,0.426c0.476,0,0.918-0.249,0.918-0.73v-0.26H246.856z"/>
			<path fill="#999A9A" d="M250.169,446.735h1.289l0.797,2.457h0.018l0.668-2.457h1.32l0.725,2.457h0.017l0.733-2.457h1.225
				l-1.395,3.916h-1.191l-0.814-2.604h-0.016l-0.725,2.604h-1.217L250.169,446.735z"/>
			<path fill="#999A9A" d="M259.582,444.804c0.387,0,0.699,0.312,0.699,0.699c0,0.388-0.312,0.7-0.699,0.7
				c-0.388,0-0.701-0.312-0.701-0.7C258.88,445.116,259.194,444.804,259.582,444.804z M258.976,446.735h1.209v3.916h-1.209V446.735z
				"/>
			<path fill="#CDCECE" d="M266.614,450.617c0,1.15-0.839,1.966-2.087,1.966c-0.725,0-1.328-0.185-1.867-0.685l0.49-0.612
				c0.379,0.403,0.806,0.621,1.361,0.621c1.08,0,1.377-0.677,1.377-1.321v-0.562h-0.023c-0.273,0.459-0.797,0.677-1.321,0.677
				c-1.12,0-1.949-0.848-1.94-1.958c0-1.127,0.757-2.006,1.94-2.006c0.516,0,1.048,0.231,1.329,0.645h0.016v-0.547h0.726
				L266.614,450.617L266.614,450.617z M263.375,448.741c0,0.771,0.483,1.281,1.257,1.281s1.256-0.51,1.256-1.281
				c0-0.773-0.482-1.33-1.256-1.33C263.858,447.411,263.375,447.968,263.375,448.741z"/>
			<path fill="#CDCECE" d="M269.324,446.833h0.725v0.588h0.016c0.184-0.404,0.668-0.686,1.145-0.686c0.112,0,0.225,0.018,0.32,0.049
				l-0.031,0.781c-0.121-0.033-0.242-0.059-0.354-0.059c-0.711,0-1.096,0.387-1.096,1.227v1.918h-0.725V446.833L269.324,446.833z"/>
			<path fill="#CDCECE" d="M275.617,446.735c1.135,0,2.029,0.895,2.029,2.006c0,1.109-0.895,2.006-2.029,2.006
				c-1.136,0-2.029-0.896-2.029-2.006C273.588,447.63,274.481,446.735,275.617,446.735z M275.617,450.07
				c0.773,0,1.256-0.558,1.256-1.329c0-0.773-0.482-1.33-1.256-1.33c-0.774,0-1.257,0.557-1.257,1.33
				C274.36,449.514,274.843,450.07,275.617,450.07z"/>
			<path fill="#CDCECE" d="M283.552,450.651h-0.725v-0.589h-0.018c-0.186,0.4-0.668,0.685-1.256,0.685
				c-0.74,0-1.385-0.442-1.385-1.458v-2.456h0.725v2.254c0,0.717,0.41,0.983,0.869,0.983c0.605,0,1.064-0.389,1.064-1.272v-1.965
				h0.725L283.552,450.651L283.552,450.651z"/>
			<path fill="#CDCECE" d="M286.261,446.833h0.725v0.547h0.016c0.282-0.411,0.814-0.645,1.33-0.645c1.184,0,1.941,0.879,1.941,2.006
				c0,1.144-0.766,2.006-1.941,2.006c-0.549,0-1.072-0.25-1.33-0.646h-0.016v2.82h-0.725V446.833z M286.986,448.741
				c0,0.771,0.483,1.329,1.256,1.329c0.774,0,1.257-0.558,1.257-1.329c0-0.773-0.482-1.33-1.257-1.33
				C287.469,447.411,286.986,447.968,286.986,448.741z"/>
			<path fill="#CDCECE" d="M293.343,449.007c0,0.669,0.619,1.111,1.289,1.111c0.443,0,0.765-0.227,1.047-0.571l0.548,0.419
				c-0.403,0.523-0.958,0.781-1.692,0.781c-1.207,0-1.965-0.871-1.965-2.006c0-1.146,0.83-2.006,1.973-2.006
				c1.346,0,1.861,1.029,1.861,2.015v0.257H293.343L293.343,449.007z M295.63,448.428c-0.016-0.636-0.369-1.11-1.102-1.11
				c-0.719,0-1.186,0.604-1.186,1.11H295.63z"/>
		</g>
	</g>
</g>
<g>
	<g>
		<g>
			<polygon fill="#1E1E1C" points="337.873,438.636 360.506,438.636 360.506,433.828 342.948,433.828 			"/>
			<polygon fill="#1E1E1C" points="336.093,400.816 336.093,416.457 341.223,411.01 341.223,405.624 361.468,405.624 
				361.468,400.816 			"/>
		</g>
		<g>
			<g>
				<g>
					<path fill="#1E1E1C" d="M368.285,439.518c-1.201,0-2.049-0.95-2.049-2.224c0-1.271,0.883-2.225,2.119-2.225
						c1.233,0,2.082,0.917,2.082,2.225c0,1.271-0.849,2.224-2.117,2.224H368.285z"/>
					<path fill="#1E1E1C" d="M378.029,417.943v4.096h4.449v2.366h-4.449v9.181c0,2.119,0.602,3.318,2.33,3.318
						c0.849,0,1.343-0.07,1.802-0.212l0.141,2.364c-0.6,0.212-1.554,0.427-2.753,0.427c-1.447,0-2.613-0.495-3.355-1.31
						c-0.846-0.952-1.198-2.471-1.198-4.481v-9.287h-2.647v-2.366h2.647v-3.143L378.029,417.943z"/>
					<path fill="#1E1E1C" d="M387.279,439.518c-1.199,0-2.047-0.95-2.047-2.224c0-1.271,0.885-2.225,2.117-2.225
						c1.236,0,2.084,0.917,2.084,2.225c0,1.271-0.848,2.224-2.117,2.224H387.279z"/>
					<path fill="#1E1E1C" d="M394.768,419.145c-1.129,0-1.873-0.884-1.873-1.905c0-1.097,0.777-1.942,1.942-1.942
						c1.13,0,1.906,0.85,1.906,1.942c0,1.021-0.74,1.905-1.942,1.905H394.768z M393.283,439.13v-17.091h3.105v17.091H393.283z"/>
				</g>
			</g>
		</g>
		<polygon fill="#999A9A" points="356.95,416.741 343.342,416.741 335.629,424.264 348.664,424.264 		"/>
		<polygon fill="#60276F" points="334.963,437.938 342.872,430.368 342.872,425.713 334.963,425.713 		"/>
	</g>
	<g>
		<g>
			<path fill="#999A9A" d="M353.083,448.681h1.16v0.532h0.015c0.162-0.307,0.559-0.628,1.146-0.628c1.224,0,1.449,0.805,1.449,1.854
				v2.157h-1.209v-1.917c0-0.452-0.008-1.029-0.629-1.029c-0.627,0-0.725,0.49-0.725,0.999v1.947h-1.208V448.681L353.083,448.681z"
				/>
			<path fill="#999A9A" d="M361.775,452.104h-0.018c-0.267,0.421-0.749,0.59-1.24,0.59c-0.731,0-1.394-0.419-1.394-1.208
				c0-1.354,1.644-1.377,2.649-1.377c0-0.429-0.354-0.701-0.772-0.701c-0.396,0-0.726,0.177-0.981,0.468l-0.646-0.66
				c0.442-0.42,1.087-0.628,1.724-0.628c1.409,0,1.788,0.716,1.788,2.021v1.988h-1.11V452.104z M361.479,450.881
				c-0.369,0-1.191,0.031-1.191,0.563c0,0.289,0.307,0.426,0.572,0.426c0.476,0,0.918-0.249,0.918-0.733v-0.256H361.479
				L361.479,450.881z"/>
			<path fill="#999A9A" d="M364.79,448.681h1.289l0.798,2.456h0.016l0.67-2.456h1.32l0.725,2.456h0.019l0.731-2.456h1.226
				l-1.394,3.915h-1.192l-0.813-2.603h-0.017l-0.726,2.603h-1.217L364.79,448.681z"/>
			<path fill="#999A9A" d="M374.201,446.748c0.387,0,0.701,0.312,0.701,0.7c0,0.387-0.314,0.7-0.701,0.7s-0.701-0.313-0.701-0.7
				C373.5,447.061,373.814,446.748,374.201,446.748z M373.598,448.681h1.209v3.915h-1.209V448.681z"/>
			<path fill="#CDCECE" d="M381.234,452.562c0,1.15-0.838,1.966-2.088,1.966c-0.726,0-1.328-0.188-1.867-0.687l0.49-0.609
				c0.379,0.399,0.807,0.617,1.361,0.617c1.078,0,1.376-0.676,1.376-1.318v-0.563h-0.022c-0.273,0.459-0.797,0.677-1.32,0.677
				c-1.119,0-1.949-0.846-1.941-1.956c0-1.13,0.76-2.008,1.941-2.008c0.516,0,1.047,0.233,1.329,0.646h0.016v-0.549h0.728
				L381.234,452.562L381.234,452.562z M377.996,450.688c0,0.771,0.48,1.28,1.257,1.28c0.772,0,1.256-0.509,1.256-1.28
				c0-0.772-0.481-1.328-1.256-1.328C378.479,449.357,377.996,449.913,377.996,450.688z"/>
			<path fill="#CDCECE" d="M383.943,448.777h0.725v0.588h0.016c0.188-0.402,0.668-0.687,1.146-0.687c0.111,0,0.227,0.019,0.32,0.05
				l-0.031,0.779c-0.12-0.03-0.241-0.057-0.354-0.057c-0.709,0-1.096,0.388-1.096,1.226v1.917h-0.725L383.943,448.777
				L383.943,448.777z"/>
			<path fill="#CDCECE" d="M390.236,448.681c1.137,0,2.029,0.896,2.029,2.007s-0.895,2.006-2.029,2.006
				c-1.137,0-2.028-0.895-2.028-2.006C388.208,449.575,389.102,448.681,390.236,448.681z M390.236,452.016
				c0.771,0,1.256-0.557,1.256-1.329c0-0.771-0.482-1.327-1.256-1.327c-0.772,0-1.258,0.556-1.258,1.327
				C388.979,451.459,389.464,452.016,390.236,452.016z"/>
			<path fill="#CDCECE" d="M398.173,452.596h-0.726v-0.588h-0.018c-0.185,0.402-0.669,0.686-1.258,0.686
				c-0.74,0-1.384-0.442-1.384-1.458v-2.456h0.726v2.256c0,0.716,0.41,0.98,0.869,0.98c0.604,0,1.062-0.387,1.062-1.271v-1.965
				h0.726L398.173,452.596L398.173,452.596z"/>
			<path fill="#CDCECE" d="M400.881,448.777h0.727v0.549h0.017c0.281-0.412,0.812-0.646,1.329-0.646
				c1.184,0,1.939,0.878,1.939,2.006c0,1.146-0.766,2.007-1.939,2.007c-0.548,0-1.071-0.25-1.329-0.646h-0.017v2.819h-0.727V448.777
				z M401.605,450.688c0,0.771,0.482,1.328,1.256,1.328c0.772,0,1.258-0.557,1.258-1.328c0-0.772-0.482-1.328-1.258-1.328
				C402.09,449.357,401.605,449.913,401.605,450.688z"/>
			<path fill="#CDCECE" d="M407.965,450.952c0,0.669,0.62,1.109,1.288,1.109c0.442,0,0.767-0.225,1.047-0.569l0.548,0.419
				c-0.402,0.521-0.959,0.78-1.689,0.78c-1.208,0-1.967-0.87-1.967-2.007c0-1.144,0.83-2.006,1.975-2.006
				c1.345,0,1.859,1.031,1.859,2.016v0.258H407.965L407.965,450.952z M410.251,450.371c-0.017-0.635-0.371-1.11-1.103-1.11
				c-0.719,0-1.186,0.604-1.186,1.11H410.251z"/>
		</g>
	</g>
</g>
</svg>
