<?xml version="1.0" encoding="utf-8"?>
<!-- Generator: Adobe Illustrator 16.0.4, SVG Export Plug-In . SVG Version: 6.00 Build 0)  -->
<!DOCTYPE svg PUBLIC "-//W3C//DTD SVG 1.1//EN" "http://www.w3.org/Graphics/SVG/1.1/DTD/svg11.dtd">
<svg version="1.1" id="Calque_1" xmlns="http://www.w3.org/2000/svg" xmlns:xlink="http://www.w3.org/1999/xlink" x="0px" y="0px"
	 width="600px" height="600px" viewBox="0 0 600 600" enable-background="new 0 0 600 600" xml:space="preserve">
<g>
	<path fill="#60276F" d="M213.029,222.053c0.154-0.02,0.331-0.037,0.53-0.057c0.199-0.018,0.375-0.027,0.529-0.027
		c0.344,0,0.707,0.027,1.086,0.084l2.132,7.938l2.159-7.938c0.181-0.027,0.355-0.047,0.523-0.057
		c0.167-0.008,0.337-0.014,0.509-0.014c0.163,0,0.328,0.006,0.496,0.014c0.167,0.01,0.341,0.029,0.523,0.057l-3.151,10.066
		c-0.19,0.027-0.374,0.049-0.55,0.062c-0.177,0.014-0.365,0.021-0.563,0.021c-0.182,0-0.358-0.008-0.53-0.021
		s-0.362-0.035-0.57-0.062L213.029,222.053z"/>
	<path fill="#60276F" d="M226.229,232.287c-0.733,0-1.367-0.131-1.901-0.393s-0.973-0.623-1.317-1.084
		c-0.344-0.463-0.6-1.01-0.767-1.639c-0.167-0.631-0.251-1.318-0.251-2.064c0-0.748,0.084-1.439,0.251-2.08
		c0.167-0.639,0.423-1.191,0.767-1.658s0.783-0.832,1.317-1.092c0.534-0.262,1.168-0.393,1.901-0.393s1.367,0.131,1.901,0.393
		c0.534,0.26,0.973,0.625,1.317,1.092s0.6,1.02,0.767,1.658c0.167,0.641,0.251,1.332,0.251,2.08c0,0.746-0.084,1.434-0.251,2.064
		c-0.167,0.629-0.423,1.176-0.767,1.639c-0.344,0.461-0.783,0.822-1.317,1.084S226.962,232.287,226.229,232.287z M226.229,230.578
		c1.403,0,2.105-1.156,2.105-3.471c0-1.158-0.17-2.025-0.509-2.605c-0.34-0.578-0.867-0.867-1.582-0.867
		c-1.422,0-2.132,1.158-2.132,3.473S224.816,230.578,226.229,230.578z"/>
	<path fill="#60276F" d="M232.055,222.053c0.172-0.027,0.339-0.047,0.502-0.057c0.163-0.008,0.33-0.014,0.502-0.014
		c0.154,0,0.312,0.006,0.475,0.014c0.163,0.01,0.331,0.029,0.502,0.057v5.223c0,0.568,0.021,1.057,0.061,1.463
		c0.041,0.406,0.123,0.742,0.245,1.008s0.294,0.461,0.516,0.588c0.222,0.125,0.509,0.189,0.862,0.189s0.638-0.064,0.855-0.189
		c0.217-0.127,0.387-0.322,0.509-0.588s0.204-0.602,0.244-1.008c0.041-0.406,0.062-0.895,0.062-1.463v-5.223
		c0.181-0.027,0.353-0.047,0.516-0.057c0.163-0.008,0.321-0.014,0.476-0.014c0.163,0,0.328,0.006,0.496,0.014
		c0.167,0.01,0.337,0.029,0.509,0.057v5.656c0,0.682-0.054,1.305-0.163,1.869c-0.108,0.564-0.303,1.047-0.584,1.449
		c-0.281,0.4-0.656,0.711-1.127,0.93c-0.471,0.221-1.068,0.33-1.792,0.33c-0.725,0-1.322-0.109-1.792-0.33
		c-0.471-0.219-0.847-0.529-1.127-0.93c-0.281-0.402-0.475-0.885-0.584-1.449c-0.108-0.564-0.163-1.188-0.163-1.869V222.053z"/>
	<path fill="#60276F" d="M243,227.457c-0.308-0.121-0.584-0.254-0.828-0.398c-0.245-0.146-0.453-0.318-0.625-0.52
		c-0.172-0.199-0.305-0.439-0.4-0.721c-0.095-0.279-0.143-0.615-0.143-1.008c0-0.477,0.079-0.896,0.238-1.26
		c0.158-0.363,0.382-0.67,0.672-0.918c0.29-0.246,0.638-0.434,1.046-0.559c0.407-0.127,0.864-0.189,1.372-0.189
		c0.461,0,0.894,0.041,1.297,0.125s0.826,0.207,1.27,0.365c-0.054,0.541-0.199,1.072-0.435,1.596
		c-0.136-0.057-0.274-0.111-0.414-0.168c-0.141-0.057-0.29-0.104-0.448-0.141s-0.337-0.066-0.536-0.09
		c-0.199-0.023-0.426-0.035-0.679-0.035c-0.154,0-0.31,0.014-0.469,0.041c-0.158,0.029-0.301,0.08-0.428,0.154
		c-0.126,0.074-0.23,0.186-0.312,0.33s-0.123,0.332-0.123,0.566c0,0.188,0.032,0.342,0.095,0.469s0.149,0.234,0.258,0.322
		c0.108,0.088,0.23,0.164,0.366,0.225c0.136,0.061,0.272,0.117,0.408,0.174l0.815,0.322c0.344,0.141,0.656,0.285,0.937,0.434
		c0.28,0.15,0.518,0.334,0.713,0.553c0.194,0.221,0.346,0.486,0.455,0.799c0.109,0.312,0.163,0.697,0.163,1.154
		c0,0.477-0.084,0.91-0.251,1.303c-0.168,0.393-0.41,0.729-0.727,1.008c-0.317,0.279-0.708,0.5-1.175,0.658
		s-1.003,0.238-1.609,0.238c-0.299,0-0.566-0.01-0.801-0.029c-0.235-0.018-0.459-0.049-0.672-0.09
		c-0.213-0.043-0.423-0.096-0.632-0.162c-0.208-0.064-0.425-0.145-0.652-0.236c0.027-0.271,0.077-0.555,0.149-0.848
		c0.073-0.295,0.159-0.59,0.258-0.889c0.38,0.158,0.738,0.277,1.073,0.357c0.335,0.078,0.692,0.117,1.073,0.117
		c0.57,0,1.019-0.109,1.344-0.328c0.326-0.219,0.489-0.553,0.489-1.002c0-0.223-0.039-0.41-0.116-0.559
		c-0.077-0.15-0.176-0.275-0.299-0.379c-0.122-0.102-0.26-0.189-0.414-0.258c-0.154-0.07-0.312-0.139-0.475-0.203L243,227.457z"/>
	<path fill="#60276F" d="M255.588,222.01c0.416-0.037,0.837-0.066,1.263-0.09c0.426-0.023,0.855-0.035,1.29-0.035
		c0.453,0,0.912,0.047,1.378,0.141c0.466,0.092,0.887,0.268,1.263,0.523c0.375,0.258,0.681,0.615,0.917,1.072
		s0.353,1.049,0.353,1.777s-0.118,1.318-0.353,1.771s-0.539,0.809-0.91,1.07c-0.372,0.262-0.786,0.439-1.243,0.533
		c-0.457,0.092-0.908,0.139-1.351,0.139c-0.118,0-0.229-0.002-0.333-0.006c-0.104-0.006-0.202-0.012-0.292-0.021v3.234
		c-0.172,0.027-0.339,0.047-0.502,0.055c-0.163,0.01-0.321,0.016-0.475,0.016c-0.145,0-0.304-0.006-0.476-0.016
		c-0.172-0.008-0.348-0.027-0.529-0.055V222.01z M257.571,227.191c0.109,0.018,0.21,0.027,0.306,0.027s0.21,0,0.346,0
		c0.227,0,0.448-0.031,0.666-0.092s0.41-0.16,0.577-0.301c0.167-0.139,0.301-0.324,0.401-0.553c0.099-0.229,0.149-0.512,0.149-0.848
		c0-0.344-0.05-0.637-0.149-0.875c-0.1-0.236-0.233-0.428-0.401-0.572s-0.36-0.248-0.577-0.309s-0.439-0.092-0.666-0.092
		c-0.1,0-0.192,0.004-0.278,0.008s-0.21,0.016-0.374,0.035V227.191z"/>
	<path fill="#60276F" d="M263.601,222.053c0.398-0.047,0.771-0.086,1.12-0.119s0.735-0.049,1.161-0.049
		c0.498,0,0.989,0.047,1.473,0.141c0.484,0.092,0.921,0.258,1.311,0.496s0.704,0.561,0.944,0.967s0.36,0.922,0.36,1.547
		c0,0.373-0.045,0.701-0.136,0.986s-0.206,0.535-0.346,0.75c-0.141,0.215-0.292,0.398-0.455,0.553
		c-0.163,0.154-0.317,0.277-0.461,0.371l-0.231,0.154l2.376,4.256c-0.181,0.018-0.372,0.037-0.57,0.055
		c-0.199,0.02-0.403,0.029-0.611,0.029c-0.344,0-0.684-0.029-1.019-0.084l-2.553-4.678l0.326-0.168
		c0.127-0.064,0.281-0.148,0.462-0.252c0.181-0.102,0.355-0.23,0.523-0.385c0.167-0.154,0.31-0.34,0.428-0.559
		c0.117-0.221,0.176-0.479,0.176-0.777c0-0.588-0.163-1.02-0.489-1.295s-0.747-0.414-1.263-0.414c-0.2,0-0.38,0.014-0.543,0.043
		v8.498c-0.163,0.018-0.326,0.035-0.489,0.049s-0.322,0.021-0.476,0.021s-0.317-0.006-0.489-0.016
		c-0.172-0.008-0.349-0.027-0.529-0.055V222.053z"/>
	<path fill="#60276F" d="M271.803,222.053h5.541c0.054,0.279,0.082,0.564,0.082,0.854c0,0.309-0.027,0.602-0.082,0.883h-3.558v2.184
		h2.825c0.054,0.299,0.082,0.588,0.082,0.867c0,0.299-0.027,0.594-0.082,0.883h-2.825v2.66h3.653
		c0.054,0.279,0.082,0.564,0.082,0.854c0,0.309-0.027,0.602-0.082,0.883h-5.636V222.053z M274.355,219.729
		c0.199-0.027,0.419-0.051,0.659-0.07c0.24-0.018,0.482-0.027,0.727-0.027c0.235,0,0.462,0.01,0.679,0.027
		c0.217,0.02,0.403,0.043,0.557,0.07l-1.996,1.457c-0.163,0.037-0.326,0.061-0.489,0.068c-0.163,0.01-0.322,0.016-0.476,0.016
		c-0.335,0-0.666-0.029-0.991-0.084L274.355,219.729z"/>
	<path fill="#60276F" d="M280.792,227.457c-0.308-0.121-0.584-0.254-0.828-0.398c-0.245-0.146-0.453-0.318-0.625-0.52
		c-0.172-0.199-0.305-0.439-0.4-0.721c-0.095-0.279-0.143-0.615-0.143-1.008c0-0.477,0.079-0.896,0.238-1.26
		c0.158-0.363,0.382-0.67,0.672-0.918c0.29-0.246,0.638-0.434,1.046-0.559c0.407-0.127,0.864-0.189,1.372-0.189
		c0.461,0,0.894,0.041,1.297,0.125s0.826,0.207,1.27,0.365c-0.054,0.541-0.199,1.072-0.435,1.596
		c-0.136-0.057-0.274-0.111-0.414-0.168c-0.141-0.057-0.29-0.104-0.448-0.141s-0.337-0.066-0.536-0.09
		c-0.199-0.023-0.426-0.035-0.679-0.035c-0.154,0-0.31,0.014-0.469,0.041c-0.158,0.029-0.301,0.08-0.428,0.154
		c-0.126,0.074-0.23,0.186-0.312,0.33s-0.123,0.332-0.123,0.566c0,0.188,0.032,0.342,0.095,0.469s0.149,0.234,0.258,0.322
		c0.108,0.088,0.23,0.164,0.366,0.225c0.136,0.061,0.272,0.117,0.408,0.174l0.815,0.322c0.344,0.141,0.656,0.285,0.937,0.434
		c0.28,0.15,0.518,0.334,0.713,0.553c0.194,0.221,0.346,0.486,0.455,0.799c0.109,0.312,0.163,0.697,0.163,1.154
		c0,0.477-0.084,0.91-0.251,1.303c-0.168,0.393-0.41,0.729-0.727,1.008c-0.317,0.279-0.708,0.5-1.175,0.658
		s-1.003,0.238-1.609,0.238c-0.299,0-0.566-0.01-0.801-0.029c-0.235-0.018-0.459-0.049-0.672-0.09
		c-0.213-0.043-0.423-0.096-0.632-0.162c-0.208-0.064-0.425-0.145-0.652-0.236c0.027-0.271,0.077-0.555,0.149-0.848
		c0.073-0.295,0.159-0.59,0.258-0.889c0.38,0.158,0.738,0.277,1.073,0.357c0.335,0.078,0.692,0.117,1.073,0.117
		c0.57,0,1.019-0.109,1.344-0.328c0.326-0.219,0.489-0.553,0.489-1.002c0-0.223-0.039-0.41-0.116-0.559
		c-0.077-0.15-0.176-0.275-0.299-0.379c-0.122-0.102-0.26-0.189-0.414-0.258c-0.154-0.07-0.312-0.139-0.475-0.203L280.792,227.457z"
		/>
	<path fill="#60276F" d="M286.482,222.053h5.541c0.054,0.279,0.082,0.564,0.082,0.854c0,0.309-0.027,0.602-0.082,0.883h-3.558v2.184
		h2.825c0.054,0.299,0.082,0.588,0.082,0.867c0,0.299-0.027,0.594-0.082,0.883h-2.825v2.66h3.653
		c0.054,0.279,0.082,0.564,0.082,0.854c0,0.309-0.027,0.602-0.082,0.883h-5.636V222.053z"/>
	<path fill="#60276F" d="M293.693,222.053c0.28-0.057,0.547-0.084,0.801-0.084c0.271,0,0.552,0.027,0.842,0.084l3.775,6.412v-6.412
		c0.326-0.057,0.638-0.084,0.937-0.084c0.28,0,0.552,0.027,0.814,0.084v10.066c-0.289,0.055-0.553,0.084-0.787,0.084
		c-0.254,0-0.529-0.029-0.829-0.084l-3.802-6.398v6.398c-0.29,0.055-0.584,0.084-0.883,0.084s-0.589-0.029-0.869-0.084V222.053z"/>
	<path fill="#60276F" d="M304.666,223.789h-2.432c-0.054-0.281-0.081-0.574-0.081-0.883c0-0.289,0.027-0.574,0.081-0.854h6.858
		c0.055,0.279,0.082,0.564,0.082,0.854c0,0.309-0.027,0.602-0.082,0.883h-2.431v8.33c-0.163,0.018-0.326,0.035-0.489,0.049
		c-0.162,0.014-0.321,0.021-0.476,0.021c-0.153,0-0.318-0.006-0.495-0.016c-0.177-0.008-0.355-0.027-0.536-0.055V223.789z"/>
	<path fill="#60276F" d="M310.464,222.053h5.541c0.055,0.279,0.082,0.564,0.082,0.854c0,0.309-0.027,0.602-0.082,0.883h-3.559v2.184
		h2.825c0.054,0.299,0.081,0.588,0.081,0.867c0,0.299-0.027,0.594-0.081,0.883h-2.825v2.66h3.654
		c0.054,0.279,0.081,0.564,0.081,0.854c0,0.309-0.027,0.602-0.081,0.883h-5.637V222.053z"/>
	<path fill="#60276F" d="M317.675,222.053c0.281-0.057,0.548-0.084,0.802-0.084c0.271,0,0.552,0.027,0.842,0.084l3.775,6.412v-6.412
		c0.325-0.057,0.638-0.084,0.937-0.084c0.281,0,0.553,0.027,0.814,0.084v10.066c-0.289,0.055-0.552,0.084-0.787,0.084
		c-0.254,0-0.529-0.029-0.828-0.084l-3.803-6.398v6.398c-0.289,0.055-0.584,0.084-0.883,0.084s-0.588-0.029-0.869-0.084V222.053z"/>
	<path fill="#60276F" d="M328.647,223.789h-2.431c-0.054-0.281-0.081-0.574-0.081-0.883c0-0.289,0.027-0.574,0.081-0.854h6.858
		c0.054,0.279,0.081,0.564,0.081,0.854c0,0.309-0.027,0.602-0.081,0.883h-2.432v8.33c-0.162,0.018-0.326,0.035-0.488,0.049
		c-0.163,0.014-0.322,0.021-0.476,0.021s-0.319-0.006-0.495-0.016c-0.177-0.008-0.355-0.027-0.537-0.055V223.789z"/>
	<path fill="#60276F" d="M341.345,222.053c0.335-0.057,0.656-0.084,0.964-0.084c0.317,0,0.647,0.027,0.991,0.084v8.303h3.382
		c0.027,0.158,0.045,0.311,0.054,0.455c0.01,0.145,0.014,0.281,0.014,0.412c0,0.148-0.004,0.297-0.014,0.441
		c-0.009,0.145-0.026,0.297-0.054,0.455h-5.337V222.053z"/>
	<path fill="#60276F" d="M348.04,222.053h5.54c0.054,0.279,0.081,0.564,0.081,0.854c0,0.309-0.027,0.602-0.081,0.883h-3.558v2.184
		h2.824c0.055,0.299,0.082,0.588,0.082,0.867c0,0.299-0.027,0.594-0.082,0.883h-2.824v2.66h3.652
		c0.055,0.279,0.082,0.564,0.082,0.854c0,0.309-0.027,0.602-0.082,0.883h-5.635V222.053z"/>
	<path fill="#60276F" d="M355.196,222.053c0.172-0.027,0.34-0.047,0.502-0.057c0.163-0.008,0.33-0.014,0.503-0.014
		c0.153,0,0.312,0.006,0.476,0.014c0.162,0.01,0.33,0.029,0.502,0.057v5.223c0,0.568,0.021,1.057,0.061,1.463
		c0.041,0.406,0.123,0.742,0.245,1.008s0.294,0.461,0.517,0.588c0.221,0.125,0.509,0.189,0.861,0.189
		c0.354,0,0.639-0.064,0.855-0.189c0.218-0.127,0.388-0.322,0.51-0.588s0.203-0.602,0.244-1.008s0.062-0.895,0.062-1.463v-5.223
		c0.181-0.027,0.353-0.047,0.516-0.057c0.163-0.008,0.321-0.014,0.476-0.014c0.163,0,0.328,0.006,0.496,0.014
		c0.167,0.01,0.337,0.029,0.509,0.057v5.656c0,0.682-0.054,1.305-0.163,1.869c-0.108,0.564-0.303,1.047-0.584,1.449
		c-0.281,0.4-0.656,0.711-1.127,0.93c-0.471,0.221-1.068,0.33-1.793,0.33s-1.322-0.109-1.792-0.33
		c-0.472-0.219-0.847-0.529-1.128-0.93c-0.28-0.402-0.475-0.885-0.584-1.449c-0.107-0.564-0.162-1.188-0.162-1.869V222.053z"/>
	<path fill="#60276F" d="M364.458,222.053c0.397-0.047,0.771-0.086,1.119-0.119c0.35-0.033,0.736-0.049,1.162-0.049
		c0.497,0,0.988,0.047,1.473,0.141c0.484,0.092,0.922,0.258,1.311,0.496s0.704,0.561,0.943,0.967c0.24,0.406,0.36,0.922,0.36,1.547
		c0,0.373-0.046,0.701-0.136,0.986s-0.206,0.535-0.346,0.75c-0.141,0.215-0.293,0.398-0.455,0.553
		c-0.163,0.154-0.317,0.277-0.462,0.371l-0.231,0.154l2.377,4.256c-0.182,0.018-0.371,0.037-0.57,0.055
		c-0.199,0.02-0.402,0.029-0.611,0.029c-0.344,0-0.684-0.029-1.019-0.084l-2.553-4.678l0.325-0.168
		c0.127-0.064,0.281-0.148,0.463-0.252c0.181-0.102,0.354-0.23,0.522-0.385c0.167-0.154,0.31-0.34,0.428-0.559
		c0.117-0.221,0.177-0.479,0.177-0.777c0-0.588-0.164-1.02-0.489-1.295s-0.747-0.414-1.263-0.414c-0.199,0-0.381,0.014-0.543,0.043
		v8.498c-0.164,0.018-0.326,0.035-0.489,0.049s-0.321,0.021-0.476,0.021s-0.316-0.006-0.488-0.016
		c-0.172-0.008-0.35-0.027-0.529-0.055V222.053z"/>
	<path fill="#60276F" d="M374.438,227.457c-0.308-0.121-0.584-0.254-0.828-0.398c-0.244-0.146-0.453-0.318-0.625-0.52
		c-0.172-0.199-0.305-0.439-0.4-0.721c-0.096-0.279-0.143-0.615-0.143-1.008c0-0.477,0.079-0.896,0.238-1.26
		c0.158-0.363,0.382-0.67,0.672-0.918c0.289-0.246,0.638-0.434,1.045-0.559c0.408-0.127,0.865-0.189,1.372-0.189
		c0.462,0,0.894,0.041,1.297,0.125s0.826,0.207,1.27,0.365c-0.054,0.541-0.199,1.072-0.435,1.596
		c-0.136-0.057-0.273-0.111-0.414-0.168s-0.29-0.104-0.448-0.141s-0.337-0.066-0.536-0.09s-0.426-0.035-0.68-0.035
		c-0.154,0-0.31,0.014-0.469,0.041c-0.158,0.029-0.301,0.08-0.428,0.154c-0.126,0.074-0.23,0.186-0.312,0.33
		s-0.122,0.332-0.122,0.566c0,0.188,0.031,0.342,0.095,0.469s0.149,0.234,0.259,0.322c0.107,0.088,0.23,0.164,0.365,0.225
		c0.137,0.061,0.272,0.117,0.408,0.174l0.814,0.322c0.344,0.141,0.656,0.285,0.938,0.434c0.28,0.15,0.518,0.334,0.713,0.553
		c0.194,0.221,0.346,0.486,0.455,0.799c0.108,0.312,0.162,0.697,0.162,1.154c0,0.477-0.084,0.91-0.25,1.303
		c-0.168,0.393-0.41,0.729-0.727,1.008c-0.318,0.279-0.709,0.5-1.176,0.658c-0.466,0.158-1.002,0.238-1.609,0.238
		c-0.299,0-0.565-0.01-0.801-0.029c-0.235-0.018-0.459-0.049-0.672-0.09c-0.213-0.043-0.424-0.096-0.632-0.162
		c-0.208-0.064-0.425-0.145-0.651-0.236c0.027-0.271,0.076-0.555,0.148-0.848c0.073-0.295,0.159-0.59,0.259-0.889
		c0.38,0.158,0.737,0.277,1.073,0.357c0.334,0.078,0.691,0.117,1.072,0.117c0.57,0,1.019-0.109,1.344-0.328
		c0.326-0.219,0.49-0.553,0.49-1.002c0-0.223-0.039-0.41-0.116-0.559c-0.077-0.15-0.177-0.275-0.299-0.379
		c-0.122-0.102-0.261-0.189-0.414-0.258c-0.153-0.07-0.312-0.139-0.476-0.203L374.438,227.457z"/>
</g>
<g>
	<path fill="#9B9B9B" d="M331.223,314.448c4.23,0,7.701,2.715,7.701,7.135c0,3.66-2.461,6.754-4.924,9.152l-2.528,2.512l8.329-0.002
		c3.068-3.277,5.562-6.961,5.562-11.727c0-8.207-6.376-12.373-14.078-12.373c-7.701,0-13.572,3.725-14.771,11.615l6.564,0.568
		C323.836,317.099,326.867,314.448,331.223,314.448"/>
	<path fill="#9B9B9B" d="M357.389,326.96h-5.594c0-6.184,4.49-18.109,18.476-18.109s17.444,14.428,17.444,17.666h-5.668
		c0-3.09-2.571-12.086-11.998-12.219C359.597,314.151,357.389,323.866,357.389,326.96"/>
	<path fill="#60276F" d="M382.489,327.843h5.595c0,6.184-4.49,18.107-18.477,18.107s-17.445-14.428-17.445-17.666h5.668
		c0,3.092,2.572,12.086,11.998,12.219C380.281,340.651,382.489,330.935,382.489,327.843"/>
	<polygon fill="#9B9B9B" points="326.6,348.962 319.604,355.274 345.096,355.274 345.096,348.962 	"/>
	<polygon fill="#60276F" points="316.461,347.507 316.461,355.519 337.137,335.745 328.225,335.745 	"/>
	<polygon fill="#9B9B9B" points="377.366,369.714 371.844,376.026 391.52,376.026 391.52,369.714 	"/>
	<polygon fill="#60276F" points="384.654,348.876 368.244,368.735 368.244,376.749 392.093,348.876 	"/>
	<polygon fill="#9B9B9B" points="349.597,348.841 349.662,355.171 357.699,355.171 363.178,348.841 	"/>
	<polygon fill="#9B9B9B" points="355.816,353.372 355.816,377.06 362.552,377.06 362.552,349.136 	"/>
	<rect x="384.807" y="377.878" fill="#9B9B9B" width="6.552" height="11.287"/>
</g>
<path fill="#9B9B9B" d="M300.279,294.64c0.524,0.07,0.987,0.123,1.386,0.158c0.399,0.035,0.805,0.053,1.215,0.053
	c0.387,0,0.781-0.018,1.18-0.053c0.4-0.035,0.885-0.102,1.455-0.193l4.893-13.123l-3.9-12.134c-0.89-0.141-1.744-0.213-2.565-0.213
	c-0.435,0-0.873,0.012-1.318,0.037c-0.444,0.021-0.896,0.068-1.351,0.141l4.412,12.063L300.279,294.64z M315.472,294.604
	c0.569,0.092,1.055,0.158,1.453,0.193c0.399,0.035,0.793,0.053,1.182,0.053c0.41,0,0.814-0.018,1.214-0.053s0.86-0.088,1.386-0.158
	l-5.338-13.264l4.346-12.063c-0.457-0.072-0.906-0.119-1.352-0.141c-0.445-0.025-0.885-0.037-1.316-0.037
	c-0.822,0-1.678,0.072-2.566,0.213l-3.832,12.134L315.472,294.604z M278.968,283.528c0,1.717,0.137,3.285,0.41,4.709
	c0.274,1.422,0.764,2.641,1.472,3.65c0.706,1.012,1.653,1.793,2.839,2.346s2.692,0.828,4.517,0.828c1.824,0,3.33-0.275,4.516-0.828
	s2.133-1.334,2.84-2.346c0.707-1.01,1.198-2.229,1.471-3.65c0.274-1.424,0.411-2.992,0.411-4.709v-14.253
	c-0.433-0.068-0.86-0.117-1.282-0.141s-0.838-0.035-1.249-0.035c-0.388,0-0.787,0.012-1.198,0.035
	c-0.41,0.023-0.844,0.072-1.3,0.141v13.159c0,1.434-0.051,2.664-0.154,3.686c-0.102,1.023-0.308,1.869-0.616,2.539
	c-0.307,0.672-0.735,1.164-1.283,1.482c-0.547,0.318-1.266,0.477-2.155,0.477c-0.89,0-1.614-0.158-2.173-0.477
	s-0.992-0.811-1.3-1.482c-0.308-0.67-0.513-1.516-0.616-2.539c-0.103-1.021-0.154-2.252-0.154-3.686v-13.159
	c-0.433-0.068-0.855-0.117-1.266-0.141c-0.41-0.023-0.81-0.035-1.197-0.035c-0.434,0-0.856,0.012-1.266,0.035
	c-0.411,0.023-0.833,0.072-1.266,0.141V283.528z M260.937,294.64h14.199c0.137-0.705,0.205-1.447,0.205-2.223
	c0-0.729-0.068-1.445-0.205-2.152h-9.204v-6.701h7.117c0.137-0.729,0.205-1.469,0.205-2.223c0-0.705-0.068-1.434-0.205-2.188h-7.117
	v-5.502h8.964c0.137-0.705,0.206-1.445,0.206-2.224c0-0.729-0.069-1.445-0.206-2.152h-13.959V294.64z M240.784,282.011
	c0-5.832,1.79-8.748,5.372-8.748c1.801,0,3.13,0.729,3.986,2.188c0.855,1.459,1.283,3.645,1.283,6.561
	c0,5.832-1.768,8.748-5.304,8.748C242.562,290.759,240.784,287.843,240.784,282.011 M250.912,294.075
	c1.345-0.658,2.451-1.57,3.318-2.734c0.867-1.164,1.511-2.539,1.934-4.127c0.421-1.586,0.633-3.32,0.633-5.203
	c0-1.881-0.212-3.627-0.633-5.238c-0.423-1.609-1.067-3.004-1.934-4.18c-0.867-1.177-1.973-2.093-3.318-2.751
	c-1.347-0.658-2.943-0.988-4.791-0.988c-1.847,0-3.444,0.33-4.79,0.988c-1.346,0.658-2.452,1.574-3.319,2.751
	c-0.867,1.176-1.511,2.57-1.933,4.18c-0.422,1.611-0.633,3.357-0.633,5.238c0,1.883,0.211,3.617,0.633,5.203
	c0.422,1.588,1.066,2.963,1.933,4.127c0.867,1.164,1.973,2.076,3.319,2.734c1.346,0.658,2.943,0.986,4.79,0.986
	C247.969,295.062,249.564,294.733,250.912,294.075 M220.768,294.64c0.524,0.07,1.003,0.123,1.437,0.158
	c0.433,0.035,0.878,0.053,1.334,0.053c0.502,0,0.976-0.018,1.42-0.053c0.445-0.035,0.907-0.088,1.386-0.158l7.938-25.364
	c-0.457-0.068-0.895-0.117-1.317-0.141c-0.423-0.023-0.839-0.035-1.249-0.035c-0.434,0-0.861,0.012-1.283,0.035
	c-0.423,0.023-0.861,0.072-1.317,0.141l-5.441,20.001l-5.372-20.001c-0.958-0.141-1.87-0.211-2.737-0.211
	c-0.388,0-0.833,0.023-1.334,0.07c-0.502,0.049-0.947,0.094-1.335,0.141L220.768,294.64z"/>
<path fill="#9B9B9B" d="M370.487,254.203c0.412,0.164,0.81,0.336,1.199,0.512c0.387,0.176,0.734,0.395,1.043,0.652
	c0.308,0.26,0.559,0.576,0.752,0.953c0.193,0.375,0.291,0.846,0.291,1.41c0,1.129-0.41,1.969-1.231,2.523
	c-0.821,0.551-1.95,0.828-3.388,0.828c-0.957,0-1.859-0.1-2.703-0.301c-0.844-0.199-1.744-0.5-2.702-0.898
	c-0.252,0.752-0.468,1.498-0.649,2.24c-0.184,0.74-0.309,1.451-0.378,2.133c0.57,0.236,1.117,0.436,1.642,0.6
	c0.525,0.166,1.056,0.301,1.592,0.406c0.535,0.105,1.101,0.182,1.693,0.229c0.594,0.049,1.267,0.07,2.02,0.07
	c1.527,0,2.879-0.199,4.054-0.598c1.175-0.4,2.161-0.953,2.96-1.658c0.799-0.707,1.408-1.553,1.831-2.541
	c0.421-0.988,0.632-2.08,0.632-3.279c0-1.152-0.136-2.123-0.41-2.91c-0.273-0.787-0.655-1.459-1.146-2.012
	c-0.491-0.553-1.09-1.018-1.797-1.394s-1.494-0.741-2.36-1.095l-2.053-0.811c-0.344-0.141-0.686-0.288-1.027-0.441
	c-0.342-0.152-0.65-0.341-0.924-0.563c-0.273-0.224-0.49-0.494-0.65-0.812c-0.16-0.316-0.238-0.711-0.238-1.181
	c0-0.588,0.102-1.063,0.308-1.429c0.205-0.364,0.468-0.641,0.787-0.829s0.679-0.317,1.077-0.388s0.793-0.106,1.182-0.106
	c0.637,0,1.209,0.03,1.711,0.089c0.5,0.059,0.951,0.135,1.351,0.229c0.399,0.094,0.774,0.211,1.129,0.353s0.702,0.282,1.044,0.423
	c0.593-1.316,0.958-2.656,1.095-4.021c-1.118-0.4-2.185-0.706-3.198-0.917c-1.017-0.212-2.105-0.318-3.269-0.318
	c-1.278,0-2.429,0.159-3.456,0.477c-1.025,0.317-1.904,0.787-2.634,1.41c-0.731,0.624-1.295,1.394-1.694,2.312
	c-0.398,0.917-0.599,1.975-0.599,3.174c0,0.988,0.12,1.834,0.36,2.54c0.238,0.705,0.574,1.311,1.008,1.816s0.959,0.94,1.574,1.307
	c0.616,0.363,1.312,0.699,2.088,1.006L370.487,254.203z M343.595,265.139c0.456,0.07,0.901,0.117,1.334,0.141
	c0.434,0.023,0.844,0.035,1.232,0.035c0.388,0,0.787-0.018,1.197-0.053s0.821-0.076,1.232-0.123v-21.413
	c0.41-0.071,0.866-0.105,1.368-0.105c1.3,0,2.36,0.347,3.183,1.041c0.82,0.693,1.231,1.78,1.231,3.263
	c0,0.752-0.149,1.405-0.445,1.957c-0.297,0.553-0.655,1.022-1.077,1.411c-0.423,0.388-0.861,0.712-1.318,0.97
	c-0.457,0.26-0.844,0.471-1.162,0.635l-0.821,0.424l6.433,11.783c0.844,0.141,1.698,0.211,2.565,0.211
	c0.524,0,1.038-0.023,1.54-0.07c0.501-0.049,0.98-0.094,1.438-0.141l-5.988-10.723l0.582-0.389c0.363-0.234,0.753-0.547,1.162-0.936
	c0.412-0.389,0.793-0.852,1.146-1.394c0.354-0.541,0.645-1.17,0.873-1.889c0.229-0.717,0.342-1.546,0.342-2.485
	c0-1.576-0.303-2.875-0.906-3.898c-0.604-1.022-1.397-1.834-2.379-2.434c-0.98-0.601-2.08-1.018-3.301-1.252
	c-1.221-0.235-2.459-0.354-3.713-0.354c-1.072,0-2.047,0.041-2.925,0.124c-0.879,0.082-1.819,0.182-2.823,0.299V265.139z
	 M320.603,254.027c0,1.717,0.137,3.285,0.41,4.709c0.274,1.422,0.764,2.641,1.473,3.65c0.705,1.012,1.652,1.793,2.838,2.346
	c1.187,0.553,2.693,0.828,4.518,0.828c1.825,0,3.33-0.275,4.516-0.828c1.187-0.553,2.133-1.334,2.84-2.346
	c0.707-1.01,1.199-2.229,1.472-3.65c0.274-1.424,0.411-2.992,0.411-4.709v-14.253c-0.434-0.069-0.861-0.117-1.283-0.141
	s-0.838-0.035-1.249-0.035c-0.388,0-0.787,0.012-1.196,0.035c-0.412,0.023-0.846,0.071-1.302,0.141v13.157
	c0,1.436-0.051,2.666-0.153,3.688c-0.103,1.023-0.309,1.869-0.617,2.539c-0.307,0.672-0.734,1.164-1.282,1.482
	s-1.267,0.477-2.155,0.477c-0.891,0-1.613-0.158-2.173-0.477s-0.992-0.811-1.3-1.482c-0.309-0.67-0.514-1.516-0.616-2.539
	c-0.103-1.021-0.153-2.252-0.153-3.688v-13.157c-0.434-0.069-0.855-0.117-1.267-0.141c-0.41-0.023-0.81-0.035-1.197-0.035
	c-0.435,0-0.856,0.012-1.266,0.035c-0.411,0.023-0.833,0.071-1.267,0.141V254.027z M302.914,265.139h14.198
	c0.138-0.705,0.205-1.447,0.205-2.223c0-0.729-0.067-1.445-0.205-2.152h-9.203v-6.701h7.117c0.137-0.729,0.205-1.471,0.205-2.224
	c0-0.706-0.068-1.435-0.205-2.188h-7.117v-5.503h8.965c0.136-0.705,0.205-1.445,0.205-2.222c0-0.729-0.069-1.446-0.205-2.152h-13.96
	V265.139z M286.391,265.139h13.443c0.069-0.4,0.114-0.783,0.137-1.146c0.023-0.365,0.035-0.734,0.035-1.111
	c0-0.33-0.011-0.676-0.035-1.041c-0.022-0.363-0.067-0.746-0.137-1.146h-8.516v-20.919c-0.867-0.141-1.7-0.211-2.498-0.211
	c-0.776,0-1.585,0.07-2.429,0.211V265.139z M269.865,265.139h13.447c0.068-0.4,0.114-0.783,0.136-1.146
	c0.023-0.365,0.035-0.734,0.035-1.111c0-0.33-0.012-0.676-0.035-1.041c-0.022-0.363-0.068-0.746-0.136-1.146h-8.52v-20.919
	c-0.867-0.141-1.7-0.211-2.498-0.211c-0.775,0-1.585,0.07-2.429,0.211V265.139z M260.388,265.139
	c0.843,0.141,1.688,0.211,2.532,0.211c0.798,0,1.63-0.07,2.497-0.211v-25.364c-0.867-0.141-1.71-0.211-2.531-0.211
	c-0.822,0-1.655,0.07-2.498,0.211V265.139z M242.562,265.139h14.199c0.137-0.705,0.206-1.447,0.206-2.223
	c0-0.729-0.069-1.445-0.206-2.152h-9.204v-6.701h7.117c0.137-0.729,0.205-1.471,0.205-2.224c0-0.706-0.068-1.435-0.205-2.188h-7.117
	v-5.503h8.965c0.137-0.705,0.205-1.445,0.205-2.222c0-0.729-0.068-1.446-0.205-2.152h-13.96V265.139z M214.677,265.139
	c0.775,0.141,1.528,0.211,2.258,0.211c0.685,0,1.391-0.07,2.122-0.211l0.479-17.462l4.653,12.171
	c0.319,0.07,0.627,0.117,0.924,0.141c0.296,0.023,0.593,0.035,0.889,0.035c0.342,0,0.685-0.018,1.027-0.053
	c0.342-0.035,0.672-0.076,0.992-0.123l4.995-11.924l0.616,17.215c0.753,0.141,1.517,0.211,2.293,0.211
	c0.775,0,1.596-0.07,2.463-0.211l-1.163-25.364c-0.799-0.141-1.631-0.211-2.498-0.211c-0.867,0-1.654,0.07-2.361,0.211
	l-5.816,14.534l-5.646-14.534c-0.867-0.141-1.745-0.211-2.634-0.211c-0.845,0-1.723,0.07-2.635,0.211L214.677,265.139z"/>
<path fill="#60286F" d="M371.233,295.008c0.247,0.037,0.487,0.062,0.723,0.076c0.234,0.012,0.457,0.021,0.668,0.021
	c0.209,0,0.426-0.011,0.648-0.029c0.222-0.019,0.444-0.041,0.667-0.065v-11.599c0.222-0.039,0.47-0.06,0.74-0.06
	c0.705,0,1.279,0.189,1.726,0.564c0.443,0.375,0.666,0.965,0.666,1.768c0,0.406-0.08,0.761-0.24,1.062
	c-0.16,0.3-0.355,0.554-0.584,0.765c-0.229,0.211-0.467,0.385-0.713,0.524c-0.248,0.142-0.457,0.256-0.631,0.345l-0.445,0.229
	l3.484,6.383c0.457,0.076,0.922,0.115,1.391,0.115c0.283,0,0.562-0.014,0.834-0.039c0.271-0.025,0.531-0.051,0.779-0.076
	l-3.244-5.809l0.313-0.211c0.198-0.127,0.408-0.295,0.631-0.506c0.224-0.209,0.431-0.461,0.62-0.754
	c0.192-0.293,0.35-0.636,0.475-1.023c0.123-0.389,0.185-0.838,0.185-1.346c0-0.855-0.163-1.56-0.491-2.113
	c-0.326-0.553-0.757-0.992-1.288-1.316c-0.529-0.326-1.127-0.553-1.787-0.68c-0.662-0.127-1.332-0.189-2.012-0.189
	c-0.581,0-1.107,0.021-1.585,0.064c-0.477,0.045-0.983,0.1-1.528,0.164L371.233,295.008L371.233,295.008z M357.296,288.988
	c0,0.93,0.074,1.779,0.223,2.551c0.149,0.771,0.414,1.43,0.798,1.979c0.383,0.548,0.896,0.972,1.537,1.271
	c0.645,0.3,1.458,0.449,2.447,0.449c0.987,0,1.804-0.149,2.446-0.449c0.642-0.299,1.154-0.723,1.539-1.271
	c0.381-0.549,0.646-1.207,0.797-1.979c0.147-0.771,0.222-1.621,0.222-2.551v-7.719c-0.234-0.039-0.468-0.064-0.693-0.078
	c-0.229-0.012-0.455-0.018-0.679-0.018c-0.21,0-0.426,0.006-0.647,0.018c-0.224,0.014-0.457,0.039-0.705,0.078v7.127
	c0,0.777-0.026,1.441-0.082,1.996c-0.057,0.555-0.168,1.012-0.334,1.375s-0.398,0.631-0.695,0.803
	c-0.297,0.174-0.686,0.26-1.167,0.26c-0.48,0-0.875-0.086-1.177-0.26c-0.303-0.172-0.539-0.439-0.705-0.803
	c-0.166-0.364-0.277-0.82-0.334-1.375c-0.055-0.555-0.082-1.219-0.082-1.996v-7.127c-0.235-0.039-0.465-0.064-0.687-0.078
	c-0.224-0.012-0.438-0.018-0.649-0.018c-0.234,0-0.463,0.006-0.686,0.018c-0.223,0.014-0.451,0.039-0.687,0.078V288.988
	L357.296,288.988z M345.157,288.168c0-3.16,0.969-4.74,2.909-4.74c0.976,0,1.694,0.396,2.158,1.187
	c0.464,0.789,0.695,1.976,0.695,3.556c0,3.157-0.959,4.735-2.873,4.735C346.12,292.904,345.157,291.326,345.157,288.168
	 M350.643,294.701c0.729-0.355,1.328-0.85,1.799-1.48c0.469-0.631,0.817-1.375,1.047-2.235c0.229-0.858,0.344-1.8,0.344-2.815
	c0-1.021-0.115-1.966-0.344-2.839c-0.229-0.873-0.578-1.627-1.047-2.266c-0.471-0.638-1.068-1.134-1.799-1.488
	c-0.729-0.356-1.594-0.535-2.595-0.535c-1.002,0-1.866,0.179-2.596,0.535c-0.729,0.354-1.328,0.853-1.797,1.488
	c-0.471,0.639-0.818,1.393-1.048,2.266c-0.229,0.873-0.344,1.818-0.344,2.839c0,1.018,0.115,1.957,0.344,2.815
	c0.229,0.86,0.577,1.604,1.048,2.235c0.469,0.631,1.067,1.125,1.797,1.48c0.729,0.357,1.594,0.535,2.596,0.535
	C349.049,295.236,349.913,295.059,350.643,294.701 M333.221,283.41c0.223-0.027,0.393-0.041,0.511-0.049
	c0.116-0.006,0.243-0.01,0.38-0.01c0.309,0,0.61,0.041,0.907,0.125c0.297,0.082,0.56,0.223,0.787,0.42
	c0.229,0.197,0.411,0.459,0.547,0.783c0.138,0.324,0.204,0.723,0.204,1.194c0,0.457-0.066,0.845-0.204,1.154
	c-0.136,0.312-0.317,0.563-0.547,0.756c-0.229,0.192-0.49,0.328-0.787,0.41s-0.6,0.123-0.907,0.123h-0.474
	c-0.13,0-0.27-0.013-0.417-0.037V283.41L333.221,283.41z M330.515,295.008c0.247,0.037,0.488,0.062,0.724,0.076
	c0.233,0.012,0.451,0.021,0.648,0.021c0.209,0,0.426-0.009,0.647-0.021c0.224-0.014,0.451-0.039,0.687-0.076v-4.414
	c0.123,0.013,0.256,0.023,0.397,0.029c0.143,0.006,0.295,0.008,0.455,0.008c0.604,0,1.221-0.062,1.844-0.19
	c0.623-0.127,1.189-0.369,1.697-0.726c0.506-0.356,0.92-0.844,1.239-1.461c0.321-0.619,0.482-1.424,0.482-2.418
	s-0.161-1.803-0.482-2.426c-0.319-0.625-0.737-1.111-1.251-1.463c-0.513-0.35-1.087-0.59-1.723-0.717
	c-0.638-0.127-1.265-0.189-1.882-0.189c-0.594,0-1.18,0.016-1.76,0.047c-0.582,0.031-1.156,0.074-1.726,0.125v13.795H330.515z"/>
</svg>
