<?xml version="1.0" encoding="utf-8"?>
<!-- Generator: Adobe Illustrator 16.0.4, SVG Export Plug-In . SVG Version: 6.00 Build 0)  -->
<!DOCTYPE svg PUBLIC "-//W3C//DTD SVG 1.1//EN" "http://www.w3.org/Graphics/SVG/1.1/DTD/svg11.dtd">
<svg version="1.1" id="Calque_1" xmlns="http://www.w3.org/2000/svg" xmlns:xlink="http://www.w3.org/1999/xlink" x="0px" y="0px"
	 width="600px" height="600px" viewBox="0 0 600 600" enable-background="new 0 0 600 600" xml:space="preserve">
<g id="Calque_1_1_">
</g>
<g enable-background="new    ">
	<path d="M254.143,473.747c0.229-0.042,0.472-0.073,0.732-0.094c0.26-0.021,0.504-0.031,0.733-0.031s0.473,0.011,0.733,0.031
		c0.259,0.021,0.503,0.052,0.732,0.094l9.76,16.838v-16.838c0.25-0.042,0.509-0.073,0.78-0.094c0.27-0.021,0.54-0.031,0.811-0.031
		c0.229,0,0.468,0.011,0.717,0.031c0.249,0.02,0.488,0.052,0.717,0.094v22.419c-0.229,0.041-0.473,0.072-0.732,0.094
		c-0.26,0.021-0.504,0.031-0.733,0.031s-0.473-0.011-0.733-0.031c-0.26-0.021-0.504-0.053-0.732-0.094l-9.791-16.744v16.744
		c-0.229,0.041-0.473,0.072-0.733,0.094c-0.26,0.021-0.514,0.031-0.764,0.031c-0.271,0-0.536-0.011-0.795-0.031
		c-0.26-0.021-0.494-0.053-0.701-0.094L254.143,473.747L254.143,473.747z"/>
	<path d="M283.547,485.627c0-1.227-0.312-2.078-0.935-2.557c-0.623-0.479-1.528-0.721-2.713-0.721c-0.728,0-1.409,0.061-2.042,0.175
		c-0.634,0.111-1.252,0.265-1.855,0.449c-0.396-0.687-0.593-1.507-0.593-2.464c0.707-0.229,1.486-0.402,2.339-0.526
		c0.852-0.125,1.673-0.188,2.463-0.188c2.078,0,3.658,0.473,4.739,1.419s1.622,2.458,1.622,4.537v10.009
		c-0.728,0.167-1.611,0.338-2.65,0.518c-1.04,0.176-2.1,0.265-3.181,0.265c-1.019,0-1.938-0.094-2.759-0.28
		c-0.822-0.188-1.518-0.485-2.089-0.901s-1.013-0.946-1.325-1.594c-0.312-0.644-0.468-1.423-0.468-2.338
		c0-0.894,0.182-1.679,0.546-2.354c0.363-0.675,0.857-1.236,1.481-1.687c0.624-0.445,1.341-0.776,2.151-0.998
		c0.811-0.218,1.663-0.324,2.557-0.324c0.665,0,1.21,0.016,1.637,0.047c0.426,0.029,0.785,0.064,1.076,0.106L283.547,485.627
		L283.547,485.627z M283.547,488.651c-0.312-0.041-0.707-0.083-1.185-0.125c-0.479-0.041-0.884-0.062-1.216-0.062
		c-1.289,0-2.271,0.239-2.946,0.718c-0.676,0.479-1.014,1.206-1.014,2.186c0,0.623,0.114,1.109,0.343,1.466
		c0.229,0.354,0.514,0.623,0.857,0.811c0.343,0.188,0.722,0.305,1.138,0.346c0.416,0.042,0.811,0.062,1.185,0.062
		c0.478,0,0.972-0.023,1.481-0.078c0.509-0.052,0.961-0.13,1.356-0.23L283.547,488.651L283.547,488.651z"/>
	<path d="M291.03,480.17c0.229-0.041,0.488-0.072,0.779-0.094c0.291-0.022,0.541-0.031,0.749-0.031c0.229,0,0.488,0.011,0.779,0.031
		c0.291,0.02,0.551,0.053,0.78,0.094v8.762c0,0.998,0.093,1.824,0.28,2.479c0.187,0.654,0.468,1.169,0.842,1.543
		s0.831,0.635,1.372,0.78c0.541,0.145,1.164,0.218,1.871,0.218c1.062,0,1.964-0.114,2.713-0.343V480.17
		c0.229-0.041,0.481-0.072,0.766-0.094c0.28-0.021,0.535-0.031,0.764-0.031c0.229,0,0.482,0.011,0.767,0.031
		c0.278,0.021,0.532,0.053,0.764,0.094v15.497c-0.729,0.208-1.596,0.405-2.604,0.593c-1.008,0.188-2.052,0.28-3.132,0.28
		c-1.019,0-1.98-0.089-2.884-0.265c-0.904-0.18-1.7-0.535-2.385-1.076c-0.686-0.54-1.227-1.299-1.622-2.276
		c-0.395-0.977-0.592-2.266-0.592-3.866L291.03,480.17L291.03,480.17z"/>
	<path d="M319.373,473.311c0.229-0.042,0.488-0.07,0.777-0.094c0.291-0.021,0.541-0.031,0.748-0.031
		c0.229,0,0.483,0.014,0.767,0.031c0.28,0.021,0.534,0.052,0.765,0.094v22.422c-0.791,0.229-1.674,0.421-2.648,0.574
		c-0.979,0.155-2.068,0.233-3.274,0.233c-1.122,0-2.188-0.141-3.194-0.421c-1.01-0.28-1.888-0.743-2.636-1.388
		c-0.747-0.646-1.341-1.479-1.776-2.494c-0.437-1.021-0.652-2.276-0.652-3.773c0-1.288,0.189-2.463,0.576-3.521
		c0.385-1.062,0.93-1.972,1.637-2.729s1.555-1.346,2.541-1.762s2.084-0.624,3.29-0.624c0.54,0,1.086,0.042,1.638,0.125
		c0.551,0.083,1.033,0.187,1.449,0.312v-6.952h-0.006V473.311z M319.373,482.883c-0.416-0.166-0.863-0.291-1.341-0.374
		c-0.479-0.083-0.997-0.125-1.562-0.125c-0.852,0-1.59,0.156-2.213,0.468c-0.624,0.312-1.139,0.738-1.544,1.278
		c-0.404,0.541-0.706,1.181-0.902,1.918c-0.197,0.738-0.298,1.543-0.298,2.416c0.021,1.979,0.488,3.389,1.402,4.241
		c0.915,0.853,2.162,1.278,3.741,1.278c0.541,0,1.039-0.026,1.498-0.078c0.455-0.055,0.859-0.13,1.216-0.233L319.373,482.883
		L319.373,482.883z"/>
	<path d="M328.322,482.603h-2.027c-0.041-0.165-0.072-0.355-0.094-0.574c-0.021-0.222-0.031-0.435-0.031-0.643
		c0-0.207,0.012-0.421,0.031-0.639c0.021-0.219,0.053-0.41,0.094-0.577h5.053v15.996c-0.229,0.041-0.481,0.072-0.766,0.094
		c-0.279,0.021-0.535,0.031-0.766,0.031c-0.207,0-0.449-0.011-0.73-0.031c-0.281-0.02-0.535-0.053-0.764-0.094V482.603
		L328.322,482.603z M327.637,476.646c-0.043-0.249-0.068-0.521-0.078-0.812c-0.012-0.291-0.016-0.551-0.016-0.779
		c0-0.228,0.004-0.485,0.016-0.776c0.01-0.291,0.035-0.554,0.078-0.78c0.271-0.041,0.562-0.072,0.873-0.093
		c0.312-0.021,0.581-0.031,0.812-0.031c0.229,0,0.496,0.011,0.811,0.031c0.312,0.021,0.592,0.052,0.842,0.093
		c0.041,0.229,0.066,0.489,0.078,0.78c0.01,0.291,0.016,0.551,0.016,0.776c0,0.229-0.006,0.488-0.016,0.779
		c-0.012,0.291-0.037,0.562-0.078,0.812c-0.25,0.039-0.522,0.07-0.826,0.094c-0.301,0.021-0.563,0.031-0.795,0.031
		c-0.25,0-0.528-0.014-0.842-0.031C328.197,476.72,327.906,476.688,327.637,476.646z"/>
	<path d="M336.367,480.17c0.229-0.041,0.449-0.072,0.67-0.094c0.219-0.021,0.439-0.031,0.67-0.031c0.229,0,0.439,0.011,0.641,0.031
		c0.196,0.021,0.409,0.053,0.642,0.094c0.062,0.312,0.124,0.733,0.187,1.263c0.062,0.53,0.094,0.976,0.094,1.325
		c0.209-0.353,0.475-0.706,0.795-1.06c0.322-0.354,0.69-0.671,1.106-0.951s0.896-0.509,1.435-0.688
		c0.541-0.176,1.136-0.265,1.777-0.265c1.829,0,3.182,0.525,4.055,1.574c0.873,1.051,1.312,2.604,1.312,4.662v10.134
		c-0.229,0.041-0.489,0.072-0.778,0.094c-0.293,0.021-0.553,0.031-0.781,0.031c-0.228,0-0.479-0.011-0.764-0.031
		c-0.279-0.021-0.535-0.053-0.764-0.094v-9.292c0-1.476-0.229-2.562-0.688-3.259c-0.459-0.697-1.187-1.044-2.185-1.044
		c-0.582,0-1.133,0.104-1.651,0.312c-0.52,0.208-0.978,0.53-1.371,0.967c-0.396,0.438-0.713,1.003-0.951,1.699
		s-0.357,1.533-0.357,2.51v8.107c-0.229,0.041-0.482,0.072-0.766,0.094c-0.279,0.021-0.533,0.031-0.764,0.031
		c-0.229,0-0.488-0.011-0.779-0.031c-0.291-0.02-0.551-0.053-0.777-0.094V480.17H336.367z"/>
</g>
<rect x="198.5" y="398.5" fill="none" width="195" height="26"/>
</svg>
