<?xml version="1.0" encoding="utf-8"?>
<!-- Generator: Adobe Illustrator 16.0.4, SVG Export Plug-In . SVG Version: 6.00 Build 0)  -->
<!DOCTYPE svg PUBLIC "-//W3C//DTD SVG 1.1//EN" "http://www.w3.org/Graphics/SVG/1.1/DTD/svg11.dtd">
<svg version="1.1" id="Calque_1" xmlns="http://www.w3.org/2000/svg" xmlns:xlink="http://www.w3.org/1999/xlink" x="0px" y="0px"
	 width="600px" height="600px" viewBox="0 0 600 600" enable-background="new 0 0 600 600" xml:space="preserve">
<g>
	<path fill="#9B9B9B" d="M124.388,293.215c0.187-0.034,0.399-0.06,0.638-0.077c0.238-0.017,0.442-0.025,0.612-0.025
		c0.187,0,0.399,0.009,0.638,0.025c0.238,0.017,0.45,0.042,0.638,0.077v7.168c0,0.816,0.077,1.493,0.229,2.029
		c0.153,0.535,0.383,0.956,0.689,1.262c0.306,0.307,0.68,0.52,1.123,0.639c0.442,0.119,0.952,0.178,1.531,0.178
		c0.867,0,1.607-0.093,2.219-0.279v-10.996c0.187-0.034,0.396-0.06,0.625-0.077c0.23-0.017,0.438-0.025,0.625-0.025
		s0.396,0.009,0.625,0.025c0.229,0.017,0.438,0.042,0.625,0.077v12.68c-0.596,0.17-1.306,0.331-2.13,0.484
		c-0.825,0.152-1.68,0.229-2.564,0.229c-0.833,0-1.62-0.073-2.36-0.217c-0.74-0.145-1.391-0.438-1.952-0.88
		c-0.561-0.442-1.004-1.062-1.327-1.863c-0.323-0.799-0.485-1.854-0.485-3.163V293.215z"/>
	<path fill="#9B9B9B" d="M139.185,293.215c0.187-0.034,0.37-0.06,0.548-0.077c0.179-0.017,0.361-0.025,0.549-0.025
		c0.187,0,0.361,0.009,0.523,0.025c0.161,0.017,0.335,0.042,0.523,0.077c0.051,0.255,0.102,0.6,0.153,1.033
		c0.051,0.434,0.077,0.795,0.077,1.084c0.17-0.289,0.387-0.578,0.65-0.867c0.264-0.289,0.565-0.548,0.906-0.778
		c0.34-0.229,0.731-0.417,1.173-0.561s0.927-0.217,1.455-0.217c1.496,0,2.602,0.43,3.316,1.288c0.714,0.859,1.071,2.13,1.071,3.814
		v8.292c-0.187,0.033-0.399,0.059-0.638,0.076c-0.238,0.017-0.451,0.025-0.638,0.025c-0.188,0-0.396-0.009-0.625-0.025
		c-0.229-0.018-0.438-0.043-0.625-0.076V298.7c0-1.208-0.188-2.096-0.562-2.666c-0.374-0.569-0.969-0.854-1.786-0.854
		c-0.477,0-0.927,0.085-1.352,0.255c-0.425,0.17-0.8,0.434-1.123,0.791c-0.323,0.357-0.583,0.821-0.778,1.39
		c-0.196,0.57-0.293,1.255-0.293,2.054v6.634c-0.187,0.033-0.395,0.059-0.625,0.076c-0.229,0.017-0.438,0.025-0.625,0.025
		s-0.4-0.009-0.638-0.025c-0.238-0.018-0.451-0.043-0.638-0.076V293.215z"/>
	<path fill="#9B9B9B" d="M166.89,297.679c0-1.003-0.255-1.701-0.765-2.092s-1.25-0.587-2.22-0.587c-0.596,0-1.152,0.047-1.671,0.14
		c-0.519,0.094-1.025,0.217-1.518,0.37c-0.323-0.561-0.485-1.233-0.485-2.016c0.578-0.187,1.216-0.332,1.914-0.434
		c0.697-0.102,1.369-0.153,2.016-0.153c1.7,0,2.993,0.387,3.877,1.161s1.327,2.011,1.327,3.712v8.189
		c-0.595,0.137-1.318,0.276-2.168,0.421c-0.851,0.144-1.718,0.217-2.602,0.217c-0.833,0-1.586-0.077-2.258-0.229
		c-0.672-0.153-1.242-0.399-1.709-0.74c-0.468-0.34-0.829-0.773-1.084-1.301c-0.255-0.527-0.383-1.165-0.383-1.914
		c0-0.73,0.148-1.373,0.446-1.925c0.297-0.553,0.702-1.012,1.212-1.378c0.51-0.365,1.097-0.638,1.76-0.816
		c0.664-0.179,1.36-0.268,2.092-0.268c0.544,0,0.99,0.013,1.339,0.038c0.348,0.025,0.642,0.055,0.88,0.089V297.679z M166.89,300.154
		c-0.255-0.034-0.578-0.068-0.969-0.102c-0.392-0.034-0.723-0.051-0.995-0.051c-1.055,0-1.858,0.196-2.411,0.587
		c-0.553,0.391-0.83,0.986-0.83,1.785c0,0.511,0.094,0.91,0.281,1.199s0.421,0.51,0.702,0.664c0.281,0.152,0.591,0.246,0.931,0.28
		c0.34,0.034,0.664,0.051,0.97,0.051c0.391,0,0.794-0.021,1.211-0.063c0.417-0.043,0.787-0.106,1.11-0.191V300.154z"/>
	<path fill="#9B9B9B" d="M171.304,293.215c0.238-0.034,0.485-0.06,0.74-0.077c0.255-0.017,0.485-0.025,0.689-0.025
		c0.221,0,0.463,0.009,0.727,0.025c0.264,0.017,0.489,0.042,0.676,0.077l3.572,10.791l3.597-10.791
		c0.187-0.034,0.399-0.06,0.638-0.077c0.238-0.017,0.467-0.025,0.688-0.025c0.187,0,0.399,0.009,0.638,0.025
		c0.238,0.017,0.476,0.042,0.714,0.077l-5.103,13.088c-0.221,0.033-0.442,0.059-0.664,0.076c-0.221,0.017-0.425,0.025-0.612,0.025
		c-0.188,0-0.387-0.009-0.6-0.025c-0.213-0.018-0.421-0.043-0.625-0.076L171.304,293.215z"/>
	<path fill="#9B9B9B" d="M187.835,300.383c0.034,1.429,0.404,2.474,1.11,3.138c0.706,0.663,1.748,0.995,3.125,0.995
		c1.208,0,2.355-0.213,3.444-0.638c0.136,0.255,0.246,0.565,0.332,0.931c0.085,0.366,0.136,0.728,0.153,1.085
		c-0.562,0.238-1.178,0.416-1.85,0.535c-0.672,0.119-1.416,0.179-2.232,0.179c-1.191,0-2.211-0.166-3.062-0.497
		c-0.851-0.332-1.552-0.8-2.104-1.404c-0.553-0.604-0.957-1.316-1.212-2.143c-0.255-0.824-0.383-1.73-0.383-2.717
		c0-0.969,0.123-1.875,0.37-2.717c0.246-0.842,0.625-1.573,1.135-2.194c0.51-0.621,1.152-1.114,1.926-1.479
		c0.773-0.366,1.688-0.548,2.742-0.548c0.901,0,1.692,0.153,2.373,0.459s1.25,0.727,1.709,1.263
		c0.459,0.536,0.808,1.174,1.046,1.914c0.238,0.74,0.357,1.543,0.357,2.411c0,0.238-0.009,0.489-0.026,0.752
		s-0.034,0.489-0.051,0.676H187.835z M194.315,298.496c0-0.476-0.063-0.931-0.191-1.365c-0.127-0.434-0.315-0.812-0.561-1.135
		c-0.247-0.323-0.562-0.583-0.944-0.778c-0.383-0.195-0.838-0.293-1.365-0.293c-1.038,0-1.833,0.315-2.385,0.944
		c-0.553,0.63-0.889,1.505-1.008,2.628H194.315z"/>
	<path fill="#9B9B9B" d="M200.132,293.215c0.187-0.034,0.37-0.06,0.548-0.077c0.179-0.017,0.361-0.025,0.549-0.025
		c0.187,0,0.361,0.009,0.523,0.025c0.161,0.017,0.335,0.042,0.523,0.077c0.051,0.255,0.102,0.6,0.153,1.033
		c0.051,0.434,0.077,0.795,0.077,1.084c0.17-0.289,0.387-0.578,0.65-0.867c0.264-0.289,0.565-0.548,0.906-0.778
		c0.34-0.229,0.731-0.417,1.173-0.561s0.927-0.217,1.455-0.217c1.496,0,2.602,0.43,3.316,1.288c0.714,0.859,1.071,2.13,1.071,3.814
		v8.292c-0.187,0.033-0.399,0.059-0.638,0.076c-0.238,0.017-0.451,0.025-0.638,0.025c-0.188,0-0.396-0.009-0.625-0.025
		c-0.229-0.018-0.438-0.043-0.625-0.076V298.7c0-1.208-0.188-2.096-0.562-2.666c-0.374-0.569-0.969-0.854-1.786-0.854
		c-0.477,0-0.927,0.085-1.352,0.255c-0.425,0.17-0.8,0.434-1.123,0.791c-0.323,0.357-0.583,0.821-0.778,1.39
		c-0.196,0.57-0.293,1.255-0.293,2.054v6.634c-0.187,0.033-0.395,0.059-0.625,0.076c-0.229,0.017-0.438,0.025-0.625,0.025
		s-0.4-0.009-0.638-0.025c-0.238-0.018-0.451-0.043-0.638-0.076V293.215z"/>
	<path fill="#9B9B9B" d="M215.643,295.205h-1.658c-0.034-0.136-0.06-0.293-0.077-0.472c-0.017-0.178-0.025-0.353-0.025-0.523
		c0-0.169,0.008-0.344,0.025-0.523c0.017-0.178,0.042-0.335,0.077-0.472h4.133v13.088c-0.187,0.033-0.395,0.059-0.625,0.076
		c-0.229,0.017-0.438,0.025-0.625,0.025c-0.17,0-0.37-0.009-0.6-0.025c-0.229-0.018-0.438-0.043-0.625-0.076V295.205z
		 M215.082,290.332c-0.034-0.204-0.056-0.425-0.064-0.664c-0.009-0.238-0.013-0.45-0.013-0.638c0-0.187,0.004-0.399,0.013-0.638
		c0.008-0.238,0.03-0.451,0.064-0.638c0.221-0.034,0.459-0.06,0.714-0.077c0.255-0.017,0.476-0.025,0.663-0.025
		s0.408,0.009,0.664,0.025c0.255,0.017,0.484,0.042,0.688,0.077c0.034,0.187,0.055,0.399,0.064,0.638
		c0.008,0.238,0.013,0.451,0.013,0.638c0,0.188-0.004,0.4-0.013,0.638c-0.009,0.238-0.03,0.459-0.064,0.664
		c-0.204,0.034-0.43,0.06-0.676,0.076c-0.247,0.017-0.464,0.026-0.651,0.026c-0.204,0-0.434-0.009-0.688-0.026
		C215.541,290.392,215.302,290.366,215.082,290.332z"/>
	<path fill="#9B9B9B" d="M222.225,293.215c0.187-0.034,0.365-0.06,0.536-0.077c0.17-0.017,0.349-0.025,0.536-0.025
		s0.374,0.009,0.562,0.025c0.187,0.017,0.357,0.042,0.51,0.077c0.051,0.255,0.102,0.591,0.153,1.007
		c0.051,0.417,0.077,0.77,0.077,1.059c0.357-0.578,0.829-1.08,1.416-1.505c0.586-0.425,1.339-0.638,2.258-0.638
		c0.136,0,0.276,0.004,0.421,0.013c0.144,0.009,0.268,0.021,0.37,0.038c0.034,0.153,0.06,0.315,0.077,0.485
		c0.017,0.17,0.025,0.349,0.025,0.536c0,0.204-0.013,0.417-0.038,0.638s-0.055,0.434-0.089,0.638
		c-0.136-0.034-0.276-0.051-0.421-0.051s-0.259,0-0.344,0c-0.459,0-0.897,0.064-1.314,0.191c-0.417,0.127-0.791,0.353-1.123,0.676
		s-0.596,0.765-0.791,1.327c-0.196,0.561-0.293,1.284-0.293,2.168v6.506c-0.187,0.033-0.395,0.059-0.625,0.076
		c-0.229,0.017-0.438,0.025-0.625,0.025s-0.396-0.009-0.625-0.025c-0.229-0.018-0.446-0.043-0.65-0.076V293.215z"/>
	<path fill="#9B9B9B" d="M237.736,293.215c0.169-0.034,0.344-0.06,0.523-0.077c0.178-0.017,0.361-0.025,0.548-0.025
		c0.17,0,0.349,0.009,0.536,0.025c0.187,0.017,0.366,0.042,0.536,0.077c0.017,0.034,0.039,0.14,0.064,0.319s0.051,0.37,0.077,0.574
		s0.051,0.4,0.077,0.587c0.025,0.188,0.038,0.306,0.038,0.357c0.17-0.272,0.374-0.536,0.612-0.791
		c0.238-0.255,0.523-0.485,0.854-0.689s0.706-0.365,1.123-0.485c0.417-0.119,0.88-0.178,1.391-0.178c0.765,0,1.475,0.127,2.13,0.382
		c0.655,0.255,1.216,0.651,1.684,1.187c0.467,0.536,0.833,1.216,1.097,2.041c0.264,0.825,0.396,1.798,0.396,2.921
		c0,2.245-0.608,4.002-1.824,5.268c-1.216,1.268-2.938,1.901-5.167,1.901c-0.374,0-0.757-0.025-1.148-0.077
		c-0.392-0.051-0.731-0.119-1.021-0.203v5.995c-0.204,0.034-0.421,0.06-0.65,0.076s-0.438,0.026-0.625,0.026
		c-0.188,0-0.396-0.01-0.625-0.026c-0.23-0.017-0.438-0.042-0.625-0.076V293.215z M240.261,304.159
		c0.323,0.119,0.655,0.204,0.995,0.255c0.34,0.051,0.782,0.076,1.327,0.076c0.612,0,1.173-0.098,1.684-0.293
		s0.948-0.497,1.314-0.905c0.366-0.408,0.654-0.923,0.867-1.544c0.212-0.62,0.319-1.356,0.319-2.207c0-1.36-0.251-2.44-0.752-3.24
		c-0.502-0.799-1.323-1.199-2.462-1.199c-0.425,0-0.833,0.077-1.225,0.229c-0.391,0.153-0.74,0.383-1.046,0.689
		s-0.553,0.693-0.74,1.161c-0.188,0.468-0.281,1.025-0.281,1.671V304.159z"/>
	<path fill="#9B9B9B" d="M254.726,300.383c0.034,1.429,0.404,2.474,1.11,3.138c0.706,0.663,1.748,0.995,3.125,0.995
		c1.207,0,2.355-0.213,3.444-0.638c0.136,0.255,0.247,0.565,0.332,0.931c0.085,0.366,0.136,0.728,0.153,1.085
		c-0.562,0.238-1.178,0.416-1.85,0.535c-0.672,0.119-1.416,0.179-2.232,0.179c-1.19,0-2.211-0.166-3.062-0.497
		c-0.851-0.332-1.552-0.8-2.104-1.404c-0.553-0.604-0.957-1.316-1.212-2.143c-0.255-0.824-0.383-1.73-0.383-2.717
		c0-0.969,0.124-1.875,0.37-2.717s0.625-1.573,1.135-2.194c0.51-0.621,1.152-1.114,1.926-1.479c0.773-0.366,1.688-0.548,2.742-0.548
		c0.901,0,1.692,0.153,2.373,0.459c0.68,0.306,1.25,0.727,1.709,1.263c0.459,0.536,0.808,1.174,1.046,1.914s0.357,1.543,0.357,2.411
		c0,0.238-0.009,0.489-0.025,0.752c-0.018,0.264-0.035,0.489-0.051,0.676H254.726z M261.207,298.496
		c0-0.476-0.064-0.931-0.191-1.365c-0.128-0.434-0.315-0.812-0.562-1.135s-0.561-0.583-0.944-0.778
		c-0.383-0.195-0.838-0.293-1.365-0.293c-1.038,0-1.833,0.315-2.385,0.944c-0.553,0.63-0.889,1.505-1.008,2.628H261.207z
		 M258.451,291.148c-0.188,0.034-0.392,0.06-0.612,0.076c-0.221,0.017-0.468,0.026-0.74,0.026c-0.188,0-0.379-0.009-0.574-0.026
		c-0.196-0.017-0.396-0.042-0.6-0.076l2.934-3.24c0.255-0.034,0.519-0.06,0.791-0.077c0.272-0.017,0.553-0.025,0.842-0.025
		c0.306,0,0.586,0.009,0.842,0.025c0.255,0.017,0.501,0.043,0.74,0.077L258.451,291.148z"/>
	<path fill="#9B9B9B" d="M267.023,293.215c0.187-0.034,0.365-0.06,0.536-0.077c0.17-0.017,0.349-0.025,0.536-0.025
		s0.374,0.009,0.562,0.025c0.187,0.017,0.357,0.042,0.51,0.077c0.051,0.255,0.102,0.591,0.153,1.007
		c0.051,0.417,0.077,0.77,0.077,1.059c0.357-0.578,0.829-1.08,1.416-1.505c0.586-0.425,1.339-0.638,2.258-0.638
		c0.136,0,0.276,0.004,0.421,0.013c0.144,0.009,0.268,0.021,0.37,0.038c0.034,0.153,0.06,0.315,0.077,0.485
		c0.017,0.17,0.025,0.349,0.025,0.536c0,0.204-0.013,0.417-0.038,0.638s-0.055,0.434-0.089,0.638
		c-0.136-0.034-0.276-0.051-0.421-0.051s-0.259,0-0.344,0c-0.459,0-0.897,0.064-1.314,0.191c-0.417,0.127-0.791,0.353-1.123,0.676
		s-0.596,0.765-0.791,1.327c-0.196,0.561-0.293,1.284-0.293,2.168v6.506c-0.187,0.033-0.395,0.059-0.625,0.076
		c-0.229,0.017-0.438,0.025-0.625,0.025s-0.396-0.009-0.625-0.025c-0.229-0.018-0.446-0.043-0.65-0.076V293.215z"/>
	<path fill="#9B9B9B" d="M278.019,300.383c0.034,1.429,0.404,2.474,1.11,3.138c0.706,0.663,1.748,0.995,3.125,0.995
		c1.208,0,2.355-0.213,3.444-0.638c0.136,0.255,0.246,0.565,0.332,0.931c0.085,0.366,0.136,0.728,0.153,1.085
		c-0.562,0.238-1.178,0.416-1.85,0.535c-0.672,0.119-1.416,0.179-2.232,0.179c-1.191,0-2.211-0.166-3.062-0.497
		c-0.851-0.332-1.552-0.8-2.104-1.404c-0.553-0.604-0.957-1.316-1.212-2.143c-0.255-0.824-0.383-1.73-0.383-2.717
		c0-0.969,0.123-1.875,0.37-2.717c0.246-0.842,0.625-1.573,1.135-2.194c0.51-0.621,1.152-1.114,1.926-1.479
		c0.773-0.366,1.688-0.548,2.742-0.548c0.901,0,1.692,0.153,2.373,0.459s1.25,0.727,1.709,1.263
		c0.459,0.536,0.808,1.174,1.046,1.914c0.238,0.74,0.357,1.543,0.357,2.411c0,0.238-0.009,0.489-0.026,0.752
		s-0.034,0.489-0.051,0.676H278.019z M284.499,298.496c0-0.476-0.063-0.931-0.191-1.365c-0.127-0.434-0.315-0.812-0.561-1.135
		c-0.247-0.323-0.562-0.583-0.944-0.778c-0.383-0.195-0.838-0.293-1.365-0.293c-1.038,0-1.833,0.315-2.385,0.944
		c-0.553,0.63-0.889,1.505-1.008,2.628H284.499z"/>
	<path fill="#9B9B9B" d="M290.315,293.215c0.187-0.034,0.37-0.06,0.548-0.077c0.179-0.017,0.361-0.025,0.549-0.025
		c0.187,0,0.361,0.009,0.523,0.025c0.161,0.017,0.335,0.042,0.523,0.077c0.051,0.255,0.102,0.6,0.153,1.033
		c0.051,0.434,0.077,0.795,0.077,1.084c0.17-0.289,0.387-0.578,0.65-0.867c0.264-0.289,0.565-0.548,0.906-0.778
		c0.34-0.229,0.731-0.417,1.173-0.561s0.927-0.217,1.455-0.217c1.496,0,2.602,0.43,3.316,1.288c0.714,0.859,1.071,2.13,1.071,3.814
		v8.292c-0.188,0.033-0.399,0.059-0.638,0.076c-0.238,0.017-0.451,0.025-0.638,0.025c-0.188,0-0.396-0.009-0.625-0.025
		c-0.229-0.018-0.438-0.043-0.625-0.076V298.7c0-1.208-0.188-2.096-0.562-2.666c-0.374-0.569-0.969-0.854-1.786-0.854
		c-0.477,0-0.927,0.085-1.352,0.255c-0.425,0.17-0.8,0.434-1.123,0.791c-0.323,0.357-0.583,0.821-0.778,1.39
		c-0.196,0.57-0.293,1.255-0.293,2.054v6.634c-0.187,0.033-0.395,0.059-0.625,0.076c-0.229,0.017-0.438,0.025-0.625,0.025
		s-0.4-0.009-0.638-0.025c-0.238-0.018-0.451-0.043-0.638-0.076V293.215z"/>
	<path fill="#9B9B9B" d="M305.061,293.215c0.188-0.034,0.37-0.06,0.549-0.077c0.179-0.017,0.361-0.025,0.549-0.025
		c0.187,0,0.361,0.009,0.523,0.025c0.16,0.017,0.335,0.042,0.522,0.077c0.051,0.255,0.103,0.6,0.153,1.033s0.076,0.795,0.076,1.084
		c0.17-0.289,0.387-0.578,0.65-0.867c0.264-0.289,0.564-0.548,0.906-0.778c0.34-0.229,0.73-0.417,1.174-0.561
		c0.441-0.145,0.926-0.217,1.453-0.217c1.496,0,2.602,0.43,3.316,1.288c0.715,0.859,1.072,2.13,1.072,3.814v8.292
		c-0.188,0.033-0.4,0.059-0.639,0.076c-0.238,0.017-0.451,0.025-0.637,0.025c-0.188,0-0.396-0.009-0.625-0.025
		c-0.23-0.018-0.439-0.043-0.625-0.076V298.7c0-1.208-0.188-2.096-0.562-2.666c-0.373-0.569-0.969-0.854-1.785-0.854
		c-0.477,0-0.928,0.085-1.352,0.255c-0.426,0.17-0.801,0.434-1.123,0.791c-0.324,0.357-0.582,0.821-0.778,1.39
		c-0.196,0.57-0.294,1.255-0.294,2.054v6.634c-0.187,0.033-0.395,0.059-0.625,0.076c-0.229,0.017-0.438,0.025-0.625,0.025
		c-0.187,0-0.399-0.009-0.637-0.025c-0.238-0.018-0.451-0.043-0.639-0.076V293.215z"/>
	<path fill="#9B9B9B" d="M321.694,300.383c0.034,1.429,0.404,2.474,1.11,3.138c0.705,0.663,1.747,0.995,3.125,0.995
		c1.207,0,2.355-0.213,3.443-0.638c0.137,0.255,0.247,0.565,0.332,0.931c0.085,0.366,0.136,0.728,0.153,1.085
		c-0.562,0.238-1.178,0.416-1.85,0.535s-1.416,0.179-2.232,0.179c-1.19,0-2.211-0.166-3.062-0.497
		c-0.851-0.332-1.552-0.8-2.104-1.404c-0.553-0.604-0.957-1.316-1.212-2.143c-0.255-0.824-0.383-1.73-0.383-2.717
		c0-0.969,0.123-1.875,0.37-2.717c0.246-0.842,0.625-1.573,1.135-2.194c0.511-0.621,1.152-1.114,1.927-1.479
		c0.773-0.366,1.688-0.548,2.742-0.548c0.901,0,1.692,0.153,2.373,0.459c0.68,0.306,1.25,0.727,1.709,1.263
		c0.459,0.536,0.808,1.174,1.046,1.914s0.357,1.543,0.357,2.411c0,0.238-0.009,0.489-0.025,0.752
		c-0.018,0.264-0.034,0.489-0.052,0.676H321.694z M328.175,298.496c0-0.476-0.064-0.931-0.191-1.365
		c-0.128-0.434-0.315-0.812-0.562-1.135c-0.247-0.323-0.562-0.583-0.944-0.778c-0.382-0.195-0.838-0.293-1.364-0.293
		c-1.038,0-1.833,0.315-2.386,0.944c-0.553,0.63-0.889,1.505-1.008,2.628H328.175z"/>
	<path fill="#9B9B9B" d="M340.267,306.303c-0.034-0.238-0.06-0.473-0.076-0.702c-0.018-0.229-0.025-0.463-0.025-0.702
		c0-0.237,0.008-0.479,0.025-0.727c0.017-0.246,0.042-0.488,0.076-0.727c0.238-0.034,0.472-0.06,0.701-0.077
		c0.23-0.017,0.464-0.025,0.702-0.025s0.48,0.009,0.727,0.025c0.247,0.018,0.489,0.043,0.728,0.077
		c0.034,0.238,0.06,0.477,0.076,0.714c0.017,0.238,0.025,0.477,0.025,0.714c0,0.238-0.009,0.477-0.025,0.715
		s-0.042,0.477-0.076,0.715c-0.238,0.033-0.477,0.059-0.715,0.076c-0.238,0.017-0.476,0.025-0.714,0.025s-0.477-0.009-0.714-0.025
		C340.742,306.361,340.505,306.336,340.267,306.303z M340.369,287.959c0.221-0.034,0.438-0.06,0.65-0.077
		c0.212-0.017,0.429-0.025,0.65-0.025c0.238,0,0.476,0.009,0.714,0.025c0.238,0.017,0.477,0.042,0.715,0.077l-0.153,12.832
		c-0.392,0.068-0.791,0.103-1.199,0.103c-0.459,0-0.858-0.034-1.199-0.103L340.369,287.959z"/>
</g>
</svg>
