<?xml version="1.0" encoding="utf-8"?>
<!-- Generator: Adobe Illustrator 16.0.4, SVG Export Plug-In . SVG Version: 6.00 Build 0)  -->
<!DOCTYPE svg PUBLIC "-//W3C//DTD SVG 1.1//EN" "http://www.w3.org/Graphics/SVG/1.1/DTD/svg11.dtd">
<svg version="1.1" id="Calque_1" xmlns="http://www.w3.org/2000/svg" xmlns:xlink="http://www.w3.org/1999/xlink" x="0px" y="0px"
	 width="600px" height="600px" viewBox="0 0 600 600" enable-background="new 0 0 600 600" xml:space="preserve">
<g>
	<g>
		<path fill="#8E8E8E" d="M278.778,343.665c0,0.538-0.138,0.946-0.414,1.228c-0.276,0.277-0.674,0.418-1.196,0.418
			c-0.291,0-0.553-0.043-0.786-0.124c-0.233-0.085-0.456-0.232-0.666-0.438l0.354-0.405c0.156,0.17,0.321,0.297,0.496,0.382
			c0.174,0.089,0.375,0.131,0.603,0.131c0.219,0,0.401-0.032,0.546-0.098c0.145-0.065,0.26-0.153,0.344-0.265
			s0.143-0.238,0.177-0.382c0.033-0.144,0.05-0.294,0.05-0.447v-0.379h-0.012c-0.118,0.189-0.272,0.326-0.46,0.415
			c-0.189,0.088-0.384,0.134-0.581,0.134c-0.232,0-0.444-0.039-0.638-0.114s-0.36-0.18-0.499-0.317
			c-0.139-0.134-0.247-0.293-0.322-0.479c-0.076-0.183-0.114-0.385-0.114-0.604c0-0.242,0.039-0.458,0.114-0.65
			c0.075-0.195,0.182-0.359,0.318-0.489c0.137-0.134,0.302-0.235,0.496-0.308c0.193-0.071,0.408-0.107,0.644-0.107
			c0.101,0,0.202,0.014,0.303,0.036c0.101,0.022,0.199,0.059,0.293,0.107c0.095,0.049,0.18,0.108,0.256,0.183
			c0.076,0.072,0.139,0.157,0.189,0.255h0.012v-0.506h0.493V343.665z M276.19,342.32c0,0.149,0.027,0.29,0.082,0.417
			c0.055,0.131,0.129,0.242,0.224,0.337c0.095,0.095,0.205,0.17,0.332,0.225c0.126,0.053,0.261,0.082,0.404,0.082
			c0.168,0,0.317-0.029,0.448-0.088c0.131-0.059,0.241-0.141,0.332-0.238c0.09-0.099,0.159-0.213,0.205-0.34
			c0.047-0.131,0.07-0.265,0.07-0.408c0-0.16-0.025-0.307-0.075-0.438c-0.051-0.134-0.123-0.248-0.215-0.346
			c-0.093-0.095-0.204-0.17-0.334-0.223c-0.131-0.052-0.273-0.081-0.429-0.081c-0.156,0-0.298,0.029-0.426,0.088
			c-0.128,0.056-0.237,0.134-0.328,0.231c-0.091,0.099-0.161,0.216-0.211,0.347C276.216,342.02,276.19,342.163,276.19,342.32z"/>
		<path fill="#8E8E8E" d="M280.88,341.543c0-0.134-0.004-0.262-0.012-0.379c-0.009-0.117-0.013-0.226-0.013-0.323h0.467
			c0,0.082,0.002,0.16,0.006,0.241c0.004,0.079,0.007,0.164,0.007,0.245h0.013c0.034-0.071,0.081-0.141,0.142-0.205
			c0.061-0.069,0.133-0.128,0.217-0.184c0.084-0.052,0.179-0.095,0.284-0.124c0.105-0.032,0.219-0.049,0.341-0.049
			c0.034,0,0.067,0.004,0.101,0.007c0.034,0.003,0.067,0.013,0.101,0.026l-0.031,0.499c-0.084-0.026-0.173-0.039-0.266-0.039
			c-0.303,0-0.523,0.098-0.659,0.294c-0.137,0.195-0.206,0.464-0.206,0.803v1.44h-0.492V341.543z"/>
		<path fill="#8E8E8E" d="M284.124,342.32c0-0.232,0.04-0.441,0.12-0.631s0.189-0.353,0.329-0.489
			c0.139-0.138,0.304-0.245,0.498-0.32c0.194-0.075,0.404-0.114,0.632-0.114c0.227,0,0.438,0.039,0.631,0.114s0.36,0.183,0.499,0.32
			c0.139,0.137,0.248,0.3,0.328,0.489c0.08,0.189,0.12,0.398,0.12,0.631c0,0.231-0.04,0.44-0.12,0.63
			c-0.08,0.189-0.189,0.353-0.328,0.489c-0.139,0.138-0.306,0.242-0.499,0.32c-0.193,0.075-0.404,0.111-0.631,0.111
			c-0.228,0-0.438-0.036-0.632-0.111c-0.193-0.078-0.359-0.183-0.498-0.32c-0.14-0.137-0.249-0.3-0.329-0.489
			S284.124,342.552,284.124,342.32z M284.654,342.32c0,0.156,0.024,0.3,0.072,0.431c0.048,0.134,0.12,0.248,0.211,0.349
			c0.092,0.099,0.204,0.177,0.332,0.232c0.128,0.059,0.272,0.085,0.433,0.085s0.304-0.026,0.433-0.085
			c0.128-0.056,0.238-0.134,0.331-0.232c0.093-0.101,0.163-0.215,0.212-0.349c0.048-0.131,0.072-0.274,0.072-0.431
			c0-0.157-0.024-0.301-0.072-0.435c-0.049-0.131-0.119-0.248-0.212-0.347c-0.092-0.098-0.203-0.176-0.331-0.231
			c-0.129-0.059-0.272-0.088-0.433-0.088s-0.304,0.029-0.433,0.088c-0.128,0.056-0.239,0.134-0.332,0.231
			c-0.092,0.099-0.163,0.216-0.211,0.347C284.679,342.02,284.654,342.163,284.654,342.32z"/>
		<path fill="#8E8E8E" d="M291.812,343.097c0,0.134,0.005,0.262,0.013,0.379c0.008,0.117,0.013,0.226,0.013,0.32h-0.467
			c0-0.079-0.002-0.16-0.006-0.238c-0.004-0.082-0.006-0.164-0.006-0.249h-0.013c-0.034,0.072-0.081,0.145-0.142,0.209
			c-0.062,0.069-0.134,0.128-0.218,0.18c-0.084,0.053-0.179,0.095-0.284,0.128c-0.105,0.032-0.219,0.046-0.34,0.046
			c-0.193,0-0.361-0.03-0.502-0.089c-0.142-0.059-0.258-0.14-0.351-0.245c-0.093-0.104-0.161-0.231-0.206-0.382
			c-0.044-0.149-0.066-0.313-0.066-0.489v-1.825h0.492v1.776c0,0.248,0.055,0.443,0.165,0.588c0.109,0.14,0.279,0.212,0.511,0.212
			c0.16,0,0.298-0.026,0.413-0.082c0.116-0.056,0.21-0.13,0.284-0.231c0.075-0.102,0.129-0.223,0.164-0.362
			c0.036-0.138,0.054-0.291,0.054-0.461v-1.439h0.492V343.097z"/>
		<path fill="#8E8E8E" d="M293.913,340.841h0.493v0.431h0.012c0.134-0.159,0.291-0.283,0.47-0.372
			c0.179-0.088,0.375-0.134,0.59-0.134c0.232,0,0.443,0.039,0.634,0.118c0.192,0.078,0.355,0.186,0.49,0.326
			c0.135,0.137,0.24,0.3,0.315,0.489c0.076,0.189,0.114,0.398,0.114,0.621c0,0.222-0.039,0.427-0.114,0.616
			c-0.075,0.189-0.18,0.356-0.312,0.493c-0.133,0.141-0.29,0.248-0.471,0.326c-0.181,0.079-0.374,0.115-0.581,0.115
			c-0.265,0-0.498-0.056-0.698-0.174c-0.199-0.114-0.346-0.258-0.438-0.424h-0.012v1.962h-0.493V340.841z M294.406,342.32
			c0,0.156,0.023,0.3,0.072,0.431c0.049,0.134,0.119,0.248,0.212,0.349c0.092,0.099,0.203,0.177,0.332,0.232
			c0.128,0.059,0.272,0.085,0.432,0.085c0.16,0,0.305-0.026,0.433-0.085c0.128-0.056,0.239-0.134,0.332-0.232
			c0.092-0.101,0.163-0.215,0.211-0.349c0.048-0.131,0.072-0.274,0.072-0.431c0-0.157-0.024-0.301-0.072-0.435
			c-0.048-0.131-0.119-0.248-0.211-0.347c-0.092-0.098-0.203-0.176-0.332-0.231c-0.128-0.059-0.272-0.088-0.433-0.088
			c-0.16,0-0.304,0.029-0.432,0.088c-0.129,0.056-0.239,0.134-0.332,0.231c-0.093,0.099-0.163,0.216-0.212,0.347
			C294.43,342.02,294.406,342.163,294.406,342.32z"/>
		<path fill="#8E8E8E" d="M301.627,343.26c-0.177,0.229-0.371,0.386-0.581,0.477c-0.211,0.092-0.454,0.135-0.732,0.135
			c-0.231,0-0.44-0.04-0.624-0.121c-0.186-0.082-0.342-0.192-0.47-0.333c-0.129-0.138-0.228-0.304-0.297-0.493
			s-0.104-0.389-0.104-0.604c0-0.229,0.039-0.438,0.114-0.631c0.075-0.189,0.181-0.353,0.315-0.489
			c0.134-0.138,0.294-0.245,0.479-0.32c0.186-0.075,0.387-0.114,0.606-0.114c0.207,0,0.396,0.036,0.568,0.104
			c0.173,0.068,0.321,0.17,0.445,0.304s0.22,0.294,0.287,0.486c0.067,0.189,0.101,0.408,0.101,0.653v0.156h-2.385
			c0.008,0.128,0.039,0.248,0.091,0.362c0.053,0.118,0.121,0.219,0.206,0.304c0.084,0.089,0.183,0.157,0.296,0.206
			c0.113,0.052,0.237,0.075,0.372,0.075c0.215,0,0.396-0.036,0.543-0.114c0.147-0.075,0.28-0.187,0.397-0.333L301.627,343.26z
			 M301.204,342.056c-0.009-0.255-0.091-0.457-0.247-0.607s-0.371-0.229-0.644-0.229s-0.495,0.078-0.663,0.229
			s-0.27,0.353-0.303,0.607H301.204z"/>
	</g>
	<g>
		<path d="M245.352,322.02h2.622v2.125h0.058c0.33-0.736,0.903-1.333,1.719-1.79c0.815-0.456,1.757-0.685,2.826-0.685
			c0.66,0,1.296,0.102,1.907,0.306c0.612,0.204,1.146,0.519,1.603,0.946c0.456,0.428,0.82,0.977,1.092,1.646
			c0.272,0.671,0.408,1.461,0.408,2.375v8.884h-2.622v-8.155c0-0.642-0.087-1.19-0.262-1.647c-0.174-0.455-0.408-0.824-0.699-1.106
			c-0.292-0.28-0.626-0.484-1.005-0.61c-0.378-0.128-0.772-0.189-1.179-0.189c-0.544,0-1.049,0.086-1.515,0.261
			c-0.466,0.175-0.874,0.452-1.223,0.831c-0.35,0.379-0.622,0.858-0.815,1.441c-0.194,0.583-0.292,1.271-0.292,2.068v7.107h-2.622
			V322.02z"/>
		<path d="M261.606,323.709c0.738-0.679,1.592-1.189,2.563-1.529c0.97-0.34,1.942-0.51,2.913-0.51c1.009,0,1.879,0.126,2.607,0.379
			c0.728,0.252,1.325,0.593,1.792,1.019c0.466,0.428,0.811,0.918,1.034,1.471c0.223,0.554,0.334,1.132,0.334,1.733v7.049
			c0,0.486,0.01,0.933,0.029,1.341c0.019,0.407,0.048,0.796,0.087,1.165h-2.33c-0.059-0.698-0.087-1.398-0.087-2.098h-0.059
			c-0.583,0.895-1.272,1.524-2.068,1.894c-0.797,0.369-1.718,0.554-2.767,0.554c-0.641,0-1.253-0.087-1.834-0.262
			c-0.583-0.176-1.093-0.438-1.53-0.786c-0.437-0.35-0.782-0.782-1.034-1.297c-0.253-0.514-0.378-1.111-0.378-1.792
			c0-0.893,0.199-1.641,0.597-2.243c0.397-0.601,0.941-1.092,1.631-1.471c0.689-0.379,1.495-0.649,2.417-0.816
			c0.922-0.163,1.908-0.246,2.957-0.246h1.922v-0.583c0-0.349-0.069-0.698-0.204-1.048c-0.136-0.351-0.34-0.666-0.611-0.946
			c-0.273-0.283-0.612-0.507-1.02-0.671c-0.408-0.165-0.894-0.248-1.457-0.248c-0.505,0-0.947,0.049-1.325,0.146
			c-0.378,0.097-0.723,0.219-1.034,0.364c-0.311,0.145-0.592,0.314-0.845,0.509c-0.253,0.194-0.495,0.379-0.729,0.554
			L261.606,323.709z M269.004,329.186c-0.622,0-1.258,0.033-1.908,0.102s-1.242,0.199-1.777,0.394
			c-0.534,0.194-0.971,0.465-1.311,0.815c-0.34,0.35-0.509,0.795-0.509,1.339c0,0.797,0.267,1.37,0.8,1.719
			c0.534,0.35,1.258,0.524,2.17,0.524c0.718,0,1.331-0.121,1.835-0.364c0.504-0.241,0.913-0.559,1.223-0.946
			c0.311-0.388,0.535-0.82,0.67-1.297c0.135-0.475,0.204-0.946,0.204-1.412v-0.873H269.004z"/>
		<path d="M275.005,322.02h2.941l3.102,10.312h0.059l3.307-10.312h2.796l3.496,10.312h0.058l2.942-10.312h2.796l-4.457,13.807h-2.65
			l-3.656-10.312h-0.06l-3.333,10.312h-2.796L275.005,322.02z"/>
		<path d="M298.365,317.066c0-0.523,0.189-0.974,0.568-1.353c0.378-0.379,0.83-0.568,1.354-0.568s0.976,0.189,1.354,0.568
			s0.568,0.829,0.568,1.353c0,0.526-0.189,0.977-0.568,1.355s-0.83,0.568-1.354,0.568s-0.976-0.189-1.354-0.568
			C298.555,318.043,298.365,317.593,298.365,317.066z M298.978,322.02h2.622v13.807h-2.622V322.02z"/>
	</g>
	<polygon fill="#9D9D9D" points="341.436,326.699 341.436,313.471 333.289,321.312 340.161,327.927 	"/>
	<polygon fill="#9D9D9D" points="323.137,331.079 323.137,344.31 331.282,336.468 324.412,329.854 	"/>
	<polygon fill="#60276F" points="342.825,312.255 342.825,330.49 351.977,339.248 351.973,317.522 	"/>
	<polygon fill="#60276F" points="321.748,327.292 312.6,318.478 312.6,340.258 321.748,345.541 	"/>
	<polygon fill="#60276F" points="321.822,312.197 313.229,317.16 342.763,345.576 351.359,340.614 	"/>
	<g>
		<defs>
			<rect id="SVGID_1_" x="241.617" y="300.067" width="116.402" height="53.725"/>
		</defs>
		<clipPath id="SVGID_2_">
			<use xlink:href="#SVGID_1_"  overflow="visible"/>
		</clipPath>
		<g clip-path="url(#SVGID_2_)">
			<path fill="#8E8E8E" d="M278.778,249.792c0,0.539-0.138,0.947-0.414,1.228c-0.276,0.279-0.674,0.419-1.196,0.419
				c-0.291,0-0.553-0.042-0.786-0.125c-0.233-0.085-0.456-0.23-0.666-0.436l0.354-0.405c0.156,0.168,0.321,0.295,0.496,0.382
				c0.174,0.086,0.375,0.131,0.603,0.131c0.219,0,0.401-0.033,0.546-0.098c0.145-0.065,0.26-0.153,0.344-0.266
				c0.084-0.111,0.143-0.238,0.177-0.382c0.033-0.142,0.05-0.292,0.05-0.447v-0.379h-0.012c-0.118,0.189-0.272,0.328-0.46,0.417
				c-0.189,0.088-0.384,0.132-0.581,0.132c-0.232,0-0.444-0.037-0.638-0.112c-0.193-0.077-0.36-0.181-0.499-0.317
				c-0.139-0.134-0.247-0.293-0.322-0.48c-0.076-0.184-0.114-0.387-0.114-0.605c0-0.24,0.039-0.456,0.114-0.649
				c0.075-0.194,0.182-0.358,0.318-0.49c0.137-0.132,0.302-0.233,0.496-0.306c0.193-0.072,0.408-0.107,0.644-0.107
				c0.101,0,0.202,0.011,0.303,0.034c0.101,0.023,0.199,0.059,0.293,0.108c0.095,0.049,0.18,0.109,0.256,0.183
				c0.076,0.073,0.139,0.158,0.189,0.256h0.012v-0.506h0.493V249.792z M276.19,248.446c0,0.152,0.027,0.292,0.082,0.419
				c0.055,0.129,0.129,0.24,0.224,0.335c0.095,0.094,0.205,0.169,0.332,0.225c0.126,0.054,0.261,0.082,0.404,0.082
				c0.168,0,0.317-0.029,0.448-0.088c0.131-0.059,0.241-0.139,0.332-0.237c0.09-0.1,0.159-0.212,0.205-0.341
				c0.047-0.129,0.07-0.264,0.07-0.408c0-0.158-0.025-0.305-0.075-0.438c-0.051-0.132-0.123-0.248-0.215-0.344
				c-0.093-0.096-0.204-0.171-0.334-0.224c-0.131-0.052-0.273-0.08-0.429-0.08c-0.156,0-0.298,0.029-0.426,0.086
				c-0.128,0.056-0.237,0.134-0.328,0.233c-0.091,0.098-0.161,0.214-0.211,0.346C276.216,248.147,276.19,248.291,276.19,248.446z"/>
			<path fill="#8E8E8E" d="M280.88,247.671c0-0.135-0.004-0.261-0.012-0.379c-0.009-0.119-0.013-0.225-0.013-0.323h0.467
				c0,0.08,0.002,0.16,0.006,0.24s0.007,0.163,0.007,0.247h0.013c0.034-0.072,0.081-0.141,0.142-0.208
				c0.061-0.068,0.133-0.127,0.217-0.181c0.084-0.052,0.179-0.095,0.284-0.125c0.105-0.031,0.219-0.047,0.341-0.047
				c0.034,0,0.067,0.001,0.101,0.006c0.034,0.003,0.067,0.013,0.101,0.024l-0.031,0.5c-0.084-0.026-0.173-0.038-0.266-0.038
				c-0.303,0-0.523,0.098-0.659,0.292c-0.137,0.196-0.206,0.465-0.206,0.805v1.44h-0.492V247.671z"/>
			<path fill="#8E8E8E" d="M284.124,248.446c0-0.232,0.04-0.441,0.12-0.63c0.08-0.189,0.189-0.353,0.329-0.49
				c0.139-0.137,0.304-0.243,0.498-0.318c0.194-0.077,0.404-0.114,0.632-0.114c0.227,0,0.438,0.038,0.631,0.114
				c0.193,0.075,0.36,0.181,0.499,0.318c0.139,0.137,0.248,0.3,0.328,0.49c0.08,0.189,0.12,0.398,0.12,0.63s-0.04,0.442-0.12,0.632
				c-0.08,0.189-0.189,0.353-0.328,0.49c-0.139,0.135-0.306,0.242-0.499,0.318c-0.193,0.075-0.404,0.112-0.631,0.112
				c-0.228,0-0.438-0.038-0.632-0.112c-0.193-0.077-0.359-0.183-0.498-0.318c-0.14-0.137-0.249-0.3-0.329-0.49
				S284.124,248.678,284.124,248.446z M284.654,248.446c0,0.157,0.024,0.3,0.072,0.433c0.048,0.132,0.12,0.248,0.211,0.348
				c0.092,0.098,0.204,0.176,0.332,0.233c0.128,0.057,0.272,0.085,0.433,0.085s0.304-0.028,0.433-0.085
				c0.128-0.057,0.238-0.135,0.331-0.233c0.093-0.1,0.163-0.215,0.212-0.348c0.048-0.132,0.072-0.276,0.072-0.433
				c0-0.155-0.024-0.299-0.072-0.433c-0.049-0.132-0.119-0.248-0.212-0.346c-0.092-0.099-0.203-0.178-0.331-0.233
				c-0.129-0.057-0.272-0.086-0.433-0.086s-0.304,0.029-0.433,0.086c-0.128,0.056-0.239,0.134-0.332,0.233
				c-0.092,0.098-0.163,0.214-0.211,0.346C284.679,248.147,284.654,248.291,284.654,248.446z"/>
			<path fill="#8E8E8E" d="M291.812,249.223c0,0.134,0.005,0.261,0.013,0.379c0.008,0.118,0.013,0.225,0.013,0.322h-0.467
				c0-0.08-0.002-0.16-0.006-0.24s-0.006-0.162-0.006-0.247h-0.013c-0.034,0.072-0.081,0.142-0.142,0.209
				c-0.062,0.067-0.134,0.127-0.218,0.18c-0.084,0.052-0.179,0.095-0.284,0.125c-0.105,0.033-0.219,0.047-0.34,0.047
				c-0.193,0-0.361-0.029-0.502-0.088c-0.142-0.059-0.258-0.141-0.351-0.247c-0.093-0.104-0.161-0.232-0.206-0.38
				c-0.044-0.15-0.066-0.313-0.066-0.49v-1.825h0.492v1.774c0,0.248,0.055,0.444,0.165,0.587c0.109,0.142,0.279,0.214,0.511,0.214
				c0.16,0,0.298-0.028,0.413-0.082c0.116-0.056,0.21-0.132,0.284-0.233c0.075-0.101,0.129-0.222,0.164-0.361
				c0.036-0.139,0.054-0.292,0.054-0.46v-1.439h0.492V249.223z"/>
			<path fill="#8E8E8E" d="M293.913,246.969h0.493v0.429h0.012c0.134-0.16,0.291-0.284,0.47-0.372
				c0.179-0.088,0.375-0.132,0.59-0.132c0.232,0,0.443,0.039,0.634,0.118c0.192,0.077,0.355,0.186,0.49,0.325
				s0.24,0.302,0.315,0.491c0.076,0.189,0.114,0.396,0.114,0.619c0,0.224-0.039,0.429-0.114,0.619
				c-0.075,0.189-0.18,0.354-0.312,0.493c-0.133,0.139-0.29,0.247-0.471,0.325c-0.181,0.078-0.374,0.116-0.581,0.116
				c-0.265,0-0.498-0.057-0.698-0.173c-0.199-0.116-0.346-0.258-0.438-0.426h-0.012v1.964h-0.493V246.969z M294.406,248.446
				c0,0.157,0.023,0.3,0.072,0.433c0.049,0.132,0.119,0.248,0.212,0.348c0.092,0.098,0.203,0.176,0.332,0.233
				c0.128,0.057,0.272,0.085,0.432,0.085c0.16,0,0.305-0.028,0.433-0.085c0.128-0.057,0.239-0.135,0.332-0.233
				c0.092-0.1,0.163-0.215,0.211-0.348c0.048-0.132,0.072-0.276,0.072-0.433c0-0.155-0.024-0.299-0.072-0.433
				c-0.048-0.132-0.119-0.248-0.211-0.346c-0.092-0.099-0.203-0.178-0.332-0.233c-0.128-0.057-0.272-0.086-0.433-0.086
				c-0.16,0-0.304,0.029-0.432,0.086c-0.129,0.056-0.239,0.134-0.332,0.233c-0.093,0.098-0.163,0.214-0.212,0.346
				C294.43,248.147,294.406,248.291,294.406,248.446z"/>
			<path fill="#8E8E8E" d="M301.627,249.387c-0.177,0.229-0.371,0.387-0.581,0.477c-0.211,0.091-0.454,0.135-0.732,0.135
				c-0.231,0-0.44-0.041-0.624-0.122c-0.186-0.082-0.342-0.193-0.47-0.332c-0.129-0.139-0.228-0.304-0.297-0.493
				c-0.069-0.189-0.104-0.39-0.104-0.605c0-0.227,0.039-0.436,0.114-0.628c0.075-0.191,0.181-0.354,0.315-0.491
				c0.134-0.137,0.294-0.243,0.479-0.318c0.186-0.077,0.387-0.114,0.606-0.114c0.207,0,0.396,0.034,0.568,0.104
				c0.173,0.068,0.321,0.169,0.445,0.302c0.124,0.134,0.22,0.295,0.287,0.487c0.067,0.191,0.101,0.41,0.101,0.653v0.158h-2.385
				c0.008,0.125,0.039,0.247,0.091,0.362c0.053,0.116,0.121,0.217,0.206,0.304s0.183,0.155,0.296,0.206
				c0.113,0.051,0.237,0.075,0.372,0.075c0.215,0,0.396-0.038,0.543-0.114c0.147-0.075,0.28-0.186,0.397-0.334L301.627,249.387z
				 M301.204,248.182c-0.009-0.253-0.091-0.455-0.247-0.605c-0.156-0.152-0.371-0.229-0.644-0.229s-0.495,0.077-0.663,0.229
				c-0.168,0.15-0.27,0.353-0.303,0.605H301.204z"/>
		</g>
		<g clip-path="url(#SVGID_2_)">
			<path d="M245.352,228.146h2.622v2.125h0.058c0.33-0.736,0.903-1.334,1.719-1.791c0.815-0.455,1.757-0.684,2.826-0.684
				c0.66,0,1.296,0.101,1.907,0.305c0.612,0.204,1.146,0.519,1.603,0.947c0.456,0.428,0.82,0.976,1.092,1.646
				c0.272,0.671,0.408,1.461,0.408,2.375v8.883h-2.622v-8.155c0-0.642-0.087-1.19-0.262-1.647c-0.174-0.456-0.408-0.825-0.699-1.107
				c-0.292-0.281-0.626-0.485-1.005-0.61c-0.378-0.127-0.772-0.189-1.179-0.189c-0.544,0-1.049,0.086-1.515,0.261
				c-0.466,0.175-0.874,0.452-1.223,0.831c-0.35,0.378-0.622,0.858-0.815,1.441c-0.194,0.583-0.292,1.271-0.292,2.068v7.107h-2.622
				V228.146z"/>
			<path d="M261.606,229.835c0.738-0.679,1.592-1.19,2.563-1.529c0.97-0.34,1.942-0.509,2.913-0.509
				c1.009,0,1.879,0.125,2.607,0.378c0.728,0.251,1.325,0.593,1.792,1.019c0.466,0.428,0.811,0.917,1.034,1.471
				c0.223,0.553,0.334,1.131,0.334,1.733v7.049c0,0.486,0.01,0.932,0.029,1.34c0.019,0.408,0.048,0.797,0.087,1.166h-2.33
				c-0.059-0.699-0.087-1.399-0.087-2.098h-0.059c-0.583,0.895-1.272,1.525-2.068,1.894c-0.797,0.369-1.718,0.554-2.767,0.554
				c-0.641,0-1.253-0.087-1.834-0.261c-0.583-0.176-1.093-0.438-1.53-0.787c-0.437-0.349-0.782-0.782-1.034-1.296
				c-0.253-0.514-0.378-1.112-0.378-1.792c0-0.893,0.199-1.641,0.597-2.243c0.397-0.601,0.941-1.092,1.631-1.471
				c0.689-0.379,1.495-0.65,2.417-0.816c0.922-0.163,1.908-0.247,2.957-0.247h1.922v-0.583c0-0.35-0.069-0.699-0.204-1.048
				c-0.136-0.351-0.34-0.666-0.611-0.947c-0.273-0.282-0.612-0.506-1.02-0.671c-0.408-0.165-0.894-0.248-1.457-0.248
				c-0.505,0-0.947,0.049-1.325,0.147c-0.378,0.096-0.723,0.219-1.034,0.364c-0.311,0.145-0.592,0.315-0.845,0.509
				c-0.253,0.194-0.495,0.378-0.729,0.553L261.606,229.835z M269.004,235.312c-0.622,0-1.258,0.033-1.908,0.102
				c-0.65,0.068-1.242,0.199-1.777,0.393c-0.534,0.194-0.971,0.465-1.311,0.816c-0.34,0.349-0.509,0.795-0.509,1.338
				c0,0.797,0.267,1.37,0.8,1.719c0.534,0.349,1.258,0.524,2.17,0.524c0.718,0,1.331-0.121,1.835-0.364
				c0.504-0.242,0.913-0.558,1.223-0.947c0.311-0.387,0.535-0.819,0.67-1.296c0.135-0.475,0.204-0.947,0.204-1.412v-0.874H269.004z"
				/>
			<path d="M275.005,228.146h2.941l3.102,10.312h0.059l3.307-10.312h2.796l3.496,10.312h0.058l2.942-10.312h2.796l-4.457,13.807
				h-2.65l-3.656-10.312h-0.06l-3.333,10.312h-2.796L275.005,228.146z"/>
			<path d="M298.365,223.193c0-0.524,0.189-0.975,0.568-1.353c0.378-0.379,0.83-0.568,1.354-0.568s0.976,0.189,1.354,0.568
				c0.379,0.378,0.568,0.829,0.568,1.353c0,0.525-0.189,0.976-0.568,1.355c-0.379,0.378-0.83,0.568-1.354,0.568
				s-0.976-0.189-1.354-0.568C298.555,224.169,298.365,223.719,298.365,223.193z M298.978,228.146h2.622v13.807h-2.622V228.146z"/>
		</g>
	</g>
</g>
</svg>
