<?xml version="1.0" encoding="utf-8"?>
<!-- Generator: Adobe Illustrator 16.0.4, SVG Export Plug-In . SVG Version: 6.00 Build 0)  -->
<!DOCTYPE svg PUBLIC "-//W3C//DTD SVG 1.1//EN" "http://www.w3.org/Graphics/SVG/1.1/DTD/svg11.dtd">
<svg version="1.1" id="Calque_1" xmlns="http://www.w3.org/2000/svg" xmlns:xlink="http://www.w3.org/1999/xlink" x="0px" y="0px"
	 width="600px" height="600px" viewBox="0 0 600 600" enable-background="new 0 0 600 600" xml:space="preserve">
<g>
	<g>
		<path fill="#999A9A" d="M246.431,217.664c0,2.636-1.42,4.071-3.979,4.071c-1.418,0-2.557-0.375-3.587-1.387l0.873-1
			c0.765,0.827,1.591,1.264,2.714,1.264c2.185,0,2.762-1.405,2.762-2.949v-0.937h-0.031c-0.578,0.937-1.606,1.358-2.574,1.358
			c-2.293,0-3.885-1.592-3.885-3.746c0-2.386,1.56-3.836,3.885-3.836c0.982,0,2.091,0.467,2.574,1.435h0.031v-1.248h1.216
			L246.431,217.664L246.431,217.664z M242.609,216.961c1.669,0,2.605-1.247,2.605-2.65c0-1.577-1.06-2.685-2.605-2.685
			c-1.528,0-2.574,1.187-2.574,2.714C240.035,215.822,241.189,216.961,242.609,216.961z"/>
		<path fill="#999A9A" d="M251.638,212.422c0-0.672-0.061-1.25-0.061-1.731h1.154c0,0.391,0.031,0.795,0.031,1.2h0.031
			c0.329-0.719,1.233-1.387,2.434-1.387c0.156,0,0.328,0.016,0.498,0.077l-0.076,1.233c-0.204-0.064-0.438-0.094-0.657-0.094
			c-1.482,0-2.137,1.046-2.137,2.714v3.556h-1.217V212.422L251.638,212.422z"/>
		<path fill="#999A9A" d="M263.295,210.503c2.246,0,3.899,1.559,3.899,3.836c0,2.279-1.654,3.838-3.899,3.838
			c-2.247,0-3.902-1.559-3.902-3.838C259.393,212.062,261.048,210.503,263.295,210.503z M263.295,217.055
			c1.575,0,2.59-1.185,2.59-2.716c0-1.527-1.015-2.714-2.59-2.714c-1.577,0-2.59,1.187-2.59,2.714
			C260.705,215.87,261.718,217.055,263.295,217.055z"/>
		<path fill="#999A9A" d="M278.408,216.26c0,0.67,0.062,1.248,0.062,1.73h-1.156c0-0.391-0.031-0.793-0.031-1.2h-0.03
			c-0.328,0.718-1.231,1.387-2.434,1.387c-1.917,0-2.776-1.216-2.776-2.978v-4.509h1.216v4.384c0,1.217,0.532,1.981,1.671,1.981
			c1.575,0,2.261-1.139,2.261-2.808v-3.557h1.218L278.408,216.26L278.408,216.26z"/>
		<path fill="#999A9A" d="M283.616,210.69h1.216v1.059h0.031c0.672-0.779,1.562-1.246,2.622-1.246c2.294,0,3.838,1.622,3.838,3.836
			c0,2.185-1.606,3.838-3.649,3.838c-1.312,0-2.357-0.653-2.81-1.481h-0.031v4.85h-1.216L283.616,210.69L283.616,210.69z
			 M287.421,217.055c1.577,0,2.591-1.185,2.591-2.716c0-1.527-1.014-2.714-2.591-2.714c-1.575,0-2.59,1.187-2.59,2.714
			C284.832,215.87,285.847,217.055,287.421,217.055z"/>
		<path fill="#999A9A" d="M302.693,216.664c-0.858,1.109-1.889,1.514-3.246,1.514c-2.291,0-3.695-1.715-3.695-3.838
			c0-2.262,1.59-3.836,3.743-3.836c2.06,0,3.462,1.404,3.462,3.822v0.389h-5.895c0.094,1.265,1.06,2.341,2.385,2.341
			c1.047,0,1.748-0.375,2.324-1.109L302.693,216.664z M301.647,213.685c-0.048-1.232-0.858-2.059-2.2-2.059
			c-1.341,0-2.23,0.827-2.385,2.059H301.647z"/>
	</g>
	<g>
		<g>
			<path fill="#1E1E1C" d="M163.552,164.181h6.478v5.254h0.144c1.656-3.598,5.973-6.117,11.228-6.117
				c6.622,0,12.379,3.958,12.379,13.027v21.952h-6.478v-20.153c0-6.404-3.67-8.781-7.772-8.781c-5.399,0-9.501,3.456-9.501,11.374
				v17.561h-6.478V164.181L163.552,164.181z"/>
			<path fill="#1E1E1C" d="M203.717,168.355c3.599-3.383,8.782-5.037,13.532-5.037c10.077,0,14.251,5.469,14.251,11.371v17.418
				c0,2.376,0.071,4.391,0.287,6.189h-5.757c-0.144-1.727-0.217-3.454-0.217-5.183h-0.144c-2.879,4.392-6.765,6.047-11.947,6.047
				c-6.334,0-11.804-3.598-11.804-10.22c0-8.781,8.42-11.804,18.786-11.804h4.751v-1.44c0-3.525-2.592-7.197-8.133-7.197
				c-4.968,0-7.343,2.088-9.717,3.887L203.717,168.355z M222,181.886c-6.118,0-13.604,1.081-13.604,6.551
				c0,3.886,2.881,5.542,7.341,5.542c7.199,0,9.718-5.328,9.718-9.932v-2.161H222z"/>
			<path fill="#1E1E1C" d="M236.83,164.181h7.27l7.701,25.48h0.144l8.134-25.48h6.836l8.639,25.48h0.143l7.342-25.48h6.837
				l-11.012,34.116h-6.551l-8.996-25.478h-0.145l-8.133,25.478h-6.98L236.83,164.181z"/>
			<path fill="#1E1E1C" d="M299.309,147.195c2.59,0,4.75,2.159,4.75,4.75c0,2.591-2.159,4.751-4.75,4.751
				c-2.593,0-4.751-2.16-4.751-4.751C294.557,149.354,296.716,147.195,299.309,147.195z M296.069,164.181h6.476v34.116h-6.476
				V164.181z"/>
		</g>
	</g>
	<g>
		<polygon fill="#999A9A" points="400.992,175.741 400.992,143.051 380.861,162.428 397.846,178.772 		"/>
		<polygon fill="#999A9A" points="355.774,186.563 355.774,219.26 375.903,199.881 358.923,183.535 		"/>
		<g>
			<polygon fill="#60276F" points="404.427,140.048 404.427,185.109 427.042,206.751 427.033,153.063 			"/>
			<polygon fill="#60276F" points="352.34,177.205 329.736,155.424 329.736,209.249 352.34,222.3 			"/>
			<polygon fill="#60276F" points="352.525,139.909 331.291,152.169 404.272,222.388 425.515,210.129 			"/>
		</g>
	</g>
</g>
</svg>
