<?xml version="1.0" encoding="utf-8"?>
<!-- Generator: Adobe Illustrator 16.0.4, SVG Export Plug-In . SVG Version: 6.00 Build 0)  -->
<!DOCTYPE svg PUBLIC "-//W3C//DTD SVG 1.1//EN" "http://www.w3.org/Graphics/SVG/1.1/DTD/svg11.dtd">
<svg version="1.1" id="Calque_1" xmlns="http://www.w3.org/2000/svg" xmlns:xlink="http://www.w3.org/1999/xlink" x="0px" y="0px"
	 width="600px" height="600px" viewBox="0 0 600 600" enable-background="new 0 0 600 600" xml:space="preserve">
<g>
	<path fill="#9B9B9B" d="M124.516,263.215c0.169-0.034,0.344-0.06,0.523-0.077c0.178-0.017,0.361-0.025,0.548-0.025
		c0.17,0,0.349,0.009,0.536,0.025c0.187,0.017,0.366,0.042,0.536,0.077c0.017,0.034,0.039,0.14,0.064,0.319s0.051,0.37,0.077,0.574
		s0.051,0.4,0.077,0.587c0.025,0.188,0.038,0.306,0.038,0.357c0.17-0.272,0.374-0.536,0.612-0.791
		c0.238-0.255,0.523-0.485,0.854-0.689s0.706-0.365,1.123-0.485c0.417-0.119,0.88-0.178,1.391-0.178c0.765,0,1.475,0.127,2.13,0.382
		c0.655,0.255,1.216,0.651,1.684,1.187c0.467,0.536,0.833,1.216,1.097,2.041c0.264,0.825,0.396,1.798,0.396,2.921
		c0,2.245-0.608,4.001-1.824,5.268c-1.216,1.268-2.938,1.901-5.167,1.901c-0.374,0-0.757-0.025-1.148-0.077
		c-0.392-0.051-0.731-0.119-1.021-0.204v5.996c-0.204,0.034-0.421,0.059-0.65,0.076s-0.438,0.026-0.625,0.026
		c-0.188,0-0.396-0.009-0.625-0.026c-0.23-0.017-0.438-0.042-0.625-0.076V263.215z M127.041,274.159
		c0.323,0.119,0.655,0.204,0.995,0.255c0.34,0.051,0.782,0.076,1.327,0.076c0.612,0,1.173-0.098,1.684-0.293
		c0.51-0.196,0.948-0.498,1.314-0.906c0.366-0.408,0.654-0.922,0.867-1.543c0.212-0.621,0.319-1.356,0.319-2.207
		c0-1.36-0.251-2.44-0.752-3.24c-0.502-0.799-1.323-1.199-2.462-1.199c-0.425,0-0.833,0.077-1.225,0.229
		c-0.391,0.153-0.74,0.383-1.046,0.689s-0.553,0.693-0.74,1.161c-0.188,0.468-0.281,1.025-0.281,1.671V274.159z"/>
	<path fill="#9B9B9B" d="M144.899,276.608c-1.02,0-1.913-0.175-2.679-0.523c-0.765-0.349-1.403-0.829-1.913-1.441
		s-0.889-1.335-1.135-2.168c-0.247-0.833-0.37-1.735-0.37-2.705c0-0.969,0.123-1.871,0.37-2.704
		c0.246-0.833,0.625-1.556,1.135-2.168s1.148-1.097,1.913-1.454c0.766-0.357,1.659-0.536,2.679-0.536
		c1.021,0,1.914,0.178,2.679,0.536c0.765,0.357,1.403,0.842,1.913,1.454s0.889,1.335,1.135,2.168c0.247,0.833,0.37,1.735,0.37,2.704
		c0,0.97-0.124,1.872-0.37,2.705c-0.247,0.833-0.625,1.556-1.135,2.168s-1.148,1.093-1.913,1.441
		C146.812,276.434,145.919,276.608,144.899,276.608z M144.899,274.593c1.174,0,2.041-0.425,2.603-1.275
		c0.561-0.85,0.842-2.032,0.842-3.546c0-1.513-0.281-2.691-0.842-3.533c-0.562-0.842-1.429-1.263-2.603-1.263
		c-1.173,0-2.037,0.421-2.589,1.263s-0.829,2.02-0.829,3.533c0,1.514,0.276,2.696,0.829,3.546
		C142.862,274.168,143.726,274.593,144.899,274.593z"/>
	<path fill="#9B9B9B" d="M154.16,263.215c0.187-0.034,0.399-0.06,0.638-0.077c0.238-0.017,0.442-0.025,0.612-0.025
		c0.187,0,0.399,0.009,0.638,0.025c0.238,0.017,0.45,0.042,0.638,0.077v7.168c0,0.816,0.077,1.493,0.229,2.028
		c0.153,0.536,0.383,0.957,0.689,1.263s0.68,0.519,1.123,0.638c0.442,0.119,0.952,0.178,1.531,0.178c0.867,0,1.607-0.093,2.219-0.28
		v-10.996c0.187-0.034,0.396-0.06,0.625-0.077c0.23-0.017,0.438-0.025,0.625-0.025s0.396,0.009,0.625,0.025
		c0.229,0.017,0.438,0.042,0.625,0.077v12.679c-0.596,0.17-1.306,0.332-2.13,0.485c-0.825,0.153-1.68,0.229-2.564,0.229
		c-0.833,0-1.62-0.073-2.36-0.217c-0.74-0.145-1.391-0.438-1.952-0.88c-0.561-0.442-1.004-1.062-1.327-1.862
		c-0.323-0.799-0.485-1.854-0.485-3.164V263.215z"/>
	<path fill="#9B9B9B" d="M168.957,263.215c0.187-0.034,0.365-0.06,0.536-0.077c0.17-0.017,0.349-0.025,0.536-0.025
		s0.374,0.009,0.562,0.025c0.187,0.017,0.357,0.042,0.51,0.077c0.051,0.255,0.102,0.591,0.153,1.007
		c0.051,0.417,0.077,0.77,0.077,1.059c0.357-0.578,0.829-1.08,1.416-1.505c0.586-0.425,1.339-0.638,2.258-0.638
		c0.136,0,0.276,0.004,0.421,0.013c0.144,0.009,0.268,0.021,0.37,0.038c0.034,0.153,0.06,0.315,0.077,0.485
		c0.017,0.17,0.025,0.349,0.025,0.536c0,0.204-0.013,0.417-0.038,0.638s-0.055,0.434-0.089,0.638
		c-0.136-0.034-0.276-0.051-0.421-0.051s-0.259,0-0.344,0c-0.459,0-0.897,0.064-1.314,0.191c-0.417,0.127-0.791,0.353-1.123,0.676
		s-0.596,0.765-0.791,1.327c-0.196,0.561-0.293,1.284-0.293,2.168v6.505c-0.187,0.034-0.395,0.06-0.625,0.077
		c-0.229,0.017-0.438,0.025-0.625,0.025s-0.396-0.009-0.625-0.025c-0.229-0.017-0.446-0.043-0.65-0.077V263.215z"/>
	<path fill="#9B9B9B" d="M193.218,274.032c0.136,0.238,0.255,0.536,0.357,0.893c0.102,0.357,0.162,0.723,0.179,1.097
		c-1.004,0.391-2.152,0.587-3.444,0.587c-2.177,0-3.818-0.616-4.923-1.85c-1.106-1.233-1.659-2.896-1.659-4.988
		c0-0.969,0.136-1.871,0.408-2.704c0.272-0.833,0.676-1.556,1.212-2.168s1.203-1.097,2.003-1.454
		c0.799-0.357,1.726-0.536,2.781-0.536c0.714,0,1.343,0.042,1.888,0.127c0.544,0.085,1.063,0.221,1.556,0.408
		c0,0.29-0.038,0.625-0.115,1.008c-0.077,0.382-0.183,0.719-0.319,1.008c-0.833-0.289-1.786-0.434-2.857-0.434
		c-1.31,0-2.288,0.434-2.934,1.301c-0.647,0.867-0.97,2.016-0.97,3.444c0,1.633,0.366,2.828,1.097,3.584
		c0.731,0.757,1.735,1.135,3.01,1.135c0.51,0,0.982-0.034,1.416-0.102C192.338,274.321,192.776,274.202,193.218,274.032z"/>
	<path fill="#9B9B9B" d="M201.611,276.608c-1.02,0-1.913-0.175-2.679-0.523c-0.765-0.349-1.403-0.829-1.913-1.441
		s-0.889-1.335-1.135-2.168c-0.247-0.833-0.37-1.735-0.37-2.705c0-0.969,0.123-1.871,0.37-2.704
		c0.246-0.833,0.625-1.556,1.135-2.168s1.148-1.097,1.913-1.454c0.766-0.357,1.659-0.536,2.679-0.536
		c1.021,0,1.914,0.178,2.679,0.536c0.765,0.357,1.403,0.842,1.913,1.454s0.889,1.335,1.135,2.168c0.247,0.833,0.37,1.735,0.37,2.704
		c0,0.97-0.124,1.872-0.37,2.705c-0.247,0.833-0.625,1.556-1.135,2.168s-1.148,1.093-1.913,1.441
		C203.524,276.434,202.631,276.608,201.611,276.608z M201.611,274.593c1.174,0,2.041-0.425,2.603-1.275
		c0.561-0.85,0.842-2.032,0.842-3.546c0-1.513-0.281-2.691-0.842-3.533c-0.562-0.842-1.429-1.263-2.603-1.263
		c-1.173,0-2.037,0.421-2.589,1.263s-0.829,2.02-0.829,3.533c0,1.514,0.276,2.696,0.829,3.546
		C199.574,274.168,200.438,274.593,201.611,274.593z"/>
	<path fill="#9B9B9B" d="M211.025,263.215c0.187-0.034,0.37-0.06,0.548-0.077c0.179-0.017,0.361-0.025,0.549-0.025
		c0.187,0,0.361,0.009,0.523,0.025c0.161,0.017,0.335,0.042,0.523,0.077c0.051,0.255,0.102,0.6,0.153,1.033
		c0.051,0.434,0.077,0.795,0.077,1.084c0.17-0.289,0.387-0.578,0.65-0.867c0.264-0.289,0.565-0.548,0.906-0.778
		c0.34-0.229,0.731-0.417,1.173-0.561s0.927-0.217,1.455-0.217c1.496,0,2.602,0.43,3.316,1.288c0.714,0.859,1.071,2.13,1.071,3.814
		v8.292c-0.187,0.034-0.399,0.06-0.638,0.077c-0.238,0.017-0.451,0.025-0.638,0.025c-0.188,0-0.396-0.009-0.625-0.025
		c-0.229-0.017-0.438-0.043-0.625-0.077V268.7c0-1.208-0.188-2.096-0.562-2.666c-0.374-0.569-0.969-0.854-1.786-0.854
		c-0.477,0-0.927,0.085-1.352,0.255c-0.425,0.17-0.8,0.434-1.123,0.791c-0.323,0.357-0.583,0.821-0.778,1.39
		c-0.196,0.57-0.293,1.255-0.293,2.054v6.633c-0.187,0.034-0.395,0.06-0.625,0.077c-0.229,0.017-0.438,0.025-0.625,0.025
		s-0.4-0.009-0.638-0.025c-0.238-0.017-0.451-0.043-0.638-0.077V263.215z"/>
	<path fill="#9B9B9B" d="M225.541,273.93c0.459,0.188,0.965,0.336,1.518,0.446c0.553,0.111,1.101,0.166,1.646,0.166
		c0.391,0,0.766-0.042,1.123-0.127c0.357-0.085,0.667-0.212,0.931-0.383c0.264-0.17,0.476-0.378,0.638-0.625
		c0.161-0.247,0.242-0.523,0.242-0.829c0-0.34-0.064-0.621-0.191-0.842s-0.298-0.408-0.51-0.562
		c-0.213-0.153-0.459-0.285-0.74-0.396c-0.281-0.11-0.583-0.217-0.906-0.319l-0.893-0.332c-1.088-0.408-1.879-0.867-2.373-1.377
		s-0.74-1.199-0.74-2.067c0-1.156,0.412-2.075,1.237-2.755c0.825-0.68,2.037-1.021,3.636-1.021c0.663,0,1.313,0.063,1.952,0.191
		c0.638,0.127,1.194,0.276,1.671,0.446c-0.034,0.34-0.098,0.68-0.191,1.021c-0.094,0.34-0.208,0.655-0.344,0.944
		c-0.375-0.136-0.821-0.268-1.339-0.396c-0.519-0.127-1.076-0.191-1.671-0.191c-0.629,0-1.186,0.111-1.671,0.332
		s-0.727,0.612-0.727,1.173c0,0.29,0.06,0.536,0.179,0.74c0.119,0.204,0.28,0.379,0.484,0.523c0.204,0.145,0.438,0.268,0.702,0.37
		s0.549,0.204,0.855,0.306l1.122,0.383c0.408,0.136,0.795,0.297,1.161,0.484c0.365,0.188,0.68,0.421,0.944,0.702
		s0.476,0.621,0.638,1.021c0.162,0.4,0.243,0.88,0.243,1.441c0,0.629-0.128,1.204-0.383,1.722c-0.255,0.519-0.617,0.961-1.084,1.327
		s-1.033,0.65-1.696,0.854c-0.664,0.204-1.395,0.306-2.194,0.306c-0.816,0-1.531-0.055-2.143-0.166
		c-0.612-0.111-1.183-0.259-1.709-0.446c0.034-0.34,0.106-0.685,0.217-1.033C225.281,274.614,225.404,274.27,225.541,273.93z"/>
	<path fill="#9B9B9B" d="M242.684,276.608c-1.02,0-1.913-0.175-2.679-0.523c-0.765-0.349-1.403-0.829-1.913-1.441
		s-0.889-1.335-1.135-2.168c-0.247-0.833-0.37-1.735-0.37-2.705c0-0.969,0.123-1.871,0.37-2.704
		c0.246-0.833,0.625-1.556,1.135-2.168s1.148-1.097,1.913-1.454c0.766-0.357,1.659-0.536,2.679-0.536
		c1.021,0,1.914,0.178,2.679,0.536c0.765,0.357,1.403,0.842,1.913,1.454s0.889,1.335,1.135,2.168c0.247,0.833,0.37,1.735,0.37,2.704
		c0,0.97-0.124,1.872-0.37,2.705c-0.247,0.833-0.625,1.556-1.135,2.168s-1.148,1.093-1.913,1.441
		C244.598,276.434,243.705,276.608,242.684,276.608z M242.684,274.593c1.174,0,2.041-0.425,2.603-1.275
		c0.561-0.85,0.842-2.032,0.842-3.546c0-1.513-0.281-2.691-0.842-3.533c-0.562-0.842-1.429-1.263-2.603-1.263
		c-1.173,0-2.037,0.421-2.589,1.263s-0.829,2.02-0.829,3.533c0,1.514,0.276,2.696,0.829,3.546
		C240.647,274.168,241.511,274.593,242.684,274.593z"/>
	<path fill="#9B9B9B" d="M252.047,257.602c0.187-0.034,0.396-0.06,0.625-0.077c0.23-0.017,0.438-0.025,0.625-0.025
		c0.187,0,0.395,0.009,0.625,0.025c0.229,0.017,0.438,0.043,0.625,0.077v14.746c0,0.476,0.042,0.851,0.127,1.122
		c0.085,0.272,0.2,0.481,0.344,0.625s0.314,0.238,0.51,0.28c0.195,0.043,0.404,0.064,0.625,0.064c0.153,0,0.328-0.008,0.523-0.025
		s0.361-0.042,0.498-0.077c0.153,0.596,0.229,1.242,0.229,1.939c-0.238,0.085-0.527,0.14-0.867,0.166
		c-0.34,0.026-0.655,0.039-0.944,0.039c-0.494,0-0.953-0.06-1.378-0.179s-0.799-0.314-1.122-0.587
		c-0.324-0.271-0.579-0.638-0.766-1.097c-0.188-0.459-0.281-1.029-0.281-1.709V257.602z"/>
	<path fill="#9B9B9B" d="M260.465,265.205h-1.658c-0.034-0.136-0.06-0.293-0.077-0.472c-0.017-0.178-0.025-0.353-0.025-0.523
		c0-0.169,0.008-0.344,0.025-0.523c0.017-0.178,0.042-0.335,0.077-0.472h4.133v13.087c-0.187,0.034-0.395,0.06-0.625,0.077
		c-0.229,0.017-0.438,0.025-0.625,0.025c-0.17,0-0.37-0.009-0.6-0.025c-0.229-0.017-0.438-0.043-0.625-0.077V265.205z
		 M259.904,260.332c-0.034-0.204-0.056-0.425-0.064-0.664c-0.009-0.238-0.013-0.45-0.013-0.638c0-0.187,0.004-0.399,0.013-0.638
		c0.008-0.238,0.03-0.451,0.064-0.638c0.221-0.034,0.459-0.06,0.714-0.077c0.255-0.017,0.476-0.025,0.663-0.025
		s0.408,0.009,0.664,0.025c0.255,0.017,0.484,0.042,0.688,0.077c0.034,0.187,0.055,0.399,0.064,0.638
		c0.008,0.238,0.013,0.451,0.013,0.638c0,0.188-0.004,0.4-0.013,0.638c-0.009,0.238-0.03,0.459-0.064,0.664
		c-0.204,0.034-0.43,0.06-0.676,0.076c-0.247,0.017-0.464,0.026-0.651,0.026c-0.204,0-0.434-0.009-0.688-0.026
		C260.363,260.392,260.125,260.366,259.904,260.332z"/>
	<path fill="#9B9B9B" d="M275.441,257.602c0.187-0.034,0.399-0.06,0.638-0.077c0.238-0.017,0.442-0.025,0.612-0.025
		c0.187,0,0.396,0.009,0.625,0.025c0.229,0.017,0.438,0.043,0.625,0.077v18.343c-0.646,0.187-1.369,0.344-2.168,0.472
		c-0.8,0.127-1.693,0.191-2.679,0.191c-0.918,0-1.791-0.115-2.615-0.344c-0.825-0.23-1.543-0.608-2.156-1.135
		s-1.097-1.208-1.454-2.041c-0.357-0.833-0.536-1.862-0.536-3.087c0-1.055,0.157-2.016,0.472-2.883
		c0.315-0.868,0.761-1.611,1.34-2.232c0.578-0.621,1.271-1.101,2.079-1.441c0.808-0.34,1.705-0.51,2.691-0.51
		c0.442,0,0.889,0.034,1.339,0.102c0.45,0.068,0.846,0.153,1.187,0.255V257.602z M275.441,265.434
		c-0.341-0.136-0.706-0.238-1.097-0.306c-0.392-0.067-0.816-0.102-1.276-0.102c-0.697,0-1.301,0.128-1.811,0.383
		c-0.51,0.255-0.931,0.604-1.263,1.046c-0.332,0.442-0.579,0.965-0.74,1.569c-0.162,0.604-0.242,1.263-0.242,1.978
		c0.017,1.616,0.399,2.772,1.148,3.469c0.748,0.698,1.769,1.046,3.062,1.046c0.442,0,0.85-0.021,1.225-0.064
		c0.374-0.042,0.706-0.106,0.995-0.191V265.434z"/>
	<path fill="#9B9B9B" d="M283.885,270.383c0.034,1.429,0.404,2.475,1.11,3.138c0.706,0.663,1.748,0.995,3.125,0.995
		c1.208,0,2.355-0.213,3.444-0.638c0.136,0.255,0.246,0.566,0.332,0.931c0.085,0.366,0.136,0.728,0.153,1.084
		c-0.562,0.238-1.178,0.417-1.85,0.536c-0.672,0.119-1.416,0.179-2.232,0.179c-1.191,0-2.211-0.166-3.062-0.498
		c-0.851-0.332-1.552-0.799-2.104-1.403c-0.553-0.604-0.957-1.317-1.212-2.143c-0.255-0.825-0.383-1.73-0.383-2.717
		c0-0.969,0.123-1.875,0.37-2.717c0.246-0.842,0.625-1.573,1.135-2.194c0.51-0.621,1.152-1.114,1.926-1.479
		c0.773-0.366,1.688-0.548,2.742-0.548c0.901,0,1.692,0.153,2.373,0.459s1.25,0.727,1.709,1.263
		c0.459,0.536,0.808,1.174,1.046,1.914c0.238,0.74,0.357,1.543,0.357,2.411c0,0.238-0.009,0.489-0.026,0.752
		s-0.034,0.489-0.051,0.676H283.885z M290.365,268.496c0-0.476-0.063-0.931-0.191-1.365c-0.127-0.434-0.315-0.812-0.561-1.135
		c-0.247-0.323-0.562-0.583-0.944-0.778c-0.383-0.195-0.838-0.293-1.365-0.293c-1.038,0-1.833,0.315-2.385,0.944
		c-0.553,0.63-0.889,1.505-1.008,2.628H290.365z"/>
	<path fill="#9B9B9B" d="M296.182,263.215c0.187-0.034,0.365-0.06,0.536-0.077c0.17-0.017,0.349-0.025,0.536-0.025
		s0.374,0.009,0.562,0.025c0.187,0.017,0.357,0.042,0.51,0.077c0.051,0.255,0.102,0.591,0.153,1.007
		c0.051,0.417,0.077,0.77,0.077,1.059c0.357-0.578,0.829-1.08,1.416-1.505c0.586-0.425,1.339-0.638,2.258-0.638
		c0.135,0,0.275,0.004,0.42,0.013c0.145,0.009,0.268,0.021,0.37,0.038c0.034,0.153,0.06,0.315,0.077,0.485
		c0.016,0.17,0.025,0.349,0.025,0.536c0,0.204-0.014,0.417-0.039,0.638s-0.055,0.434-0.089,0.638
		c-0.136-0.034-0.276-0.051-0.421-0.051s-0.26,0-0.344,0c-0.46,0-0.898,0.064-1.314,0.191c-0.417,0.127-0.791,0.353-1.123,0.676
		s-0.596,0.765-0.791,1.327c-0.196,0.561-0.293,1.284-0.293,2.168v6.505c-0.187,0.034-0.395,0.06-0.625,0.077
		c-0.229,0.017-0.438,0.025-0.625,0.025s-0.396-0.009-0.625-0.025c-0.229-0.017-0.446-0.043-0.65-0.077V263.215z"/>
</g>
</svg>
