<?xml version="1.0" encoding="utf-8"?>
<!-- Generator: Adobe Illustrator 16.0.4, SVG Export Plug-In . SVG Version: 6.00 Build 0)  -->
<!DOCTYPE svg PUBLIC "-//W3C//DTD SVG 1.1//EN" "http://www.w3.org/Graphics/SVG/1.1/DTD/svg11.dtd">
<svg version="1.1" id="Calque_1" xmlns="http://www.w3.org/2000/svg" xmlns:xlink="http://www.w3.org/1999/xlink" x="0px" y="0px"
	 width="600px" height="600px" viewBox="0 0 600 600" enable-background="new 0 0 600 600" xml:space="preserve">
<g>
	<path fill="#FFFFFF" d="M124.255,287.112c0.544-0.068,1.134-0.102,1.769-0.102c0.612,0,1.179,0.034,1.701,0.102v13.878
		c0,1.406,0.09,2.609,0.272,3.605c0.181,0.998,0.476,1.809,0.884,2.434c0.408,0.623,0.947,1.082,1.616,1.377
		s1.491,0.441,2.466,0.441s1.791-0.146,2.449-0.441c0.657-0.295,1.19-0.754,1.599-1.377c0.408-0.625,0.703-1.436,0.884-2.434
		c0.181-0.996,0.272-2.199,0.272-3.605v-13.878c0.567-0.068,1.145-0.102,1.735-0.102c0.635,0,1.225,0.034,1.769,0.102v14.492
		c0,1.633-0.153,3.096-0.459,4.388c-0.306,1.292-0.805,2.382-1.497,3.266c-0.692,0.884-1.593,1.56-2.704,2.024
		c-1.111,0.464-2.461,0.697-4.048,0.697c-1.588,0-2.937-0.233-4.048-0.697c-1.111-0.465-2.013-1.141-2.705-2.024
		c-0.692-0.883-1.19-1.974-1.497-3.266c-0.307-1.292-0.459-2.755-0.459-4.388L124.255,287.112L124.255,287.112z"/>
	<path fill="#FFFFFF" d="M147.147,294.12c0.25-0.045,0.493-0.079,0.731-0.102c0.238-0.022,0.481-0.034,0.731-0.034
		c0.249,0,0.481,0.012,0.697,0.034c0.215,0.023,0.447,0.057,0.697,0.102c0.068,0.34,0.136,0.799,0.204,1.378
		c0.068,0.578,0.102,1.06,0.102,1.445c0.227-0.385,0.516-0.771,0.867-1.156c0.352-0.385,0.754-0.731,1.208-1.038
		c0.454-0.307,0.975-0.555,1.565-0.749c0.589-0.192,1.236-0.289,1.939-0.289c1.995,0,3.47,0.573,4.422,1.718
		c0.953,1.146,1.429,2.84,1.429,5.084v11.057c-0.25,0.045-0.533,0.078-0.85,0.102c-0.318,0.021-0.602,0.034-0.851,0.034
		c-0.25,0-0.527-0.013-0.833-0.034c-0.306-0.023-0.584-0.057-0.833-0.102v-10.137c0-1.61-0.25-2.795-0.748-3.556
		c-0.499-0.759-1.293-1.14-2.381-1.14c-0.635,0-1.236,0.114-1.803,0.34c-0.567,0.227-1.066,0.578-1.497,1.055
		c-0.431,0.476-0.777,1.094-1.038,1.854c-0.261,0.761-0.391,1.673-0.391,2.738v8.846c-0.25,0.045-0.527,0.078-0.833,0.102
		c-0.306,0.021-0.584,0.034-0.833,0.034s-0.533-0.013-0.85-0.034c-0.318-0.023-0.601-0.057-0.851-0.102V294.12L147.147,294.12z"/>
	<path fill="#FFFFFF" d="M169.325,303.678c0.045,1.905,0.539,3.301,1.48,4.186c0.94,0.884,2.33,1.326,4.167,1.326
		c1.61,0,3.141-0.283,4.592-0.852c0.181,0.342,0.329,0.754,0.442,1.242c0.113,0.488,0.181,0.969,0.204,1.445
		c-0.749,0.317-1.571,0.556-2.466,0.715c-0.896,0.158-1.888,0.238-2.976,0.238c-1.588,0-2.948-0.223-4.082-0.664
		c-1.134-0.441-2.07-1.065-2.806-1.871c-0.737-0.805-1.276-1.758-1.616-2.857c-0.34-1.1-0.51-2.307-0.51-3.622
		c0-1.292,0.164-2.5,0.493-3.623c0.328-1.123,0.833-2.098,1.514-2.925c0.68-0.828,1.536-1.485,2.568-1.973
		c1.032-0.487,2.25-0.731,3.657-0.731c1.202,0,2.256,0.204,3.164,0.612c0.907,0.408,1.667,0.97,2.279,1.684
		c0.612,0.714,1.077,1.564,1.395,2.551c0.317,0.987,0.476,2.059,0.476,3.214c0,0.318-0.012,0.652-0.034,1.004
		c-0.022,0.353-0.045,0.652-0.068,0.9H169.325L169.325,303.678z M177.965,301.161c0-0.636-0.085-1.242-0.255-1.82
		c-0.17-0.579-0.42-1.083-0.749-1.514c-0.329-0.431-0.749-0.777-1.259-1.038c-0.51-0.26-1.117-0.391-1.82-0.391
		c-1.383,0-2.444,0.42-3.18,1.258c-0.737,0.839-1.186,2.007-1.344,3.504L177.965,301.161L177.965,301.161z"/>
	<path fill="#FFFFFF" d="M193.782,294.12c0.25-0.045,0.493-0.079,0.731-0.102c0.238-0.022,0.481-0.034,0.731-0.034
		c0.249,0,0.481,0.012,0.697,0.034c0.215,0.023,0.447,0.057,0.697,0.102c0.068,0.34,0.136,0.799,0.204,1.378
		c0.068,0.578,0.102,1.06,0.102,1.445c0.227-0.385,0.516-0.771,0.867-1.156c0.352-0.385,0.754-0.731,1.208-1.038
		s0.975-0.555,1.565-0.749c0.589-0.192,1.236-0.289,1.939-0.289c1.995,0,3.47,0.573,4.422,1.718c0.953,1.146,1.429,2.84,1.429,5.084
		v11.057c-0.25,0.045-0.533,0.078-0.85,0.102c-0.318,0.021-0.602,0.034-0.851,0.034c-0.25,0-0.527-0.013-0.833-0.034
		c-0.306-0.023-0.584-0.057-0.833-0.102v-10.137c0-1.61-0.25-2.795-0.748-3.556c-0.499-0.759-1.293-1.14-2.381-1.14
		c-0.635,0-1.236,0.114-1.803,0.34c-0.567,0.227-1.066,0.578-1.497,1.055c-0.431,0.476-0.777,1.094-1.038,1.854
		c-0.261,0.761-0.391,1.673-0.391,2.738v8.846c-0.25,0.045-0.527,0.078-0.833,0.102c-0.306,0.021-0.584,0.034-0.833,0.034
		s-0.533-0.013-0.85-0.034c-0.318-0.023-0.601-0.057-0.851-0.102V294.12L193.782,294.12z"/>
	<path fill="#FFFFFF" d="M220.518,311.979c-1.36,0-2.551-0.232-3.571-0.696c-1.021-0.466-1.871-1.105-2.551-1.923
		c-0.681-0.815-1.186-1.78-1.514-2.893c-0.329-1.109-0.493-2.312-0.493-3.605c0-1.291,0.164-2.493,0.493-3.604
		c0.328-1.111,0.833-2.075,1.514-2.892c0.68-0.816,1.531-1.462,2.551-1.939c1.02-0.476,2.211-0.714,3.571-0.714
		c1.361,0,2.551,0.238,3.572,0.714c1.021,0.477,1.871,1.123,2.551,1.939c0.68,0.816,1.185,1.781,1.514,2.892
		c0.329,1.111,0.493,2.313,0.493,3.604c0,1.293-0.165,2.496-0.493,3.605c-0.329,1.111-0.833,2.076-1.514,2.893
		c-0.681,0.818-1.531,1.457-2.551,1.923C223.069,311.745,221.879,311.979,220.518,311.979z M220.518,309.291
		c1.565,0,2.721-0.566,3.47-1.701c0.749-1.133,1.123-2.709,1.123-4.729c0-2.019-0.374-3.588-1.123-4.711
		c-0.749-1.122-1.905-1.684-3.47-1.684c-1.564,0-2.716,0.562-3.453,1.684c-0.737,1.123-1.105,2.693-1.105,4.711
		c0,2.02,0.369,3.596,1.105,4.729C217.802,308.725,218.954,309.291,220.518,309.291z"/>
	<path fill="#FFFFFF" d="M232.866,294.12c0.25-0.045,0.533-0.079,0.851-0.102c0.317-0.022,0.589-0.034,0.816-0.034
		c0.249,0,0.532,0.012,0.85,0.034c0.317,0.023,0.601,0.057,0.851,0.102v9.558c0,1.09,0.102,1.99,0.306,2.705s0.51,1.275,0.918,1.684
		c0.408,0.41,0.907,0.691,1.497,0.851c0.589,0.16,1.27,0.237,2.041,0.237c1.156,0,2.143-0.123,2.959-0.372V294.12
		c0.249-0.045,0.527-0.079,0.833-0.102c0.306-0.022,0.584-0.034,0.833-0.034s0.527,0.012,0.833,0.034
		c0.306,0.023,0.583,0.057,0.833,0.102v16.905c-0.794,0.228-1.741,0.442-2.84,0.646c-1.1,0.204-2.24,0.307-3.418,0.307
		c-1.111,0-2.16-0.098-3.146-0.289c-0.987-0.192-1.854-0.584-2.603-1.174c-0.748-0.59-1.338-1.418-1.769-2.482
		c-0.431-1.065-0.646-2.473-0.646-4.219v-9.694H232.866z"/>
	<path fill="#FFFFFF" d="M250.452,294.12c0.317-0.045,0.646-0.079,0.987-0.102c0.34-0.022,0.646-0.034,0.918-0.034
		c0.295,0,0.618,0.012,0.97,0.034c0.351,0.023,0.651,0.057,0.901,0.102l4.762,14.388l4.796-14.388
		c0.249-0.045,0.532-0.079,0.85-0.102c0.317-0.022,0.624-0.034,0.918-0.034c0.25,0,0.533,0.012,0.851,0.034
		c0.317,0.023,0.634,0.057,0.952,0.102l-6.803,17.45c-0.295,0.046-0.59,0.078-0.885,0.103c-0.295,0.022-0.567,0.034-0.816,0.034
		s-0.516-0.012-0.799-0.034c-0.284-0.022-0.561-0.057-0.833-0.103L250.452,294.12z"/>
	<path fill="#FFFFFF" d="M272.494,303.678c0.045,1.905,0.539,3.301,1.48,4.186c0.94,0.884,2.33,1.326,4.167,1.326
		c1.61,0,3.141-0.283,4.592-0.852c0.181,0.342,0.329,0.754,0.442,1.242c0.113,0.488,0.181,0.969,0.204,1.445
		c-0.749,0.317-1.571,0.556-2.466,0.715c-0.896,0.158-1.888,0.238-2.976,0.238c-1.588,0-2.948-0.223-4.082-0.664
		s-2.07-1.065-2.806-1.871c-0.737-0.805-1.276-1.758-1.616-2.857c-0.34-1.1-0.51-2.307-0.51-3.622c0-1.292,0.164-2.5,0.493-3.623
		c0.328-1.123,0.833-2.098,1.514-2.925c0.68-0.828,1.536-1.485,2.568-1.973c1.032-0.487,2.25-0.731,3.657-0.731
		c1.202,0,2.256,0.204,3.164,0.612c0.907,0.408,1.667,0.97,2.279,1.684c0.612,0.714,1.077,1.564,1.395,2.551
		c0.317,0.987,0.476,2.059,0.476,3.214c0,0.318-0.012,0.652-0.034,1.004c-0.022,0.353-0.045,0.652-0.068,0.9H272.494
		L272.494,303.678z M281.134,301.161c0-0.636-0.085-1.242-0.255-1.82c-0.17-0.579-0.42-1.083-0.749-1.514
		c-0.329-0.431-0.749-0.777-1.259-1.038c-0.51-0.26-1.117-0.391-1.82-0.391c-1.383,0-2.444,0.42-3.18,1.258
		c-0.737,0.839-1.186,2.007-1.344,3.504L281.134,301.161L281.134,301.161z"/>
	<path fill="#FFFFFF" d="M288.821,286.636c0.249-0.045,0.527-0.079,0.833-0.102c0.306-0.022,0.583-0.034,0.833-0.034
		s0.527,0.012,0.833,0.034c0.306,0.023,0.583,0.057,0.833,0.102v19.661c0,0.637,0.056,1.135,0.17,1.497
		c0.113,0.363,0.267,0.642,0.459,0.833c0.192,0.193,0.419,0.318,0.68,0.375c0.26,0.057,0.539,0.085,0.833,0.085
		c0.204,0,0.436-0.011,0.697-0.034c0.26-0.021,0.481-0.057,0.663-0.102c0.204,0.793,0.306,1.654,0.306,2.584
		c-0.318,0.113-0.703,0.188-1.156,0.222c-0.454,0.034-0.874,0.052-1.259,0.052c-0.658,0-1.27-0.08-1.837-0.238
		c-0.567-0.157-1.066-0.42-1.497-0.782c-0.431-0.362-0.771-0.851-1.021-1.463c-0.25-0.611-0.374-1.371-0.374-2.278v-20.411H288.821z
		"/>
	<path fill="#FFFFFF" d="M298.958,286.636c0.249-0.045,0.527-0.079,0.833-0.102c0.306-0.022,0.583-0.034,0.833-0.034
		c0.249,0,0.527,0.012,0.833,0.034c0.306,0.023,0.583,0.057,0.833,0.102v19.661c0,0.637,0.057,1.135,0.17,1.497
		c0.113,0.363,0.269,0.642,0.46,0.833c0.192,0.193,0.419,0.318,0.681,0.375c0.261,0.057,0.538,0.085,0.833,0.085
		c0.204,0,0.438-0.011,0.697-0.034c0.261-0.021,0.481-0.057,0.663-0.102c0.204,0.793,0.307,1.654,0.307,2.584
		c-0.317,0.113-0.702,0.188-1.155,0.222c-0.455,0.034-0.874,0.052-1.261,0.052c-0.656,0-1.27-0.08-1.836-0.238
		c-0.566-0.157-1.065-0.42-1.497-0.782c-0.431-0.362-0.771-0.851-1.021-1.463c-0.25-0.611-0.374-1.371-0.374-2.278L298.958,286.636
		L298.958,286.636z"/>
	<path fill="#FFFFFF" d="M311.679,303.678c0.045,1.905,0.538,3.301,1.479,4.186c0.94,0.884,2.33,1.326,4.167,1.326
		c1.609,0,3.141-0.283,4.593-0.852c0.181,0.342,0.328,0.754,0.441,1.242c0.112,0.488,0.182,0.969,0.203,1.445
		c-0.747,0.317-1.569,0.556-2.466,0.715c-0.896,0.158-1.888,0.238-2.977,0.238c-1.587,0-2.948-0.223-4.082-0.664
		s-2.069-1.065-2.806-1.871c-0.737-0.805-1.276-1.758-1.616-2.857s-0.51-2.307-0.51-3.622c0-1.292,0.163-2.5,0.492-3.623
		c0.328-1.123,0.833-2.098,1.515-2.925c0.681-0.827,1.536-1.485,2.567-1.973c1.031-0.487,2.25-0.731,3.656-0.731
		c1.202,0,2.256,0.204,3.164,0.612c0.906,0.408,1.666,0.97,2.278,1.684c0.611,0.714,1.077,1.564,1.395,2.551
		s0.478,2.059,0.478,3.214c0,0.318-0.013,0.652-0.034,1.004c-0.022,0.353-0.046,0.652-0.067,0.9H311.679L311.679,303.678z
		 M320.319,301.161c0-0.636-0.086-1.242-0.257-1.82c-0.17-0.579-0.42-1.083-0.747-1.514c-0.329-0.431-0.748-0.777-1.26-1.038
		c-0.51-0.26-1.116-0.391-1.818-0.391c-1.385,0-2.444,0.42-3.182,1.258c-0.736,0.839-1.186,2.007-1.344,3.504L320.319,301.161
		L320.319,301.161z"/>
	<path fill="#FFFFFF" d="M345.354,300.072c0-1.337-0.34-2.267-1.021-2.789c-0.681-0.521-1.667-0.782-2.959-0.782
		c-0.794,0-1.537,0.062-2.229,0.187c-0.69,0.125-1.365,0.289-2.022,0.493c-0.432-0.749-0.646-1.644-0.646-2.687
		c0.771-0.25,1.621-0.442,2.552-0.579c0.93-0.136,1.824-0.204,2.688-0.204c2.269,0,3.991,0.516,5.171,1.548
		c1.179,1.032,1.77,2.682,1.77,4.949v10.918c-0.794,0.183-1.759,0.369-2.893,0.562c-1.134,0.191-2.291,0.289-3.47,0.289
		c-1.111,0-2.114-0.103-3.01-0.307c-0.896-0.204-1.656-0.533-2.279-0.986c-0.624-0.453-1.104-1.031-1.446-1.733
		c-0.34-0.703-0.51-1.554-0.51-2.552c0-0.976,0.198-1.832,0.596-2.568c0.396-0.736,0.936-1.35,1.615-1.837
		c0.681-0.487,1.463-0.851,2.347-1.089c0.886-0.237,1.814-0.356,2.79-0.356c0.727,0,1.32,0.019,1.785,0.052s0.856,0.073,1.174,0.118
		L345.354,300.072L345.354,300.072z M345.354,303.372c-0.34-0.046-0.771-0.091-1.293-0.136c-0.521-0.045-0.964-0.068-1.325-0.068
		c-1.406,0-2.479,0.262-3.216,0.782c-0.736,0.522-1.104,1.315-1.104,2.382c0,0.68,0.125,1.213,0.374,1.598
		c0.25,0.387,0.562,0.682,0.936,0.885c0.375,0.205,0.788,0.33,1.242,0.375c0.453,0.045,0.884,0.067,1.292,0.067
		c0.521,0,1.062-0.028,1.616-0.085s1.049-0.142,1.479-0.256V303.372z"/>
	<path fill="#FFFFFF" d="M353.723,294.12c0.249-0.045,0.493-0.079,0.73-0.102c0.238-0.022,0.481-0.034,0.73-0.034
		c0.25,0,0.481,0.012,0.697,0.034c0.216,0.023,0.448,0.057,0.697,0.102c0.067,0.34,0.137,0.799,0.204,1.378
		c0.067,0.578,0.103,1.06,0.103,1.445c0.228-0.385,0.517-0.771,0.867-1.156c0.352-0.385,0.754-0.731,1.208-1.038
		c0.453-0.306,0.975-0.555,1.564-0.749c0.59-0.192,1.234-0.289,1.938-0.289c1.996,0,3.47,0.573,4.423,1.718
		c0.952,1.146,1.43,2.84,1.43,5.084v11.057c-0.25,0.045-0.533,0.078-0.852,0.102c-0.318,0.021-0.602,0.034-0.851,0.034
		c-0.25,0-0.527-0.013-0.833-0.034c-0.308-0.023-0.585-0.057-0.834-0.102v-10.137c0-1.61-0.25-2.795-0.748-3.556
		c-0.499-0.759-1.293-1.14-2.381-1.14c-0.637,0-1.236,0.114-1.804,0.34c-0.566,0.227-1.065,0.578-1.497,1.055
		c-0.431,0.476-0.776,1.094-1.037,1.854c-0.262,0.761-0.392,1.673-0.392,2.738v8.846c-0.25,0.045-0.527,0.078-0.833,0.102
		c-0.307,0.021-0.585,0.034-0.834,0.034c-0.25,0-0.533-0.013-0.851-0.034c-0.317-0.023-0.602-0.057-0.851-0.102v-17.45H353.723z"/>
	<path fill="#FFFFFF" d="M373.384,294.12c0.249-0.045,0.493-0.079,0.73-0.102c0.237-0.022,0.481-0.034,0.73-0.034
		c0.25,0,0.481,0.012,0.697,0.034c0.216,0.023,0.448,0.057,0.697,0.102c0.067,0.34,0.137,0.799,0.204,1.378
		c0.067,0.578,0.103,1.06,0.103,1.445c0.228-0.385,0.516-0.771,0.867-1.156c0.352-0.385,0.754-0.731,1.208-1.038
		c0.453-0.306,0.975-0.555,1.563-0.749c0.591-0.192,1.235-0.289,1.938-0.289c1.996,0,3.47,0.573,4.423,1.718
		c0.952,1.146,1.429,2.84,1.429,5.084v11.057c-0.25,0.045-0.532,0.078-0.851,0.102c-0.318,0.021-0.603,0.034-0.851,0.034
		c-0.25,0-0.527-0.013-0.834-0.034c-0.307-0.023-0.585-0.057-0.834-0.102v-10.137c0-1.61-0.25-2.795-0.747-3.556
		c-0.499-0.759-1.294-1.14-2.382-1.14c-0.636,0-1.235,0.114-1.803,0.34c-0.566,0.227-1.066,0.578-1.497,1.055
		c-0.431,0.476-0.776,1.094-1.037,1.854c-0.262,0.761-0.392,1.673-0.392,2.738v8.846c-0.25,0.045-0.527,0.078-0.833,0.102
		c-0.308,0.021-0.585,0.034-0.834,0.034c-0.25,0-0.533-0.013-0.852-0.034c-0.316-0.023-0.601-0.057-0.85-0.102v-17.45H373.384z"/>
	<path fill="#FFFFFF" d="M395.596,303.678c0.045,1.905,0.538,3.301,1.479,4.186c0.94,0.884,2.33,1.326,4.167,1.326
		c1.609,0,3.141-0.283,4.592-0.852c0.182,0.342,0.329,0.754,0.442,1.242c0.112,0.488,0.182,0.969,0.204,1.445
		c-0.748,0.317-1.57,0.556-2.467,0.715c-0.896,0.158-1.888,0.238-2.977,0.238c-1.588,0-2.948-0.223-4.082-0.664
		s-2.069-1.065-2.806-1.871c-0.737-0.805-1.276-1.758-1.616-2.857s-0.51-2.307-0.51-3.622c0-1.292,0.164-2.5,0.492-3.623
		c0.328-1.123,0.833-2.098,1.515-2.925c0.68-0.828,1.536-1.485,2.567-1.973c1.031-0.487,2.25-0.731,3.656-0.731
		c1.202,0,2.256,0.204,3.163,0.612c0.907,0.408,1.667,0.97,2.279,1.684c0.611,0.714,1.077,1.564,1.395,2.551
		s0.478,2.059,0.478,3.214c0,0.318-0.013,0.652-0.034,1.004c-0.022,0.353-0.046,0.652-0.068,0.9H395.596L395.596,303.678z
		 M404.235,301.161c0-0.636-0.085-1.242-0.255-1.82c-0.171-0.579-0.421-1.083-0.748-1.514c-0.329-0.431-0.749-0.777-1.26-1.038
		c-0.51-0.26-1.116-0.391-1.819-0.391c-1.384,0-2.443,0.42-3.181,1.258c-0.736,0.839-1.186,2.007-1.344,3.504L404.235,301.161
		L404.235,301.161z M400.562,291.364c-0.249,0.046-0.521,0.08-0.816,0.102c-0.295,0.023-0.623,0.034-0.986,0.034
		c-0.249,0-0.505-0.011-0.765-0.034c-0.262-0.022-0.527-0.056-0.8-0.102l3.912-4.32c0.34-0.045,0.69-0.079,1.055-0.102
		c0.362-0.022,0.736-0.034,1.122-0.034c0.408,0,0.782,0.012,1.122,0.034c0.341,0.023,0.669,0.057,0.986,0.102L400.562,291.364z"/>
	<path fill="#FFFFFF" d="M414.508,303.678c0.045,1.905,0.538,3.301,1.479,4.186c0.94,0.884,2.33,1.326,4.167,1.326
		c1.609,0,3.141-0.283,4.593-0.852c0.181,0.342,0.328,0.754,0.44,1.242c0.113,0.488,0.183,0.969,0.204,1.445
		c-0.748,0.317-1.569,0.556-2.466,0.715c-0.896,0.158-1.888,0.238-2.977,0.238c-1.587,0-2.948-0.223-4.082-0.664
		s-2.069-1.065-2.807-1.871c-0.736-0.805-1.274-1.758-1.615-2.857c-0.34-1.1-0.511-2.307-0.511-3.622c0-1.292,0.164-2.5,0.493-3.623
		c0.328-1.123,0.833-2.098,1.515-2.925c0.681-0.827,1.536-1.485,2.567-1.973c1.031-0.487,2.25-0.731,3.656-0.731
		c1.202,0,2.256,0.204,3.164,0.612c0.906,0.408,1.666,0.97,2.278,1.684c0.611,0.714,1.076,1.564,1.395,2.551
		c0.317,0.987,0.478,2.059,0.478,3.214c0,0.318-0.013,0.652-0.034,1.004c-0.022,0.353-0.046,0.652-0.067,0.9H414.508
		L414.508,303.678z M423.148,301.161c0-0.636-0.086-1.242-0.257-1.82c-0.17-0.579-0.42-1.083-0.748-1.514
		c-0.328-0.431-0.747-0.777-1.259-1.038c-0.51-0.26-1.117-0.391-1.818-0.391c-1.385,0-2.444,0.42-3.182,1.258
		c-0.736,0.839-1.186,2.007-1.344,3.504L423.148,301.161L423.148,301.161z"/>
</g>
</svg>
