<?xml version="1.0" encoding="utf-8"?>
<!-- Generator: Adobe Illustrator 16.0.4, SVG Export Plug-In . SVG Version: 6.00 Build 0)  -->
<!DOCTYPE svg PUBLIC "-//W3C//DTD SVG 1.1//EN" "http://www.w3.org/Graphics/SVG/1.1/DTD/svg11.dtd">
<svg version="1.1" id="Calque_1" xmlns="http://www.w3.org/2000/svg" xmlns:xlink="http://www.w3.org/1999/xlink" x="0px" y="0px"
	 width="600px" height="600px" viewBox="0 0 600 600" enable-background="new 0 0 600 600" xml:space="preserve">
<g>
	<g>
		<g>
			<defs>
				<rect id="SVGID_1_" x="206.015" y="169.49" width="180.619" height="267.596"/>
			</defs>
			<clipPath id="SVGID_2_">
				<use xlink:href="#SVGID_1_"  overflow="visible"/>
			</clipPath>
			<path clip-path="url(#SVGID_2_)" fill="#9B9B9B" d="M300.279,342.561c0.524,0.07,0.987,0.123,1.386,0.158
				c0.399,0.035,0.805,0.053,1.215,0.053c0.387,0,0.781-0.018,1.18-0.053c0.4-0.035,0.885-0.102,1.455-0.193l4.893-13.123
				l-3.9-12.133c-0.89-0.141-1.744-0.213-2.565-0.213c-0.435,0-0.873,0.012-1.318,0.037c-0.444,0.021-0.896,0.068-1.351,0.141
				l4.412,12.062L300.279,342.561z M315.472,342.525c0.569,0.092,1.055,0.158,1.453,0.193c0.399,0.035,0.793,0.053,1.182,0.053
				c0.41,0,0.814-0.018,1.214-0.053s0.86-0.088,1.386-0.158l-5.338-13.264l4.346-12.062c-0.457-0.072-0.906-0.119-1.352-0.141
				c-0.445-0.025-0.885-0.037-1.316-0.037c-0.822,0-1.678,0.072-2.566,0.213l-3.832,12.133L315.472,342.525z M278.968,331.449
				c0,1.717,0.137,3.285,0.41,4.709c0.274,1.422,0.764,2.641,1.472,3.65c0.706,1.012,1.653,1.793,2.839,2.346
				s2.692,0.828,4.517,0.828c1.824,0,3.33-0.275,4.516-0.828s2.133-1.334,2.84-2.346c0.707-1.01,1.198-2.229,1.471-3.65
				c0.274-1.424,0.411-2.992,0.411-4.709v-14.252c-0.433-0.068-0.86-0.117-1.282-0.141s-0.838-0.035-1.249-0.035
				c-0.388,0-0.787,0.012-1.198,0.035c-0.41,0.023-0.844,0.072-1.3,0.141v13.158c0,1.434-0.051,2.664-0.154,3.686
				c-0.102,1.023-0.308,1.869-0.616,2.539c-0.307,0.672-0.735,1.164-1.283,1.482c-0.547,0.318-1.266,0.477-2.155,0.477
				c-0.89,0-1.614-0.158-2.173-0.477s-0.992-0.811-1.3-1.482c-0.308-0.67-0.513-1.516-0.616-2.539
				c-0.103-1.021-0.154-2.252-0.154-3.686v-13.158c-0.433-0.068-0.855-0.117-1.266-0.141c-0.41-0.023-0.81-0.035-1.197-0.035
				c-0.434,0-0.856,0.012-1.266,0.035c-0.411,0.023-0.833,0.072-1.266,0.141V331.449z M260.937,342.561h14.199
				c0.137-0.705,0.205-1.447,0.205-2.223c0-0.729-0.068-1.445-0.205-2.152h-9.204v-6.701h7.117c0.137-0.729,0.205-1.469,0.205-2.223
				c0-0.705-0.068-1.434-0.205-2.188h-7.117v-5.502h8.964c0.137-0.705,0.206-1.445,0.206-2.223c0-0.729-0.069-1.445-0.206-2.152
				h-13.959V342.561z M240.784,329.932c0-5.832,1.79-8.748,5.372-8.748c1.801,0,3.13,0.729,3.986,2.188
				c0.855,1.459,1.283,3.645,1.283,6.561c0,5.832-1.768,8.748-5.304,8.748C242.562,338.68,240.784,335.764,240.784,329.932
				 M250.912,341.996c1.345-0.658,2.451-1.57,3.318-2.734c0.867-1.164,1.511-2.539,1.934-4.127c0.421-1.586,0.633-3.32,0.633-5.203
				c0-1.881-0.212-3.627-0.633-5.238c-0.423-1.609-1.067-3.004-1.934-4.18c-0.867-1.176-1.973-2.092-3.318-2.75
				c-1.347-0.658-2.943-0.988-4.791-0.988c-1.847,0-3.444,0.33-4.79,0.988c-1.346,0.658-2.452,1.574-3.319,2.75
				c-0.867,1.176-1.511,2.57-1.933,4.18c-0.422,1.611-0.633,3.357-0.633,5.238c0,1.883,0.211,3.617,0.633,5.203
				c0.422,1.588,1.066,2.963,1.933,4.127c0.867,1.164,1.973,2.076,3.319,2.734c1.346,0.658,2.943,0.986,4.79,0.986
				C247.969,342.982,249.564,342.654,250.912,341.996 M220.768,342.561c0.524,0.07,1.003,0.123,1.437,0.158
				c0.433,0.035,0.878,0.053,1.334,0.053c0.502,0,0.976-0.018,1.42-0.053c0.445-0.035,0.907-0.088,1.386-0.158l7.938-25.363
				c-0.457-0.068-0.895-0.117-1.317-0.141c-0.423-0.023-0.839-0.035-1.249-0.035c-0.434,0-0.861,0.012-1.283,0.035
				c-0.423,0.023-0.861,0.072-1.317,0.141l-5.441,20l-5.372-20c-0.958-0.141-1.87-0.211-2.737-0.211
				c-0.388,0-0.833,0.023-1.334,0.07c-0.502,0.049-0.947,0.094-1.335,0.141L220.768,342.561z"/>
			<path clip-path="url(#SVGID_2_)" fill="#9B9B9B" d="M370.487,302.125c0.412,0.164,0.81,0.336,1.199,0.512
				c0.387,0.176,0.734,0.395,1.043,0.652c0.308,0.26,0.559,0.576,0.752,0.953c0.193,0.375,0.291,0.846,0.291,1.41
				c0,1.129-0.41,1.969-1.231,2.523c-0.821,0.551-1.95,0.828-3.388,0.828c-0.957,0-1.859-0.1-2.703-0.301
				c-0.844-0.199-1.744-0.5-2.702-0.898c-0.252,0.752-0.468,1.498-0.649,2.24c-0.184,0.74-0.309,1.451-0.378,2.133
				c0.57,0.236,1.117,0.436,1.642,0.6c0.525,0.166,1.056,0.301,1.592,0.406c0.535,0.105,1.101,0.182,1.693,0.229
				c0.594,0.049,1.267,0.07,2.02,0.07c1.527,0,2.879-0.199,4.054-0.598c1.175-0.4,2.161-0.953,2.96-1.658
				c0.799-0.707,1.408-1.553,1.831-2.541c0.421-0.988,0.632-2.08,0.632-3.279c0-1.152-0.136-2.123-0.41-2.91
				c-0.273-0.788-0.655-1.46-1.146-2.013c-0.491-0.552-1.09-1.017-1.797-1.393s-1.494-0.741-2.36-1.095l-2.053-0.811
				c-0.344-0.141-0.686-0.288-1.027-0.441c-0.342-0.152-0.65-0.341-0.924-0.563c-0.273-0.224-0.49-0.494-0.65-0.812
				c-0.16-0.316-0.238-0.711-0.238-1.181c0-0.588,0.102-1.063,0.308-1.429c0.205-0.364,0.468-0.641,0.787-0.829
				s0.679-0.317,1.077-0.388s0.793-0.106,1.182-0.106c0.637,0,1.209,0.03,1.711,0.089c0.5,0.059,0.951,0.135,1.351,0.229
				c0.399,0.094,0.774,0.211,1.129,0.353s0.702,0.282,1.044,0.423c0.593-1.316,0.958-2.656,1.095-4.021
				c-1.118-0.4-2.185-0.706-3.198-0.917c-1.017-0.212-2.105-0.318-3.269-0.318c-1.278,0-2.429,0.159-3.456,0.477
				c-1.025,0.317-1.904,0.787-2.634,1.41c-0.731,0.624-1.295,1.394-1.694,2.312c-0.398,0.917-0.599,1.975-0.599,3.174
				c0,0.988,0.12,1.834,0.36,2.54c0.238,0.705,0.574,1.311,1.008,1.816s0.959,0.94,1.574,1.306c0.616,0.364,1.312,0.7,2.088,1.006
				L370.487,302.125z M343.595,313.061c0.456,0.07,0.901,0.117,1.334,0.141c0.434,0.023,0.844,0.035,1.232,0.035
				c0.388,0,0.787-0.018,1.197-0.053s0.821-0.076,1.232-0.123v-21.414c0.41-0.071,0.866-0.105,1.368-0.105
				c1.3,0,2.36,0.347,3.183,1.041c0.82,0.693,1.231,1.78,1.231,3.263c0,0.752-0.149,1.405-0.445,1.957
				c-0.297,0.553-0.655,1.022-1.077,1.411c-0.423,0.388-0.861,0.712-1.318,0.97c-0.457,0.259-0.844,0.471-1.162,0.635l-0.821,0.424
				l6.433,11.783c0.844,0.141,1.698,0.211,2.565,0.211c0.524,0,1.038-0.023,1.54-0.07c0.501-0.049,0.98-0.094,1.438-0.141
				l-5.988-10.723l0.582-0.39c0.363-0.234,0.753-0.547,1.162-0.936c0.412-0.388,0.793-0.852,1.146-1.393
				c0.354-0.541,0.645-1.17,0.873-1.889c0.229-0.717,0.342-1.546,0.342-2.485c0-1.576-0.303-2.875-0.906-3.898
				c-0.604-1.022-1.397-1.834-2.379-2.434c-0.98-0.601-2.08-1.018-3.301-1.252c-1.221-0.235-2.459-0.354-3.713-0.354
				c-1.072,0-2.047,0.041-2.925,0.124c-0.879,0.082-1.819,0.182-2.823,0.299V313.061z M320.603,301.948
				c0,1.718,0.137,3.286,0.41,4.71c0.274,1.422,0.764,2.641,1.473,3.65c0.705,1.012,1.652,1.793,2.838,2.346
				c1.187,0.553,2.693,0.828,4.518,0.828c1.825,0,3.33-0.275,4.516-0.828c1.187-0.553,2.133-1.334,2.84-2.346
				c0.707-1.01,1.199-2.229,1.472-3.65c0.274-1.424,0.411-2.992,0.411-4.71v-14.252c-0.434-0.069-0.861-0.117-1.283-0.141
				s-0.838-0.035-1.249-0.035c-0.388,0-0.787,0.012-1.196,0.035c-0.412,0.023-0.846,0.071-1.302,0.141v13.158
				c0,1.436-0.051,2.666-0.153,3.688c-0.103,1.023-0.309,1.869-0.617,2.539c-0.307,0.672-0.734,1.164-1.282,1.482
				s-1.267,0.477-2.155,0.477c-0.891,0-1.613-0.158-2.173-0.477s-0.992-0.811-1.3-1.482c-0.309-0.67-0.514-1.516-0.616-2.539
				c-0.103-1.021-0.153-2.252-0.153-3.688v-13.158c-0.434-0.069-0.855-0.117-1.267-0.141c-0.41-0.023-0.81-0.035-1.197-0.035
				c-0.435,0-0.856,0.012-1.266,0.035c-0.411,0.023-0.833,0.071-1.267,0.141V301.948z M302.914,313.061h14.198
				c0.138-0.705,0.205-1.447,0.205-2.223c0-0.729-0.067-1.445-0.205-2.152h-9.203v-6.702h7.117c0.137-0.729,0.205-1.47,0.205-2.223
				c0-0.706-0.068-1.435-0.205-2.188h-7.117v-5.503h8.965c0.136-0.705,0.205-1.445,0.205-2.222c0-0.729-0.069-1.446-0.205-2.152
				h-13.96V313.061z M286.391,313.061h13.443c0.069-0.4,0.114-0.783,0.137-1.146c0.023-0.365,0.035-0.734,0.035-1.111
				c0-0.33-0.011-0.676-0.035-1.041c-0.022-0.363-0.067-0.746-0.137-1.146h-8.516v-20.919c-0.867-0.141-1.7-0.211-2.498-0.211
				c-0.776,0-1.585,0.07-2.429,0.211V313.061z M269.865,313.061h13.447c0.068-0.4,0.114-0.783,0.136-1.146
				c0.023-0.365,0.035-0.734,0.035-1.111c0-0.33-0.012-0.676-0.035-1.041c-0.022-0.363-0.068-0.746-0.136-1.146h-8.52v-20.919
				c-0.867-0.141-1.7-0.211-2.498-0.211c-0.775,0-1.585,0.07-2.429,0.211V313.061z M260.388,313.061
				c0.843,0.141,1.688,0.211,2.532,0.211c0.798,0,1.63-0.07,2.497-0.211v-25.365c-0.867-0.141-1.71-0.211-2.531-0.211
				c-0.822,0-1.655,0.07-2.498,0.211V313.061z M242.562,313.061h14.199c0.137-0.705,0.206-1.447,0.206-2.223
				c0-0.729-0.069-1.445-0.206-2.152h-9.204v-6.702h7.117c0.137-0.729,0.205-1.47,0.205-2.223c0-0.706-0.068-1.435-0.205-2.188
				h-7.117v-5.503h8.965c0.137-0.705,0.205-1.445,0.205-2.222c0-0.729-0.068-1.446-0.205-2.152h-13.96V313.061z M214.677,313.061
				c0.775,0.141,1.528,0.211,2.258,0.211c0.685,0,1.391-0.07,2.122-0.211l0.479-17.462l4.653,12.171
				c0.319,0.07,0.627,0.117,0.924,0.141c0.296,0.023,0.593,0.035,0.889,0.035c0.342,0,0.685-0.018,1.027-0.053
				c0.342-0.035,0.672-0.076,0.992-0.123l4.995-11.924l0.616,17.215c0.753,0.141,1.517,0.211,2.293,0.211
				c0.775,0,1.596-0.07,2.463-0.211l-1.163-25.365c-0.799-0.141-1.631-0.211-2.498-0.211c-0.867,0-1.654,0.07-2.361,0.211
				l-5.816,14.535l-5.646-14.535c-0.867-0.141-1.745-0.211-2.634-0.211c-0.845,0-1.723,0.07-2.635,0.211L214.677,313.061z"/>
			<path clip-path="url(#SVGID_2_)" fill="#60276F" d="M371.233,341.525c0.247,0.037,0.488,0.062,0.723,0.076
				c0.234,0.012,0.457,0.02,0.668,0.02c0.209,0,0.426-0.01,0.648-0.029s0.445-0.041,0.667-0.066v-11.598
				c0.222-0.039,0.47-0.059,0.741-0.059c0.705,0,1.279,0.189,1.725,0.564c0.444,0.375,0.666,0.965,0.666,1.768
				c0,0.406-0.08,0.76-0.24,1.061c-0.16,0.299-0.355,0.553-0.584,0.764s-0.467,0.385-0.713,0.525
				c-0.248,0.141-0.457,0.256-0.631,0.344l-0.445,0.229l3.484,6.383c0.457,0.076,0.922,0.115,1.391,0.115
				c0.283,0,0.562-0.014,0.834-0.039c0.271-0.025,0.531-0.051,0.779-0.076l-3.244-5.809l0.314-0.211
				c0.198-0.127,0.408-0.295,0.631-0.506c0.223-0.209,0.43-0.461,0.62-0.754c0.192-0.293,0.349-0.635,0.474-1.023
				c0.123-0.389,0.185-0.838,0.185-1.346c0-0.855-0.163-1.559-0.491-2.113c-0.327-0.553-0.757-0.992-1.288-1.316
				c-0.53-0.326-1.127-0.553-1.788-0.68c-0.662-0.127-1.332-0.189-2.011-0.189c-0.581,0-1.108,0.021-1.585,0.064
				c-0.477,0.045-0.984,0.1-1.529,0.164V341.525z M357.296,335.506c0,0.93,0.074,1.779,0.223,2.551s0.414,1.43,0.797,1.979
				c0.383,0.547,0.896,0.971,1.538,1.27c0.644,0.299,1.458,0.449,2.447,0.449c0.987,0,1.804-0.15,2.446-0.449
				s1.154-0.723,1.539-1.27c0.381-0.549,0.647-1.207,0.797-1.979c0.147-0.771,0.222-1.621,0.222-2.551v-7.719
				c-0.235-0.039-0.468-0.064-0.694-0.078c-0.229-0.012-0.455-0.018-0.678-0.018c-0.21,0-0.426,0.006-0.648,0.018
				c-0.223,0.014-0.457,0.039-0.705,0.078v7.127c0,0.777-0.026,1.441-0.082,1.996c-0.057,0.555-0.168,1.012-0.334,1.375
				s-0.398,0.631-0.695,0.803c-0.297,0.174-0.686,0.26-1.167,0.26s-0.875-0.086-1.177-0.26c-0.303-0.172-0.539-0.439-0.705-0.803
				s-0.277-0.82-0.334-1.375c-0.055-0.555-0.082-1.219-0.082-1.996v-7.127c-0.235-0.039-0.465-0.064-0.687-0.078
				c-0.223-0.012-0.438-0.018-0.649-0.018c-0.234,0-0.463,0.006-0.686,0.018c-0.222,0.014-0.451,0.039-0.686,0.078V335.506z
				 M345.157,334.686c0-3.16,0.969-4.74,2.909-4.74c0.976,0,1.695,0.396,2.159,1.186c0.463,0.789,0.695,1.975,0.695,3.555
				c0,3.158-0.959,4.736-2.873,4.736C346.12,339.422,345.157,337.844,345.157,334.686 M350.643,341.219
				c0.729-0.355,1.328-0.85,1.798-1.48c0.469-0.631,0.818-1.375,1.047-2.236c0.229-0.859,0.344-1.799,0.344-2.816
				c0-1.02-0.115-1.965-0.344-2.838s-0.578-1.627-1.047-2.266c-0.47-0.637-1.068-1.133-1.798-1.488
				c-0.729-0.357-1.594-0.535-2.595-0.535c-1.002,0-1.866,0.178-2.596,0.535c-0.729,0.355-1.328,0.852-1.797,1.488
				c-0.47,0.639-0.818,1.393-1.048,2.266c-0.228,0.873-0.343,1.818-0.343,2.838c0,1.018,0.115,1.957,0.343,2.816
				c0.229,0.861,0.578,1.605,1.048,2.236c0.469,0.631,1.068,1.125,1.797,1.48c0.729,0.357,1.594,0.535,2.596,0.535
				C349.049,341.754,349.913,341.576,350.643,341.219 M333.221,329.928c0.222-0.027,0.392-0.041,0.51-0.049
				c0.117-0.006,0.244-0.01,0.38-0.01c0.309,0,0.611,0.041,0.908,0.125c0.296,0.082,0.559,0.223,0.787,0.42s0.411,0.459,0.547,0.783
				c0.137,0.324,0.204,0.723,0.204,1.195c0,0.457-0.067,0.844-0.204,1.154c-0.136,0.312-0.318,0.564-0.547,0.756
				s-0.491,0.328-0.787,0.41c-0.297,0.082-0.6,0.123-0.908,0.123h-0.473c-0.13,0-0.27-0.012-0.417-0.037V329.928z M330.515,341.525
				c0.247,0.037,0.488,0.062,0.723,0.076c0.234,0.012,0.451,0.02,0.649,0.02c0.209,0,0.426-0.008,0.647-0.02
				c0.224-0.014,0.451-0.039,0.687-0.076v-4.414c0.123,0.012,0.256,0.023,0.397,0.029c0.143,0.006,0.295,0.008,0.455,0.008
				c0.605,0,1.221-0.062,1.844-0.191c0.623-0.127,1.189-0.369,1.697-0.725c0.506-0.357,0.92-0.844,1.24-1.461
				c0.321-0.619,0.482-1.424,0.482-2.418s-0.161-1.803-0.482-2.426c-0.32-0.625-0.738-1.111-1.251-1.463
				c-0.513-0.35-1.087-0.59-1.723-0.717c-0.638-0.127-1.265-0.189-1.882-0.189c-0.594,0-1.18,0.016-1.76,0.047
				c-0.582,0.031-1.156,0.074-1.725,0.125V341.525z"/>
			<path clip-path="url(#SVGID_2_)" fill="#9B9B9B" d="M370.573,192.939c0.058-0.553,0.218-0.984,0.482-1.294
				c0.264-0.311,0.643-0.465,1.139-0.465c0.252,0,0.47,0.048,0.652,0.145c0.184,0.096,0.334,0.225,0.451,0.383
				c0.118,0.159,0.207,0.346,0.268,0.56c0.062,0.214,0.092,0.438,0.092,0.672H370.573z M374.815,193.869
				c0.008-0.092,0.017-0.203,0.024-0.333c0.009-0.13,0.013-0.253,0.013-0.371c0-0.427-0.058-0.822-0.172-1.187
				c-0.113-0.364-0.279-0.678-0.498-0.942c-0.221-0.264-0.492-0.472-0.818-0.622c-0.324-0.15-0.702-0.226-1.133-0.226
				c-0.504,0-0.94,0.09-1.311,0.27c-0.369,0.181-0.676,0.424-0.92,0.729c-0.244,0.306-0.426,0.666-0.542,1.081
				c-0.118,0.415-0.177,0.86-0.177,1.338c0,0.486,0.061,0.932,0.183,1.338c0.122,0.407,0.315,0.759,0.579,1.056
				s0.6,0.528,1.005,0.691c0.407,0.163,0.894,0.245,1.463,0.245c0.39,0,0.745-0.03,1.066-0.088c0.321-0.06,0.616-0.146,0.884-0.265
				c-0.008-0.176-0.033-0.354-0.072-0.533c-0.041-0.181-0.095-0.333-0.16-0.459c-0.52,0.21-1.067,0.314-1.645,0.314
				c-0.658,0-1.156-0.164-1.493-0.49c-0.337-0.327-0.514-0.842-0.53-1.546H374.815z M366.528,195.779
				c-0.139,0.042-0.297,0.073-0.477,0.094c-0.179,0.021-0.374,0.032-0.585,0.032c-0.616,0-1.104-0.172-1.462-0.516
				s-0.541-0.912-0.549-1.708c0-0.353,0.039-0.678,0.115-0.975c0.078-0.297,0.195-0.555,0.354-0.772
				c0.159-0.218,0.36-0.39,0.604-0.516c0.244-0.126,0.533-0.188,0.865-0.188c0.219,0,0.424,0.017,0.61,0.051
				c0.187,0.033,0.36,0.084,0.524,0.15V195.779z M366.528,190.375c-0.164-0.05-0.353-0.092-0.567-0.126
				c-0.216-0.032-0.429-0.05-0.64-0.05c-0.471,0-0.9,0.084-1.286,0.251c-0.386,0.168-0.718,0.405-0.993,0.71
				c-0.277,0.307-0.49,0.673-0.641,1.101c-0.15,0.427-0.226,0.899-0.226,1.42c0,0.603,0.086,1.109,0.257,1.52
				c0.17,0.41,0.402,0.746,0.694,1.005c0.293,0.261,0.636,0.446,1.03,0.56c0.394,0.112,0.811,0.17,1.248,0.17
				c0.472,0,0.898-0.031,1.281-0.094c0.381-0.063,0.727-0.141,1.035-0.233v-9.034c-0.089-0.017-0.189-0.029-0.299-0.038
				c-0.109-0.008-0.209-0.012-0.298-0.012c-0.082,0-0.179,0.004-0.293,0.012c-0.114,0.009-0.216,0.021-0.304,0.038V190.375z
				 M351.276,196.124c-0.053,0.172-0.088,0.343-0.104,0.51c0.252,0.093,0.523,0.166,0.816,0.22c0.293,0.055,0.634,0.082,1.023,0.082
				c0.383,0,0.732-0.05,1.049-0.151c0.317-0.1,0.588-0.241,0.811-0.421c0.224-0.18,0.396-0.397,0.518-0.653
				c0.122-0.256,0.184-0.537,0.184-0.848c0-0.277-0.039-0.513-0.116-0.71s-0.179-0.365-0.306-0.503
				c-0.125-0.138-0.275-0.253-0.449-0.345c-0.176-0.093-0.36-0.172-0.555-0.239l-0.537-0.189c-0.146-0.05-0.282-0.1-0.408-0.149
				c-0.127-0.051-0.237-0.111-0.336-0.184c-0.096-0.07-0.174-0.156-0.23-0.257s-0.086-0.222-0.086-0.365
				c0-0.275,0.116-0.469,0.348-0.577s0.498-0.163,0.799-0.163c0.283,0,0.55,0.031,0.798,0.094c0.247,0.062,0.461,0.128,0.64,0.195
				c0.064-0.143,0.12-0.297,0.165-0.466c0.044-0.167,0.075-0.335,0.091-0.502c-0.227-0.084-0.492-0.156-0.798-0.22
				c-0.305-0.062-0.616-0.094-0.933-0.094c-0.764,0-1.342,0.167-1.736,0.502s-0.591,0.788-0.591,1.357
				c0,0.427,0.116,0.767,0.353,1.018s0.613,0.477,1.133,0.678l0.428,0.164c0.154,0.05,0.299,0.103,0.433,0.157
				c0.134,0.054,0.251,0.119,0.353,0.195c0.103,0.074,0.184,0.167,0.244,0.275c0.062,0.109,0.092,0.247,0.092,0.415
				c0,0.15-0.038,0.287-0.115,0.408c-0.078,0.122-0.18,0.224-0.305,0.308c-0.127,0.084-0.274,0.147-0.445,0.188
				c-0.171,0.042-0.35,0.062-0.536,0.062c-0.26,0-0.522-0.026-0.786-0.082c-0.265-0.054-0.506-0.127-0.726-0.219
				C351.388,195.783,351.329,195.953,351.276,196.124 M347.163,196.784c0.098,0.018,0.201,0.029,0.311,0.038
				c0.11,0.008,0.209,0.012,0.299,0.012s0.188-0.004,0.299-0.012c0.109-0.009,0.209-0.021,0.299-0.038v-3.204
				c0-0.435,0.046-0.792,0.14-1.067c0.093-0.276,0.22-0.494,0.378-0.653s0.338-0.27,0.536-0.333
				c0.199-0.063,0.408-0.095,0.628-0.095h0.164c0.069,0,0.137,0.009,0.201,0.025c0.018-0.101,0.031-0.206,0.043-0.314
				s0.018-0.213,0.018-0.314c0-0.092-0.004-0.18-0.012-0.264c-0.008-0.083-0.02-0.163-0.035-0.238
				c-0.05-0.009-0.109-0.015-0.178-0.019s-0.137-0.006-0.201-0.006c-0.439,0-0.799,0.104-1.078,0.313
				c-0.281,0.209-0.507,0.456-0.677,0.741c0-0.142-0.013-0.316-0.037-0.521c-0.024-0.206-0.049-0.37-0.073-0.497
				c-0.072-0.016-0.154-0.028-0.244-0.036c-0.088-0.01-0.178-0.014-0.268-0.014c-0.089,0-0.175,0.004-0.256,0.014
				c-0.081,0.008-0.167,0.021-0.256,0.036V196.784z M340.094,193.918c0,0.646,0.077,1.165,0.231,1.559s0.365,0.7,0.635,0.918
				c0.268,0.218,0.578,0.362,0.932,0.433c0.354,0.071,0.729,0.107,1.127,0.107c0.424,0,0.832-0.038,1.226-0.113
				c0.394-0.076,0.733-0.155,1.018-0.239v-6.245c-0.09-0.016-0.188-0.028-0.299-0.036c-0.108-0.01-0.209-0.014-0.298-0.014
				c-0.09,0-0.189,0.004-0.299,0.014c-0.11,0.008-0.209,0.021-0.299,0.036v5.416c-0.293,0.093-0.646,0.139-1.061,0.139
				c-0.275,0-0.52-0.029-0.73-0.088c-0.213-0.059-0.391-0.163-0.537-0.314c-0.146-0.15-0.256-0.357-0.329-0.622
				c-0.073-0.264-0.109-0.597-0.109-0.999v-3.531c-0.09-0.016-0.19-0.028-0.305-0.036c-0.114-0.01-0.216-0.014-0.306-0.014
				c-0.08,0-0.178,0.004-0.291,0.014c-0.114,0.008-0.217,0.021-0.306,0.036V193.918z M334.306,192.939
				c0.057-0.553,0.217-0.984,0.48-1.294c0.264-0.311,0.645-0.465,1.14-0.465c0.252,0,0.47,0.048,0.652,0.145
				c0.183,0.096,0.333,0.225,0.45,0.383c0.119,0.159,0.207,0.346,0.269,0.56s0.091,0.438,0.091,0.672H334.306z M338.546,193.869
				c0.008-0.092,0.016-0.203,0.025-0.333c0.008-0.13,0.012-0.253,0.012-0.371c0-0.427-0.057-0.822-0.171-1.187
				s-0.28-0.678-0.499-0.942c-0.221-0.264-0.492-0.472-0.817-0.622s-0.702-0.226-1.134-0.226c-0.503,0-0.939,0.09-1.311,0.27
				c-0.369,0.181-0.676,0.424-0.92,0.729c-0.244,0.306-0.424,0.666-0.541,1.081c-0.119,0.415-0.178,0.86-0.178,1.338
				c0,0.486,0.061,0.932,0.184,1.338c0.121,0.407,0.314,0.759,0.578,1.056c0.265,0.297,0.6,0.528,1.006,0.691
				s0.894,0.245,1.463,0.245c0.39,0,0.744-0.03,1.066-0.088c0.32-0.06,0.615-0.146,0.883-0.265
				c-0.008-0.176-0.032-0.354-0.072-0.533c-0.041-0.181-0.094-0.333-0.159-0.459c-0.521,0.21-1.067,0.314-1.646,0.314
				c-0.658,0-1.155-0.164-1.492-0.49c-0.338-0.327-0.514-0.842-0.53-1.546H338.546z M329.259,194.987
				c0,0.679,0.165,1.165,0.494,1.458s0.786,0.44,1.371,0.44c0.203,0,0.395-0.012,0.572-0.032c0.179-0.021,0.35-0.052,0.513-0.094
				c0-0.135-0.006-0.289-0.019-0.466c-0.013-0.176-0.047-0.347-0.104-0.515c-0.098,0.025-0.207,0.048-0.329,0.069
				c-0.122,0.021-0.252,0.03-0.39,0.03c-0.18,0-0.327-0.018-0.445-0.056c-0.117-0.038-0.212-0.113-0.279-0.226
				c-0.07-0.113-0.119-0.275-0.147-0.484s-0.042-0.49-0.042-0.842v-2.94h1.584c0.016-0.084,0.027-0.168,0.037-0.251
				c0.008-0.084,0.012-0.172,0.012-0.264c0-0.176-0.018-0.335-0.049-0.479h-1.584v-1.595h-0.098l-2.097,2.412l0.048,0.176h0.951
				V194.987z M326.028,192.776c-0.113-0.017-0.254-0.031-0.42-0.044s-0.379-0.02-0.64-0.02c-0.349,0-0.683,0.045-0.999,0.133
				s-0.598,0.222-0.841,0.401c-0.244,0.181-0.437,0.406-0.579,0.68c-0.143,0.271-0.214,0.588-0.214,0.947
				c0,0.369,0.062,0.684,0.183,0.943c0.123,0.259,0.295,0.473,0.519,0.64c0.224,0.168,0.495,0.289,0.817,0.365
				c0.32,0.075,0.68,0.113,1.078,0.113c0.422,0,0.836-0.036,1.243-0.107c0.406-0.07,0.751-0.14,1.036-0.207v-4.034
				c0-0.837-0.212-1.446-0.634-1.827c-0.423-0.382-1.04-0.571-1.853-0.571c-0.31,0-0.631,0.024-0.964,0.075
				c-0.333,0.05-0.638,0.121-0.913,0.214c0,0.385,0.076,0.716,0.231,0.992c0.235-0.075,0.478-0.137,0.726-0.183
				c0.247-0.046,0.514-0.068,0.797-0.068c0.463,0,0.817,0.096,1.062,0.289c0.243,0.192,0.364,0.535,0.364,1.029V192.776z
				 M326.028,195.804c-0.153,0.042-0.33,0.073-0.529,0.094s-0.393,0.032-0.579,0.032c-0.146,0-0.3-0.01-0.463-0.025
				c-0.163-0.017-0.312-0.062-0.445-0.139c-0.134-0.075-0.245-0.185-0.335-0.326c-0.089-0.143-0.134-0.34-0.134-0.591
				c0-0.395,0.132-0.688,0.396-0.879c0.265-0.193,0.648-0.289,1.152-0.289c0.13,0,0.288,0.008,0.475,0.024
				c0.188,0.018,0.342,0.033,0.463,0.051V195.804z M318.313,196.784c0.099,0.018,0.201,0.029,0.312,0.038
				c0.11,0.008,0.209,0.012,0.299,0.012c0.089,0,0.188-0.004,0.298-0.012c0.11-0.009,0.209-0.021,0.299-0.038v-3.204
				c0-0.435,0.047-0.792,0.141-1.067c0.093-0.276,0.219-0.494,0.378-0.653c0.157-0.159,0.337-0.27,0.536-0.333
				s0.408-0.095,0.628-0.095h0.163c0.07,0,0.137,0.009,0.203,0.025c0.016-0.101,0.029-0.206,0.041-0.314
				c0.013-0.108,0.019-0.213,0.019-0.314c0-0.092-0.004-0.18-0.013-0.264c-0.008-0.083-0.02-0.163-0.035-0.238
				c-0.049-0.009-0.107-0.015-0.178-0.019c-0.068-0.004-0.135-0.006-0.2-0.006c-0.438,0-0.798,0.104-1.079,0.313
				c-0.28,0.209-0.506,0.456-0.676,0.741c0-0.142-0.012-0.316-0.037-0.521c-0.024-0.206-0.049-0.37-0.073-0.497
				c-0.073-0.016-0.153-0.028-0.244-0.036c-0.089-0.01-0.178-0.014-0.269-0.014c-0.088,0-0.174,0.004-0.256,0.014
				c-0.08,0.008-0.166,0.021-0.256,0.036V196.784z M312.58,195.314c-0.265-0.419-0.396-1.001-0.396-1.746
				c0-0.746,0.131-1.326,0.396-1.741c0.264-0.414,0.676-0.622,1.237-0.622c0.561,0,0.975,0.208,1.242,0.622
				c0.269,0.415,0.402,0.995,0.402,1.741c0,0.745-0.134,1.327-0.402,1.746c-0.268,0.419-0.682,0.628-1.242,0.628
				C313.256,195.942,312.844,195.733,312.58,195.314 M315.097,196.677c0.365-0.171,0.67-0.408,0.914-0.71s0.424-0.657,0.542-1.068
				c0.118-0.41,0.177-0.854,0.177-1.331c0-0.478-0.059-0.922-0.177-1.332c-0.118-0.411-0.298-0.767-0.542-1.068
				s-0.549-0.541-0.914-0.717s-0.792-0.263-1.279-0.263c-0.488,0-0.914,0.087-1.28,0.263c-0.365,0.176-0.671,0.415-0.914,0.717
				c-0.244,0.302-0.425,0.657-0.542,1.068c-0.118,0.41-0.178,0.854-0.178,1.332c0,0.477,0.06,0.921,0.178,1.331
				c0.117,0.411,0.298,0.767,0.542,1.068c0.243,0.302,0.549,0.539,0.914,0.71c0.366,0.172,0.792,0.258,1.28,0.258
				C314.305,196.935,314.731,196.849,315.097,196.677 M305.285,193.04c0-0.327,0.047-0.604,0.141-0.836
				c0.093-0.229,0.218-0.414,0.371-0.553c0.155-0.138,0.323-0.238,0.506-0.301c0.183-0.063,0.368-0.094,0.556-0.094
				c0.543,0,0.934,0.191,1.17,0.577c0.234,0.386,0.353,0.926,0.353,1.62c0,0.419-0.056,0.782-0.164,1.087
				c-0.11,0.307-0.258,0.558-0.444,0.754c-0.188,0.197-0.41,0.345-0.664,0.44c-0.256,0.096-0.535,0.144-0.836,0.144
				c-0.179,0-0.352-0.01-0.518-0.03c-0.167-0.021-0.322-0.057-0.47-0.107V193.04z M304.079,196.583
				c0.26,0.093,0.578,0.175,0.957,0.245c0.377,0.071,0.744,0.107,1.104,0.107c1.137,0,2.008-0.312,2.613-0.937
				s0.908-1.488,0.908-2.595c0-0.553-0.062-1.032-0.189-1.438c-0.126-0.406-0.303-0.741-0.529-1.006
				c-0.229-0.264-0.5-0.458-0.817-0.584s-0.662-0.188-1.036-0.188c-0.439,0-0.812,0.092-1.121,0.276
				c-0.309,0.184-0.535,0.401-0.683,0.652v-3.543c-0.089-0.017-0.191-0.029-0.304-0.038c-0.115-0.008-0.217-0.012-0.306-0.012
				c-0.09,0-0.188,0.004-0.299,0.012c-0.108,0.009-0.209,0.021-0.298,0.038V196.583z M301.093,192.776
				c-0.113-0.017-0.254-0.031-0.421-0.044c-0.166-0.013-0.38-0.02-0.64-0.02c-0.349,0-0.681,0.045-0.999,0.133
				c-0.316,0.088-0.595,0.222-0.839,0.401c-0.244,0.181-0.438,0.406-0.58,0.68c-0.142,0.271-0.213,0.588-0.213,0.947
				c0,0.369,0.062,0.684,0.184,0.943c0.121,0.259,0.293,0.473,0.517,0.64c0.222,0.168,0.495,0.289,0.815,0.365
				c0.32,0.075,0.681,0.113,1.079,0.113c0.421,0,0.836-0.036,1.243-0.107c0.406-0.07,0.75-0.14,1.035-0.207v-4.034
				c0-0.837-0.211-1.446-0.633-1.827c-0.423-0.382-1.041-0.571-1.852-0.571c-0.31,0-0.629,0.024-0.963,0.075
				c-0.334,0.05-0.636,0.121-0.913,0.214c0,0.385,0.077,0.716,0.231,0.992c0.235-0.075,0.476-0.137,0.724-0.183
				c0.248-0.046,0.514-0.068,0.798-0.068c0.462,0,0.816,0.096,1.06,0.289c0.243,0.192,0.365,0.535,0.365,1.029V192.776z
				 M301.093,195.804c-0.154,0.042-0.331,0.073-0.529,0.094c-0.201,0.021-0.394,0.032-0.58,0.032c-0.146,0-0.301-0.01-0.463-0.025
				c-0.162-0.017-0.31-0.062-0.445-0.139c-0.133-0.075-0.245-0.185-0.335-0.326c-0.088-0.143-0.133-0.34-0.133-0.591
				c0-0.395,0.131-0.688,0.395-0.879c0.265-0.193,0.647-0.289,1.15-0.289c0.131,0,0.289,0.008,0.477,0.024
				c0.186,0.018,0.341,0.033,0.463,0.051V195.804z M294.136,195.113c0,0.335,0.045,0.616,0.135,0.842
				c0.089,0.227,0.211,0.406,0.365,0.54c0.154,0.134,0.333,0.231,0.536,0.289c0.203,0.06,0.423,0.088,0.659,0.088
				c0.138,0,0.288-0.006,0.45-0.019c0.162-0.012,0.301-0.04,0.414-0.081c0-0.344-0.037-0.662-0.109-0.955
				c-0.064,0.017-0.145,0.029-0.237,0.037c-0.094,0.009-0.177,0.013-0.25,0.013c-0.106,0-0.206-0.011-0.299-0.032
				c-0.093-0.02-0.175-0.065-0.244-0.138c-0.069-0.071-0.124-0.173-0.164-0.308c-0.041-0.133-0.061-0.318-0.061-0.553v-7.263
				c-0.09-0.017-0.189-0.029-0.299-0.038c-0.109-0.008-0.209-0.012-0.298-0.012c-0.09,0-0.189,0.004-0.299,0.012
				c-0.11,0.009-0.209,0.021-0.299,0.038V195.113z M290.505,195.113c0,0.335,0.044,0.616,0.134,0.842
				c0.089,0.227,0.211,0.406,0.365,0.54c0.155,0.134,0.333,0.231,0.537,0.289c0.203,0.06,0.422,0.088,0.658,0.088
				c0.138,0,0.288-0.006,0.451-0.019c0.162-0.012,0.3-0.04,0.414-0.081c0-0.344-0.036-0.662-0.11-0.955
				c-0.065,0.017-0.144,0.029-0.237,0.037c-0.094,0.009-0.177,0.013-0.25,0.013c-0.106,0-0.205-0.011-0.299-0.032
				c-0.093-0.02-0.175-0.065-0.244-0.138c-0.069-0.071-0.123-0.173-0.164-0.308c-0.041-0.133-0.061-0.318-0.061-0.553v-7.263
				c-0.089-0.017-0.189-0.029-0.299-0.038c-0.109-0.008-0.209-0.012-0.298-0.012c-0.09,0-0.189,0.004-0.299,0.012
				c-0.11,0.009-0.209,0.021-0.298,0.038V195.113z M284.795,195.314c-0.265-0.419-0.397-1.001-0.397-1.746
				c0-0.746,0.132-1.326,0.397-1.741c0.263-0.414,0.676-0.622,1.237-0.622c0.56,0,0.975,0.208,1.243,0.622
				c0.268,0.415,0.402,0.995,0.402,1.741c0,0.745-0.134,1.327-0.402,1.746s-0.683,0.628-1.243,0.628
				C285.471,195.942,285.058,195.733,284.795,195.314 M287.312,196.677c0.366-0.171,0.671-0.408,0.914-0.71
				c0.244-0.302,0.425-0.657,0.543-1.068c0.118-0.41,0.177-0.854,0.177-1.331c0-0.478-0.059-0.922-0.177-1.332
				c-0.118-0.411-0.299-0.767-0.543-1.068c-0.243-0.302-0.548-0.541-0.914-0.717c-0.365-0.176-0.792-0.263-1.279-0.263
				c-0.488,0-0.914,0.087-1.28,0.263c-0.366,0.176-0.67,0.415-0.914,0.717s-0.425,0.657-0.543,1.068
				c-0.117,0.41-0.176,0.854-0.176,1.332c0,0.477,0.059,0.921,0.176,1.331c0.118,0.411,0.299,0.767,0.543,1.068
				s0.548,0.539,0.914,0.71c0.366,0.172,0.792,0.258,1.28,0.258C286.52,196.935,286.946,196.849,287.312,196.677 M281.395,195.842
				c-0.207,0.032-0.433,0.05-0.676,0.05c-0.61,0-1.089-0.187-1.439-0.56c-0.349-0.373-0.524-0.961-0.524-1.765
				c0-0.704,0.155-1.27,0.464-1.697c0.308-0.427,0.775-0.641,1.401-0.641c0.512,0,0.967,0.072,1.365,0.214
				c0.065-0.142,0.116-0.308,0.153-0.496c0.036-0.188,0.054-0.354,0.054-0.497c-0.235-0.092-0.483-0.159-0.743-0.201
				c-0.26-0.041-0.561-0.062-0.902-0.062c-0.504,0-0.947,0.087-1.328,0.263c-0.383,0.176-0.701,0.415-0.957,0.717
				c-0.256,0.302-0.449,0.657-0.579,1.068c-0.13,0.41-0.195,0.854-0.195,1.332c0,1.03,0.264,1.849,0.792,2.456
				s1.312,0.911,2.352,0.911c0.618,0,1.166-0.096,1.646-0.289c-0.008-0.185-0.037-0.364-0.086-0.54
				c-0.048-0.176-0.105-0.323-0.17-0.44C281.811,195.75,281.602,195.808,281.395,195.842 M266.612,196.124
				c-0.053,0.172-0.087,0.343-0.103,0.51c0.252,0.093,0.524,0.166,0.816,0.22c0.293,0.055,0.634,0.082,1.024,0.082
				c0.382,0,0.731-0.05,1.048-0.151c0.317-0.1,0.587-0.241,0.811-0.421c0.223-0.18,0.396-0.397,0.518-0.653
				c0.122-0.256,0.183-0.537,0.183-0.848c0-0.277-0.039-0.513-0.116-0.71c-0.077-0.197-0.179-0.365-0.305-0.503
				s-0.276-0.253-0.451-0.345c-0.175-0.093-0.359-0.172-0.554-0.239l-0.537-0.189c-0.146-0.05-0.282-0.1-0.408-0.149
				c-0.126-0.051-0.238-0.111-0.335-0.184c-0.098-0.07-0.175-0.156-0.232-0.257c-0.057-0.101-0.085-0.222-0.085-0.365
				c0-0.275,0.116-0.469,0.347-0.577c0.232-0.108,0.498-0.163,0.799-0.163c0.284,0,0.55,0.031,0.798,0.094
				c0.248,0.062,0.461,0.128,0.64,0.195c0.065-0.143,0.12-0.297,0.164-0.466c0.045-0.167,0.075-0.335,0.092-0.502
				c-0.228-0.084-0.494-0.156-0.798-0.22c-0.305-0.062-0.616-0.094-0.933-0.094c-0.764,0-1.343,0.167-1.737,0.502
				s-0.591,0.788-0.591,1.357c0,0.427,0.118,0.767,0.354,1.018c0.235,0.251,0.613,0.477,1.133,0.678l0.427,0.164
				c0.154,0.05,0.298,0.103,0.432,0.157c0.135,0.054,0.252,0.119,0.354,0.195c0.101,0.074,0.183,0.167,0.244,0.275
				c0.061,0.109,0.091,0.247,0.091,0.415c0,0.15-0.039,0.287-0.116,0.408c-0.077,0.122-0.179,0.224-0.304,0.308
				c-0.126,0.084-0.275,0.147-0.445,0.188c-0.171,0.042-0.35,0.062-0.537,0.062c-0.26,0-0.522-0.026-0.786-0.082
				c-0.264-0.054-0.505-0.127-0.725-0.219C266.724,195.783,266.666,195.953,266.612,196.124 M261.036,192.939
				c0.057-0.553,0.218-0.984,0.482-1.294c0.264-0.311,0.644-0.465,1.139-0.465c0.252,0,0.47,0.048,0.652,0.145
				c0.183,0.096,0.334,0.225,0.451,0.383c0.118,0.159,0.208,0.346,0.269,0.56c0.06,0.214,0.091,0.438,0.091,0.672H261.036z
				 M265.278,193.869c0.008-0.092,0.016-0.203,0.024-0.333c0.008-0.13,0.012-0.253,0.012-0.371c0-0.427-0.057-0.822-0.17-1.187
				c-0.114-0.364-0.281-0.678-0.5-0.942c-0.219-0.264-0.492-0.472-0.817-0.622c-0.325-0.15-0.702-0.226-1.133-0.226
				c-0.504,0-0.941,0.09-1.31,0.27c-0.37,0.181-0.677,0.424-0.92,0.729c-0.244,0.306-0.425,0.666-0.543,1.081
				s-0.177,0.86-0.177,1.338c0,0.486,0.061,0.932,0.183,1.338c0.122,0.407,0.315,0.759,0.579,1.056s0.599,0.528,1.006,0.691
				c0.406,0.163,0.893,0.245,1.462,0.245c0.39,0,0.746-0.03,1.067-0.088c0.321-0.06,0.615-0.146,0.883-0.265
				c-0.008-0.176-0.032-0.354-0.073-0.533c-0.041-0.181-0.093-0.333-0.158-0.459c-0.52,0.21-1.069,0.314-1.646,0.314
				c-0.658,0-1.156-0.164-1.493-0.49c-0.337-0.327-0.514-0.842-0.53-1.546H265.278z M256.466,195.113
				c0,0.335,0.045,0.616,0.134,0.842c0.089,0.227,0.211,0.406,0.366,0.54c0.154,0.134,0.333,0.231,0.536,0.289
				c0.203,0.06,0.422,0.088,0.658,0.088c0.138,0,0.288-0.006,0.451-0.019c0.163-0.012,0.301-0.04,0.414-0.081
				c0-0.344-0.036-0.662-0.109-0.955c-0.065,0.017-0.145,0.029-0.238,0.037c-0.093,0.009-0.177,0.013-0.25,0.013
				c-0.105,0-0.205-0.011-0.298-0.032c-0.094-0.02-0.175-0.065-0.244-0.138c-0.069-0.071-0.124-0.173-0.165-0.308
				c-0.04-0.133-0.061-0.318-0.061-0.553v-7.263c-0.089-0.017-0.188-0.029-0.298-0.038c-0.11-0.008-0.209-0.012-0.299-0.012
				c-0.089,0-0.189,0.004-0.298,0.012c-0.11,0.009-0.21,0.021-0.299,0.038V195.113z"/>
			<path clip-path="url(#SVGID_2_)" fill="#9B9B9B" d="M372.305,176.953c0,0.68,0.165,1.165,0.494,1.458s0.786,0.44,1.371,0.44
				c0.203,0,0.394-0.011,0.573-0.032c0.178-0.021,0.349-0.052,0.511-0.094c0-0.134-0.006-0.289-0.019-0.465
				c-0.012-0.176-0.047-0.349-0.103-0.516c-0.099,0.025-0.208,0.049-0.329,0.069c-0.122,0.021-0.252,0.031-0.39,0.031
				c-0.179,0-0.328-0.02-0.445-0.057c-0.118-0.038-0.212-0.112-0.28-0.226c-0.07-0.113-0.119-0.275-0.146-0.484
				c-0.029-0.209-0.043-0.489-0.043-0.842v-2.939h1.585c0.016-0.084,0.028-0.168,0.036-0.252c0.008-0.083,0.013-0.172,0.013-0.264
				c0-0.176-0.017-0.335-0.049-0.478h-1.585v-1.597h-0.098l-2.096,2.413l0.049,0.177h0.95V176.953z M366.211,174.905
				c0.058-0.553,0.217-0.983,0.481-1.294c0.264-0.31,0.644-0.465,1.14-0.465c0.252,0,0.469,0.048,0.651,0.144
				c0.184,0.098,0.334,0.226,0.451,0.385c0.118,0.158,0.207,0.345,0.268,0.559c0.062,0.213,0.093,0.438,0.093,0.672H366.211z
				 M370.452,175.835c0.008-0.093,0.017-0.203,0.025-0.333c0.008-0.131,0.012-0.254,0.012-0.371c0-0.428-0.058-0.823-0.172-1.188
				c-0.113-0.365-0.279-0.679-0.498-0.943c-0.221-0.263-0.492-0.471-0.817-0.62c-0.325-0.151-0.703-0.228-1.134-0.228
				c-0.504,0-0.94,0.09-1.311,0.271c-0.369,0.18-0.676,0.423-0.92,0.728c-0.244,0.306-0.425,0.666-0.542,1.081
				c-0.118,0.415-0.177,0.861-0.177,1.338c0,0.486,0.061,0.933,0.184,1.338c0.121,0.407,0.314,0.758,0.578,1.057
				c0.264,0.297,0.6,0.526,1.006,0.69c0.406,0.163,0.893,0.245,1.463,0.245c0.39,0,0.744-0.03,1.065-0.088
				c0.321-0.059,0.616-0.147,0.884-0.264c-0.008-0.177-0.033-0.354-0.072-0.534c-0.041-0.18-0.095-0.333-0.16-0.459
				c-0.52,0.21-1.067,0.313-1.645,0.313c-0.658,0-1.156-0.163-1.492-0.489c-0.338-0.326-0.515-0.842-0.531-1.545H370.452z
				 M356.542,174.905c0.057-0.553,0.217-0.983,0.48-1.294c0.264-0.31,0.645-0.465,1.141-0.465c0.252,0,0.469,0.048,0.652,0.144
				c0.183,0.098,0.332,0.226,0.45,0.385c0.118,0.158,0.207,0.345,0.269,0.559c0.061,0.213,0.092,0.438,0.092,0.672H356.542z
				 M360.782,175.835c0.009-0.093,0.018-0.203,0.025-0.333c0.008-0.131,0.012-0.254,0.012-0.371c0-0.428-0.057-0.823-0.17-1.188
				c-0.115-0.365-0.281-0.679-0.5-0.943c-0.22-0.263-0.492-0.471-0.816-0.62c-0.325-0.151-0.703-0.228-1.133-0.228
				c-0.504,0-0.941,0.09-1.312,0.271c-0.37,0.18-0.676,0.423-0.92,0.728c-0.244,0.306-0.425,0.666-0.542,1.081
				c-0.118,0.415-0.177,0.861-0.177,1.338c0,0.486,0.062,0.933,0.183,1.338c0.122,0.407,0.315,0.758,0.579,1.057
				c0.265,0.297,0.599,0.526,1.005,0.69c0.407,0.163,0.895,0.245,1.463,0.245c0.391,0,0.745-0.03,1.066-0.088
				c0.32-0.059,0.615-0.147,0.884-0.264c-0.008-0.177-0.032-0.354-0.073-0.534s-0.094-0.333-0.158-0.459
				c-0.521,0.21-1.068,0.313-1.646,0.313c-0.657,0-1.155-0.163-1.493-0.489c-0.337-0.326-0.514-0.842-0.529-1.545H360.782z
				 M351.495,176.953c0,0.68,0.166,1.165,0.494,1.458c0.33,0.293,0.787,0.44,1.371,0.44c0.203,0,0.395-0.011,0.573-0.032
				c0.179-0.021,0.349-0.052,0.513-0.094c0-0.134-0.006-0.289-0.019-0.465s-0.047-0.349-0.104-0.516
				c-0.098,0.025-0.207,0.049-0.328,0.069c-0.122,0.021-0.252,0.031-0.391,0.031c-0.179,0-0.326-0.02-0.445-0.057
				c-0.117-0.038-0.211-0.112-0.279-0.226c-0.07-0.113-0.118-0.275-0.146-0.484c-0.029-0.209-0.043-0.489-0.043-0.842v-2.939h1.584
				c0.017-0.084,0.029-0.168,0.037-0.252c0.008-0.083,0.012-0.172,0.012-0.264c0-0.176-0.016-0.335-0.049-0.478h-1.584v-1.597
				h-0.098l-2.096,2.413l0.049,0.177h0.949V176.953z M344.22,178.75c0.089,0.018,0.191,0.029,0.305,0.038
				c0.114,0.009,0.215,0.013,0.305,0.013s0.189-0.004,0.299-0.013s0.209-0.021,0.299-0.038v-3.267c0-0.394,0.046-0.73,0.141-1.011
				c0.092-0.281,0.217-0.509,0.371-0.686c0.154-0.176,0.334-0.306,0.536-0.39c0.203-0.083,0.419-0.125,0.646-0.125
				c0.391,0,0.675,0.14,0.854,0.421c0.18,0.28,0.268,0.718,0.268,1.313v3.743c0.091,0.018,0.189,0.029,0.3,0.038
				s0.209,0.013,0.298,0.013c0.09,0,0.191-0.004,0.305-0.013c0.114-0.009,0.215-0.021,0.305-0.038v-4.084
				c0-0.828-0.17-1.454-0.512-1.878c-0.341-0.423-0.869-0.635-1.584-0.635c-0.252,0-0.484,0.036-0.695,0.107
				c-0.211,0.07-0.397,0.164-0.561,0.276c-0.163,0.113-0.307,0.24-0.433,0.384c-0.126,0.142-0.229,0.284-0.31,0.427
				c0-0.143-0.014-0.32-0.037-0.534c-0.024-0.214-0.049-0.383-0.074-0.509c-0.09-0.018-0.172-0.029-0.25-0.038
				c-0.076-0.008-0.159-0.012-0.25-0.012c-0.088,0-0.176,0.004-0.262,0.012c-0.084,0.009-0.173,0.021-0.262,0.038V178.75z
				 M341.222,174.742c-0.113-0.017-0.254-0.031-0.421-0.044c-0.166-0.013-0.379-0.019-0.64-0.019c-0.35,0-0.682,0.044-1,0.132
				c-0.316,0.088-0.596,0.222-0.84,0.402c-0.244,0.18-0.438,0.405-0.58,0.678c-0.142,0.272-0.213,0.589-0.213,0.949
				c0,0.369,0.062,0.683,0.184,0.942c0.122,0.259,0.294,0.474,0.518,0.641c0.223,0.168,0.495,0.289,0.816,0.364
				c0.32,0.075,0.682,0.113,1.079,0.113c0.422,0,0.837-0.036,1.243-0.106c0.406-0.071,0.752-0.141,1.035-0.207v-4.034
				c0-0.837-0.211-1.447-0.633-1.828c-0.423-0.381-1.041-0.572-1.853-0.572c-0.31,0-0.63,0.025-0.964,0.076
				c-0.332,0.05-0.637,0.121-0.913,0.213c0,0.386,0.077,0.717,0.231,0.993c0.235-0.075,0.478-0.136,0.726-0.182
				c0.247-0.047,0.513-0.069,0.798-0.069c0.463,0,0.816,0.096,1.061,0.289c0.243,0.191,0.365,0.536,0.365,1.03V174.742z
				 M341.222,177.77c-0.154,0.042-0.331,0.073-0.529,0.094c-0.199,0.021-0.393,0.032-0.58,0.032c-0.146,0-0.301-0.009-0.463-0.026
				c-0.162-0.016-0.311-0.062-0.445-0.138c-0.133-0.075-0.245-0.184-0.334-0.326c-0.09-0.143-0.135-0.34-0.135-0.591
				c0-0.394,0.133-0.687,0.396-0.88c0.264-0.192,0.648-0.289,1.15-0.289c0.131,0,0.289,0.009,0.477,0.026
				c0.188,0.016,0.341,0.032,0.463,0.05V177.77z M332.057,174.905c0.056-0.553,0.218-0.983,0.481-1.294
				c0.264-0.31,0.644-0.465,1.14-0.465c0.251,0,0.47,0.048,0.651,0.144c0.183,0.098,0.334,0.226,0.451,0.385
				c0.117,0.158,0.207,0.345,0.269,0.559c0.062,0.213,0.091,0.438,0.091,0.672H332.057z M336.298,175.835
				c0.008-0.093,0.016-0.203,0.023-0.333c0.008-0.131,0.014-0.254,0.014-0.371c0-0.428-0.057-0.823-0.171-1.188
				c-0.114-0.365-0.28-0.679-0.5-0.943c-0.22-0.263-0.492-0.471-0.816-0.62c-0.325-0.151-0.702-0.228-1.134-0.228
				c-0.504,0-0.939,0.09-1.311,0.271c-0.369,0.18-0.676,0.423-0.92,0.728c-0.244,0.306-0.425,0.666-0.543,1.081
				c-0.117,0.415-0.176,0.861-0.176,1.338c0,0.486,0.061,0.933,0.182,1.338c0.123,0.407,0.315,0.758,0.58,1.057
				c0.264,0.297,0.599,0.526,1.006,0.69c0.406,0.163,0.894,0.245,1.461,0.245c0.391,0,0.746-0.03,1.068-0.088
				c0.32-0.059,0.614-0.147,0.883-0.264c-0.008-0.177-0.033-0.354-0.074-0.534c-0.039-0.18-0.092-0.333-0.157-0.459
				c-0.521,0.21-1.069,0.313-1.646,0.313c-0.658,0-1.156-0.163-1.492-0.489c-0.338-0.326-0.514-0.842-0.531-1.545H336.298z
				 M325.821,175.395c-0.207-0.251-0.31-0.574-0.31-0.967c0-0.402,0.103-0.731,0.31-0.987c0.209-0.255,0.531-0.383,0.97-0.383
				s0.764,0.128,0.975,0.383c0.212,0.256,0.317,0.585,0.317,0.987c0,0.393-0.105,0.716-0.317,0.967
				c-0.211,0.251-0.536,0.377-0.975,0.377S326.03,175.646,325.821,175.395 M327.62,178.938c0.414,0.009,0.699,0.08,0.853,0.214
				c0.154,0.134,0.231,0.327,0.231,0.578c0,0.335-0.182,0.614-0.549,0.836c-0.364,0.222-0.873,0.333-1.522,0.333
				c-0.22,0-0.421-0.015-0.603-0.044c-0.184-0.03-0.342-0.08-0.477-0.151c-0.134-0.07-0.236-0.166-0.311-0.282
				c-0.073-0.117-0.109-0.269-0.109-0.452c0-0.294,0.091-0.545,0.273-0.754c0.184-0.21,0.457-0.311,0.824-0.303L327.62,178.938z
				 M326.255,177.896c-0.366-0.009-0.602-0.07-0.707-0.183c-0.105-0.113-0.158-0.245-0.158-0.396c0-0.159,0.055-0.308,0.164-0.446
				c0.11-0.139,0.221-0.24,0.335-0.308c0.269,0.075,0.569,0.113,0.902,0.113c0.366,0,0.702-0.053,1.012-0.157
				c0.31-0.105,0.575-0.256,0.798-0.453c0.225-0.196,0.396-0.433,0.518-0.71c0.123-0.276,0.184-0.586,0.184-0.929
				c0-0.218-0.023-0.411-0.072-0.578c-0.05-0.168-0.119-0.323-0.207-0.465h1.096c0.017-0.102,0.029-0.201,0.037-0.303
				c0.008-0.1,0.012-0.196,0.012-0.288c0-0.192-0.016-0.368-0.049-0.528c-0.334,0-0.637,0.044-0.914,0.132
				c-0.276,0.088-0.495,0.199-0.658,0.333c-0.211-0.167-0.465-0.305-0.762-0.414s-0.627-0.164-0.993-0.164
				c-0.406,0-0.769,0.06-1.084,0.176c-0.317,0.118-0.584,0.279-0.8,0.484c-0.215,0.205-0.379,0.446-0.492,0.723
				c-0.114,0.276-0.172,0.573-0.172,0.893c0,0.385,0.082,0.73,0.244,1.036s0.379,0.555,0.646,0.748
				c-0.229,0.176-0.409,0.377-0.543,0.603s-0.201,0.494-0.201,0.804c0,0.243,0.055,0.446,0.165,0.61
				c0.109,0.163,0.245,0.299,0.408,0.408c-0.284,0.159-0.517,0.375-0.694,0.646c-0.179,0.272-0.269,0.58-0.269,0.924
				c0,0.578,0.22,1,0.657,1.27c0.439,0.268,1.078,0.402,1.914,0.402c0.479,0,0.924-0.054,1.334-0.157
				c0.412-0.105,0.767-0.256,1.067-0.453c0.3-0.197,0.536-0.431,0.707-0.703c0.17-0.272,0.257-0.58,0.257-0.924
				c0-0.528-0.164-0.942-0.488-1.244c-0.325-0.301-0.85-0.46-1.572-0.477L326.255,177.896z M321.452,170.922
				c0.123,0.008,0.232,0.013,0.33,0.013c0.088,0,0.192-0.005,0.311-0.013c0.118-0.009,0.225-0.021,0.323-0.038
				c0.016-0.101,0.026-0.209,0.03-0.326c0.004-0.118,0.006-0.222,0.006-0.315c0-0.092-0.002-0.195-0.006-0.313
				c-0.004-0.117-0.015-0.222-0.03-0.314c-0.099-0.016-0.207-0.028-0.329-0.037s-0.229-0.013-0.316-0.013
				c-0.091,0-0.195,0.004-0.318,0.013c-0.121,0.009-0.235,0.021-0.34,0.037c-0.018,0.093-0.027,0.197-0.031,0.314
				c-0.004,0.118-0.006,0.222-0.006,0.313c0,0.094,0.002,0.197,0.006,0.315c0.004,0.117,0.014,0.226,0.031,0.326
				C321.217,170.901,321.331,170.914,321.452,170.922 M321.38,178.75c0.089,0.018,0.189,0.029,0.298,0.038
				c0.11,0.009,0.206,0.013,0.287,0.013c0.089,0,0.188-0.004,0.298-0.013c0.11-0.009,0.21-0.021,0.299-0.038v-6.445h-1.974
				c-0.017,0.066-0.029,0.145-0.037,0.232s-0.012,0.175-0.012,0.258c0,0.084,0.004,0.17,0.012,0.258s0.021,0.165,0.037,0.231h0.792
				V178.75z M316.479,178.75c0.098,0.018,0.201,0.029,0.312,0.038S317,178.8,317.09,178.8c0.089,0,0.188-0.004,0.298-0.013
				c0.11-0.009,0.209-0.021,0.299-0.038v-3.203c0-0.437,0.047-0.792,0.141-1.068c0.093-0.277,0.22-0.494,0.377-0.653
				c0.158-0.16,0.338-0.271,0.537-0.333s0.408-0.095,0.627-0.095h0.164c0.07,0,0.137,0.009,0.203,0.025
				c0.016-0.101,0.029-0.205,0.041-0.314c0.013-0.108,0.019-0.213,0.019-0.313c0-0.093-0.004-0.181-0.013-0.265
				c-0.008-0.083-0.02-0.163-0.035-0.238c-0.049-0.009-0.108-0.015-0.178-0.019c-0.068-0.004-0.136-0.007-0.201-0.007
				c-0.438,0-0.797,0.104-1.078,0.314c-0.28,0.209-0.506,0.456-0.676,0.741c0-0.142-0.012-0.315-0.037-0.521
				c-0.024-0.205-0.049-0.37-0.073-0.496c-0.073-0.018-0.154-0.029-0.244-0.038c-0.089-0.008-0.178-0.012-0.269-0.012
				c-0.088,0-0.174,0.004-0.256,0.012c-0.08,0.009-0.166,0.021-0.256,0.038V178.75z M313.409,170.922
				c0.121,0.008,0.231,0.013,0.328,0.013c0.09,0,0.193-0.005,0.312-0.013c0.118-0.009,0.226-0.021,0.323-0.038
				c0.016-0.101,0.025-0.209,0.029-0.326c0.004-0.118,0.006-0.222,0.006-0.315c0-0.092-0.002-0.195-0.006-0.313
				c-0.004-0.117-0.014-0.222-0.029-0.314c-0.098-0.016-0.207-0.028-0.329-0.037s-0.228-0.013-0.317-0.013s-0.195,0.004-0.316,0.013
				c-0.123,0.009-0.236,0.021-0.342,0.037c-0.017,0.093-0.026,0.197-0.031,0.314c-0.004,0.118-0.006,0.222-0.006,0.313
				c0,0.094,0.002,0.197,0.006,0.315c0.005,0.117,0.015,0.226,0.031,0.326C313.173,170.901,313.286,170.914,313.409,170.922
				 M313.336,178.75c0.089,0.018,0.188,0.029,0.299,0.038c0.108,0.009,0.205,0.013,0.286,0.013c0.089,0,0.189-0.004,0.299-0.013
				s0.209-0.021,0.299-0.038v-6.445h-1.975c-0.018,0.066-0.029,0.145-0.037,0.232s-0.012,0.175-0.012,0.258
				c0,0.084,0.004,0.17,0.012,0.258s0.02,0.165,0.037,0.231h0.792V178.75z M309.838,177.745c-0.138,0.042-0.297,0.073-0.476,0.095
				c-0.179,0.021-0.373,0.03-0.584,0.03c-0.619,0-1.106-0.171-1.463-0.515c-0.358-0.343-0.541-0.913-0.549-1.709
				c0-0.351,0.038-0.676,0.115-0.973c0.077-0.299,0.195-0.556,0.354-0.773s0.359-0.39,0.604-0.515
				c0.244-0.126,0.531-0.189,0.865-0.189c0.22,0,0.423,0.018,0.609,0.051c0.188,0.033,0.361,0.083,0.524,0.15V177.745z
				 M309.838,172.342c-0.163-0.051-0.353-0.093-0.567-0.126s-0.428-0.051-0.64-0.051c-0.472,0-0.899,0.084-1.286,0.251
				c-0.386,0.169-0.717,0.404-0.992,0.711c-0.277,0.306-0.49,0.672-0.641,1.1c-0.15,0.427-0.225,0.9-0.225,1.419
				c0,0.604,0.084,1.11,0.256,1.521c0.17,0.41,0.402,0.745,0.693,1.006c0.293,0.26,0.637,0.445,1.03,0.559s0.812,0.17,1.25,0.17
				c0.472,0,0.897-0.032,1.278-0.094c0.383-0.063,0.728-0.142,1.037-0.233v-9.034c-0.09-0.017-0.189-0.028-0.299-0.037
				s-0.209-0.013-0.299-0.013c-0.08,0-0.179,0.004-0.291,0.013c-0.115,0.009-0.217,0.021-0.306,0.037V172.342z M297.076,174.905
				c0.057-0.553,0.216-0.983,0.481-1.294c0.264-0.31,0.643-0.465,1.139-0.465c0.251,0,0.468,0.048,0.651,0.144
				c0.182,0.098,0.333,0.226,0.451,0.385c0.118,0.158,0.207,0.345,0.268,0.559c0.061,0.213,0.092,0.438,0.092,0.672H297.076z
				 M301.315,175.835c0.008-0.093,0.016-0.203,0.023-0.333c0.008-0.131,0.012-0.254,0.012-0.371c0-0.428-0.057-0.823-0.17-1.188
				c-0.113-0.365-0.281-0.679-0.5-0.943c-0.22-0.263-0.492-0.471-0.816-0.62c-0.325-0.151-0.703-0.228-1.132-0.228
				c-0.503,0-0.941,0.09-1.31,0.271c-0.37,0.18-0.677,0.423-0.92,0.728c-0.243,0.306-0.425,0.666-0.542,1.081
				c-0.118,0.415-0.177,0.861-0.177,1.338c0,0.486,0.061,0.933,0.183,1.338c0.122,0.407,0.314,0.758,0.579,1.057
				c0.263,0.297,0.598,0.526,1.005,0.69c0.405,0.163,0.893,0.245,1.46,0.245c0.391,0,0.745-0.03,1.065-0.088
				c0.32-0.059,0.615-0.147,0.884-0.264c-0.009-0.177-0.032-0.354-0.073-0.534s-0.093-0.333-0.158-0.459
				c-0.52,0.21-1.068,0.313-1.645,0.313c-0.658,0-1.155-0.163-1.492-0.489c-0.337-0.326-0.513-0.842-0.529-1.545H301.315z
				 M290.166,175.081c0-0.317,0.044-0.593,0.134-0.822c0.089-0.23,0.207-0.421,0.353-0.572c0.146-0.15,0.313-0.264,0.5-0.339
				s0.382-0.113,0.585-0.113c0.544,0,0.936,0.197,1.176,0.591c0.24,0.394,0.36,0.925,0.36,1.596c0,0.419-0.051,0.78-0.153,1.087
				c-0.101,0.306-0.24,0.559-0.414,0.76c-0.175,0.201-0.384,0.35-0.628,0.446c-0.244,0.097-0.512,0.145-0.804,0.145
				c-0.26,0-0.472-0.013-0.634-0.038c-0.163-0.024-0.321-0.066-0.475-0.125V175.081z M288.959,181.715
				c0.089,0.017,0.189,0.029,0.299,0.038c0.109,0.008,0.209,0.013,0.298,0.013c0.09,0,0.189-0.005,0.299-0.013
				c0.11-0.009,0.213-0.021,0.311-0.038v-2.952c0.138,0.041,0.3,0.075,0.487,0.1c0.187,0.025,0.37,0.038,0.549,0.038
				c1.064,0,1.887-0.312,2.468-0.936s0.871-1.489,0.871-2.596c0-0.553-0.063-1.031-0.189-1.438c-0.126-0.406-0.3-0.741-0.524-1.005
				c-0.223-0.265-0.492-0.459-0.804-0.584c-0.313-0.126-0.652-0.189-1.018-0.189c-0.244,0-0.465,0.03-0.664,0.088
				c-0.199,0.06-0.378,0.14-0.537,0.239c-0.158,0.101-0.294,0.214-0.408,0.339c-0.114,0.126-0.211,0.256-0.292,0.391
				c0-0.025-0.006-0.085-0.019-0.177c-0.012-0.092-0.024-0.188-0.036-0.289c-0.012-0.101-0.025-0.194-0.037-0.282
				c-0.012-0.089-0.022-0.141-0.03-0.157c-0.082-0.018-0.167-0.029-0.256-0.038c-0.09-0.008-0.175-0.012-0.256-0.012
				c-0.09,0-0.177,0.004-0.262,0.012c-0.085,0.009-0.169,0.021-0.25,0.038V181.715z M285.9,170.922
				c0.122,0.008,0.231,0.013,0.329,0.013c0.089,0,0.193-0.005,0.311-0.013c0.117-0.009,0.225-0.021,0.323-0.038
				c0.016-0.101,0.026-0.209,0.03-0.326c0.004-0.118,0.006-0.222,0.006-0.315c0-0.092-0.002-0.195-0.006-0.313
				c-0.004-0.117-0.014-0.222-0.03-0.314c-0.098-0.016-0.207-0.028-0.329-0.037s-0.228-0.013-0.317-0.013
				c-0.09,0-0.195,0.004-0.317,0.013s-0.236,0.021-0.341,0.037c-0.017,0.093-0.027,0.197-0.031,0.314
				c-0.004,0.118-0.006,0.222-0.006,0.313c0,0.094,0.002,0.197,0.006,0.315c0.004,0.117,0.014,0.226,0.031,0.326
				C285.664,170.901,285.778,170.914,285.9,170.922 M285.827,178.75c0.089,0.018,0.189,0.029,0.298,0.038
				c0.11,0.009,0.205,0.013,0.287,0.013c0.089,0,0.189-0.004,0.298-0.013c0.11-0.009,0.209-0.021,0.299-0.038v-6.445h-1.974
				c-0.017,0.066-0.029,0.145-0.037,0.232c-0.008,0.088-0.012,0.175-0.012,0.258c0,0.084,0.004,0.17,0.012,0.258
				c0.008,0.088,0.02,0.165,0.037,0.231h0.792V178.75z M278.392,175.885c0,0.645,0.077,1.165,0.232,1.558
				c0.154,0.395,0.365,0.7,0.634,0.917c0.268,0.218,0.578,0.363,0.932,0.435c0.353,0.07,0.729,0.106,1.127,0.106
				c0.423,0,0.831-0.038,1.225-0.113c0.394-0.075,0.733-0.154,1.018-0.238v-6.245c-0.09-0.018-0.189-0.029-0.299-0.038
				c-0.109-0.008-0.209-0.012-0.298-0.012c-0.09,0-0.189,0.004-0.299,0.012c-0.11,0.009-0.209,0.021-0.299,0.038v5.416
				c-0.292,0.092-0.645,0.138-1.06,0.138c-0.276,0-0.52-0.029-0.731-0.088c-0.212-0.059-0.39-0.163-0.536-0.314
				c-0.147-0.15-0.256-0.357-0.33-0.621c-0.073-0.265-0.109-0.598-0.109-0.999v-3.531c-0.09-0.018-0.191-0.029-0.305-0.038
				c-0.114-0.008-0.215-0.012-0.305-0.012c-0.081,0-0.178,0.004-0.292,0.012c-0.114,0.009-0.216,0.021-0.305,0.038V175.885z
				 M275.333,177.695c-0.163,0.042-0.339,0.079-0.53,0.113c-0.191,0.033-0.392,0.05-0.603,0.05c-0.285,0-0.545-0.038-0.78-0.113
				c-0.236-0.075-0.441-0.198-0.616-0.371c-0.175-0.171-0.311-0.391-0.408-0.659c-0.098-0.269-0.147-0.591-0.147-0.968
				s0.045-0.72,0.135-1.029c0.089-0.311,0.221-0.578,0.396-0.806c0.174-0.226,0.396-0.401,0.664-0.526
				c0.268-0.126,0.581-0.189,0.938-0.189c0.09,0,0.169,0.002,0.238,0.007c0.069,0.004,0.138,0.009,0.207,0.013
				c0.069,0.004,0.142,0.013,0.22,0.024c0.077,0.014,0.172,0.032,0.286,0.058V177.695z M275.333,181.715
				c0.089,0.017,0.189,0.029,0.299,0.038c0.109,0.008,0.209,0.013,0.298,0.013c0.09,0,0.189-0.005,0.299-0.013
				c0.11-0.009,0.209-0.021,0.298-0.038v-9.273c-0.325-0.092-0.65-0.163-0.975-0.213c-0.325-0.051-0.715-0.076-1.17-0.076
				c-0.52,0-0.989,0.086-1.407,0.258c-0.419,0.172-0.774,0.415-1.067,0.729c-0.292,0.313-0.518,0.688-0.676,1.124
				c-0.159,0.436-0.238,0.913-0.238,1.433c0,0.604,0.085,1.108,0.256,1.515c0.171,0.405,0.4,0.734,0.689,0.985
				c0.288,0.251,0.623,0.429,1.005,0.534c0.382,0.105,0.784,0.157,1.207,0.157c0.235,0,0.449-0.013,0.64-0.037
				c0.191-0.026,0.371-0.06,0.542-0.102V181.715z M268.971,169.691c-0.114-0.017-0.232-0.03-0.353-0.038
				c-0.122-0.008-0.256-0.013-0.403-0.013c-0.138,0-0.272,0.005-0.402,0.013c-0.13,0.008-0.256,0.021-0.378,0.038l-1.401,1.595
				c0.097,0.018,0.193,0.03,0.286,0.038c0.093,0.009,0.185,0.014,0.274,0.014c0.13,0,0.248-0.005,0.354-0.014
				c0.105-0.008,0.203-0.021,0.292-0.038L268.971,169.691z M265.473,174.905c0.057-0.553,0.217-0.983,0.481-1.294
				c0.264-0.31,0.644-0.465,1.14-0.465c0.252,0,0.469,0.048,0.652,0.144c0.183,0.098,0.333,0.226,0.451,0.385
				c0.118,0.158,0.207,0.345,0.268,0.559c0.061,0.213,0.092,0.438,0.092,0.672H265.473z M269.714,175.835
				c0.008-0.093,0.017-0.203,0.025-0.333c0.008-0.131,0.012-0.254,0.012-0.371c0-0.428-0.057-0.823-0.171-1.188
				c-0.113-0.365-0.28-0.679-0.499-0.943c-0.22-0.263-0.492-0.471-0.817-0.62c-0.325-0.151-0.703-0.228-1.133-0.228
				c-0.504,0-0.941,0.09-1.311,0.271c-0.369,0.18-0.676,0.423-0.92,0.728c-0.244,0.306-0.424,0.666-0.542,1.081
				c-0.118,0.415-0.177,0.861-0.177,1.338c0,0.486,0.061,0.933,0.183,1.338c0.122,0.407,0.315,0.758,0.579,1.057
				c0.264,0.297,0.599,0.526,1.005,0.69c0.407,0.163,0.894,0.245,1.463,0.245c0.39,0,0.745-0.03,1.066-0.088
				c0.321-0.059,0.616-0.147,0.884-0.264c-0.008-0.177-0.033-0.354-0.073-0.534c-0.041-0.18-0.094-0.333-0.159-0.459
				c-0.52,0.21-1.068,0.313-1.645,0.313c-0.658,0-1.156-0.163-1.493-0.489s-0.514-0.842-0.53-1.545H269.714z M261.037,172.518
				c0.097,0.025,0.193,0.04,0.286,0.044s0.189,0.006,0.286,0.006c0.09,0,0.185-0.002,0.287-0.006
				c0.101-0.004,0.205-0.019,0.311-0.044l0.755-2.802c-0.097-0.018-0.201-0.03-0.31-0.038c-0.11-0.008-0.214-0.014-0.311-0.014
				c-0.09,0-0.185,0.006-0.287,0.014c-0.101,0.008-0.201,0.021-0.298,0.038L261.037,172.518z M256.588,178.75h4.668
				c0.024-0.176,0.037-0.363,0.037-0.564c0-0.084-0.003-0.176-0.006-0.277c-0.005-0.1-0.015-0.196-0.031-0.289h-3.437v-7.902
				c-0.098-0.018-0.199-0.03-0.305-0.038c-0.105-0.008-0.211-0.014-0.317-0.014c-0.113,0-0.221,0.006-0.323,0.014
				c-0.101,0.008-0.197,0.021-0.286,0.038V178.75z"/>
		</g>
		<polygon fill="#9B9B9B" points="321.14,396.883 314.144,403.195 339.636,403.195 339.636,396.883 		"/>
		<polygon fill="#60276F" points="311.001,395.428 311.001,403.439 331.677,383.666 322.765,383.666 		"/>
		<g>
			<defs>
				<rect id="SVGID_3_" x="206.015" y="169.49" width="180.619" height="267.596"/>
			</defs>
			<clipPath id="SVGID_4_">
				<use xlink:href="#SVGID_3_"  overflow="visible"/>
			</clipPath>
			<path clip-path="url(#SVGID_4_)" fill="#9B9B9B" d="M325.763,362.369c4.23,0,7.701,2.715,7.701,7.135
				c0,3.66-2.461,6.754-4.924,9.152l-2.528,2.512l8.329-0.002c3.068-3.277,5.562-6.961,5.562-11.727
				c0-8.207-6.376-12.373-14.078-12.373c-7.701,0-13.572,3.725-14.771,11.615l6.564,0.568
				C318.376,365.02,321.407,362.369,325.763,362.369"/>
			<path clip-path="url(#SVGID_4_)" fill="#9B9B9B" d="M351.929,374.881h-5.594c0-6.184,4.49-18.109,18.476-18.109
				s17.444,14.428,17.444,17.666h-5.668c0-3.09-2.571-12.086-11.998-12.219C354.137,362.072,351.929,371.787,351.929,374.881"/>
			<path clip-path="url(#SVGID_4_)" fill="#60276F" d="M377.029,375.764h5.595c0,6.184-4.49,18.107-18.477,18.107
				s-17.445-14.428-17.445-17.666h5.668c0,3.092,2.572,12.086,11.998,12.219C374.821,388.572,377.029,378.855,377.029,375.764"/>
		</g>
		<polygon fill="#9B9B9B" points="371.906,417.635 366.384,423.947 386.06,423.947 386.06,417.635 		"/>
		<polygon fill="#60276F" points="379.194,396.797 362.784,416.656 362.784,424.67 386.633,396.797 		"/>
		<polygon fill="#9B9B9B" points="344.137,396.762 344.202,403.092 352.239,403.092 357.718,396.762 		"/>
		<polygon fill="#9B9B9B" points="350.356,401.293 350.356,424.98 357.092,424.98 357.092,397.057 		"/>
		<rect x="379.347" y="425.799" fill="#9B9B9B" width="6.552" height="11.287"/>
		<g>
			<defs>
				<rect id="SVGID_5_" x="206.015" y="205.242" width="175.361" height="58.593"/>
			</defs>
			<clipPath id="SVGID_6_">
				<use xlink:href="#SVGID_5_"  overflow="visible"/>
			</clipPath>
			<g clip-path="url(#SVGID_6_)">
				<text transform="matrix(1 0 0 1 255.312 573.042)" font-family="'Flexure'" font-size="47.0888">.t.i</text>
			</g>
			<g clip-path="url(#SVGID_6_)">
				<text transform="matrix(1 0 0 1 470.2324 899.248)"><tspan x="0" y="0" fill="#8E8E8E" font-family="'Avenir-Roman'" font-size="12.3859" letter-spacing="2">gr</tspan><tspan x="16.634" y="0" fill="#8E8E8E" font-family="'Avenir-Roman'" font-size="12.3859" letter-spacing="2">o</tspan><tspan x="26.332" y="0" fill="#8E8E8E" font-family="'Avenir-Roman'" font-size="12.3859" letter-spacing="2">u</tspan><tspan x="35.572" y="0" fill="#8E8E8E" font-family="'Avenir-Roman'" font-size="12.3859" letter-spacing="2">p</tspan><tspan x="45.48" y="0" fill="#8E8E8E" font-family="'Avenir-Roman'" font-size="12.3859">e</tspan></text>
			</g>
			<g clip-path="url(#SVGID_6_)">
				<text transform="matrix(1 0 0 1 407.4531 883.6104)" font-family="'Avenir-Medium'" font-size="57.1608">nawi</text>
			</g>
			<g clip-path="url(#SVGID_6_)">
				<text transform="matrix(1 0 0 1 299.022 276.2031)"><tspan x="0" y="0" fill="#878786" font-family="'Avenir-Black'" font-size="10.7453" letter-spacing="2">na</tspan><tspan x="16.236" y="0" fill="#878786" font-family="'Avenir-Black'" font-size="10.7453" letter-spacing="2">w</tspan><tspan x="27.325" y="0" fill="#878786" font-family="'Avenir-Black'" font-size="10.7453">i</tspan></text>
			</g>
			<g clip-path="url(#SVGID_6_)">
				<text transform="matrix(1 0 0 1 331.3008 276.2031)"><tspan x="0" y="0" fill="#CACBCB" font-family="'Avenir-Medium'" font-size="10.7453" letter-spacing="2">g</tspan><tspan x="8.715" y="0" fill="#CACBCB" font-family="'Avenir-Medium'" font-size="10.7453" letter-spacing="2">r</tspan><tspan x="14.828" y="0" fill="#CACBCB" font-family="'Avenir-Medium'" font-size="10.7453" letter-spacing="2">oup</tspan><tspan x="40.198" y="0" fill="#CACBCB" font-family="'Avenir-Medium'" font-size="10.7453">e</tspan></text>
			</g>
			<path clip-path="url(#SVGID_6_)" d="M242.009,384.381v-0.145c5.182-1.727,8.777-5.395,8.777-11.221
				c0-5.125-2.345-8.641-6.094-10.66l-4.846,4.971c2.449,1.309,3.602,3.76,3.602,6.48c0,5.539-4.245,7.627-9.495,7.627h-3.562v6.039
				h4.354c6.691,0,10.935,3.023,10.935,9.064c0,7.195-6.835,8.633-11.007,8.633h-7.508l-6.313,6.041h14.254
				c9.926,0,17.91-5.035,17.91-14.17C253.016,390.207,248.125,384.812,242.009,384.381"/>
			<path clip-path="url(#SVGID_6_)" d="M263.206,400.684l0.123-3.703h12.774c-0.547-1.922-1.208-3.15-3.43-4.389
				c-3.742-2.086-8.016-0.801-10.262,3.229c-2.246,4.031-1.09,8.344,2.653,10.428c4.279,2.385,7.304,0.727,10.061-2.48l3.409,2.492
				c-3.322,4.994-9.717,6.605-15.394,3.445c-5.47-3.051-7.904-9.902-4.512-15.992c3.391-6.088,10.5-7.623,15.971-4.576
				c4.606,2.566,6.34,6.713,6.058,11.57L263.206,400.684z"/>
			<path clip-path="url(#SVGID_6_)" d="M283.229,406.777h11.584c1.93,0,2.683-0.754,2.683-2.166c0-4.145-14.267-2.543-14.267-10.359
				c0-4.002,2.778-6.121,7.723-6.121h9.744v3.955h-10.45c-2.025,0-2.591,0.564-2.685,1.977c0,3.91,14.265,2.26,14.265,10.359
				c0,4.287-3.012,6.311-7.013,6.311h-11.584V406.777z"/>
			<path clip-path="url(#SVGID_6_)" d="M304.133,406.777h11.584c1.931,0,2.685-0.754,2.685-2.166
				c0-4.145-14.269-2.543-14.269-10.359c0-4.002,2.778-6.121,7.722-6.121h9.747v3.955h-10.452c-2.027,0-2.591,0.564-2.685,1.977
				c0,3.91,14.267,2.26,14.267,10.359c0,4.287-3.013,6.311-7.015,6.311h-11.584V406.777z"/>
			<path clip-path="url(#SVGID_6_)" d="M336.811,387.66c6.263,0,11.726,4.803,11.726,11.771s-5.463,11.771-11.726,11.771
				s-11.724-4.803-11.724-11.771S330.548,387.66,336.811,387.66 M336.811,407.248c4.285,0,7.394-3.201,7.394-7.816
				s-3.108-7.816-7.394-7.816c-4.284,0-7.392,3.201-7.392,7.816S332.526,407.248,336.811,407.248"/>
			<path clip-path="url(#SVGID_6_)" d="M352.021,410.732v-13.184c0-5.934,4.145-9.889,9.654-9.889c5.508,0,9.652,3.955,9.652,9.889
				v13.184h-4.145v-13.184c0-3.486-2.541-5.934-5.508-5.934c-2.968,0-5.51,2.447-5.51,5.934v13.184H352.021z"/>
			<polygon clip-path="url(#SVGID_6_)" fill="#60276F" points="227.274,373.967 227.274,400.98 216.728,411.074 216.731,362.92 			
				"/>
			<polygon clip-path="url(#SVGID_6_)" fill="#9D9D9D" points="230.992,371.418 230.204,371.418 220.11,360.871 242.039,360.875 			
				"/>
			<path clip-path="url(#SVGID_6_)" d="M227.639,684.365c1.61-1.373,3.647-2.059,6.111-2.059c1.182,0,2.309,0.188,3.375,0.566
				c1.065,0.381,1.99,0.914,2.771,1.6c0.781,0.688,1.396,1.527,1.848,2.521c0.449,0.996,0.674,2.109,0.674,3.34
				c0,1.043-0.154,2.037-0.461,2.986c-0.309,0.947-0.723,1.846-1.244,2.699c-0.522,0.852-1.113,1.67-1.777,2.451
				c-0.663,0.781-1.349,1.504-2.06,2.168l-2.844,2.824l9.374-0.002c0.262-0.277,0.532-0.553,0.789-0.834
				c1.042-1.137,1.964-2.346,2.771-3.623c0.805-1.279,1.457-2.641,1.954-4.086c0.497-1.443,0.746-2.996,0.746-4.654
				c0-2.32-0.415-4.346-1.243-6.074c-0.83-1.73-1.967-3.174-3.411-4.336c-1.446-1.16-3.127-2.035-5.045-2.627
				c-1.919-0.594-3.968-0.891-6.147-0.891c-2.179,0-4.204,0.262-6.075,0.783c-1.871,0.521-3.529,1.326-4.973,2.414
				c-1.446,1.092-2.654,2.453-3.624,4.086c-0.971,1.635-1.623,3.564-1.954,5.791l7.39,0.641
				C225.009,687.633,226.027,685.74,227.639,684.365"/>
			<polygon clip-path="url(#SVGID_6_)" fill="#60276F" points="226.325,706.273 217.135,715.119 217.455,728.287 240.002,706.629 
							"/>
			<polygon clip-path="url(#SVGID_6_)" fill="#9D9D9D" points="249.259,718.314 249.369,728.258 220.672,728.258 231.788,718.227 
							"/>
			<g clip-path="url(#SVGID_6_)">
				<text transform="matrix(1 0 0 1 252.9604 728.0205)" font-family="'Comfortaa'" font-size="47.0888">C Cellier</text>
			</g>
			<g clip-path="url(#SVGID_6_)">
				<text transform="matrix(1 0 0 1 293.5654 428.418)"><tspan x="0" y="0" fill="#878786" font-family="'Avenir-Black'" font-size="10.7453" letter-spacing="2">naw</tspan><tspan x="27.335" y="0" fill="#878786" font-family="'Avenir-Black'" font-size="10.7453">i</tspan></text>
			</g>
			<g clip-path="url(#SVGID_6_)">
				<text transform="matrix(1 0 0 1 325.8438 428.418)"><tspan x="0" y="0" fill="#CACBCB" font-family="'Avenir-Medium'" font-size="10.7453" letter-spacing="2">g</tspan><tspan x="8.704" y="0" fill="#CACBCB" font-family="'Avenir-Medium'" font-size="10.7453" letter-spacing="2">ro</tspan><tspan x="23.361" y="0" fill="#CACBCB" font-family="'Avenir-Medium'" font-size="10.7453" letter-spacing="2">u</tspan><tspan x="31.474" y="0" fill="#CACBCB" font-family="'Avenir-Medium'" font-size="10.7453" letter-spacing="2">p</tspan><tspan x="40.188" y="0" fill="#CACBCB" font-family="'Avenir-Medium'" font-size="10.7453">e</tspan></text>
			</g>
			<g clip-path="url(#SVGID_6_)">
				<text transform="matrix(1 0 0 1 239.5488 590.9941)"><tspan x="0" y="0" fill="#878786" font-family="'Avenir-Black'" font-size="10.7453" letter-spacing="2">na</tspan><tspan x="16.236" y="0" fill="#878786" font-family="'Avenir-Black'" font-size="10.7453" letter-spacing="2">w</tspan><tspan x="27.325" y="0" fill="#878786" font-family="'Avenir-Black'" font-size="10.7453">i</tspan></text>
			</g>
			<g clip-path="url(#SVGID_6_)">
				<text transform="matrix(1 0 0 1 271.8276 590.9941)"><tspan x="0" y="0" fill="#CACBCB" font-family="'Avenir-Medium'" font-size="10.7453" letter-spacing="2">g</tspan><tspan x="8.704" y="0" fill="#CACBCB" font-family="'Avenir-Medium'" font-size="10.7453" letter-spacing="2">r</tspan><tspan x="14.829" y="0" fill="#CACBCB" font-family="'Avenir-Medium'" font-size="10.7453" letter-spacing="2">o</tspan><tspan x="23.35" y="0" fill="#CACBCB" font-family="'Avenir-Medium'" font-size="10.7453" letter-spacing="2">u</tspan><tspan x="31.473" y="0" fill="#CACBCB" font-family="'Avenir-Medium'" font-size="10.7453" letter-spacing="2">p</tspan><tspan x="40.176" y="0" fill="#CACBCB" font-family="'Avenir-Medium'" font-size="10.7453">e</tspan></text>
			</g>
			<path clip-path="url(#SVGID_6_)" d="M491.536,682.301c4.76,0,8.668,3.057,8.668,8.031c0,4.121-2.771,7.604-5.541,10.303
				l-2.848,2.828l9.379-0.002c3.449-3.689,6.26-7.836,6.26-13.201c0-9.236-7.178-13.928-15.848-13.928s-15.277,4.193-16.629,13.076
				l7.391,0.639C483.222,685.287,486.632,682.301,491.536,682.301"/>
			<polygon clip-path="url(#SVGID_6_)" fill="#60276F" points="484.11,706.273 474.919,715.119 475.239,728.287 497.786,706.629 			
				"/>
			<polygon clip-path="url(#SVGID_6_)" fill="#9D9D9D" points="507.044,718.314 507.153,728.258 478.456,728.258 489.573,718.227 
							"/>
			<g clip-path="url(#SVGID_6_)">
				<text transform="matrix(1 0 0 1 510.748 728.0205)" font-family="'Comfortaa'" font-size="47.0888">C Cellier</text>
			</g>
			<g clip-path="url(#SVGID_6_)">
				<text transform="matrix(1 0 0 1 598.8184 746.4863)"><tspan x="0" y="0" fill="#878786" font-family="'Avenir-Black'" font-size="10.7453" letter-spacing="2">na</tspan><tspan x="16.236" y="0" fill="#878786" font-family="'Avenir-Black'" font-size="10.7453" letter-spacing="2">w</tspan><tspan x="27.326" y="0" fill="#878786" font-family="'Avenir-Black'" font-size="10.7453">i</tspan></text>
			</g>
			<g clip-path="url(#SVGID_6_)">
				<text transform="matrix(1 0 0 1 631.0967 746.4863)"><tspan x="0" y="0" fill="#CACBCB" font-family="'Avenir-Medium'" font-size="10.7453" letter-spacing="2">gr</tspan><tspan x="14.817" y="0" fill="#CACBCB" font-family="'Avenir-Medium'" font-size="10.7453" letter-spacing="2">o</tspan><tspan x="23.35" y="0" fill="#CACBCB" font-family="'Avenir-Medium'" font-size="10.7453" letter-spacing="2">u</tspan><tspan x="31.463" y="0" fill="#CACBCB" font-family="'Avenir-Medium'" font-size="10.7453" letter-spacing="2">p</tspan><tspan x="40.177" y="0" fill="#CACBCB" font-family="'Avenir-Medium'" font-size="10.7453">e</tspan></text>
			</g>
		</g>
	</g>
</g>
<g>
	<path fill="#60276F" d="M213.029,269.974c0.154-0.019,0.331-0.037,0.53-0.056c0.199-0.019,0.375-0.028,0.529-0.028
		c0.344,0,0.707,0.028,1.086,0.084l2.132,7.938l2.159-7.938c0.181-0.027,0.355-0.046,0.523-0.056
		c0.167-0.009,0.337-0.014,0.509-0.014c0.163,0,0.328,0.005,0.496,0.014c0.167,0.01,0.341,0.028,0.523,0.056l-3.151,10.066
		c-0.19,0.028-0.374,0.049-0.55,0.063c-0.177,0.014-0.365,0.021-0.563,0.021c-0.182,0-0.358-0.007-0.53-0.021
		c-0.172-0.015-0.362-0.035-0.57-0.063L213.029,269.974z"/>
	<path fill="#60276F" d="M226.229,280.208c-0.733,0-1.367-0.131-1.901-0.392c-0.534-0.262-0.973-0.623-1.317-1.085
		c-0.344-0.463-0.6-1.009-0.767-1.639s-0.251-1.318-0.251-2.064c0-0.747,0.084-1.439,0.251-2.079s0.423-1.192,0.767-1.659
		s0.783-0.831,1.317-1.092c0.534-0.262,1.168-0.393,1.901-0.393s1.367,0.131,1.901,0.393c0.534,0.261,0.973,0.625,1.317,1.092
		s0.6,1.02,0.767,1.659s0.251,1.332,0.251,2.079c0,0.746-0.084,1.435-0.251,2.064s-0.423,1.176-0.767,1.639
		c-0.344,0.462-0.783,0.823-1.317,1.085C227.596,280.077,226.962,280.208,226.229,280.208z M226.229,278.5
		c1.403,0,2.105-1.157,2.105-3.472c0-1.157-0.17-2.025-0.509-2.604c-0.34-0.578-0.867-0.868-1.582-0.868
		c-1.422,0-2.132,1.158-2.132,3.473S224.816,278.5,226.229,278.5z"/>
	<path fill="#60276F" d="M232.055,269.974c0.172-0.027,0.339-0.046,0.502-0.056c0.163-0.009,0.33-0.014,0.502-0.014
		c0.154,0,0.312,0.005,0.475,0.014c0.163,0.01,0.331,0.028,0.502,0.056v5.223c0,0.569,0.021,1.057,0.061,1.463
		c0.041,0.406,0.123,0.742,0.245,1.008s0.294,0.462,0.516,0.588c0.222,0.126,0.509,0.189,0.862,0.189s0.638-0.063,0.855-0.189
		s0.387-0.322,0.509-0.588s0.204-0.602,0.244-1.008c0.041-0.406,0.062-0.894,0.062-1.463v-5.223
		c0.181-0.027,0.353-0.046,0.516-0.056c0.163-0.009,0.321-0.014,0.476-0.014c0.163,0,0.328,0.005,0.496,0.014
		c0.167,0.01,0.337,0.028,0.509,0.056v5.656c0,0.682-0.054,1.305-0.163,1.869c-0.108,0.564-0.303,1.048-0.584,1.449
		s-0.656,0.712-1.127,0.931c-0.471,0.22-1.068,0.329-1.792,0.329c-0.725,0-1.322-0.109-1.792-0.329
		c-0.471-0.219-0.847-0.529-1.127-0.931s-0.475-0.885-0.584-1.449c-0.108-0.564-0.163-1.188-0.163-1.869V269.974z"/>
	<path fill="#60276F" d="M243,275.378c-0.308-0.121-0.584-0.254-0.828-0.398c-0.245-0.146-0.453-0.317-0.625-0.519
		c-0.172-0.2-0.305-0.44-0.4-0.721s-0.143-0.616-0.143-1.008c0-0.477,0.079-0.896,0.238-1.261c0.158-0.363,0.382-0.669,0.672-0.917
		c0.29-0.247,0.638-0.434,1.046-0.56c0.407-0.126,0.864-0.189,1.372-0.189c0.461,0,0.894,0.042,1.297,0.126s0.826,0.206,1.27,0.364
		c-0.054,0.542-0.199,1.073-0.435,1.596c-0.136-0.056-0.274-0.111-0.414-0.168c-0.141-0.056-0.29-0.103-0.448-0.14
		s-0.337-0.067-0.536-0.091c-0.199-0.023-0.426-0.035-0.679-0.035c-0.154,0-0.31,0.014-0.469,0.042
		c-0.158,0.028-0.301,0.079-0.428,0.154c-0.126,0.074-0.23,0.185-0.312,0.329s-0.123,0.333-0.123,0.566
		c0,0.188,0.032,0.343,0.095,0.469c0.063,0.127,0.149,0.234,0.258,0.322c0.108,0.089,0.23,0.164,0.366,0.225
		c0.136,0.061,0.272,0.118,0.408,0.175l0.815,0.322c0.344,0.14,0.656,0.284,0.937,0.434c0.28,0.149,0.518,0.334,0.713,0.553
		c0.194,0.22,0.346,0.485,0.455,0.798c0.109,0.313,0.163,0.698,0.163,1.155c0,0.477-0.084,0.91-0.251,1.302
		c-0.168,0.393-0.41,0.729-0.727,1.009c-0.317,0.279-0.708,0.499-1.175,0.657c-0.466,0.159-1.003,0.238-1.609,0.238
		c-0.299,0-0.566-0.01-0.801-0.028s-0.459-0.049-0.672-0.091c-0.213-0.042-0.423-0.096-0.632-0.161
		c-0.208-0.064-0.425-0.145-0.652-0.237c0.027-0.271,0.077-0.554,0.149-0.848c0.073-0.294,0.159-0.59,0.258-0.889
		c0.38,0.159,0.738,0.277,1.073,0.357c0.335,0.079,0.692,0.118,1.073,0.118c0.57,0,1.019-0.109,1.344-0.329
		c0.326-0.219,0.489-0.553,0.489-1.001c0-0.224-0.039-0.41-0.116-0.56s-0.176-0.275-0.299-0.378
		c-0.122-0.103-0.26-0.189-0.414-0.259c-0.154-0.07-0.312-0.138-0.475-0.203L243,275.378z"/>
	<path fill="#60276F" d="M255.588,269.932c0.416-0.037,0.837-0.067,1.263-0.091c0.426-0.023,0.855-0.035,1.29-0.035
		c0.453,0,0.912,0.047,1.378,0.141c0.466,0.093,0.887,0.269,1.263,0.524c0.375,0.257,0.681,0.614,0.917,1.071
		s0.353,1.05,0.353,1.778c0,0.728-0.118,1.318-0.353,1.771c-0.235,0.453-0.539,0.81-0.91,1.071
		c-0.372,0.262-0.786,0.438-1.243,0.532c-0.457,0.093-0.908,0.14-1.351,0.14c-0.118,0-0.229-0.002-0.333-0.007
		s-0.202-0.012-0.292-0.021v3.234c-0.172,0.028-0.339,0.047-0.502,0.056c-0.163,0.01-0.321,0.015-0.475,0.015
		c-0.145,0-0.304-0.005-0.476-0.015c-0.172-0.009-0.348-0.027-0.529-0.056V269.932z M257.571,275.112
		c0.109,0.019,0.21,0.027,0.306,0.027s0.21,0,0.346,0c0.227,0,0.448-0.03,0.666-0.091s0.41-0.161,0.577-0.301
		s0.301-0.324,0.401-0.553c0.099-0.229,0.149-0.512,0.149-0.848c0-0.345-0.05-0.637-0.149-0.875c-0.1-0.237-0.233-0.429-0.401-0.573
		s-0.36-0.248-0.577-0.309s-0.439-0.091-0.666-0.091c-0.1,0-0.192,0.003-0.278,0.007c-0.086,0.005-0.21,0.017-0.374,0.035V275.112z"
		/>
	<path fill="#60276F" d="M263.601,269.974c0.398-0.046,0.771-0.086,1.12-0.118c0.349-0.033,0.735-0.05,1.161-0.05
		c0.498,0,0.989,0.047,1.473,0.141c0.484,0.093,0.921,0.259,1.311,0.497c0.389,0.237,0.704,0.56,0.944,0.966s0.36,0.922,0.36,1.547
		c0,0.373-0.045,0.702-0.136,0.987c-0.09,0.284-0.206,0.534-0.346,0.749c-0.141,0.215-0.292,0.398-0.455,0.553
		c-0.163,0.154-0.317,0.277-0.461,0.371l-0.231,0.154l2.376,4.256c-0.181,0.019-0.372,0.037-0.57,0.056
		c-0.199,0.019-0.403,0.028-0.611,0.028c-0.344,0-0.684-0.028-1.019-0.084l-2.553-4.677l0.326-0.168
		c0.127-0.064,0.281-0.148,0.462-0.252c0.181-0.103,0.355-0.23,0.523-0.385c0.167-0.154,0.31-0.341,0.428-0.56
		c0.117-0.22,0.176-0.479,0.176-0.777c0-0.588-0.163-1.02-0.489-1.295s-0.747-0.413-1.263-0.413c-0.2,0-0.38,0.014-0.543,0.042
		v8.498c-0.163,0.019-0.326,0.035-0.489,0.049c-0.163,0.015-0.322,0.021-0.476,0.021s-0.317-0.005-0.489-0.015
		c-0.172-0.009-0.349-0.027-0.529-0.056V269.974z"/>
	<path fill="#60276F" d="M271.803,269.974h5.541c0.054,0.28,0.082,0.565,0.082,0.854c0,0.308-0.027,0.602-0.082,0.882h-3.558v2.184
		h2.825c0.054,0.299,0.082,0.589,0.082,0.868c0,0.299-0.027,0.593-0.082,0.882h-2.825v2.66h3.653
		c0.054,0.28,0.082,0.565,0.082,0.854c0,0.308-0.027,0.602-0.082,0.882h-5.636V269.974z M274.355,267.65
		c0.199-0.028,0.419-0.052,0.659-0.07s0.482-0.028,0.727-0.028c0.235,0,0.462,0.01,0.679,0.028s0.403,0.042,0.557,0.07l-1.996,1.456
		c-0.163,0.037-0.326,0.061-0.489,0.069c-0.163,0.01-0.322,0.015-0.476,0.015c-0.335,0-0.666-0.028-0.991-0.084L274.355,267.65z"/>
	<path fill="#60276F" d="M280.792,275.378c-0.308-0.121-0.584-0.254-0.828-0.398c-0.245-0.146-0.453-0.317-0.625-0.519
		c-0.172-0.2-0.305-0.44-0.4-0.721s-0.143-0.616-0.143-1.008c0-0.477,0.079-0.896,0.238-1.261c0.158-0.363,0.382-0.669,0.672-0.917
		c0.29-0.247,0.638-0.434,1.046-0.56c0.407-0.126,0.864-0.189,1.372-0.189c0.461,0,0.894,0.042,1.297,0.126s0.826,0.206,1.27,0.364
		c-0.054,0.542-0.199,1.073-0.435,1.596c-0.136-0.056-0.274-0.111-0.414-0.168c-0.141-0.056-0.29-0.103-0.448-0.14
		s-0.337-0.067-0.536-0.091c-0.199-0.023-0.426-0.035-0.679-0.035c-0.154,0-0.31,0.014-0.469,0.042
		c-0.158,0.028-0.301,0.079-0.428,0.154c-0.126,0.074-0.23,0.185-0.312,0.329s-0.123,0.333-0.123,0.566
		c0,0.188,0.032,0.343,0.095,0.469c0.063,0.127,0.149,0.234,0.258,0.322c0.108,0.089,0.23,0.164,0.366,0.225
		c0.136,0.061,0.272,0.118,0.408,0.175l0.815,0.322c0.344,0.14,0.656,0.284,0.937,0.434c0.28,0.149,0.518,0.334,0.713,0.553
		c0.194,0.22,0.346,0.485,0.455,0.798c0.109,0.313,0.163,0.698,0.163,1.155c0,0.477-0.084,0.91-0.251,1.302
		c-0.168,0.393-0.41,0.729-0.727,1.009c-0.317,0.279-0.708,0.499-1.175,0.657c-0.466,0.159-1.003,0.238-1.609,0.238
		c-0.299,0-0.566-0.01-0.801-0.028s-0.459-0.049-0.672-0.091c-0.213-0.042-0.423-0.096-0.632-0.161
		c-0.208-0.064-0.425-0.145-0.652-0.237c0.027-0.271,0.077-0.554,0.149-0.848c0.073-0.294,0.159-0.59,0.258-0.889
		c0.38,0.159,0.738,0.277,1.073,0.357c0.335,0.079,0.692,0.118,1.073,0.118c0.57,0,1.019-0.109,1.344-0.329
		c0.326-0.219,0.489-0.553,0.489-1.001c0-0.224-0.039-0.41-0.116-0.56s-0.176-0.275-0.299-0.378
		c-0.122-0.103-0.26-0.189-0.414-0.259c-0.154-0.07-0.312-0.138-0.475-0.203L280.792,275.378z"/>
	<path fill="#60276F" d="M286.482,269.974h5.541c0.054,0.28,0.082,0.565,0.082,0.854c0,0.308-0.027,0.602-0.082,0.882h-3.558v2.184
		h2.825c0.054,0.299,0.082,0.589,0.082,0.868c0,0.299-0.027,0.593-0.082,0.882h-2.825v2.66h3.653
		c0.054,0.28,0.082,0.565,0.082,0.854c0,0.308-0.027,0.602-0.082,0.882h-5.636V269.974z"/>
	<path fill="#60276F" d="M293.693,269.974c0.28-0.056,0.547-0.084,0.801-0.084c0.271,0,0.552,0.028,0.842,0.084l3.775,6.412v-6.412
		c0.326-0.056,0.638-0.084,0.937-0.084c0.28,0,0.552,0.028,0.814,0.084v10.066c-0.289,0.056-0.553,0.084-0.787,0.084
		c-0.254,0-0.529-0.028-0.829-0.084l-3.802-6.398v6.398c-0.29,0.056-0.584,0.084-0.883,0.084s-0.589-0.028-0.869-0.084V269.974z"/>
	<path fill="#60276F" d="M304.666,271.71h-2.432c-0.054-0.28-0.081-0.574-0.081-0.882c0-0.289,0.027-0.574,0.081-0.854h6.858
		c0.055,0.28,0.082,0.565,0.082,0.854c0,0.308-0.027,0.602-0.082,0.882h-2.431v8.33c-0.163,0.019-0.326,0.035-0.489,0.049
		c-0.162,0.015-0.321,0.021-0.476,0.021c-0.153,0-0.318-0.005-0.495-0.015c-0.177-0.009-0.355-0.027-0.536-0.056V271.71z"/>
	<path fill="#60276F" d="M310.464,269.974h5.541c0.055,0.28,0.082,0.565,0.082,0.854c0,0.308-0.027,0.602-0.082,0.882h-3.559v2.184
		h2.825c0.054,0.299,0.081,0.589,0.081,0.868c0,0.299-0.027,0.593-0.081,0.882h-2.825v2.66h3.654
		c0.054,0.28,0.081,0.565,0.081,0.854c0,0.308-0.027,0.602-0.081,0.882h-5.637V269.974z"/>
	<path fill="#60276F" d="M317.675,269.974c0.281-0.056,0.548-0.084,0.802-0.084c0.271,0,0.552,0.028,0.842,0.084l3.775,6.412v-6.412
		c0.325-0.056,0.638-0.084,0.937-0.084c0.281,0,0.553,0.028,0.814,0.084v10.066c-0.289,0.056-0.552,0.084-0.787,0.084
		c-0.254,0-0.529-0.028-0.828-0.084l-3.803-6.398v6.398c-0.289,0.056-0.584,0.084-0.883,0.084s-0.588-0.028-0.869-0.084V269.974z"/>
	<path fill="#60276F" d="M328.647,271.71h-2.431c-0.054-0.28-0.081-0.574-0.081-0.882c0-0.289,0.027-0.574,0.081-0.854h6.858
		c0.054,0.28,0.081,0.565,0.081,0.854c0,0.308-0.027,0.602-0.081,0.882h-2.432v8.33c-0.162,0.019-0.326,0.035-0.488,0.049
		c-0.163,0.015-0.322,0.021-0.476,0.021s-0.319-0.005-0.495-0.015c-0.177-0.009-0.355-0.027-0.537-0.056V271.71z"/>
	<path fill="#60276F" d="M341.345,269.974c0.335-0.056,0.656-0.084,0.964-0.084c0.317,0,0.647,0.028,0.991,0.084v8.303h3.382
		c0.027,0.158,0.045,0.311,0.054,0.455c0.01,0.145,0.014,0.282,0.014,0.412c0,0.149-0.004,0.297-0.014,0.441
		c-0.009,0.145-0.026,0.297-0.054,0.455h-5.337V269.974z"/>
	<path fill="#60276F" d="M348.04,269.974h5.54c0.054,0.28,0.081,0.565,0.081,0.854c0,0.308-0.027,0.602-0.081,0.882h-3.558v2.184
		h2.824c0.055,0.299,0.082,0.589,0.082,0.868c0,0.299-0.027,0.593-0.082,0.882h-2.824v2.66h3.652
		c0.055,0.28,0.082,0.565,0.082,0.854c0,0.308-0.027,0.602-0.082,0.882h-5.635V269.974z"/>
	<path fill="#60276F" d="M355.196,269.974c0.172-0.027,0.34-0.046,0.502-0.056c0.163-0.009,0.33-0.014,0.503-0.014
		c0.153,0,0.312,0.005,0.476,0.014c0.162,0.01,0.33,0.028,0.502,0.056v5.223c0,0.569,0.021,1.057,0.061,1.463
		c0.041,0.406,0.123,0.742,0.245,1.008s0.294,0.462,0.517,0.588c0.221,0.126,0.509,0.189,0.861,0.189
		c0.354,0,0.639-0.063,0.855-0.189c0.218-0.126,0.388-0.322,0.51-0.588s0.203-0.602,0.244-1.008s0.062-0.894,0.062-1.463v-5.223
		c0.181-0.027,0.353-0.046,0.516-0.056c0.163-0.009,0.321-0.014,0.476-0.014c0.163,0,0.328,0.005,0.496,0.014
		c0.167,0.01,0.337,0.028,0.509,0.056v5.656c0,0.682-0.054,1.305-0.163,1.869c-0.108,0.564-0.303,1.048-0.584,1.449
		s-0.656,0.712-1.127,0.931c-0.471,0.22-1.068,0.329-1.793,0.329s-1.322-0.109-1.792-0.329c-0.472-0.219-0.847-0.529-1.128-0.931
		c-0.28-0.401-0.475-0.885-0.584-1.449c-0.107-0.564-0.162-1.188-0.162-1.869V269.974z"/>
	<path fill="#60276F" d="M364.458,269.974c0.397-0.046,0.771-0.086,1.119-0.118c0.35-0.033,0.736-0.05,1.162-0.05
		c0.497,0,0.988,0.047,1.473,0.141c0.484,0.093,0.922,0.259,1.311,0.497c0.389,0.237,0.704,0.56,0.943,0.966
		c0.24,0.406,0.36,0.922,0.36,1.547c0,0.373-0.046,0.702-0.136,0.987c-0.09,0.284-0.206,0.534-0.346,0.749
		c-0.141,0.215-0.293,0.398-0.455,0.553c-0.163,0.154-0.317,0.277-0.462,0.371l-0.231,0.154l2.377,4.256
		c-0.182,0.019-0.371,0.037-0.57,0.056s-0.402,0.028-0.611,0.028c-0.344,0-0.684-0.028-1.019-0.084l-2.553-4.677l0.325-0.168
		c0.127-0.064,0.281-0.148,0.463-0.252c0.181-0.103,0.354-0.23,0.522-0.385c0.167-0.154,0.31-0.341,0.428-0.56
		c0.117-0.22,0.177-0.479,0.177-0.777c0-0.588-0.164-1.02-0.489-1.295s-0.747-0.413-1.263-0.413c-0.199,0-0.381,0.014-0.543,0.042
		v8.498c-0.164,0.019-0.326,0.035-0.489,0.049c-0.163,0.015-0.321,0.021-0.476,0.021s-0.316-0.005-0.488-0.015
		c-0.172-0.009-0.35-0.027-0.529-0.056V269.974z"/>
	<path fill="#60276F" d="M374.438,275.378c-0.308-0.121-0.584-0.254-0.828-0.398c-0.244-0.146-0.453-0.317-0.625-0.519
		c-0.172-0.2-0.305-0.44-0.4-0.721s-0.143-0.616-0.143-1.008c0-0.477,0.079-0.896,0.238-1.261c0.158-0.363,0.382-0.669,0.672-0.917
		c0.289-0.247,0.638-0.434,1.045-0.56c0.408-0.126,0.865-0.189,1.372-0.189c0.462,0,0.894,0.042,1.297,0.126s0.826,0.206,1.27,0.364
		c-0.054,0.542-0.199,1.073-0.435,1.596c-0.136-0.056-0.273-0.111-0.414-0.168c-0.141-0.056-0.29-0.103-0.448-0.14
		s-0.337-0.067-0.536-0.091s-0.426-0.035-0.68-0.035c-0.154,0-0.31,0.014-0.469,0.042c-0.158,0.028-0.301,0.079-0.428,0.154
		c-0.126,0.074-0.23,0.185-0.312,0.329s-0.122,0.333-0.122,0.566c0,0.188,0.031,0.343,0.095,0.469
		c0.063,0.127,0.149,0.234,0.259,0.322c0.107,0.089,0.23,0.164,0.365,0.225c0.137,0.061,0.272,0.118,0.408,0.175l0.814,0.322
		c0.344,0.14,0.656,0.284,0.938,0.434c0.28,0.149,0.518,0.334,0.713,0.553c0.194,0.22,0.346,0.485,0.455,0.798
		c0.108,0.313,0.162,0.698,0.162,1.155c0,0.477-0.084,0.91-0.25,1.302c-0.168,0.393-0.41,0.729-0.727,1.009
		c-0.318,0.279-0.709,0.499-1.176,0.657c-0.466,0.159-1.002,0.238-1.609,0.238c-0.299,0-0.565-0.01-0.801-0.028
		s-0.459-0.049-0.672-0.091s-0.424-0.096-0.632-0.161c-0.208-0.064-0.425-0.145-0.651-0.237c0.027-0.271,0.076-0.554,0.148-0.848
		c0.073-0.294,0.159-0.59,0.259-0.889c0.38,0.159,0.737,0.277,1.073,0.357c0.334,0.079,0.691,0.118,1.072,0.118
		c0.57,0,1.019-0.109,1.344-0.329c0.326-0.219,0.49-0.553,0.49-1.001c0-0.224-0.039-0.41-0.116-0.56s-0.177-0.275-0.299-0.378
		s-0.261-0.189-0.414-0.259c-0.153-0.07-0.312-0.138-0.476-0.203L374.438,275.378z"/>
</g>
<path d="M228.634,222.631c3.586,0,6.53,2.302,6.53,6.05c0,3.104-2.089,5.729-4.176,7.763l-2.144,2.128h7.063
	c2.601-2.781,4.717-5.903,4.717-9.944c0-6.961-5.408-10.494-11.938-10.494c-6.532,0-11.511,3.159-12.529,9.85l5.569,0.483
	C222.37,224.88,224.94,222.631,228.634,222.631"/>
<polygon fill="#60276F" points="223.039,240.69 216.116,247.354 216.357,257.274 233.342,240.958 "/>
<polygon fill="#9D9D9D" points="240.315,249.761 240.398,257.252 218.779,257.252 227.154,249.695 "/>
<path d="M256.562,232.201c2.576,0,4.978,0.786,7.206,2.355c0.172,0.334,0.26,0.595,0.26,0.781v0.138c0,0.74-0.457,1.154-1.37,1.249
	h-0.069l-2.286-1.178c-1.523-0.485-2.772-0.728-3.742-0.728c-3.106,0-5.791,1.42-8.054,4.26c-1.133,1.906-1.697,3.759-1.697,5.56
	c0,3.638,1.703,6.519,5.109,8.645c1.513,0.786,3.019,1.177,4.521,1.177h0.191c1.916,0,3.856-0.614,5.819-1.837h0.398
	c0.785,0.174,1.179,0.565,1.179,1.177v0.192c0,0.923-1.461,1.819-4.383,2.685c-0.912,0.264-1.87,0.398-2.875,0.398h-0.33
	c-4.099,0-7.528-1.901-10.29-5.699c-1.303-2.194-1.956-4.439-1.956-6.739c0-4.307,1.964-7.816,5.889-10.53
	C252.186,232.836,254.345,232.201,256.562,232.201"/>
<path d="M288.97,232.201c2.575,0,4.978,0.786,7.205,2.355c0.175,0.334,0.262,0.595,0.262,0.781v0.138
	c0,0.74-0.458,1.154-1.369,1.249h-0.071l-2.286-1.178c-1.523-0.485-2.771-0.728-3.741-0.728c-3.106,0-5.791,1.42-8.054,4.26
	c-1.132,1.906-1.699,3.759-1.699,5.56c0,3.638,1.704,6.519,5.11,8.645c1.513,0.786,3.021,1.177,4.521,1.177h0.19
	c1.916,0,3.857-0.614,5.82-1.837h0.397c0.786,0.174,1.18,0.565,1.18,1.177v0.192c0,0.923-1.462,1.819-4.383,2.685
	c-0.913,0.264-1.871,0.398-2.876,0.398h-0.329c-4.099,0-7.529-1.901-10.288-5.699c-1.306-2.194-1.958-4.439-1.958-6.739
	c0-4.307,1.963-7.816,5.889-10.53C284.594,232.836,286.753,232.201,288.97,232.201"/>
<path d="M308.525,239.321c3.417,0,6.074,1.622,7.969,4.865c0.646,1.271,0.969,2.652,0.969,4.139v0.33
	c-0.148,0.868-0.559,1.299-1.23,1.299h-13.665c0.508,1.723,1.605,3.04,3.291,3.949c0.992,0.382,1.922,0.573,2.788,0.573
	c1.006,0,2.153-0.323,3.447-0.969h0.38c0.774,0.149,1.162,0.543,1.162,1.178v0.19c0,1.063-1.554,1.796-4.659,2.201h-0.451
	c-3.187,0-5.738-1.491-7.656-4.469c-0.773-1.411-1.161-2.882-1.161-4.419c0-3.243,1.537-5.83,4.609-7.758
	C305.806,239.689,307.21,239.321,308.525,239.321 M302.358,247.427h12.454c0-0.889-0.518-2.039-1.56-3.447
	c-1.42-1.34-2.822-2.009-4.208-2.009h-0.71c-2.078,0-3.786,1.015-5.127,3.047C302.746,245.826,302.464,246.63,302.358,247.427"/>
<path d="M321.552,232.357h0.259c0.783,0.161,1.178,0.506,1.178,1.038v21.134h1.367c0.565,0,0.937,0.415,1.108,1.246v0.053
	c-0.137,0.831-0.552,1.246-1.246,1.246h-2.528c-0.669,0-1.084-0.431-1.246-1.299v-21.997
	C320.546,232.831,320.915,232.357,321.552,232.357"/>
<path d="M329.743,232.357h0.261c0.786,0.161,1.178,0.506,1.178,1.038v21.134h1.367c0.566,0,0.935,0.415,1.111,1.246v0.053
	c-0.14,0.831-0.557,1.246-1.248,1.246h-2.529c-0.671,0-1.086-0.431-1.248-1.299v-21.997
	C328.74,232.831,329.108,232.357,329.743,232.357"/>
<path d="M338.769,234.799c0.831,0.208,1.246,0.577,1.246,1.109v0.38c0,0.612-0.456,0.983-1.368,1.109
	c-0.588,0-0.982-0.433-1.177-1.299C337.642,235.232,338.076,234.799,338.769,234.799 M338.769,239.233
	c0.831,0.206,1.246,0.577,1.246,1.109v15.553c0,0.646-0.415,1.04-1.246,1.178h-0.069c-0.659,0-1.067-0.433-1.229-1.297v-15.054
	C337.575,239.73,338.006,239.233,338.769,239.233"/>
<path d="M352.574,239.321c3.417,0,6.072,1.622,7.967,4.865c0.646,1.271,0.969,2.652,0.969,4.139v0.33
	c-0.148,0.868-0.562,1.299-1.228,1.299h-13.669c0.509,1.723,1.606,3.04,3.292,3.949c0.992,0.382,1.924,0.573,2.788,0.573
	c1.005,0,2.153-0.323,3.447-0.969h0.383c0.773,0.149,1.158,0.543,1.158,1.178v0.19c0,1.063-1.553,1.796-4.659,2.201h-0.448
	c-3.188,0-5.74-1.491-7.658-4.469c-0.773-1.411-1.159-2.882-1.159-4.419c0-3.243,1.535-5.83,4.606-7.758
	C349.853,239.689,351.257,239.321,352.574,239.321 M346.407,247.427h12.454c0-0.889-0.52-2.039-1.56-3.447
	c-1.42-1.34-2.824-2.009-4.208-2.009h-0.712c-2.075,0-3.787,1.015-5.127,3.047C346.795,245.826,346.511,246.63,346.407,247.427"/>
<path d="M366.377,239.215c0.832,0.208,1.246,0.58,1.246,1.108v1.438c1.906-1.697,3.945-2.547,6.114-2.547
	c1.168,0,2.409,0.284,3.727,0.85c0.346,0.357,0.518,0.703,0.518,1.038v0.071c-0.138,0.82-0.547,1.23-1.228,1.23h-0.071
	c-1.188-0.382-2.084-0.573-2.685-0.573h-0.38c-2.552,0-4.423,1.322-5.612,3.967c-0.254,0.704-0.383,1.505-0.383,2.408v7.689
	c0,0.646-0.414,1.04-1.246,1.178h-0.07c-0.655,0-1.065-0.433-1.229-1.297v-15.054C365.182,239.719,365.614,239.215,366.377,239.215"
	/>
<rect x="199.396" y="209.062" fill="none" width="181.937" height="53.685"/>
</svg>
