<?xml version="1.0" encoding="utf-8"?>
<!-- Generator: Adobe Illustrator 16.0.4, SVG Export Plug-In . SVG Version: 6.00 Build 0)  -->
<!DOCTYPE svg PUBLIC "-//W3C//DTD SVG 1.1//EN" "http://www.w3.org/Graphics/SVG/1.1/DTD/svg11.dtd">
<svg version="1.1" id="Calque_1" xmlns="http://www.w3.org/2000/svg" xmlns:xlink="http://www.w3.org/1999/xlink" x="0px" y="0px"
	 width="600px" height="600px" viewBox="0 0 600 600" enable-background="new 0 0 600 600" xml:space="preserve">
<g>
	<path fill="#9B9B9B" d="M122,195.425c0.366-0.047,0.763-0.071,1.191-0.071c0.413,0,0.794,0.023,1.146,0.071v9.636
		c0,0.977,0.061,1.811,0.184,2.504c0.122,0.693,0.321,1.256,0.596,1.688c0.275,0.434,0.637,0.754,1.088,0.957
		c0.451,0.205,1.004,0.307,1.661,0.307s1.207-0.102,1.649-0.307c0.443-0.203,0.802-0.523,1.077-0.957
		c0.275-0.432,0.474-0.994,0.596-1.688s0.184-1.527,0.184-2.504v-9.636c0.381-0.047,0.771-0.071,1.168-0.071
		c0.427,0,0.825,0.023,1.191,0.071v10.062c0,1.133-0.103,2.148-0.309,3.047c-0.206,0.896-0.542,1.652-1.008,2.268
		c-0.466,0.613-1.073,1.082-1.822,1.404c-0.748,0.322-1.657,0.484-2.726,0.484c-1.069,0-1.978-0.162-2.726-0.484
		c-0.749-0.322-1.356-0.791-1.822-1.404c-0.466-0.615-0.802-1.371-1.008-2.268c-0.206-0.898-0.309-1.914-0.309-3.047V195.425z"/>
	<path fill="#9B9B9B" d="M137.602,195.425c0.168-0.031,0.347-0.055,0.539-0.071c0.19-0.016,0.37-0.023,0.538-0.023
		s0.347,0.008,0.539,0.023c0.191,0.016,0.37,0.04,0.538,0.071l7.171,12.753v-12.753c0.184-0.031,0.374-0.055,0.573-0.071
		c0.198-0.016,0.397-0.023,0.596-0.023c0.168,0,0.344,0.008,0.527,0.023c0.184,0.016,0.359,0.04,0.527,0.071v16.982
		c-0.168,0.031-0.348,0.055-0.539,0.07c-0.191,0.016-0.371,0.023-0.539,0.023s-0.348-0.008-0.538-0.023
		c-0.191-0.016-0.371-0.039-0.539-0.07l-7.194-12.683v12.683c-0.168,0.031-0.348,0.055-0.538,0.07
		c-0.191,0.016-0.378,0.023-0.562,0.023c-0.199,0-0.394-0.008-0.584-0.023c-0.191-0.016-0.363-0.039-0.516-0.07V195.425z"/>
	<path fill="#9B9B9B" d="M153.18,195.425h9.049c0.046,0.315,0.069,0.662,0.069,1.04c0,0.173-0.004,0.354-0.011,0.543
		c-0.008,0.189-0.027,0.362-0.058,0.52h-6.712v4.866h5.361c0.03,0.156,0.053,0.326,0.069,0.508c0.015,0.181,0.023,0.357,0.023,0.531
		c0,0.173-0.008,0.354-0.023,0.543c-0.016,0.188-0.039,0.362-0.069,0.52h-5.361v5.811h6.896c0.046,0.314,0.068,0.66,0.068,1.039
		c0,0.174-0.004,0.354-0.011,0.543c-0.008,0.189-0.027,0.361-0.057,0.52h-9.233V195.425z"/>
	<path fill="#9B9B9B" d="M170.89,195.425c0.168-0.031,0.347-0.055,0.539-0.071c0.19-0.016,0.37-0.023,0.538-0.023
		s0.347,0.008,0.539,0.023c0.191,0.016,0.37,0.04,0.538,0.071l7.171,12.753v-12.753c0.184-0.031,0.374-0.055,0.573-0.071
		c0.198-0.016,0.397-0.023,0.596-0.023c0.168,0,0.344,0.008,0.527,0.023c0.184,0.016,0.359,0.04,0.527,0.071v16.982
		c-0.168,0.031-0.348,0.055-0.539,0.07c-0.191,0.016-0.371,0.023-0.539,0.023s-0.348-0.008-0.538-0.023
		c-0.191-0.016-0.371-0.039-0.539-0.07l-7.194-12.683v12.683c-0.168,0.031-0.348,0.055-0.538,0.07
		c-0.191,0.016-0.378,0.023-0.562,0.023c-0.199,0-0.394-0.008-0.584-0.023c-0.191-0.016-0.363-0.039-0.516-0.07V195.425z"/>
	<path fill="#9B9B9B" d="M192.814,212.69c-1.191,0-2.222-0.217-3.093-0.65c-0.871-0.432-1.592-1.039-2.165-1.818
		s-1-1.703-1.283-2.775c-0.283-1.07-0.424-2.242-0.424-3.518s0.141-2.449,0.424-3.52c0.283-1.07,0.71-1.996,1.283-2.775
		s1.294-1.39,2.165-1.831c0.871-0.44,1.901-0.661,3.093-0.661s2.222,0.221,3.093,0.661c0.871,0.441,1.592,1.051,2.165,1.831
		s0.997,1.705,1.271,2.775c0.275,1.071,0.412,2.245,0.412,3.52s-0.137,2.447-0.412,3.518c-0.275,1.072-0.699,1.996-1.271,2.775
		s-1.294,1.387-2.165,1.818C195.037,212.473,194.006,212.69,192.814,212.69z M192.814,210.612c0.764,0,1.424-0.154,1.981-0.461
		s1.02-0.752,1.386-1.334s0.642-1.283,0.825-2.102c0.183-0.82,0.275-1.748,0.275-2.787c0-1.023-0.092-1.949-0.275-2.775
		c-0.183-0.827-0.458-1.527-0.825-2.103c-0.367-0.575-0.829-1.016-1.386-1.323c-0.558-0.307-1.218-0.46-1.981-0.46
		c-0.764,0-1.424,0.154-1.982,0.46c-0.558,0.307-1.02,0.748-1.386,1.323c-0.367,0.575-0.642,1.275-0.825,2.103
		c-0.183,0.826-0.275,1.752-0.275,2.775c0,1.039,0.092,1.967,0.275,2.787c0.184,0.818,0.458,1.52,0.825,2.102
		c0.366,0.582,0.828,1.027,1.386,1.334S192.05,210.612,192.814,210.612z"/>
	<path fill="#9B9B9B" d="M203.009,195.425c0.366-0.047,0.763-0.071,1.191-0.071c0.413,0,0.794,0.023,1.146,0.071v9.636
		c0,0.977,0.061,1.811,0.184,2.504c0.122,0.693,0.321,1.256,0.596,1.688c0.275,0.434,0.637,0.754,1.088,0.957
		c0.451,0.205,1.004,0.307,1.661,0.307s1.207-0.102,1.649-0.307c0.443-0.203,0.802-0.523,1.077-0.957
		c0.275-0.432,0.474-0.994,0.596-1.688s0.184-1.527,0.184-2.504v-9.636c0.381-0.047,0.771-0.071,1.168-0.071
		c0.427,0,0.825,0.023,1.191,0.071v10.062c0,1.133-0.103,2.148-0.309,3.047c-0.206,0.896-0.542,1.652-1.008,2.268
		c-0.466,0.613-1.073,1.082-1.822,1.404c-0.748,0.322-1.657,0.484-2.726,0.484c-1.069,0-1.978-0.162-2.726-0.484
		c-0.749-0.322-1.356-0.791-1.822-1.404c-0.466-0.615-0.802-1.371-1.008-2.268c-0.206-0.898-0.309-1.914-0.309-3.047V195.425z"/>
	<path fill="#9B9B9B" d="M217.099,195.425c0.168-0.031,0.37-0.055,0.607-0.071c0.236-0.016,0.461-0.023,0.676-0.023
		c0.198,0,0.416,0.008,0.653,0.023c0.237,0.016,0.454,0.04,0.653,0.071l4.17,14.525l4.146-14.525
		c0.413-0.047,0.833-0.071,1.26-0.071c0.198,0,0.408,0.004,0.63,0.012c0.221,0.008,0.424,0.028,0.607,0.059l-5.361,16.982
		c-0.199,0.031-0.42,0.055-0.665,0.07s-0.473,0.023-0.687,0.023c-0.214,0-0.439-0.008-0.676-0.023
		c-0.237-0.016-0.462-0.039-0.676-0.07L217.099,195.425z"/>
	<path fill="#9B9B9B" d="M233.021,195.425h9.049c0.046,0.315,0.069,0.662,0.069,1.04c0,0.173-0.004,0.354-0.012,0.543
		s-0.027,0.362-0.058,0.52h-6.712v4.866h5.361c0.03,0.156,0.053,0.326,0.069,0.508c0.015,0.181,0.023,0.357,0.023,0.531
		c0,0.173-0.008,0.354-0.023,0.543c-0.016,0.188-0.039,0.362-0.069,0.52h-5.361v5.811h6.896c0.046,0.314,0.068,0.66,0.068,1.039
		c0,0.174-0.004,0.354-0.011,0.543c-0.008,0.189-0.027,0.361-0.058,0.52h-9.233V195.425z"/>
	<path fill="#9B9B9B" d="M245.301,195.425c0.168-0.031,0.347-0.055,0.538-0.071c0.191-0.016,0.394-0.023,0.607-0.023
		c0.198,0,0.396,0.008,0.596,0.023c0.198,0.016,0.389,0.04,0.572,0.071v14.857h6.461c0.031,0.172,0.049,0.354,0.058,0.543
		c0.007,0.188,0.011,0.361,0.011,0.52c0,0.377-0.022,0.732-0.068,1.062h-8.774V195.425z"/>
	<path fill="#9B9B9B" d="M256.642,195.425c0.168-0.031,0.347-0.055,0.538-0.071c0.19-0.016,0.394-0.023,0.606-0.023
		c0.199,0,0.397,0.008,0.596,0.023c0.199,0.016,0.39,0.04,0.573,0.071v14.857h6.46c0.031,0.172,0.05,0.354,0.059,0.543
		c0.007,0.188,0.011,0.361,0.011,0.52c0,0.377-0.022,0.732-0.069,1.062h-8.773V195.425z"/>
	<path fill="#9B9B9B" d="M267.981,195.425h9.049c0.047,0.315,0.069,0.662,0.069,1.04c0,0.173-0.004,0.354-0.011,0.543
		c-0.009,0.189-0.027,0.362-0.059,0.52h-6.712v4.866h5.36c0.031,0.156,0.054,0.326,0.069,0.508c0.015,0.181,0.022,0.357,0.022,0.531
		c0,0.173-0.008,0.354-0.022,0.543c-0.016,0.188-0.038,0.362-0.069,0.52h-5.36v5.811h6.896c0.047,0.314,0.068,0.66,0.068,1.039
		c0,0.174-0.004,0.354-0.011,0.543c-0.008,0.189-0.026,0.361-0.058,0.52h-9.232V195.425z"/>
	<path fill="#9B9B9B" d="M293.801,208.485h-6.255l-1.122,3.922c-0.198,0.031-0.397,0.055-0.596,0.07s-0.397,0.023-0.595,0.023
		c-0.215,0-0.424-0.008-0.631-0.023c-0.206-0.016-0.393-0.039-0.561-0.07l5.36-16.982c0.198-0.031,0.413-0.055,0.642-0.071
		c0.229-0.016,0.466-0.023,0.71-0.023c0.214,0,0.436,0.008,0.665,0.023c0.229,0.016,0.45,0.04,0.664,0.071l5.338,16.982
		c-0.184,0.031-0.39,0.055-0.618,0.07c-0.229,0.016-0.451,0.023-0.665,0.023c-0.198,0-0.4-0.008-0.606-0.023
		c-0.207-0.016-0.401-0.039-0.585-0.07L293.801,208.485z M288.165,206.383h5.018l-2.52-8.667L288.165,206.383z"/>
	<path fill="#9B9B9B" d="M299.825,195.425c0.168-0.031,0.348-0.055,0.539-0.071c0.19-0.016,0.37-0.023,0.538-0.023
		s0.348,0.008,0.538,0.023c0.191,0.016,0.37,0.04,0.539,0.071l7.171,12.753v-12.753c0.183-0.031,0.374-0.055,0.572-0.071
		c0.198-0.016,0.397-0.023,0.596-0.023c0.168,0,0.344,0.008,0.527,0.023c0.183,0.016,0.358,0.04,0.526,0.071v16.982
		c-0.168,0.031-0.348,0.055-0.538,0.07c-0.191,0.016-0.37,0.023-0.538,0.023c-0.169,0-0.348-0.008-0.539-0.023
		c-0.19-0.016-0.37-0.039-0.538-0.07l-7.193-12.683v12.683c-0.169,0.031-0.348,0.055-0.539,0.07
		c-0.19,0.016-0.378,0.023-0.561,0.023c-0.199,0-0.394-0.008-0.585-0.023c-0.19-0.016-0.362-0.039-0.516-0.07V195.425z"/>
	<path fill="#9B9B9B" d="M315.404,195.425c0.168-0.031,0.348-0.055,0.539-0.071c0.19-0.016,0.37-0.023,0.538-0.023
		s0.348,0.008,0.538,0.023c0.191,0.016,0.37,0.04,0.539,0.071l7.171,12.753v-12.753c0.183-0.031,0.374-0.055,0.572-0.071
		c0.198-0.016,0.397-0.023,0.596-0.023c0.168,0,0.344,0.008,0.527,0.023c0.183,0.016,0.358,0.04,0.526,0.071v16.982
		c-0.168,0.031-0.348,0.055-0.538,0.07c-0.191,0.016-0.37,0.023-0.538,0.023c-0.169,0-0.348-0.008-0.539-0.023
		c-0.19-0.016-0.37-0.039-0.538-0.07l-7.193-12.683v12.683c-0.169,0.031-0.348,0.055-0.539,0.07
		c-0.19,0.016-0.378,0.023-0.561,0.023c-0.199,0-0.394-0.008-0.585-0.023c-0.19-0.016-0.362-0.039-0.516-0.07V195.425z"/>
	<path fill="#9B9B9B" d="M330.983,195.425h9.05c0.046,0.315,0.069,0.662,0.069,1.04c0,0.173-0.004,0.354-0.012,0.543
		s-0.027,0.362-0.058,0.52h-6.713v4.866h5.361c0.03,0.156,0.054,0.326,0.068,0.508c0.016,0.181,0.023,0.357,0.023,0.531
		c0,0.173-0.008,0.354-0.023,0.543c-0.015,0.188-0.038,0.362-0.068,0.52h-5.361v5.811h6.896c0.046,0.314,0.068,0.66,0.068,1.039
		c0,0.174-0.004,0.354-0.012,0.543s-0.026,0.361-0.057,0.52h-9.233V195.425z M335.841,194.008c-0.198,0.032-0.405,0.055-0.618,0.071
		c-0.215,0.016-0.428,0.023-0.642,0.023c-0.215,0-0.413-0.007-0.596-0.023c-0.184-0.016-0.382-0.039-0.596-0.071l2.429-2.551
		c0.244-0.031,0.504-0.059,0.778-0.083c0.275-0.024,0.55-0.036,0.825-0.036c0.29,0,0.564,0.012,0.824,0.036
		c0.26,0.023,0.496,0.051,0.711,0.083L335.841,194.008z"/>
	<path fill="#9B9B9B" d="M343.263,195.425h9.05c0.046,0.315,0.069,0.662,0.069,1.04c0,0.173-0.004,0.354-0.012,0.543
		s-0.027,0.362-0.058,0.52H345.6v4.866h5.361c0.03,0.156,0.054,0.326,0.068,0.508c0.016,0.181,0.023,0.357,0.023,0.531
		c0,0.173-0.008,0.354-0.023,0.543c-0.015,0.188-0.038,0.362-0.068,0.52H345.6v5.811h6.896c0.046,0.314,0.068,0.66,0.068,1.039
		c0,0.174-0.004,0.354-0.012,0.543s-0.026,0.361-0.057,0.52h-9.233V195.425z"/>
	<path fill="#9B9B9B" d="M355.336,209.809c0.184-0.031,0.37-0.061,0.562-0.084c0.19-0.023,0.37-0.035,0.538-0.035
		c0.352,0,0.741,0.039,1.169,0.119l-1.443,5.266c-0.184,0.031-0.37,0.051-0.562,0.061c-0.191,0.008-0.37,0.012-0.538,0.012
		c-0.184,0-0.367-0.004-0.55-0.012c-0.184-0.01-0.359-0.029-0.527-0.061L355.336,209.809z"/>
</g>
</svg>
