<?xml version="1.0" encoding="utf-8"?>
<!-- Generator: Adobe Illustrator 16.0.4, SVG Export Plug-In . SVG Version: 6.00 Build 0)  -->
<!DOCTYPE svg PUBLIC "-//W3C//DTD SVG 1.1//EN" "http://www.w3.org/Graphics/SVG/1.1/DTD/svg11.dtd">
<svg version="1.1" id="Calque_1" xmlns="http://www.w3.org/2000/svg" xmlns:xlink="http://www.w3.org/1999/xlink" x="0px" y="0px"
	 width="600px" height="600px" viewBox="0 0 600 600" enable-background="new 0 0 600 600" xml:space="preserve">
<g>
	<g>
		<path fill="#FFFFFF" d="M122.228,228.425c0.553-0.071,1.153-0.107,1.799-0.107c0.623,0,1.199,0.036,1.73,0.107v14.553
			c0,1.475,0.092,2.735,0.277,3.781c0.185,1.046,0.484,1.896,0.899,2.55c0.416,0.654,0.963,1.136,1.644,1.444
			c0.68,0.31,1.517,0.464,2.508,0.464c0.991,0,1.822-0.154,2.491-0.464c0.669-0.309,1.211-0.79,1.626-1.444
			c0.415-0.654,0.714-1.504,0.899-2.55c0.184-1.046,0.277-2.306,0.277-3.781v-14.553c0.576-0.071,1.165-0.107,1.765-0.107
			c0.646,0,1.246,0.036,1.799,0.107v15.195c0,1.712-0.156,3.246-0.467,4.602c-0.312,1.355-0.819,2.497-1.522,3.424
			c-0.704,0.927-1.621,1.635-2.75,2.122c-1.13,0.487-2.503,0.731-4.118,0.731c-1.615,0-2.987-0.244-4.117-0.731
			c-1.13-0.487-2.047-1.195-2.75-2.122c-0.704-0.928-1.211-2.069-1.522-3.424s-0.467-2.889-0.467-4.602L122.228,228.425
			L122.228,228.425z"/>
		<path fill="#FFFFFF" d="M145.79,228.425c0.253-0.047,0.524-0.083,0.813-0.107c0.288-0.023,0.559-0.036,0.813-0.036
			c0.253,0,0.524,0.012,0.813,0.036c0.288,0.024,0.559,0.06,0.813,0.107l10.83,19.261v-19.261c0.277-0.047,0.565-0.083,0.865-0.107
			c0.299-0.023,0.599-0.036,0.899-0.036c0.253,0,0.519,0.012,0.796,0.036c0.277,0.024,0.542,0.06,0.795,0.107v25.646
			c-0.254,0.047-0.525,0.083-0.813,0.107c-0.289,0.023-0.56,0.036-0.813,0.036c-0.254,0-0.525-0.012-0.813-0.036
			c-0.289-0.024-0.56-0.06-0.813-0.107l-10.864-19.154v19.154c-0.254,0.047-0.525,0.083-0.813,0.107
			c-0.289,0.023-0.571,0.036-0.848,0.036c-0.3,0-0.594-0.012-0.882-0.036c-0.289-0.024-0.548-0.06-0.778-0.107V228.425z"/>
		<path fill="#FFFFFF" d="M169.317,228.425h13.667c0.069,0.476,0.104,0.999,0.104,1.569c0,0.262-0.006,0.535-0.017,0.82
			c-0.012,0.286-0.041,0.547-0.086,0.785h-10.138v7.348h8.096c0.046,0.238,0.081,0.494,0.104,0.767
			c0.022,0.274,0.035,0.542,0.035,0.803c0,0.262-0.012,0.535-0.035,0.82s-0.058,0.547-0.104,0.785h-8.096v8.775h10.415
			c0.069,0.476,0.104,0.999,0.104,1.569c0,0.262-0.006,0.535-0.017,0.82c-0.012,0.285-0.041,0.547-0.086,0.785H169.32v-25.646
			H169.317z"/>
		<path fill="#FFFFFF" d="M196.062,228.425c0.253-0.047,0.524-0.083,0.813-0.107c0.288-0.023,0.559-0.036,0.813-0.036
			c0.253,0,0.524,0.012,0.813,0.036c0.288,0.024,0.559,0.06,0.813,0.107l10.83,19.261v-19.261c0.277-0.047,0.565-0.083,0.865-0.107
			c0.299-0.023,0.599-0.036,0.899-0.036c0.253,0,0.519,0.012,0.796,0.036s0.542,0.06,0.795,0.107v25.646
			c-0.254,0.047-0.525,0.083-0.813,0.107c-0.289,0.023-0.56,0.036-0.813,0.036c-0.254,0-0.525-0.012-0.813-0.036
			c-0.289-0.024-0.56-0.06-0.813-0.107l-10.864-19.154v19.154c-0.254,0.047-0.525,0.083-0.813,0.107
			c-0.289,0.023-0.571,0.036-0.848,0.036c-0.3,0-0.594-0.012-0.882-0.036c-0.289-0.024-0.548-0.06-0.778-0.107V228.425z"/>
		<path fill="#FFFFFF" d="M229.172,254.5c-1.799,0-3.356-0.327-4.67-0.981c-1.315-0.654-2.405-1.569-3.27-2.747
			c-0.865-1.177-1.511-2.574-1.938-4.191c-0.427-1.617-0.64-3.388-0.64-5.314c0-1.926,0.213-3.697,0.64-5.315
			c0.427-1.617,1.073-3.014,1.938-4.191c0.865-1.177,1.955-2.098,3.27-2.764c1.314-0.666,2.872-0.999,4.67-0.999
			c1.799,0,3.356,0.333,4.671,0.999c1.315,0.666,2.405,1.587,3.27,2.764c0.865,1.177,1.505,2.574,1.92,4.191
			c0.415,1.618,0.623,3.389,0.623,5.315c0,1.926-0.208,3.698-0.623,5.314c-0.415,1.618-1.055,3.014-1.92,4.191
			c-0.865,1.177-1.955,2.093-3.27,2.747C232.529,254.172,230.972,254.5,229.172,254.5z M229.172,251.36
			c1.153,0,2.151-0.232,2.993-0.695c0.842-0.464,1.54-1.135,2.093-2.016c0.553-0.879,0.969-1.938,1.246-3.174
			c0.276-1.236,0.415-2.64,0.415-4.209c0-1.545-0.139-2.943-0.415-4.191c-0.277-1.249-0.692-2.307-1.246-3.175
			c-0.554-0.868-1.251-1.534-2.093-1.998c-0.842-0.463-1.84-0.695-2.993-0.695c-1.153,0-2.151,0.232-2.993,0.695
			c-0.842,0.464-1.54,1.13-2.093,1.998c-0.554,0.868-0.969,1.926-1.246,3.175c-0.277,1.248-0.415,2.646-0.415,4.191
			c0,1.569,0.138,2.973,0.415,4.209c0.277,1.237,0.692,2.295,1.246,3.174c0.554,0.88,1.251,1.552,2.093,2.016
			C227.021,251.128,228.019,251.36,229.172,251.36z"/>
		<path fill="#FFFFFF" d="M244.569,228.425c0.553-0.071,1.153-0.107,1.799-0.107c0.623,0,1.199,0.036,1.73,0.107v14.553
			c0,1.475,0.092,2.735,0.277,3.781c0.185,1.046,0.484,1.896,0.899,2.55c0.416,0.654,0.963,1.136,1.644,1.444
			c0.68,0.31,1.517,0.464,2.508,0.464c0.991,0,1.822-0.154,2.491-0.464c0.669-0.309,1.211-0.79,1.626-1.444
			c0.415-0.654,0.714-1.504,0.899-2.55c0.184-1.046,0.277-2.306,0.277-3.781v-14.553c0.576-0.071,1.165-0.107,1.765-0.107
			c0.646,0,1.246,0.036,1.799,0.107v15.195c0,1.712-0.156,3.246-0.467,4.602c-0.312,1.355-0.819,2.497-1.522,3.424
			c-0.704,0.927-1.621,1.635-2.75,2.122c-1.13,0.487-2.503,0.731-4.118,0.731c-1.615,0-2.987-0.244-4.117-0.731
			s-2.047-1.195-2.75-2.122c-0.704-0.928-1.211-2.069-1.522-3.424s-0.467-2.889-0.467-4.602L244.569,228.425L244.569,228.425z"/>
		<path fill="#FFFFFF" d="M265.847,228.425c0.253-0.047,0.559-0.083,0.917-0.107c0.357-0.023,0.697-0.036,1.021-0.036
			c0.299,0,0.628,0.012,0.986,0.036c0.357,0.024,0.686,0.06,0.986,0.107l6.297,21.937l6.263-21.937
			c0.623-0.071,1.257-0.107,1.903-0.107c0.299,0,0.617,0.006,0.952,0.018c0.334,0.012,0.64,0.042,0.917,0.089l-8.096,25.646
			c-0.3,0.047-0.635,0.083-1.003,0.107c-0.369,0.023-0.715,0.036-1.038,0.036c-0.323,0-0.664-0.012-1.021-0.036
			c-0.358-0.024-0.698-0.06-1.021-0.107L265.847,228.425z"/>
		<path fill="#FFFFFF" d="M289.893,228.425h13.666c0.07,0.476,0.105,0.999,0.105,1.569c0,0.262-0.006,0.535-0.018,0.82
			c-0.013,0.286-0.041,0.547-0.089,0.785h-10.137v7.348h8.096c0.048,0.238,0.082,0.494,0.104,0.767
			c0.023,0.274,0.035,0.542,0.035,0.803c0,0.262-0.012,0.535-0.035,0.82c-0.021,0.285-0.057,0.547-0.104,0.785h-8.096v8.775h10.414
			c0.07,0.476,0.104,0.999,0.104,1.569c0,0.262-0.007,0.535-0.019,0.82s-0.039,0.547-0.086,0.785h-13.943L289.893,228.425
			L289.893,228.425z"/>
		<path fill="#FFFFFF" d="M308.438,228.425c0.254-0.047,0.524-0.083,0.812-0.107c0.288-0.023,0.594-0.036,0.917-0.036
			c0.3,0,0.6,0.012,0.899,0.036s0.589,0.06,0.864,0.107v22.436h9.757c0.047,0.262,0.075,0.535,0.088,0.821
			c0.011,0.285,0.018,0.547,0.018,0.785c0,0.571-0.035,1.105-0.104,1.605h-13.252V228.425L308.438,228.425z"/>
		<path fill="#FFFFFF" d="M325.564,228.425c0.253-0.047,0.523-0.083,0.812-0.107c0.288-0.023,0.594-0.036,0.917-0.036
			c0.3,0,0.6,0.012,0.899,0.036s0.589,0.06,0.864,0.107v22.436h9.758c0.046,0.262,0.074,0.535,0.087,0.821
			c0.011,0.285,0.018,0.547,0.018,0.785c0,0.571-0.035,1.105-0.104,1.605h-13.251V228.425L325.564,228.425z"/>
		<path fill="#FFFFFF" d="M342.69,228.425h13.666c0.068,0.476,0.104,0.999,0.104,1.569c0,0.262-0.006,0.535-0.018,0.82
			c-0.013,0.286-0.041,0.547-0.087,0.785H346.22v7.348h8.097c0.046,0.238,0.081,0.494,0.104,0.767
			c0.023,0.274,0.035,0.542,0.035,0.803c0,0.262-0.012,0.535-0.035,0.82c-0.021,0.285-0.058,0.547-0.104,0.785h-8.097v8.775h10.414
			c0.069,0.476,0.104,0.999,0.104,1.569c0,0.262-0.006,0.535-0.019,0.82c-0.012,0.285-0.04,0.547-0.086,0.785H342.69V228.425z"/>
	</g>
	<g>
		<path fill="#FFFFFF" d="M124.609,269.209h23.271c0.118,0.81,0.177,1.7,0.177,2.672c0,0.446-0.01,0.911-0.03,1.396
			c-0.02,0.486-0.069,0.932-0.147,1.336h-17.261v12.511h13.785c0.078,0.405,0.137,0.841,0.177,1.306
			c0.039,0.466,0.059,0.921,0.059,1.367c0,0.446-0.021,0.911-0.059,1.396c-0.04,0.486-0.099,0.932-0.177,1.336h-13.785v14.94h17.732
			c0.118,0.811,0.177,1.7,0.177,2.674c0,0.444-0.01,0.909-0.03,1.396c-0.02,0.485-0.069,0.933-0.147,1.336h-23.742V269.209z
			 M137.099,265.565c-0.511,0.082-1.041,0.142-1.59,0.182c-0.551,0.041-1.1,0.061-1.649,0.061c-0.551,0-1.061-0.02-1.532-0.061
			c-0.472-0.04-0.982-0.101-1.532-0.182l6.245-6.56c0.627-0.081,1.296-0.152,2.003-0.212s1.414-0.091,2.121-0.091
			c0.746,0,1.453,0.03,2.121,0.091c0.667,0.061,1.276,0.132,1.826,0.212L137.099,265.565z"/>
		<path fill="#FFFFFF" d="M172.328,313.605c-3.063,0-5.714-0.558-7.953-1.67c-2.239-1.113-4.094-2.672-5.567-4.677
			s-2.573-4.383-3.299-7.137c-0.727-2.753-1.09-5.77-1.09-9.049c0-3.28,0.363-6.295,1.09-9.049c0.726-2.753,1.826-5.132,3.299-7.136
			c1.473-2.004,3.329-3.573,5.567-4.707c2.239-1.133,4.89-1.701,7.953-1.701s5.714,0.567,7.953,1.701
			c2.238,1.134,4.094,2.703,5.567,4.707c1.473,2.004,2.563,4.383,3.27,7.136c0.707,2.754,1.061,5.77,1.061,9.049
			c0,3.279-0.354,6.296-1.061,9.049c-0.707,2.754-1.796,5.132-3.27,7.137c-1.473,2.005-3.329,3.562-5.567,4.677
			C178.042,313.049,175.392,313.605,172.328,313.605z M172.328,308.262c1.963,0,3.662-0.396,5.096-1.186
			c1.433-0.789,2.622-1.932,3.564-3.432c0.942-1.496,1.649-3.299,2.121-5.404c0.471-2.105,0.707-4.495,0.707-7.167
			c0-2.632-0.236-5.011-0.707-7.136c-0.471-2.126-1.178-3.927-2.121-5.405c-0.943-1.478-2.131-2.612-3.564-3.401
			c-1.434-0.79-3.132-1.184-5.096-1.184c-1.964,0-3.663,0.395-5.096,1.184c-1.434,0.79-2.622,1.924-3.564,3.401
			c-0.942,1.478-1.649,3.279-2.121,5.405c-0.472,2.125-0.707,4.504-0.707,7.136c0,2.672,0.235,5.062,0.707,7.167
			c0.471,2.105,1.178,3.908,2.121,5.404c0.942,1.5,2.13,2.643,3.564,3.432C168.666,307.866,170.364,308.262,172.328,308.262z
			 M190.768,313.42c-0.04,0.932-0.128,1.854-0.265,2.764c-0.138,0.911-0.383,1.792-0.736,2.643l-13.55-2.611
			c0.078-1.135,0.196-2.064,0.354-2.794c0.156-0.729,0.392-1.539,0.707-2.429L190.768,313.42z"/>
		<path fill="#FFFFFF" d="M198.426,269.209c0.942-0.122,1.963-0.182,3.063-0.182c1.06,0,2.042,0.061,2.945,0.182v24.779
			c0,2.511,0.157,4.657,0.471,6.438c0.314,1.782,0.825,3.229,1.532,4.344c0.707,1.112,1.64,1.934,2.798,2.459
			c1.158,0.526,2.582,0.789,4.271,0.789c1.688,0,3.102-0.263,4.241-0.789c1.139-0.525,2.062-1.347,2.769-2.459
			c0.707-1.113,1.217-2.562,1.532-4.344c0.314-1.781,0.471-3.927,0.471-6.438v-24.779c0.981-0.122,1.983-0.182,3.004-0.182
			c1.099,0,2.121,0.061,3.063,0.182v25.873c0,2.915-0.265,5.527-0.795,7.834c-0.53,2.309-1.395,4.252-2.592,5.831
			c-1.199,1.579-2.76,2.784-4.684,3.614c-1.925,0.828-4.262,1.244-7.01,1.244c-2.75,0-5.087-0.416-7.011-1.244
			c-1.925-0.83-3.486-2.035-4.684-3.614c-1.198-1.579-2.062-3.522-2.592-5.831c-0.53-2.307-0.795-4.919-0.795-7.834v-25.873H198.426
			z"/>
		<path fill="#FFFFFF" d="M238.544,269.209c0.472-0.081,0.962-0.142,1.473-0.182c0.51-0.04,1.021-0.061,1.532-0.061
			c0.51,0,1.021,0.021,1.531,0.061c0.51,0.041,1.002,0.102,1.473,0.182v43.667c-0.471,0.08-0.953,0.142-1.443,0.183
			c-0.492,0.041-1.012,0.062-1.561,0.062c-0.511,0-1.031-0.021-1.562-0.062c-0.53-0.041-1.012-0.103-1.443-0.183V269.209
			L238.544,269.209z"/>
		<path fill="#FFFFFF" d="M254.922,269.148c0.589-0.081,1.286-0.161,2.091-0.243c0.805-0.081,1.65-0.152,2.533-0.212
			c0.884-0.061,1.768-0.111,2.651-0.152c0.884-0.04,1.738-0.061,2.562-0.061c2.16,0,4.212,0.223,6.156,0.668
			c1.944,0.446,3.653,1.215,5.125,2.308c1.472,1.093,2.641,2.542,3.505,4.342c0.863,1.802,1.296,4.06,1.296,6.772
			c0,2.834-0.462,5.193-1.384,7.076c-0.923,1.882-2.141,3.392-3.653,4.524c-1.512,1.134-3.231,1.934-5.155,2.399
			c-1.925,0.466-3.888,0.699-5.891,0.699c-0.747,0-1.405-0.01-1.974-0.031c-0.57-0.02-1.188-0.07-1.855-0.152v15.791
			c-0.943,0.121-1.944,0.183-3.004,0.183c-0.472,0-0.972-0.011-1.502-0.029c-0.53-0.021-1.031-0.072-1.502-0.152L254.922,269.148
			L254.922,269.148z M260.931,291.681c0.627,0.082,1.178,0.143,1.649,0.183c0.471,0.041,1.158,0.061,2.062,0.061
			c1.217,0,2.424-0.131,3.623-0.395c1.197-0.263,2.268-0.738,3.21-1.427c0.943-0.688,1.699-1.629,2.268-2.824
			c0.569-1.194,0.854-2.743,0.854-4.646c0-1.66-0.246-3.057-0.736-4.19c-0.492-1.133-1.169-2.044-2.033-2.733
			c-0.864-0.688-1.905-1.174-3.122-1.458c-1.218-0.283-2.533-0.425-3.947-0.425c-1.454,0-2.73,0.061-3.829,0.182L260.931,291.681
			L260.931,291.681z"/>
		<path fill="#FFFFFF" d="M288.266,269.209h23.27c0.119,0.81,0.178,1.7,0.178,2.672c0,0.446-0.01,0.911-0.029,1.396
			c-0.021,0.486-0.069,0.932-0.147,1.336h-17.26v12.511h13.785c0.078,0.405,0.138,0.841,0.177,1.306
			c0.039,0.466,0.059,0.921,0.059,1.367c0,0.446-0.02,0.911-0.059,1.396s-0.099,0.932-0.177,1.336h-13.785v14.94h17.732
			c0.117,0.811,0.176,1.7,0.176,2.674c0,0.444-0.01,0.909-0.028,1.396c-0.02,0.485-0.068,0.933-0.146,1.336h-23.742v-43.665H288.266
			z"/>
		<path fill="#FFFFFF" d="M318.487,312.877c-0.079-0.566-0.147-1.123-0.206-1.67c-0.06-0.547-0.088-1.104-0.088-1.67
			s0.028-1.145,0.088-1.73c0.059-0.586,0.127-1.164,0.206-1.731c0.55-0.08,1.09-0.142,1.62-0.183
			c0.529-0.039,1.068-0.061,1.619-0.061s1.101,0.021,1.649,0.061c0.55,0.041,1.1,0.103,1.649,0.183
			c0.077,0.567,0.146,1.135,0.205,1.7c0.061,0.567,0.09,1.135,0.09,1.701s-0.029,1.133-0.09,1.699
			c-0.059,0.568-0.128,1.135-0.205,1.701c-0.551,0.08-1.091,0.143-1.62,0.182c-0.53,0.041-1.07,0.062-1.62,0.062
			s-1.101-0.021-1.649-0.062C319.587,313.02,319.037,312.957,318.487,312.877z"/>
		<path fill="#FFFFFF" d="M332.685,312.877c-0.078-0.566-0.146-1.123-0.206-1.67c-0.059-0.547-0.088-1.104-0.088-1.67
			s0.029-1.145,0.088-1.73c0.06-0.586,0.128-1.164,0.206-1.731c0.551-0.08,1.091-0.142,1.62-0.183
			c0.53-0.039,1.069-0.061,1.62-0.061c0.55,0,1.101,0.021,1.649,0.061c0.55,0.041,1.1,0.103,1.648,0.183
			c0.078,0.567,0.147,1.135,0.206,1.7c0.061,0.567,0.089,1.135,0.089,1.701s-0.028,1.133-0.089,1.699
			c-0.059,0.568-0.128,1.135-0.206,1.701c-0.55,0.08-1.09,0.143-1.62,0.182c-0.529,0.041-1.069,0.062-1.619,0.062
			c-0.551,0-1.101-0.021-1.649-0.062C333.784,313.02,333.234,312.957,332.685,312.877z"/>
		<path fill="#FFFFFF" d="M346.882,312.877c-0.079-0.566-0.146-1.123-0.206-1.67c-0.059-0.547-0.088-1.104-0.088-1.67
			s0.029-1.145,0.088-1.73c0.06-0.586,0.127-1.164,0.206-1.731c0.55-0.08,1.09-0.142,1.62-0.183c0.53-0.039,1.069-0.061,1.62-0.061
			c0.55,0,1.1,0.021,1.648,0.061c0.551,0.041,1.101,0.103,1.649,0.183c0.078,0.567,0.147,1.135,0.206,1.7
			c0.06,0.567,0.089,1.135,0.089,1.701s-0.029,1.133-0.089,1.699c-0.059,0.568-0.128,1.135-0.206,1.701
			c-0.55,0.08-1.09,0.143-1.62,0.182c-0.53,0.041-1.07,0.062-1.62,0.062s-1.1-0.021-1.648-0.062
			C347.981,313.02,347.432,312.957,346.882,312.877z"/>
	</g>
</g>
</svg>
